<?xml version="1.0" encoding="UTF-8"?><svg id="Capa_1" xmlns="http://www.w3.org/2000/svg" xmlns:xlink="http://www.w3.org/1999/xlink" viewBox="0 0 72.877 69.318"><defs><linearGradient id="Degradado_sin_nombre_319" x1="36.798" y1="86.842" x2="36.356" y2="58.979" gradientUnits="userSpaceOnUse"><stop offset=".159" stop-color="#aab0d2"/><stop offset=".939" stop-color="#396570"/></linearGradient><linearGradient id="Degradado_sin_nombre_318" x1="40.274" y1="35.439" x2="67.24" y2="48.329" gradientUnits="userSpaceOnUse"><stop offset=".513" stop-color="#25575e"/><stop offset=".557" stop-color="#285960"/><stop offset=".783" stop-color="#34626c"/><stop offset="1" stop-color="#396570"/></linearGradient><linearGradient id="Degradado_sin_nombre_317" x1="-4.159" y1="69.598" x2="14.497" y2="36.188" gradientUnits="userSpaceOnUse"><stop offset=".159" stop-color="#4d6c9a"/><stop offset=".939" stop-color="#396570"/></linearGradient><linearGradient id="Degradado_sin_nombre_316" x1="14.66" y1="7.931" x2="26.023" y2="24.551" gradientUnits="userSpaceOnUse"><stop offset=".159" stop-color="#758ab2"/><stop offset=".939" stop-color="#d8d4eb"/></linearGradient><linearGradient id="Degradado_sin_nombre_190" x1="2.034" y1="5.077" x2="31.77" y2="19.888" gradientUnits="userSpaceOnUse"><stop offset=".159" stop-color="#fff" stop-opacity="0"/><stop offset=".387" stop-color="#fff" stop-opacity=".011"/><stop offset=".543" stop-color="#fff" stop-opacity=".046"/><stop offset=".677" stop-color="#fff" stop-opacity=".106"/><stop offset=".799" stop-color="#fff" stop-opacity=".19"/><stop offset=".911" stop-color="#fff" stop-opacity=".299"/><stop offset=".994" stop-color="#fff" stop-opacity=".4"/></linearGradient><linearGradient id="Degradado_sin_nombre_315" x1="38.046" y1="24.166" x2="55.006" y2="12.86" gradientUnits="userSpaceOnUse"><stop offset=".513" stop-color="#193842"/><stop offset=".562" stop-color="#1e404a"/><stop offset=".712" stop-color="#2d545f"/><stop offset=".859" stop-color="#36606b"/><stop offset="1" stop-color="#396570"/></linearGradient><linearGradient id="Degradado_sin_nombre_314" x1="22.977" y1="18.772" x2="49.647" y2="56.603" gradientUnits="userSpaceOnUse"><stop offset=".159" stop-color="#aab0d2"/><stop offset=".939" stop-color="#4d8e9a"/></linearGradient></defs><polygon points="23.672 55.617 13.86 69.318 59.179 69.318 49.214 55.617 23.672 55.617" fill="url(#Degradado_sin_nombre_319)"/><polygon points="49.202 55.611 59.179 69.318 72.877 26.181 57.095 31.319 49.202 55.611" fill="url(#Degradado_sin_nombre_318)"/><polygon points="23.675 55.622 13.86 69.318 0 26.279 15.782 31.33 23.675 55.622" fill="url(#Degradado_sin_nombre_317)"/><polygon points="15.779 31.331 0 26.279 36.443 0 36.443 16.318 15.779 31.331" fill="url(#Degradado_sin_nombre_316)"/><polygon points="15.779 31.331 0 26.279 36.443 0 36.443 16.318 15.779 31.331" fill="url(#Degradado_sin_nombre_190)"/><polygon points="57.12 31.331 72.877 26.181 36.443 0 36.456 16.318 57.12 31.331" fill="url(#Degradado_sin_nombre_315)"/><polygon points="36.443 16.312 15.779 31.325 23.672 55.617 49.214 55.617 57.107 31.325 36.443 16.312" fill="url(#Degradado_sin_nombre_314)"/><polygon points="16.57 31.664 36.443 16.312 15.779 31.325 23.672 55.617 16.57 31.664" fill="#fff"/><polygon points="48.776 54.883 23.675 55.623 49.217 55.623 57.11 31.331 48.776 54.883" fill="#182540"/><polygon points="57.328 31.679 72.877 26.181 57.095 31.319 49.202 55.611 57.328 31.679" fill="#182540"/><polygon points="48.946 55.944 58.98 69.032 49.217 55.611 23.675 55.611 48.946 55.944" fill="#182540"/><polygon points="23.26 55.479 13.913 69.067 23.661 55.634 15.768 31.342 23.26 55.479" fill="#182540"/></svg>