<?xml version="1.0" encoding="UTF-8"?>
<svg xmlns="http://www.w3.org/2000/svg" xmlns:xlink="http://www.w3.org/1999/xlink" width="100px" height="101px" viewBox="0 0 100 100" version="1.1">
<g id="surface1">
<path style=" stroke:none;fill-rule:nonzero;fill:rgb(39.215687%,65.098041%,69.411767%);fill-opacity:1;" d="M 5.3125 28.34375 C 8.332031 22.292969 12.492188 17.230469 17.742188 13.109375 C 26.425781 6.5625 36.609375 0.828125 47.472656 0.078125 L 47.605469 0.078125 C 79.292969 -1.652344 104.277344 30.441406 99.132812 60.738281 C 97.035156 75.082031 86.945312 87.96875 73.808594 94.542969 C 33.277344 116.21875 -15.941406 68.953125 5.3125 28.34375 Z M 50.175781 2.519531 C 48.328125 2.964844 46.648438 4.015625 46.175781 5.890625 L 46.175781 5.957031 C 45.714844 7.792969 46.136719 9.839844 46.4375 11.742188 C 47.632812 18.210938 48.8125 28.355469 53.589844 33.984375 C 59.664062 40.691406 69.398438 43.785156 78.941406 42.777344 C 82.234375 42.421875 93.453125 40.492188 93.675781 37.710938 C 95.027344 18.238281 61.042969 -0.851562 50.175781 2.519531 Z M 97.164062 54.21875 C 97.375 52.09375 98.109375 44.496094 94.804688 42.84375 C 92.78125 41.832031 90.238281 43.539062 88.320312 44.507812 C 77.890625 49.824219 61.488281 46.121094 53.640625 38.328125 C 49.757812 34.46875 48.128906 29.773438 45.492188 22.136719 C 42.09375 12.347656 42.710938 7.046875 38.90625 5.355469 C 35.902344 4.015625 32.449219 5.96875 26.625 9.277344 C 20.957031 12.492188 13.726562 16.597656 13.855469 21.835938 C 13.933594 24.984375 16.597656 25.507812 19.460938 30.863281 C 21.613281 34.878906 21.875 37.910156 22.777344 43.851562 C 24.5625 55.53125 25.574219 61.332031 26.832031 65.03125 C 29.390625 72.535156 35.574219 79.976562 42.332031 84.738281 C 46.777344 88.097656 51.34375 89.949219 55.886719 90.566406 C 68.363281 92.269531 78.191406 84.6875 81.601562 82.023438 C 91.746094 74.109375 96.324219 63.011719 97.179688 54.207031 Z M 11.835938 73.023438 C 20.773438 91.234375 39.613281 95.683594 43.027344 96.417969 C 45.058594 96.851562 67.15625 101.285156 77.140625 89.242188 C 78.246094 87.914062 77.101562 86.328125 74.542969 87.691406 C 72.246094 88.898438 69.625 90.277344 67.089844 91.128906 C 51.84375 97.007812 36.4375 85.722656 28.527344 73.230469 C 21.085938 61.84375 22.6875 47.855469 18.933594 35.230469 C 16.296875 27.058594 12.910156 31.296875 11.113281 37.292969 C 5.105469 57.289062 11.835938 73.023438 11.835938 73.023438 Z M 5.378906 42.761719 C 6.808594 39.140625 8.648438 34.039062 7.914062 30.035156 L 7.886719 29.984375 C 7.546875 29.183594 6.808594 29.785156 6.007812 31.425781 C 4.304688 35.085938 2.898438 41.019531 2.859375 44.929688 C 3.121094 47.738281 5.039062 43.640625 5.378906 42.777344 Z M 5.378906 42.761719 "/>
<path style=" stroke:none;fill-rule:nonzero;fill:rgb(69.01961%,84.705883%,85.882354%);fill-opacity:1;" d="M 55.871094 90.589844 C 51.332031 89.976562 46.777344 88.125 42.316406 84.765625 C 35.574219 80.003906 29.378906 72.574219 26.820312 65.058594 C 25.5625 61.355469 24.550781 55.558594 22.765625 43.878906 C 21.859375 37.921875 21.585938 34.902344 19.445312 30.886719 C 16.585938 25.535156 13.921875 25.011719 13.84375 21.859375 C 13.710938 16.625 20.941406 12.519531 26.609375 9.304688 C 32.4375 5.996094 35.886719 4.042969 38.890625 5.378906 C 42.699219 7.074219 42.082031 12.359375 45.480469 22.164062 C 48.128906 29.800781 49.757812 34.496094 53.628906 38.355469 C 61.476562 46.148438 77.875 49.847656 88.308594 44.535156 C 90.222656 43.550781 92.769531 41.84375 94.789062 42.867188 C 98.097656 44.535156 97.347656 52.132812 97.152344 54.246094 C 96.300781 63.050781 91.71875 74.148438 81.578125 82.0625 C 78.164062 84.726562 68.335938 92.324219 55.859375 90.605469 Z M 55.871094 90.589844 "/>
<path style=" stroke:none;fill-rule:nonzero;fill:rgb(100%,100%,100%);fill-opacity:1;" d="M 78.925781 42.777344 C 69.398438 43.785156 59.652344 40.691406 53.574219 33.984375 C 48.800781 28.355469 47.617188 18.210938 46.425781 11.742188 C 46.121094 9.839844 45.703125 7.792969 46.148438 5.957031 L 46.148438 5.890625 C 46.648438 4.015625 48.3125 2.980469 50.175781 2.519531 C 61.042969 -0.851562 95.027344 18.238281 93.664062 37.699219 C 93.4375 40.480469 82.207031 42.421875 78.925781 42.761719 Z M 78.925781 42.777344 "/>
<path style=" stroke:none;fill-rule:nonzero;fill:rgb(69.01961%,84.705883%,85.882354%);fill-opacity:1;" d="M 18.933594 35.230469 C 22.6875 47.855469 21.085938 61.84375 28.527344 73.230469 C 36.4375 85.722656 51.84375 96.996094 67.089844 91.128906 C 69.625 90.277344 72.246094 88.898438 74.542969 87.691406 C 77.101562 86.339844 78.246094 87.929688 77.140625 89.242188 C 67.15625 101.285156 45.058594 96.851562 43.027344 96.417969 C 39.613281 95.683594 20.773438 91.234375 11.835938 73.023438 C 11.835938 73.023438 5.105469 57.289062 11.113281 37.292969 C 12.910156 31.296875 16.296875 27.058594 18.933594 35.230469 Z M 18.933594 35.230469 "/>
<path style=" stroke:none;fill-rule:nonzero;fill:rgb(100%,100%,100%);fill-opacity:1;" d="M 6.007812 31.414062 C 6.808594 29.773438 7.546875 29.183594 7.886719 29.96875 L 7.914062 30.023438 C 8.648438 34.023438 6.808594 39.140625 5.378906 42.75 C 5.039062 43.617188 3.121094 47.710938 2.859375 44.902344 C 2.898438 40.980469 4.304688 35.0625 6.007812 31.398438 Z M 6.007812 31.414062 "/>
</g>
</svg>
