<svg width="71" height="71" viewBox="0 0 71 71" fill="none" xmlns="http://www.w3.org/2000/svg">
<path opacity="0.4" d="M35.496 67.9998C53.4431 67.9998 67.9921 53.4491 67.9921 35.4999C67.9921 17.5507 53.4431 3 35.496 3C17.549 3 3 17.5507 3 35.4999C3 53.4491 17.549 67.9998 35.496 67.9998Z" fill="#00FEFF"/>
<path d="M68 35.4999C68 17.5494 53.4523 3 35.5039 3" stroke="#00FEFF" stroke-width="5" stroke-linecap="round" stroke-linejoin="round"/>
<path d="M3 35.5C3 53.4505 17.5476 67.9999 35.496 67.9999" stroke="#00FEFF" stroke-width="5" stroke-linecap="round" stroke-linejoin="round"/>
<path d="M16.603 35.2953C15.1388 35.0513 14.5169 32.8547 15.5718 31.8154L33.3076 15.66C34.0397 15.1089 35.0395 15.0931 35.7952 15.6049L39.7627 19.195C39.8572 18.5021 39.9989 17.8487 40.7389 17.6125H49.1542C49.6658 17.6755 50.1224 18.1321 50.1933 18.6439V28.745L53.594 31.8154C54.4206 32.713 54.2631 34.3033 53.224 34.9804C53.1296 35.0434 52.61 35.2874 52.5549 35.2874H49.3273V51.5689C49.3273 52.0885 48.2489 52.4507 47.808 52.49C44.8953 52.7498 41.6127 52.2853 38.6606 52.49C38.33 52.5609 37.3775 51.9704 37.3775 51.6949V41.515H31.7725V51.6949C31.7725 51.9704 30.8279 52.5609 30.4894 52.49C27.5374 52.2932 24.2547 52.7498 21.342 52.49C20.9012 52.4507 19.8227 52.0885 19.8227 51.5689V35.2874C18.8387 35.1694 17.524 35.4449 16.5951 35.2874L16.603 35.2953Z" fill="#00FEFF"/>
</svg>
