<svg width="1920" height="1080" viewBox="0 0 1920 1080" fill="none" xmlns="http://www.w3.org/2000/svg">
<mask id="mask0_971_6264" style="mask-type:luminance" maskUnits="userSpaceOnUse" x="0" y="0" width="1920" height="1080">
<path d="M1920 0H0V1080H1920V0Z" fill="white"/>
</mask>
<g mask="url(#mask0_971_6264)">
<path d="M1938.96 970.339C1891.49 978.739 1853.6 982.229 1762.78 970.339C1328.66 914.419 773.901 890.689 393.261 943.709C199.351 970.719 165.131 925.869 -18.9688 970.339V1080H1938.15L1938.96 970.339Z" fill="#684874"/>
<path d="M1699.17 1010.63C1692.02 1008.3 1677.8 1003.28 1683.86 996.97C1698.9 980.94 1759.09 1011.54 1777.52 999.85C1778.52 992.42 1749.76 993.6 1748.51 983.47C1747.21 972.95 1762.78 970.33 1762.78 970.33C1724.27 962.56 1671.52 958.83 1629.58 954.9C1564.87 958.06 1133.76 933.83 1066.33 979.3C827.022 977.86 633.702 1003.38 420.502 1041.42C692.892 1058.97 968.682 1021.44 1240.43 1042.84C1341.93 1047.9 1446.26 1053.36 1545.9 1037.02C1602.16 1021.45 1664.07 1016.38 1725.28 1017.21C1725.28 1017.21 1706.33 1013.22 1699.17 1010.62V1010.63Z" fill="#93678D"/>
<path d="M801.312 991.63C889.612 990.88 977.752 980.25 1066.04 985.22C1142.07 988.71 1342.73 1030.58 1143.87 959.4C1205.18 960.79 1286.78 981.71 1334.23 985.35C1325.92 973.79 1279.17 959.81 1261.3 955.95C1347.02 946.76 1396.72 989.25 1464.29 1009.7C1517.54 1018.86 1509.19 1010.1 1469.05 996.42C1512.44 988.38 1563.36 986.32 1612.47 995.65C1616.2 996.52 1618.64 992.89 1615.38 991.34C1589.69 979.4 1572.18 977.25 1547.6 970.05C1560.32 961.69 1622.88 963.71 1677.14 965.51C1663.58 962.05 1590.17 958.26 1644.17 956.32C1553.42 946.53 1341.49 925.24 1277.93 929.63C1225.61 925.02 1172.88 937.49 1121.17 928.34C1116.6 928.06 1071.92 920.26 1083.39 929.8C1085.05 931.33 1088.61 933.88 1085.6 933.85C1079 933.36 1066.11 928.18 1059.14 930.45C1125.02 958.05 1013.79 937.27 991.652 935.94C993.662 937.31 1018.47 946.54 1009.34 947.75C978.872 944.06 948.312 952.9 917.052 950.5C902.572 951.14 902.252 949.82 910.482 943.65C894.232 939.6 866.922 949.46 848.002 951.15C840.292 948.9 876.412 937.4 847.912 938.96C817.812 940.25 792.522 945.24 763.942 952.11C760.872 952.83 749.772 955.68 758.252 951.81C762.072 949.69 783.472 942.96 767.582 944.62C744.152 948.85 720.242 942.66 697.382 945.21C684.302 948.13 646.052 961.54 644.392 957.72C646.362 955.94 676.732 946.73 665.362 946.27C650.872 947.05 611.712 952.6 606.742 945.69C610.242 942.93 663.732 925.03 639.712 929.85C611.722 934.32 575.032 945.81 551.022 945.54C704.692 894.65 74.6218 972.01 84.6818 1021.24C82.2018 1022.04 335.992 939.35 466.532 973.52C376.062 973.91 280.622 994.66 210.072 1029.28C350.652 1017.49 464.982 983.97 602.862 998C591.002 999.61 578.832 1000.1 566.922 1001.6C520.412 1011.68 447.882 1018.46 420.012 1041.47C522.672 1024.66 692.722 996.35 801.332 991.61L801.312 991.63Z" fill="#592758"/>
<path d="M904.961 1026.51C913.701 1022.04 855.731 1025.19 855.141 1026.23C846.401 1030.7 904.371 1027.55 904.961 1026.51Z" fill="#E0BADE"/>
<path d="M866.512 1011.06C875.432 1003.69 808.832 1006.37 807.642 1008.84C798.722 1016.21 865.322 1013.53 866.512 1011.06Z" fill="#7A5376"/>
<path d="M756.102 1028.96C758.272 1026.96 743.182 1027.21 742.702 1028.02C740.532 1030.02 755.622 1029.77 756.102 1028.96Z" fill="#7A5376"/>
<path d="M697.07 1021.78C704.06 1017.87 652.76 1018.13 652.41 1019.23C645.42 1023.14 696.72 1022.88 697.07 1021.78Z" fill="#7A5376"/>
<path d="M744.811 1008.69C750.181 1004.98 717.131 1006.44 716.291 1007.56C710.921 1011.27 743.971 1009.81 744.811 1008.69Z" fill="#E0BADE"/>
<path d="M1238.41 1028.77C1231.15 1023.48 1275.76 1026.89 1276.88 1028.42C1284.14 1033.71 1239.53 1030.3 1238.41 1028.77Z" fill="#E0BADE"/>
<path d="M1268.11 1009.64C1260.13 1001.29 1311.24 1003.19 1313.57 1006.9C1321.55 1015.25 1270.44 1013.35 1268.11 1009.64Z" fill="#7A5376"/>
<path d="M1353.37 1031.8C1351.37 1029.61 1362.89 1029.42 1363.72 1030.64C1365.72 1032.83 1354.2 1033.02 1353.37 1031.8Z" fill="#7A5376"/>
<path d="M1398.95 1022.92C1392.88 1018.46 1432.31 1018.14 1433.44 1019.77C1439.51 1024.23 1400.08 1024.55 1398.95 1022.92Z" fill="#7A5376"/>
<path d="M1362.09 1006.71C1357.37 1002.5 1382.76 1003.61 1384.11 1005.32C1388.83 1009.53 1363.43 1008.42 1362.09 1006.71Z" fill="#E0BADE"/>
<path d="M1016.21 1001.15C1008.8 1006.91 1053.38 1003.3 1054.68 1001.54C1062.09 995.779 1017.51 999.389 1016.21 1001.15Z" fill="#E0BADE"/>
<path d="M1045.91 1022.24C1037.65 1031.25 1088.65 1029.52 1091.37 1025.26C1099.64 1016.25 1048.63 1017.98 1045.91 1022.24Z" fill="#7A5376"/>
<path d="M1131.17 997.81C1129.09 1000.15 1140.56 1000.48 1141.52 999.09C1143.6 996.75 1132.13 996.42 1131.17 997.81Z" fill="#7A5376"/>
<path d="M1176.75 1007.6C1170.49 1012.41 1209.87 1012.94 1211.24 1011.08C1217.51 1006.27 1178.12 1005.74 1176.75 1007.6Z" fill="#7A5376"/>
<path d="M1139.89 1025.47C1135.02 1030.01 1160.37 1028.97 1161.91 1027.01C1166.78 1022.47 1141.43 1023.51 1139.89 1025.47Z" fill="#E0BADE"/>
<path d="M936.05 1007.52C931.15 1002.9 965.35 1003.75 966.45 1005.61C971.36 1010.23 937.15 1009.38 936.05 1007.52Z" fill="#7A5376"/>
<path d="M1684.89 979.099C1677.48 984.859 1722.06 981.249 1723.36 979.489C1730.77 973.729 1686.19 977.339 1684.89 979.099Z" fill="#E0BADE"/>
<path d="M1637.73 1005.1C1632.83 1000.48 1667.03 1001.33 1668.13 1003.19C1673.04 1007.81 1638.83 1006.96 1637.73 1005.1Z" fill="#7A5376"/>
<path d="M1505.27 1030.19C1501.73 1027.84 1530.55 1028.5 1530.67 1029.19C1534.21 1031.54 1505.39 1030.88 1505.27 1030.19Z" fill="#7A5376"/>
<path d="M1526.67 1008.58C1517.42 1004.37 1580.3 1006.41 1580.71 1007.38C1589.96 1011.59 1527.08 1009.55 1526.67 1008.58Z" fill="#E0BADE"/>
<g style="mix-blend-mode:multiply" opacity="0.31">
<path d="M1382.31 936.079C1382.31 936.079 1307.95 919.679 1370.91 952.929C1379.45 957.439 1396.43 963.939 1409.03 964.499C1428.27 965.349 1439 959.279 1423.71 948.899C1399.41 932.41 1382.31 936.069 1382.31 936.069V936.079Z" fill="black"/>
</g>
<path d="M1421.27 951.24C1420.45 942.51 1426.31 930.45 1435.59 928.79C1432.45 931.34 1428.88 942.83 1425.96 945.95C1426.8 945.05 1422.74 949.73 1421.27 951.24Z" fill="#C496C7"/>
<path d="M1414.5 953.2C1413.33 944.51 1404.93 934.26 1395.54 934.96C1399.16 936.65 1405.21 946.93 1408.75 949.23C1407.73 948.57 1412.73 952.1 1414.5 953.2Z" fill="#C496C7"/>
<path d="M1422.04 938.32C1421.72 939.02 1419.34 947.88 1419.41 948.83C1414.78 936.47 1416.02 918.12 1427.28 909.97C1423.04 914.64 1422.97 933.24 1422.04 938.31V938.32Z" fill="url(#paint0_linear_971_6264)"/>
<path d="M1417.96 942.67C1417.89 945.57 1417.46 949.54 1418.59 952.16C1414.93 950.33 1411.89 944.55 1410.91 941.02C1406.71 925.93 1392.29 920.45 1392.22 920.34C1403.98 920.65 1411.53 929.96 1416.93 939.75C1417.5 940.79 1417.96 942.79 1417.96 942.66V942.67Z" fill="url(#paint1_linear_971_6264)"/>
<path d="M1427.74 951.16C1426.72 955.53 1413.6 954.87 1411.92 953.74C1408.99 951.78 1399.87 940.97 1397.74 941.55C1403.37 940.02 1410.99 949.32 1413.94 950.92C1412.54 949.21 1410.21 941.24 1410.23 938.91C1413.25 941.87 1414.21 949 1417.89 951.37C1415.91 944.54 1416.26 933.28 1419.38 948.52C1419.6 946.97 1421.44 938.4 1422.73 937.72C1423.27 940.71 1420.85 948.5 1421.45 950.8C1425.78 944.46 1431.85 938.34 1439.88 937.24C1433.57 940.55 1429.96 944.51 1427.75 951.16H1427.74Z" fill="#7C5174"/>
<path d="M1400.4 955.769C1400.62 955.109 1401.1 954.539 1401.45 954.129C1403.22 952.069 1404.99 951.429 1406.52 951.079C1406.98 950.979 1407.64 950.849 1408.46 950.829C1408.85 950.819 1409.29 950.839 1409.79 950.939C1411.8 951.099 1414.03 951.989 1415.82 954.409C1415.96 954.599 1416.1 955.839 1416.03 955.949C1412.59 958.819 1407.48 958.629 1403.48 957.849C1402.64 957.689 1401.3 957.529 1400.53 956.409C1400.49 956.349 1400.47 956.269 1400.45 956.189L1400.4 955.789V955.769Z" fill="#6D2556"/>
<path d="M1408.46 950.82C1407.64 950.85 1406.97 950.97 1406.52 951.07C1404.99 951.42 1403.21 952.06 1401.45 954.12C1401.1 954.53 1400.63 955.1 1400.4 955.76C1400.51 955.88 1400.67 956.04 1400.9 956.16C1401.46 956.47 1401.89 956.51 1402.11 956.52C1404.85 956.69 1406.8 956.3 1406.8 956.3C1410.11 955.65 1410.55 955.28 1410.53 954.81C1410.51 954.42 1410.17 954 1409.72 953.45C1408.93 952.48 1408.3 952.27 1408.3 952.22C1408.3 952.16 1409.07 952.21 1409.91 953.17C1410.46 953.8 1410.52 954.22 1410.9 954.4C1411.28 954.58 1411.59 954.3 1412.18 953.73C1412.45 953.47 1412.81 953.09 1413.19 952.51C1412.59 952.06 1411.87 951.61 1411.06 951.28C1410.03 950.87 1409.15 950.77 1408.45 950.79L1408.46 950.82Z" fill="#BE88C6"/>
<path d="M1420.98 956.79C1420.82 956.03 1420.52 955.35 1420.07 954.74C1419.33 953.76 1418.4 952.84 1417.27 952.44H1417.26C1413.95 951.35 1410.43 954.22 1410.17 957.75C1410.01 959.41 1410.73 961.13 1411.95 962.24C1415.66 965.81 1422.16 961.92 1420.99 956.79H1420.98ZM1416.92 952.64C1417.1 952.74 1417.25 952.91 1417.25 953.13C1417.25 953.36 1417.15 953.57 1417.07 953.77C1416.77 954.46 1416.37 955.56 1415.71 956.05C1414.89 956.63 1413.77 956.7 1412.79 956.31C1412.45 956.18 1411.31 955.64 1411.36 955.33C1411.74 953.12 1415.86 951.95 1416.92 952.63V952.64ZM1410.55 957.09C1410.59 956.85 1410.71 955.98 1411.11 955.89C1411.35 955.83 1411.57 956.09 1411.75 956.26C1412.71 957.15 1414.55 957.2 1415.59 956.55C1416.1 956.23 1416.4 955.75 1416.89 954.97C1417.51 953.97 1417.59 953.36 1418.04 953.28C1418.4 953.22 1418.71 953.53 1419.24 954.07C1419.75 954.59 1420.41 955.25 1420.26 955.83C1420.17 956.18 1419.87 956.16 1419.42 956.68C1419.08 957.07 1418.98 957.4 1418.72 958.04C1418.22 959.3 1417.96 959.91 1417.72 960.29C1417.25 961.06 1416.39 961.71 1415.55 962.05C1414.99 962.3 1414.45 962.38 1413.96 962.32C1412.59 962.16 1411.75 961.03 1411.46 960.64C1410.6 959.47 1410.41 958.1 1410.55 957.09ZM1419.09 961.6C1417.65 963.38 1415.53 963.34 1415.15 963.33C1414.92 963.32 1412.46 963.19 1411.72 961.57C1411.64 961.39 1411.8 961.25 1412.04 961.47C1412.25 961.67 1412.49 961.9 1412.74 962.07C1414.2 963.16 1416.14 962.33 1417.31 961.16C1418.41 960.1 1418.61 958.49 1419.35 957.19C1419.85 956.35 1420.09 956.92 1420.12 957.64C1420.22 960.04 1419.08 961.61 1419.08 961.61L1419.09 961.6ZM1420.59 958.4C1420.53 957.96 1420.48 957.33 1420.66 956.91C1420.72 956.82 1420.78 956.91 1420.82 957.12C1420.9 957.58 1420.89 958.28 1420.79 958.72C1420.69 959.03 1420.59 958.52 1420.58 958.41L1420.59 958.4Z" fill="#64A6B1"/>
<path d="M1413.95 962.32C1414.45 962.38 1414.98 962.3 1415.54 962.05C1416.38 961.71 1417.24 961.05 1417.71 960.29C1417.94 959.91 1418.21 959.29 1418.71 958.04C1418.97 957.4 1419.08 957.07 1419.41 956.68C1419.86 956.16 1420.15 956.18 1420.25 955.83C1420.4 955.25 1419.75 954.59 1419.23 954.07C1418.7 953.54 1418.39 953.22 1418.03 953.28C1417.58 953.36 1417.5 953.97 1416.88 954.97C1416.4 955.75 1416.1 956.23 1415.58 956.55C1414.54 957.2 1412.7 957.15 1411.74 956.26C1411.56 956.1 1411.34 955.83 1411.1 955.89C1410.7 955.98 1410.58 956.85 1410.54 957.09C1410.4 958.1 1410.58 959.47 1411.45 960.64C1411.74 961.04 1412.58 962.16 1413.95 962.32Z" fill="#B0D8DB"/>
<path d="M1412.79 956.319C1413.77 956.699 1414.89 956.629 1415.71 956.059C1416.37 955.569 1416.76 954.469 1417.07 953.779C1417.15 953.579 1417.25 953.359 1417.25 953.139C1417.25 952.909 1417.1 952.749 1416.91 952.639C1415.85 951.959 1411.73 953.129 1411.35 955.339C1411.3 955.659 1412.44 956.189 1412.78 956.319H1412.79Z" fill="white"/>
<path d="M1419.35 957.18C1418.61 958.48 1418.41 960.09 1417.31 961.15C1416.13 962.32 1414.2 963.14 1412.74 962.06C1412.49 961.89 1412.25 961.66 1412.04 961.46C1411.81 961.23 1411.64 961.38 1411.72 961.56C1412.45 963.19 1414.92 963.32 1415.15 963.32C1415.53 963.33 1417.65 963.37 1419.09 961.59C1419.09 961.59 1420.23 960.02 1420.13 957.62C1420.1 956.9 1419.86 956.33 1419.36 957.17L1419.35 957.18Z" fill="#B0D8DB"/>
<path d="M1420.82 957.12C1420.78 956.92 1420.72 956.83 1420.66 956.91C1420.47 957.34 1420.53 957.96 1420.58 958.41C1420.59 958.52 1420.69 959.03 1420.79 958.72C1420.89 958.28 1420.9 957.58 1420.82 957.12Z" fill="white"/>
<path d="M1431.21 952.049C1431.12 951.629 1430.96 951.259 1430.71 950.919C1430.3 950.379 1429.79 949.869 1429.17 949.659C1427.35 949.059 1425.42 950.639 1425.27 952.579C1425.18 953.489 1425.58 954.439 1426.25 955.049C1428.3 957.009 1431.86 954.869 1431.22 952.049H1431.21ZM1428.97 949.769C1429.07 949.829 1429.15 949.919 1429.15 950.039C1429.15 950.159 1429.09 950.279 1429.05 950.389C1428.89 950.769 1428.66 951.369 1428.31 951.649C1427.86 951.969 1427.24 952.009 1426.7 951.799C1426.51 951.729 1425.89 951.429 1425.92 951.259C1426.13 950.039 1428.39 949.399 1428.98 949.779L1428.97 949.769ZM1425.47 952.209C1425.49 952.079 1425.56 951.599 1425.78 951.549C1425.91 951.519 1426.04 951.659 1426.13 951.749C1426.66 952.239 1427.67 952.269 1428.24 951.909C1428.52 951.729 1428.69 951.469 1428.95 951.039C1429.29 950.489 1429.34 950.159 1429.58 950.109C1429.77 950.079 1429.95 950.249 1430.24 950.539C1430.52 950.819 1430.89 951.189 1430.8 951.509C1430.75 951.699 1430.59 951.689 1430.34 951.979C1430.16 952.199 1430.1 952.379 1429.95 952.729C1429.67 953.419 1429.53 953.759 1429.4 953.969C1429.14 954.389 1428.67 954.749 1428.2 954.939C1427.89 955.079 1427.6 955.119 1427.32 955.089C1426.57 954.999 1426.1 954.379 1425.95 954.159C1425.48 953.519 1425.37 952.759 1425.45 952.209H1425.47ZM1430.17 954.699C1429.38 955.679 1428.21 955.659 1428.01 955.649C1427.88 955.649 1426.53 955.569 1426.13 954.679C1426.09 954.579 1426.18 954.499 1426.3 954.619C1426.42 954.729 1426.55 954.859 1426.69 954.949C1427.49 955.549 1428.56 955.099 1429.2 954.449C1429.8 953.869 1429.91 952.979 1430.32 952.269C1430.59 951.809 1430.73 952.119 1430.74 952.519C1430.8 953.839 1430.17 954.699 1430.17 954.699ZM1430.99 952.939C1430.96 952.699 1430.93 952.349 1431.03 952.119C1431.06 952.069 1431.1 952.119 1431.12 952.229C1431.17 952.479 1431.16 952.869 1431.1 953.109C1431.04 953.279 1430.99 952.999 1430.98 952.939H1430.99Z" fill="#64A6B1"/>
<path d="M1427.34 955.089C1427.61 955.119 1427.91 955.079 1428.22 954.939C1428.68 954.749 1429.16 954.389 1429.42 953.969C1429.55 953.759 1429.69 953.419 1429.97 952.729C1430.11 952.379 1430.17 952.199 1430.36 951.979C1430.61 951.699 1430.77 951.709 1430.82 951.509C1430.91 951.189 1430.54 950.829 1430.26 950.539C1429.97 950.249 1429.8 950.069 1429.6 950.109C1429.35 950.159 1429.31 950.489 1428.97 951.039C1428.7 951.469 1428.54 951.729 1428.26 951.909C1427.69 952.269 1426.68 952.239 1426.15 951.749C1426.05 951.659 1425.93 951.509 1425.8 951.549C1425.58 951.599 1425.51 952.079 1425.49 952.209C1425.41 952.759 1425.51 953.519 1425.99 954.159C1426.15 954.369 1426.61 954.999 1427.36 955.089H1427.34Z" fill="#B0D8DB"/>
<path d="M1426.7 951.789C1427.24 951.999 1427.86 951.959 1428.31 951.639C1428.67 951.369 1428.89 950.759 1429.05 950.379C1429.1 950.269 1429.15 950.149 1429.15 950.029C1429.15 949.899 1429.07 949.809 1428.97 949.759C1428.39 949.389 1426.12 950.029 1425.91 951.239C1425.88 951.409 1426.51 951.709 1426.69 951.779L1426.7 951.789Z" fill="white"/>
<path d="M1430.31 952.269C1429.9 952.989 1429.79 953.869 1429.19 954.449C1428.54 955.089 1427.48 955.549 1426.68 954.949C1426.54 954.859 1426.41 954.729 1426.29 954.619C1426.16 954.499 1426.07 954.579 1426.12 954.679C1426.53 955.569 1427.88 955.649 1428 955.649C1428.21 955.649 1429.37 955.679 1430.16 954.699C1430.16 954.699 1430.79 953.839 1430.73 952.519C1430.71 952.119 1430.58 951.809 1430.31 952.269Z" fill="#B0D8DB"/>
<path d="M1431.12 952.229C1431.1 952.119 1431.06 952.069 1431.03 952.109C1430.93 952.349 1430.96 952.689 1430.99 952.939C1430.99 952.999 1431.05 953.279 1431.11 953.109C1431.17 952.869 1431.17 952.479 1431.13 952.229H1431.12Z" fill="white"/>
<g style="mix-blend-mode:multiply" opacity="0.31">
<path d="M398.971 1069.59C404.641 1071.32 410.851 1071.26 416.671 1069.37C428.881 1065.4 459.131 1058.77 461.711 1032.46C462.991 1019.35 425.781 1028.16 409.471 1033.18C384.591 1040.83 374.621 1031.47 368.611 1044.37C364.011 1054.24 391.181 1067.22 398.981 1069.6L398.971 1069.59Z" fill="black"/>
</g>
<path d="M398.092 1049.24C399.252 1037.46 390.932 1021.2 377.752 1018.96C382.202 1022.39 387.272 1037.91 391.432 1042.11C390.232 1040.9 396.002 1047.21 398.092 1049.25V1049.24Z" fill="#C496C7"/>
<path d="M407.701 1051.87C409.361 1040.14 421.291 1026.31 434.631 1027.26C429.491 1029.54 420.891 1043.41 415.861 1046.51C417.311 1045.62 410.211 1050.38 407.701 1051.87Z" fill="#C496C7"/>
<path d="M396.991 1031.8C397.441 1032.74 400.831 1044.7 400.721 1045.98C407.301 1029.31 405.541 1004.55 389.541 993.56C395.561 999.86 395.661 1024.95 396.991 1031.8Z" fill="url(#paint2_linear_971_6264)"/>
<path d="M402.793 1037.67C402.893 1041.59 403.503 1046.94 401.893 1050.48C407.083 1048.01 411.413 1040.22 412.803 1035.45C418.763 1015.09 439.253 1007.71 439.353 1007.55C422.653 1007.96 411.923 1020.53 404.263 1033.74C403.453 1035.14 402.803 1037.84 402.793 1037.66V1037.67Z" fill="url(#paint3_linear_971_6264)"/>
<path d="M388.902 1049.12C390.352 1055.01 408.992 1054.13 411.382 1052.61C415.542 1049.96 428.492 1035.38 431.522 1036.16C423.522 1034.1 412.702 1046.64 408.512 1048.8C410.492 1046.5 413.812 1035.74 413.782 1032.6C409.492 1036.59 408.132 1046.22 402.902 1049.41C405.712 1040.2 405.212 1025 400.792 1045.57C400.472 1043.47 397.872 1031.92 396.042 1031C395.282 1035.03 398.712 1045.54 397.862 1048.65C391.702 1040.09 383.092 1031.84 371.682 1030.36C380.652 1034.83 385.772 1040.17 388.912 1049.14L388.902 1049.12Z" fill="#7C5174"/>
<path d="M427.722 1055.34C427.402 1054.45 426.732 1053.67 426.232 1053.12C423.722 1050.34 421.212 1049.48 419.032 1049C418.382 1048.86 417.442 1048.7 416.272 1048.66C415.722 1048.64 415.092 1048.68 414.382 1048.81C411.532 1049.03 408.362 1050.23 405.812 1053.49C405.602 1053.75 405.412 1055.41 405.512 1055.56C410.402 1059.44 417.652 1059.18 423.342 1058.12C424.532 1057.9 426.442 1057.69 427.532 1056.17C427.582 1056.1 427.622 1055.99 427.642 1055.87L427.712 1055.33L427.722 1055.34Z" fill="#6D2556"/>
<path d="M416.281 1048.66C417.451 1048.7 418.391 1048.86 419.041 1049C421.221 1049.48 423.741 1050.33 426.241 1053.12C426.741 1053.67 427.411 1054.44 427.731 1055.34C427.581 1055.51 427.341 1055.71 427.021 1055.88C426.221 1056.3 425.611 1056.35 425.301 1056.37C421.411 1056.59 418.641 1056.08 418.641 1056.08C413.941 1055.21 413.311 1054.7 413.341 1054.06C413.371 1053.53 413.851 1052.97 414.491 1052.23C415.611 1050.92 416.501 1050.64 416.501 1050.56C416.501 1050.48 415.411 1050.54 414.211 1051.85C413.421 1052.7 413.351 1053.26 412.811 1053.51C412.271 1053.76 411.831 1053.38 410.991 1052.61C410.611 1052.26 410.101 1051.74 409.551 1050.97C410.401 1050.36 411.431 1049.75 412.581 1049.31C414.041 1048.75 415.291 1048.62 416.291 1048.65L416.281 1048.66Z" fill="#BE88C6"/>
<path d="M398.492 1056.72C398.712 1055.7 399.142 1054.77 399.782 1053.95C400.842 1052.63 402.152 1051.38 403.762 1050.85H403.782C408.492 1049.38 413.482 1053.25 413.862 1058.02C414.092 1060.26 413.062 1062.59 411.332 1064.08C406.052 1068.89 396.832 1063.65 398.492 1056.72ZM404.272 1051.12C404.012 1051.26 403.802 1051.48 403.802 1051.78C403.802 1052.08 403.952 1052.37 404.062 1052.65C404.492 1053.58 405.052 1055.06 405.992 1055.73C407.162 1056.51 408.752 1056.6 410.142 1056.09C410.622 1055.91 412.242 1055.19 412.172 1054.77C411.632 1051.79 405.782 1050.21 404.282 1051.13L404.272 1051.12ZM413.322 1057.12C413.272 1056.79 413.092 1055.62 412.532 1055.5C412.192 1055.43 411.872 1055.78 411.622 1056C410.252 1057.2 407.642 1057.27 406.162 1056.39C405.432 1055.96 405.002 1055.31 404.312 1054.26C403.432 1052.91 403.322 1052.09 402.682 1051.98C402.172 1051.9 401.732 1052.32 400.982 1053.04C400.252 1053.74 399.312 1054.64 399.532 1055.42C399.662 1055.89 400.082 1055.87 400.722 1056.57C401.202 1057.09 401.352 1057.54 401.722 1058.4C402.442 1060.09 402.812 1060.93 403.142 1061.44C403.812 1062.47 405.032 1063.36 406.232 1063.82C407.032 1064.16 407.792 1064.26 408.492 1064.18C410.442 1063.96 411.622 1062.44 412.042 1061.91C413.272 1060.33 413.532 1058.49 413.332 1057.12H413.322ZM401.182 1063.2C403.222 1065.6 406.232 1065.55 406.772 1065.53C407.092 1065.52 410.592 1065.34 411.642 1063.15C411.762 1062.91 411.522 1062.71 411.192 1063.01C410.892 1063.28 410.552 1063.59 410.202 1063.81C408.132 1065.28 405.382 1064.17 403.712 1062.58C402.152 1061.15 401.862 1058.98 400.812 1057.22C400.102 1056.09 399.752 1056.86 399.712 1057.83C399.572 1061.07 401.182 1063.19 401.182 1063.19V1063.2ZM399.062 1058.89C399.142 1058.29 399.222 1057.45 398.962 1056.87C398.872 1056.75 398.792 1056.87 398.732 1057.15C398.612 1057.77 398.632 1058.71 398.772 1059.31C398.922 1059.72 399.052 1059.03 399.072 1058.89H399.062Z" fill="#64A6B1"/>
<path d="M408.493 1064.17C407.783 1064.25 407.033 1064.15 406.233 1063.81C405.033 1063.35 403.823 1062.47 403.143 1061.43C402.813 1060.92 402.433 1060.09 401.723 1058.39C401.363 1057.53 401.203 1057.08 400.723 1056.56C400.083 1055.86 399.663 1055.89 399.533 1055.41C399.313 1054.62 400.243 1053.73 400.983 1053.03C401.733 1052.31 402.183 1051.88 402.683 1051.97C403.323 1052.08 403.433 1052.9 404.313 1054.25C405.003 1055.3 405.423 1055.94 406.163 1056.38C407.643 1057.25 410.253 1057.18 411.623 1055.99C411.873 1055.77 412.193 1055.41 412.533 1055.49C413.093 1055.62 413.273 1056.79 413.323 1057.11C413.533 1058.47 413.263 1060.31 412.033 1061.9C411.623 1062.43 410.433 1063.95 408.483 1064.17H408.493Z" fill="#B0D8DB"/>
<path d="M410.133 1056.09C408.733 1056.6 407.153 1056.51 405.983 1055.73C405.043 1055.07 404.483 1053.58 404.053 1052.65C403.933 1052.37 403.793 1052.08 403.793 1051.79C403.793 1051.48 404.013 1051.26 404.273 1051.12C405.783 1050.2 411.623 1051.77 412.163 1054.76C412.233 1055.19 410.623 1055.91 410.133 1056.08V1056.09Z" fill="white"/>
<path d="M400.812 1057.24C401.862 1059 402.152 1061.16 403.712 1062.6C405.382 1064.18 408.132 1065.29 410.202 1063.83C410.552 1063.61 410.892 1063.3 411.192 1063.03C411.522 1062.73 411.762 1062.92 411.642 1063.17C410.602 1065.36 407.102 1065.54 406.772 1065.55C406.232 1065.57 403.222 1065.62 401.182 1063.22C401.182 1063.22 399.572 1061.11 399.712 1057.86C399.752 1056.89 400.102 1056.12 400.812 1057.25V1057.24Z" fill="#B0D8DB"/>
<path d="M398.723 1057.16C398.783 1056.88 398.873 1056.76 398.953 1056.87C399.223 1057.45 399.143 1058.29 399.063 1058.9C399.043 1059.05 398.913 1059.73 398.763 1059.32C398.613 1058.73 398.603 1057.78 398.723 1057.16Z" fill="white"/>
<path d="M383.971 1050.33C384.091 1049.76 384.331 1049.26 384.681 1048.81C385.261 1048.08 385.991 1047.4 386.871 1047.11C389.461 1046.3 392.201 1048.43 392.411 1051.05C392.541 1052.28 391.971 1053.56 391.021 1054.38C388.121 1057.03 383.051 1054.14 383.961 1050.33H383.971ZM387.151 1047.25C387.001 1047.32 386.891 1047.45 386.891 1047.61C386.891 1047.77 386.971 1047.94 387.041 1048.09C387.271 1048.6 387.591 1049.42 388.101 1049.78C388.751 1050.21 389.621 1050.26 390.381 1049.98C390.651 1049.88 391.541 1049.48 391.491 1049.25C391.201 1047.61 387.981 1046.74 387.151 1047.25ZM392.121 1050.54C392.091 1050.36 391.991 1049.72 391.681 1049.65C391.491 1049.61 391.321 1049.8 391.181 1049.93C390.431 1050.59 388.991 1050.63 388.181 1050.15C387.781 1049.91 387.541 1049.56 387.161 1048.98C386.671 1048.24 386.611 1047.79 386.261 1047.73C385.981 1047.68 385.741 1047.92 385.321 1048.31C384.921 1048.69 384.401 1049.19 384.521 1049.62C384.591 1049.88 384.821 1049.87 385.171 1050.25C385.431 1050.54 385.521 1050.78 385.721 1051.26C386.111 1052.19 386.321 1052.65 386.501 1052.93C386.871 1053.5 387.541 1053.98 388.201 1054.24C388.641 1054.43 389.061 1054.48 389.441 1054.44C390.511 1054.32 391.171 1053.49 391.391 1053.19C392.061 1052.32 392.211 1051.3 392.101 1050.56L392.121 1050.54ZM385.451 1053.89C386.571 1055.21 388.231 1055.19 388.521 1055.17C388.701 1055.17 390.621 1055.07 391.201 1053.86C391.261 1053.73 391.131 1053.62 390.951 1053.79C390.791 1053.94 390.591 1054.11 390.401 1054.23C389.261 1055.03 387.751 1054.43 386.831 1053.56C385.971 1052.77 385.811 1051.58 385.241 1050.61C384.851 1049.99 384.661 1050.41 384.641 1050.95C384.561 1052.73 385.451 1053.89 385.451 1053.89ZM384.281 1051.52C384.321 1051.19 384.371 1050.73 384.221 1050.41C384.171 1050.35 384.131 1050.41 384.091 1050.56C384.021 1050.9 384.031 1051.42 384.111 1051.74C384.191 1051.96 384.261 1051.59 384.271 1051.51L384.281 1051.52Z" fill="#64A6B1"/>
<path d="M389.461 1054.42C389.071 1054.46 388.661 1054.41 388.221 1054.22C387.561 1053.97 386.891 1053.48 386.521 1052.91C386.341 1052.63 386.131 1052.17 385.741 1051.24C385.541 1050.77 385.451 1050.52 385.191 1050.23C384.841 1049.85 384.611 1049.86 384.541 1049.6C384.421 1049.17 384.931 1048.68 385.341 1048.29C385.751 1047.89 386.001 1047.66 386.281 1047.71C386.631 1047.77 386.691 1048.22 387.181 1048.96C387.561 1049.54 387.791 1049.89 388.201 1050.13C389.011 1050.61 390.451 1050.57 391.201 1049.91C391.341 1049.79 391.511 1049.59 391.701 1049.63C392.011 1049.7 392.111 1050.34 392.141 1050.52C392.251 1051.27 392.111 1052.28 391.431 1053.15C391.211 1053.44 390.551 1054.28 389.481 1054.4L389.461 1054.42Z" fill="#B0D8DB"/>
<path d="M390.371 1049.98C389.601 1050.27 388.731 1050.21 388.091 1049.78C387.581 1049.42 387.271 1048.6 387.031 1048.09C386.961 1047.94 386.891 1047.78 386.881 1047.62C386.881 1047.45 387.001 1047.33 387.141 1047.25C387.971 1046.74 391.191 1047.61 391.481 1049.25C391.521 1049.48 390.631 1049.88 390.371 1049.98Z" fill="white"/>
<path d="M385.242 1050.62C385.822 1051.59 385.972 1052.78 386.832 1053.57C387.752 1054.44 389.262 1055.05 390.402 1054.24C390.592 1054.12 390.782 1053.95 390.952 1053.8C391.132 1053.64 391.262 1053.74 391.202 1053.87C390.622 1055.08 388.702 1055.18 388.522 1055.18C388.222 1055.18 386.572 1055.22 385.452 1053.9C385.452 1053.9 384.562 1052.74 384.642 1050.96C384.662 1050.43 384.862 1050 385.242 1050.62Z" fill="#B0D8DB"/>
<path d="M384.092 1050.57C384.122 1050.42 384.172 1050.35 384.222 1050.41C384.372 1050.73 384.322 1051.19 384.282 1051.52C384.282 1051.6 384.202 1051.98 384.122 1051.75C384.042 1051.42 384.031 1050.9 384.101 1050.57H384.092Z" fill="white"/>
<path opacity="0.39" d="M1863.83 1044.93C1863.83 1044.93 1800.21 1063.82 1758.11 1072.86C1716.01 1081.89 1479.28 1106.22 1818.93 1100.61C2158.58 1095 2135.65 1096.3 1996.24 1073.19C1856.83 1050.08 1878.94 1046.62 1863.84 1044.94L1863.83 1044.93Z" fill="black"/>
<path d="M1857.91 917.25C1844.34 894.52 1833.85 871.12 1827.34 845.37C1818.78 811.54 1817.39 776.81 1815.7 742.14C1814.07 709.04 1812.14 676.05 1808.34 643.13C1806.11 623.71 1802.55 604.36 1797.61 585.48C1795.08 575.89 1789.95 565.04 1788.99 555.45C1788.03 553.82 1787.12 552.25 1786.28 550.87C1785.44 549.48 1784.65 548.22 1783.99 547.07C1783.33 545.98 1782.72 545.02 1782.24 544.18C1781.76 543.4 1781.34 542.73 1781.03 542.25C1780.73 541.77 1780.55 541.41 1780.43 541.29C1780.43 541.23 1780.37 541.17 1780.37 541.17C1780.49 553.05 1782.72 565.11 1784.41 576.87C1787.24 597.01 1790.2 617.75 1790.86 638.07C1792.73 693.79 1787.78 749.56 1789.96 805.22C1791.29 839.65 1796.83 873.18 1802.62 907.07C1806.66 931.07 1815.34 954.71 1823 977.8C1827.1 984.49 1829.51 992.81 1832.65 1000.11L1871.97 1073.19C1879.03 1073.37 1898.14 997.69 1887.71 956.09C1875.35 945.84 1866.06 930.95 1857.92 917.32V917.26L1857.91 917.25Z" fill="#112120"/>
<path d="M1847.48 991.29C1844.34 984.05 1841.93 975.73 1837.83 968.98C1830.17 945.89 1821.49 922.25 1817.45 898.25C1811.6 864.36 1806.11 830.9 1804.79 796.4C1802.62 740.68 1807.56 684.97 1805.69 629.25C1805.57 626.48 1805.45 623.7 1805.27 620.87C1803.28 608.93 1800.75 597.11 1797.67 585.41C1795.14 575.82 1790.01 564.97 1789.05 555.38C1788.09 553.75 1787.18 552.18 1786.34 550.8C1785.5 549.41 1784.71 548.15 1784.05 547C1783.39 545.91 1782.78 544.95 1782.3 544.11C1781.82 543.33 1781.4 542.66 1781.09 542.18C1780.79 541.7 1780.61 541.34 1780.49 541.22C1780.49 541.16 1780.43 541.1 1780.43 541.1C1780.55 552.98 1782.78 565.04 1784.47 576.8C1787.3 596.94 1790.26 617.68 1790.92 638C1792.79 693.72 1787.84 749.49 1790.02 805.15C1791.35 839.58 1796.89 873.11 1802.68 907C1806.72 931 1815.4 954.64 1823.06 977.73C1827.16 984.42 1829.57 992.74 1832.71 1000.04L1872.03 1073.12C1874.26 1073.12 1877.76 1065.52 1881.14 1053.7L1847.55 991.29H1847.49H1847.48Z" fill="#091614"/>
<path d="M1868.11 836.63C1867.51 833.37 1866.9 830.18 1866.36 826.92C1865.82 823.66 1865.21 820.41 1864.67 817.21C1864.13 813.95 1863.58 810.7 1863.04 807.44C1860.33 791.16 1857.79 774.88 1855.14 758.66C1854.6 755.4 1854.05 752.15 1853.51 748.89C1853.21 747.26 1852.97 745.63 1852.67 744.01C1852.13 740.75 1851.52 737.5 1850.98 734.3C1850.38 731.04 1849.83 727.85 1849.23 724.59C1847.42 714.88 1845.49 705.23 1843.38 695.65C1842.66 692.45 1841.93 689.26 1841.21 686.06C1840.49 682.86 1839.7 679.67 1838.92 676.53C1837.35 670.2 1835.66 663.87 1833.85 657.6C1832.95 654.46 1832.04 651.33 1831.08 648.19C1829.15 641.92 1827.1 635.71 1824.87 629.56C1823.24 624.92 1821.49 620.33 1819.62 615.75C1813.53 600.49 1806.41 585.48 1798.03 570.83C1794.59 564.86 1791.58 559.67 1789.05 555.39C1790.01 565.04 1795.14 575.89 1797.67 585.42C1802.61 604.29 1806.17 623.65 1808.4 643.07C1812.2 675.99 1814.13 708.98 1815.76 742.08C1817.45 776.75 1818.84 811.42 1827.4 845.31C1833.91 871.06 1844.34 894.45 1857.97 917.19C1866.11 930.82 1875.4 945.77 1887.76 955.96C1879.68 930.63 1878.53 901.57 1876.12 875.22C1874.01 866.42 1872.14 857.61 1870.51 848.87C1869.73 844.77 1868.94 840.73 1868.16 836.63H1868.1H1868.11Z" fill="#152F2B"/>
<path d="M1874.86 907.24C1861.29 884.51 1850.8 861.11 1844.29 835.36C1835.73 801.53 1834.34 766.8 1832.65 732.13C1831.02 699.03 1829.09 666.04 1825.29 633.12C1825.17 632.03 1825.05 630.95 1824.87 629.86C1824.87 629.74 1824.81 629.62 1824.75 629.5C1823.12 624.86 1821.37 620.27 1819.5 615.69C1813.41 600.43 1806.29 585.42 1797.91 570.77C1794.47 564.8 1791.46 559.61 1788.93 555.33C1789.89 564.98 1795.02 575.83 1797.55 585.36C1802.49 604.23 1806.05 623.59 1808.28 643.01C1812.08 675.93 1814.01 708.92 1815.64 742.02C1817.33 776.69 1818.72 811.36 1827.28 845.25C1833.79 871 1844.22 894.39 1857.85 917.13C1865.99 930.76 1875.28 945.71 1887.64 955.9C1883.54 943 1881.19 929.13 1879.62 915.08C1877.93 912.43 1876.36 909.71 1874.8 907.12L1874.86 907.24Z" fill="#244640"/>
<path d="M1888.24 793.33C1888.06 794.23 1887.82 795.08 1887.64 795.98C1887.82 795.08 1888.06 794.17 1888.24 793.33Z" fill="#2C453E"/>
<path d="M1888.85 790.86C1888.67 791.7 1888.49 792.49 1888.25 793.33C1888.43 792.49 1888.61 791.7 1888.85 790.86Z" fill="#416057"/>
<path d="M1887.64 796.04C1887.28 797.67 1886.86 799.3 1886.49 800.92C1886.85 799.29 1887.21 797.66 1887.64 796.04Z" fill="#416057"/>
<path d="M1869.25 667.36C1867.56 663.32 1865.45 658.74 1863.22 653.97C1862.68 652.95 1855.14 638.11 1847.3 621.53C1847 620.93 1846.7 620.26 1846.34 619.54C1845.98 618.88 1845.56 618.09 1845.13 617.37C1844.47 616.22 1843.68 615.02 1842.9 613.69C1841.81 611.94 1840.55 610.13 1839.22 608.14C1838.86 607.66 1838.56 607.18 1838.19 606.63C1837.71 605.91 1837.16 605.18 1836.68 604.46C1835.72 603.13 1834.75 601.75 1833.73 600.36C1832.7 598.97 1831.68 597.59 1830.59 596.14C1830.23 595.66 1829.87 595.18 1829.5 594.69C1828.41 593.24 1827.33 591.8 1826.18 590.35C1825.52 589.51 1824.91 588.72 1824.25 587.88C1823.1 586.43 1821.96 584.93 1820.75 583.48C1819.85 582.33 1818.88 581.19 1817.98 580.04C1817.5 579.5 1817.08 578.89 1816.59 578.35C1815.93 577.51 1815.26 576.72 1814.54 575.88C1814.06 575.28 1813.51 574.67 1813.03 574.01C1812.61 573.53 1812.19 572.98 1811.76 572.5C1810.8 571.35 1809.83 570.21 1808.87 569.06C1808.21 568.28 1807.54 567.49 1806.88 566.71C1805.49 565.14 1804.17 563.57 1802.84 562.07C1801.94 561.04 1801.09 560.08 1800.25 559.12C1798.5 557.19 1796.87 555.38 1795.31 553.69C1794.1 552.42 1792.96 551.22 1791.87 550.13C1791.33 549.59 1790.78 549.04 1790.3 548.5C1789.46 547.66 1788.43 546.87 1787.59 546.15C1785.24 544.22 1780.72 541.21 1780.41 540.96L1780.47 541.08C1780.59 541.26 1780.77 541.56 1781.07 542.04C1781.37 542.52 1781.79 543.19 1782.28 543.97C1782.77 544.75 1783.37 545.72 1784.03 546.86C1784.69 547.95 1785.48 549.21 1786.32 550.66C1787.16 552.05 1788.07 553.55 1789.03 555.24V555.18C1792.17 560.49 1795.78 566.82 1798.01 570.62C1823.03 613.85 1835.15 655.7 1845.65 700.08C1857.29 749.22 1860.85 798.37 1870.43 848.66C1871.21 852.64 1872 856.62 1872.84 860.6C1873.87 865.42 1874.95 870.25 1876.04 875.01V868.2C1876.04 866.99 1876.1 865.79 1876.16 864.64C1876.16 864.04 1876.22 863.37 1876.28 862.77C1876.34 861.62 1876.4 860.48 1876.52 859.33C1876.52 858.73 1876.58 858.12 1876.64 857.52C1876.76 856.19 1876.88 854.93 1877 853.6C1877 853.18 1877.06 852.7 1877.12 852.27C1877.3 850.52 1877.48 848.77 1877.72 847.02C1877.72 846.6 1877.84 846.18 1877.9 845.75C1878.08 844.42 1878.26 843.04 1878.44 841.71C1878.5 841.11 1878.62 840.44 1878.74 839.84C1878.92 838.69 1879.1 837.55 1879.28 836.4C1879.4 835.74 1879.46 835.07 1879.58 834.41C1879.76 833.26 1880 832.06 1880.18 830.91C1880.3 830.31 1880.36 829.7 1880.48 829.1C1880.78 827.59 1881.02 826.09 1881.32 824.58C1881.32 824.34 1881.38 824.1 1881.44 823.86C1881.8 822.11 1882.1 820.36 1882.47 818.61C1882.59 818.01 1882.71 817.4 1882.83 816.8C1883.07 815.65 1883.31 814.45 1883.55 813.3C1883.67 812.58 1883.85 811.91 1883.97 811.19C1884.21 810.1 1884.45 809.02 1884.69 807.93C1884.87 807.27 1884.99 806.54 1885.17 805.88C1885.41 804.73 1885.65 803.59 1885.95 802.5C1886.07 801.9 1886.25 801.29 1886.37 800.69C1886.73 799.06 1887.09 797.43 1887.52 795.81C1887.7 794.91 1887.94 794 1888.12 793.16C1888.3 792.32 1888.48 791.53 1888.72 790.69C1889.2 788.64 1889.68 786.59 1890.17 784.54V784.36C1887.58 736.96 1893.79 722.07 1869.13 667.2L1869.19 667.32L1869.25 667.36Z" fill="#416057"/>
<path d="M1824.81 629.56C1827.04 635.71 1829.09 641.98 1831.02 648.19C1831.98 651.33 1832.89 654.46 1833.79 657.6C1835.6 663.87 1837.29 670.2 1838.86 676.53C1839.64 679.73 1840.43 682.86 1841.15 686.06C1841.87 689.26 1842.6 692.45 1843.32 695.65C1845.43 705.24 1847.36 714.89 1849.17 724.59C1849.77 727.85 1850.38 731.04 1850.92 734.3C1851.52 737.56 1852.07 740.75 1852.61 744.01C1852.91 745.64 1853.15 747.27 1853.45 748.89C1853.99 752.15 1854.54 755.4 1855.08 758.66C1857.73 774.88 1860.33 791.22 1862.98 807.44C1863.52 810.7 1864.07 813.95 1864.61 817.21C1865.15 820.47 1865.76 823.72 1866.3 826.92C1866.84 830.12 1867.45 833.37 1868.05 836.63C1868.83 840.73 1869.62 844.83 1870.4 848.87C1860.75 798.58 1857.25 749.44 1845.62 700.29C1835.13 655.91 1822.95 614.06 1797.98 570.83C1806.36 585.48 1813.48 600.44 1819.57 615.69C1821.38 620.27 1823.13 624.86 1824.82 629.5V629.56H1824.81Z" fill="#416057"/>
<path d="M1869.55 667.24C1860.93 648 1843.56 609.29 1824.57 587.89C1810.88 572.21 1797.8 552.13 1780.37 541.16C1781.03 542.25 1782.3 544.17 1783.87 546.89C1791.41 559.37 1806.3 586.33 1809.26 592.3C1818.18 603.7 1828.13 615.52 1835.19 628.12C1847.73 650.37 1869.8 684.56 1877.82 733.1C1881.44 754.93 1884.03 770.67 1879.93 791.17C1876.67 807.33 1871.43 815.77 1870.34 833.26C1869.19 850.93 1873.05 865.58 1876.43 875.17C1876.55 865.94 1877.15 851.95 1879.87 835.25C1882.95 816.38 1886.08 810.11 1888.79 796.06C1894.16 768.32 1891.08 745.71 1889.27 732.69C1885.65 706.28 1878.72 687.77 1869.55 667.33V667.27V667.24Z" fill="#689285"/>
<path d="M1894.76 984.12C1902.24 971.64 1907.97 958.79 1911.52 944.62C1916.22 926.05 1916.95 906.99 1917.91 887.94C1918.81 869.73 1919.9 851.64 1921.95 833.55C1923.16 822.88 1925.15 812.26 1927.86 801.89C1929.25 796.64 1932.08 790.67 1932.62 785.37C1933.16 784.47 1933.65 783.62 1934.13 782.84C1934.61 782.06 1935.03 781.39 1935.4 780.79C1935.76 780.19 1936.06 779.64 1936.36 779.22C1936.66 778.8 1936.84 778.44 1937.02 778.13C1937.2 777.89 1937.32 777.71 1937.38 777.59V777.53C1937.38 784.04 1936.05 790.68 1935.15 797.13C1933.58 808.23 1931.95 819.56 1931.59 830.78C1930.56 861.41 1933.28 891.98 1932.07 922.62C1931.35 941.55 1928.33 959.95 1925.08 978.58C1922.85 991.79 1918.09 1004.75 1913.86 1017.41C1911.63 1021.09 1910.3 1025.67 1908.55 1029.65L1886.96 1069.81C1883.1 1069.93 1870.92 1029.65 1876.65 1006.8C1883.46 1001.19 1890.22 991.66 1894.68 984.19L1894.74 984.13L1894.76 984.12Z" fill="#112120"/>
<path d="M1900.49 1024.82C1902.24 1020.84 1903.57 1016.26 1905.8 1012.58C1910.02 999.92 1914.78 986.89 1917.02 973.75C1920.22 955.12 1923.23 936.73 1924.01 917.79C1925.22 887.16 1922.5 856.59 1923.53 825.95C1923.53 824.44 1923.65 822.87 1923.77 821.37C1924.86 814.8 1926.24 808.28 1927.93 801.89C1929.32 796.64 1932.15 790.67 1932.69 785.37C1933.23 784.47 1933.72 783.62 1934.2 782.84C1934.68 782.06 1935.1 781.39 1935.47 780.79C1935.84 780.19 1936.13 779.64 1936.43 779.22C1936.73 778.8 1936.91 778.44 1937.09 778.13C1937.27 777.89 1937.39 777.71 1937.45 777.59V777.53C1937.45 784.04 1936.12 790.68 1935.22 797.13C1933.65 808.23 1932.02 819.56 1931.66 830.78C1930.63 861.41 1933.35 891.98 1932.14 922.62C1931.42 941.55 1928.4 959.95 1925.15 978.58C1922.92 991.79 1918.16 1004.75 1913.93 1017.41C1911.7 1021.09 1910.37 1025.67 1908.62 1029.65L1887.03 1069.81C1885.82 1069.81 1883.67 1066.13 1881.8 1059.62L1900.47 1024.83L1900.49 1024.82Z" fill="#091614"/>
<path d="M1889.15 939.86C1889.45 938.11 1889.81 936.3 1890.11 934.49C1890.41 932.68 1890.71 930.93 1891.01 929.12C1891.31 927.31 1891.61 925.56 1891.91 923.75C1893.42 914.83 1894.8 905.9 1896.25 896.92C1896.55 895.11 1896.85 893.36 1897.15 891.55C1897.27 890.65 1897.45 889.74 1897.63 888.9C1897.93 887.09 1898.23 885.34 1898.53 883.53C1898.83 881.78 1899.19 879.97 1899.49 878.22C1900.45 872.91 1901.54 867.61 1902.69 862.3C1903.05 860.55 1903.47 858.8 1903.9 857.05C1904.32 855.3 1904.74 853.55 1905.17 851.8C1906.01 848.3 1906.98 844.87 1907.94 841.37C1908.42 839.62 1908.97 837.93 1909.51 836.18C1910.6 832.74 1911.68 829.31 1912.89 825.93C1913.79 823.4 1914.76 820.86 1915.78 818.33C1919.1 809.95 1923.02 801.69 1927.66 793.67C1929.53 790.35 1931.22 787.52 1932.6 785.23C1932.06 790.54 1929.22 796.51 1927.84 801.75C1925.13 812.12 1923.2 822.73 1921.93 833.41C1919.82 851.5 1918.79 869.65 1917.89 887.8C1916.99 906.85 1916.2 925.91 1911.5 944.48C1907.94 958.65 1902.21 971.49 1894.74 983.98C1890.28 991.46 1885.15 999.66 1878.4 1005.27C1882.86 991.4 1883.47 975.36 1884.79 960.89C1885.94 956.07 1886.96 951.24 1887.87 946.42C1888.29 944.19 1888.71 941.96 1889.14 939.67V939.85L1889.15 939.86Z" fill="#152F2B"/>
<path d="M1885.47 978.63C1892.95 966.15 1898.68 953.3 1902.23 939.13C1906.93 920.56 1907.66 901.5 1908.62 882.45C1909.52 864.24 1910.61 846.15 1912.66 828.06C1912.72 827.46 1912.78 826.85 1912.9 826.25C1912.9 826.19 1912.9 826.13 1912.96 826.07C1913.86 823.54 1914.83 821 1915.85 818.47C1919.17 810.09 1923.09 801.83 1927.73 793.81C1929.6 790.49 1931.29 787.66 1932.67 785.37C1932.13 790.68 1929.29 796.65 1927.91 801.89C1925.2 812.26 1923.27 822.87 1922 833.55C1919.89 851.64 1918.86 869.79 1917.96 887.94C1917.06 906.99 1916.27 926.05 1911.57 944.62C1908.01 958.79 1902.28 971.63 1894.81 984.12C1890.35 991.6 1885.22 999.8 1878.47 1005.41C1880.76 998.29 1882.03 990.7 1882.87 982.98C1883.77 981.53 1884.68 980.03 1885.52 978.58L1885.46 978.64L1885.47 978.63Z" fill="#244640"/>
<path d="M1920.14 794.84C1920.14 794.84 1919.66 795.38 1919.42 795.68C1919.66 795.38 1919.9 795.14 1920.14 794.84Z" fill="#2C453E"/>
<path d="M1918.57 796.65C1918.21 797.07 1917.85 797.55 1917.42 798.04C1917.78 797.56 1918.14 797.14 1918.57 796.65Z" fill="#2C453E"/>
<path d="M1915.86 818.48C1919.18 810.1 1923.1 801.84 1927.74 793.82C1923.16 801.84 1919.24 810.1 1915.86 818.48Z" fill="#2C453E"/>
<path d="M1915.2 800.87C1914.54 801.65 1913.93 802.5 1913.27 803.28C1913.87 802.5 1914.54 801.65 1915.2 800.87Z" fill="#416057"/>
<path d="M1888.55 846.88C1889.45 844.65 1890.6 842.18 1891.87 839.52C1892.17 838.98 1896.33 830.84 1900.61 821.67L1901.15 820.58C1901.33 820.22 1901.57 819.8 1901.81 819.37C1902.17 818.77 1902.59 818.04 1903.02 817.32C1903.62 816.36 1904.29 815.33 1905.01 814.31C1905.19 814.07 1905.37 813.77 1905.55 813.53C1905.79 813.17 1906.09 812.75 1906.39 812.32C1906.93 811.6 1907.42 810.87 1908.02 810.09C1908.56 809.31 1909.17 808.58 1909.71 807.8C1909.89 807.56 1910.13 807.26 1910.31 807.02C1910.91 806.24 1911.52 805.45 1912.12 804.61C1912.48 804.19 1912.84 803.71 1913.21 803.28C1913.81 802.5 1914.48 801.65 1915.14 800.87C1915.62 800.27 1916.17 799.6 1916.65 799C1916.89 798.7 1917.13 798.4 1917.43 798.04C1917.79 797.56 1918.15 797.14 1918.58 796.65C1918.88 796.29 1919.12 795.99 1919.42 795.63C1919.66 795.33 1919.9 795.09 1920.14 794.79C1920.68 794.13 1921.23 793.52 1921.71 792.92C1922.07 792.5 1922.43 792.08 1922.8 791.65C1923.52 790.75 1924.31 789.9 1925.03 789.12C1925.51 788.58 1925.99 788.03 1926.48 787.49C1927.44 786.46 1928.35 785.44 1929.19 784.54C1929.85 783.82 1930.46 783.21 1931.06 782.55C1931.36 782.25 1931.66 781.95 1931.9 781.65C1932.38 781.17 1932.93 780.75 1933.35 780.38C1934.68 779.35 1937.15 777.67 1937.27 777.55V777.61C1937.27 777.73 1937.09 777.91 1936.91 778.15C1936.73 778.39 1936.55 778.75 1936.25 779.24C1935.95 779.66 1935.65 780.2 1935.29 780.81C1934.93 781.42 1934.51 782.14 1934.02 782.86C1933.54 783.64 1933.06 784.43 1932.51 785.39C1930.82 788.34 1928.77 791.78 1927.57 793.89C1913.82 817.65 1907.19 840.62 1901.4 865.04C1895.01 892.05 1893.08 919.07 1887.77 946.69C1887.35 948.86 1886.87 951.09 1886.44 953.26C1885.9 955.91 1885.29 958.57 1884.69 961.16V957.42C1884.69 956.76 1884.69 956.09 1884.63 955.43V954.4C1884.63 953.8 1884.57 953.13 1884.51 952.47C1884.51 952.11 1884.51 951.81 1884.45 951.45C1884.45 950.73 1884.33 950 1884.27 949.28C1884.27 949.04 1884.27 948.8 1884.21 948.56C1884.09 947.6 1884.03 946.63 1883.91 945.67C1883.91 945.43 1883.85 945.19 1883.85 945.01C1883.73 944.29 1883.67 943.56 1883.55 942.78C1883.55 942.42 1883.43 942.12 1883.37 941.75C1883.25 941.15 1883.19 940.48 1883.07 939.88C1883.07 939.52 1882.95 939.16 1882.89 938.79C1882.77 938.13 1882.65 937.52 1882.59 936.86C1882.59 936.56 1882.47 936.2 1882.41 935.9C1882.29 935.06 1882.11 934.21 1881.93 933.43C1881.93 933.31 1881.93 933.19 1881.87 933.07C1881.69 932.11 1881.51 931.14 1881.33 930.18C1881.27 929.88 1881.21 929.52 1881.15 929.22C1881.03 928.56 1880.91 927.95 1880.73 927.29C1880.67 926.93 1880.55 926.51 1880.49 926.14C1880.37 925.54 1880.25 924.93 1880.13 924.33C1880.07 923.97 1879.95 923.55 1879.89 923.18C1879.77 922.58 1879.59 921.91 1879.47 921.31C1879.41 920.95 1879.29 920.65 1879.23 920.28C1879.05 919.38 1878.81 918.47 1878.63 917.57C1878.51 917.09 1878.39 916.61 1878.27 916.12C1878.15 915.64 1878.03 915.22 1877.97 914.73C1877.73 913.58 1877.43 912.5 1877.19 911.35V911.23C1878.64 885.18 1875.2 877.04 1888.77 846.83L1888.59 846.89L1888.55 846.88Z" fill="#416057"/>
<path d="M1912.97 826.07C1911.76 829.45 1910.62 832.88 1909.59 836.32C1909.05 838.01 1908.56 839.76 1908.02 841.51C1907.06 844.95 1906.09 848.44 1905.25 851.94C1904.83 853.69 1904.41 855.44 1903.98 857.19C1903.55 858.94 1903.2 860.69 1902.77 862.44C1901.62 867.69 1900.54 872.99 1899.57 878.36C1899.27 880.11 1898.91 881.92 1898.61 883.67C1898.31 885.42 1898.01 887.23 1897.71 889.04C1897.53 889.94 1897.41 890.85 1897.23 891.69C1896.93 893.5 1896.63 895.25 1896.33 897.06C1894.88 905.98 1893.44 914.91 1891.99 923.89C1891.69 925.7 1891.39 927.45 1891.09 929.26C1890.79 931.07 1890.49 932.82 1890.19 934.63C1889.89 936.44 1889.53 938.19 1889.23 940C1888.81 942.23 1888.39 944.46 1887.96 946.75C1893.27 919.13 1895.2 892.12 1901.59 865.1C1907.38 840.74 1914.01 817.7 1927.76 793.95C1923.18 801.97 1919.26 810.23 1915.88 818.61C1914.85 821.14 1913.95 823.68 1912.99 826.21V826.09L1912.97 826.07Z" fill="#416057"/>
<path d="M1888.37 846.82C1893.07 836.27 1902.66 814.98 1913.09 803.22C1920.63 794.6 1927.8 783.56 1937.39 777.53C1937.03 778.13 1936.36 779.22 1935.46 780.67C1931.3 787.48 1923.1 802.32 1921.53 805.57C1916.65 811.84 1911.16 818.35 1907.3 825.23C1900.43 837.47 1888.31 856.22 1883.9 882.88C1881.91 894.88 1880.46 903.5 1882.75 914.78C1884.5 923.64 1887.39 928.29 1888.06 937.94C1888.66 947.65 1886.55 955.67 1884.68 960.97C1884.68 955.9 1884.26 948.25 1882.81 939.02C1881.12 928.65 1879.43 925.21 1877.93 917.49C1874.98 902.23 1876.66 889.81 1877.69 882.64C1879.68 868.11 1883.48 857.98 1888.54 846.7L1888.36 846.82H1888.37Z" fill="#689285"/>
<path d="M1831.38 966.33C1819.56 951.13 1809.91 935.16 1802.92 917.19C1793.75 893.49 1789.65 868.59 1785.31 843.69C1781.15 819.93 1776.81 796.29 1771.14 772.84C1767.76 759.03 1763.48 745.34 1758.24 732.2C1755.59 725.51 1750.88 718.15 1749.32 711.28C1748.48 710.19 1747.69 709.17 1746.97 708.2C1746.25 707.24 1745.58 706.39 1744.98 705.67C1744.38 704.95 1743.89 704.28 1743.47 703.74C1743.05 703.2 1742.69 702.78 1742.44 702.47C1742.2 702.17 1742.02 701.93 1741.9 701.81L1741.84 701.75C1742.99 710.31 1745.7 718.81 1747.93 727.14C1751.79 741.43 1755.77 756.14 1758.06 770.74C1764.39 810.84 1765.78 851.48 1772.35 891.52C1776.39 916.24 1783.38 940 1790.62 963.88C1795.69 980.88 1804.07 997.17 1811.66 1013.14C1815.22 1017.6 1817.69 1023.39 1820.64 1028.4L1855.55 1077.66C1860.68 1077.18 1870.08 1022.24 1858.87 993.12C1849.04 986.85 1838.61 975.45 1831.49 966.35H1831.37L1831.38 966.33Z" fill="#112120"/>
<path d="M1830.48 1020.72C1827.53 1015.78 1825.05 1009.99 1821.5 1005.46C1813.9 989.48 1805.52 973.2 1800.46 956.2C1793.22 932.26 1786.23 908.56 1782.19 883.84C1775.62 843.8 1774.23 803.1 1767.9 763.06C1767.6 761.07 1767.24 759.08 1766.87 757.03C1764.34 748.59 1761.5 740.27 1758.25 732.13C1755.6 725.44 1750.89 718.08 1749.33 711.21C1748.49 710.12 1747.7 709.1 1746.98 708.13C1746.26 707.17 1745.59 706.32 1744.99 705.6C1744.39 704.88 1743.9 704.21 1743.48 703.67C1743.06 703.13 1742.7 702.71 1742.45 702.4C1742.21 702.1 1742.03 701.86 1741.91 701.74L1741.85 701.68C1743 710.24 1745.71 718.74 1747.94 727.07C1751.8 741.36 1755.78 756.07 1758.07 770.67C1764.4 810.77 1765.79 851.41 1772.36 891.45C1776.4 916.23 1783.39 939.93 1790.63 963.81C1795.7 980.81 1804.08 997.1 1811.67 1013.07C1815.23 1017.53 1817.7 1023.32 1820.65 1028.33L1855.56 1077.59C1857.19 1077.41 1859 1071.56 1860.38 1062.76L1830.53 1020.67L1830.47 1020.73L1830.48 1020.72Z" fill="#091614"/>
<path d="M1831.5 907.24C1830.78 904.95 1830.05 902.66 1829.39 900.37C1828.73 898.08 1828 895.79 1827.28 893.5C1826.62 891.21 1825.89 888.92 1825.23 886.63C1821.85 875.11 1818.54 863.6 1815.16 852.08C1814.5 849.79 1813.77 847.5 1813.11 845.21C1812.75 844.06 1812.45 842.92 1812.08 841.77C1811.42 839.48 1810.69 837.19 1809.97 834.9C1809.25 832.61 1808.52 830.32 1807.8 828.03C1805.63 821.22 1803.4 814.4 1800.99 807.65C1800.21 805.42 1799.36 803.19 1798.58 800.9C1797.74 798.67 1796.89 796.44 1796.05 794.21C1794.36 789.75 1792.55 785.35 1790.68 780.94C1789.78 778.77 1788.81 776.6 1787.85 774.43C1785.92 770.09 1783.87 765.81 1781.7 761.53C1780.07 758.33 1778.44 755.14 1776.7 752C1770.91 741.51 1764.46 731.32 1757.1 721.49C1754.09 717.45 1751.43 714.01 1749.26 711.18C1750.83 718.05 1755.47 725.41 1758.18 732.1C1763.49 745.31 1767.77 758.93 1771.08 772.74C1776.75 796.2 1781.15 819.83 1785.25 843.59C1789.59 868.43 1793.69 893.4 1802.86 917.1C1809.85 935.13 1819.5 951.05 1831.32 966.24C1838.44 975.35 1846.46 985.29 1856.28 991.57C1848.2 974.02 1844.76 953.1 1840.66 934.29C1838.37 928.08 1836.2 921.93 1834.21 915.78C1833.25 912.89 1832.34 910.05 1831.44 907.16L1831.5 907.28V907.24Z" fill="#152F2B"/>
<path d="M1842.72 957.59C1830.9 942.39 1821.25 926.42 1814.26 908.45C1805.09 884.75 1800.99 859.85 1796.65 834.94C1792.49 811.18 1788.15 787.54 1782.48 764.09C1782.3 763.31 1782.12 762.58 1781.88 761.8C1781.88 761.74 1781.82 761.62 1781.76 761.56C1780.13 758.36 1778.5 755.17 1776.76 752.03C1770.97 741.54 1764.52 731.35 1757.16 721.52C1754.15 717.48 1751.49 714.04 1749.32 711.21C1750.89 718.08 1755.53 725.44 1758.24 732.13C1763.55 745.34 1767.83 758.96 1771.14 772.77C1776.81 796.23 1781.21 819.86 1785.31 843.62C1789.65 868.46 1793.75 893.43 1802.92 917.13C1809.91 935.16 1819.56 951.08 1831.38 966.27C1838.5 975.38 1846.52 985.32 1856.34 991.6C1852.24 982.68 1849.28 972.85 1846.87 962.84C1845.42 961.03 1844.04 959.28 1842.65 957.53L1842.71 957.59H1842.72Z" fill="#244640"/>
<path d="M1801.05 807.68C1800.27 805.45 1799.42 803.22 1798.64 800.93C1799.48 803.16 1800.27 805.39 1801.05 807.68Z" fill="#2C453E"/>
<path d="M1817.21 784.95C1815.64 782.18 1813.71 779.04 1811.66 775.84C1811.18 775.18 1804.42 765.11 1797.31 753.83C1797.07 753.41 1796.77 752.99 1796.41 752.5C1796.11 752.02 1795.75 751.54 1795.32 751.05C1794.72 750.27 1794.05 749.48 1793.39 748.58C1792.43 747.43 1791.4 746.23 1790.25 744.9C1789.95 744.6 1789.65 744.24 1789.41 743.94C1788.99 743.46 1788.57 742.98 1788.14 742.49C1787.36 741.59 1786.51 740.74 1785.67 739.84C1784.83 738.94 1783.92 738.03 1783.02 737.07C1782.72 736.77 1782.42 736.47 1782.12 736.11C1781.22 735.15 1780.25 734.24 1779.35 733.28C1778.81 732.74 1778.26 732.19 1777.72 731.65C1776.76 730.69 1775.79 729.72 1774.83 728.76C1774.05 728.04 1773.32 727.25 1772.54 726.53C1772.18 726.17 1771.76 725.81 1771.39 725.44C1770.85 724.9 1770.24 724.35 1769.7 723.81C1769.28 723.39 1768.86 723.03 1768.43 722.6C1768.07 722.3 1767.71 721.94 1767.41 721.64C1766.63 720.92 1765.78 720.13 1765 719.41C1764.46 718.93 1763.91 718.38 1763.31 717.9C1762.16 716.87 1761.08 715.85 1759.99 714.89C1759.27 714.23 1758.54 713.62 1757.82 713.02C1756.43 711.81 1755.05 710.61 1753.78 709.58C1752.82 708.8 1751.85 708.01 1751.01 707.29C1750.59 706.93 1750.17 706.63 1749.74 706.27C1749.02 705.73 1748.23 705.24 1747.57 704.82C1745.7 703.67 1742.14 701.87 1741.96 701.74L1742.02 701.8C1742.08 701.92 1742.26 702.1 1742.56 702.46C1742.8 702.76 1743.16 703.24 1743.59 703.73C1744.01 704.27 1744.55 704.94 1745.1 705.66C1745.7 706.38 1746.37 707.23 1747.09 708.19C1747.81 709.09 1748.6 710.12 1749.44 711.27C1752.15 714.83 1755.35 719.05 1757.28 721.64C1779.17 750.64 1791.71 779.77 1803.29 810.88C1816.07 845.31 1823.01 880.53 1834.46 915.98C1835.36 918.81 1836.33 921.59 1837.29 924.36C1838.44 927.74 1839.64 931.11 1840.91 934.49C1840.73 933.22 1840.61 932.02 1840.49 930.75C1840.49 930.33 1840.43 929.97 1840.37 929.54C1840.31 928.7 1840.19 927.79 1840.13 926.95C1840.13 926.47 1840.07 926.05 1840.01 925.56C1840.01 924.72 1839.89 923.87 1839.89 923.03C1839.89 922.61 1839.89 922.13 1839.83 921.7C1839.83 920.74 1839.77 919.83 1839.71 918.87V908.86C1839.71 908.02 1839.71 907.17 1839.77 906.33V904.88C1839.77 904.04 1839.83 903.13 1839.89 902.29C1839.89 901.87 1839.89 901.39 1839.95 900.96C1840.01 899.81 1840.07 898.73 1840.13 897.58V897.04C1840.19 895.77 1840.31 894.45 1840.43 893.18C1840.43 892.76 1840.49 892.28 1840.55 891.85C1840.61 891.01 1840.67 890.1 1840.79 889.26C1840.79 888.72 1840.91 888.23 1840.91 887.69C1840.97 886.91 1841.03 886.06 1841.15 885.28C1841.15 884.74 1841.27 884.25 1841.27 883.71C1841.33 882.87 1841.45 882.02 1841.51 881.18C1841.51 880.7 1841.57 880.28 1841.63 879.79C1841.75 878.58 1841.87 877.38 1841.99 876.11C1842.05 875.45 1842.11 874.78 1842.17 874.12C1842.23 873.52 1842.29 872.91 1842.35 872.31C1842.53 870.8 1842.65 869.23 1842.83 867.73V867.61C1836.74 833.6 1839.88 822.33 1817.14 784.88L1817.2 784.94L1817.21 784.95Z" fill="#416057"/>
<path d="M1781.76 761.55C1783.93 765.83 1785.92 770.11 1787.91 774.45C1788.87 776.62 1789.84 778.79 1790.74 780.96C1792.61 785.36 1794.42 789.76 1796.11 794.23C1796.95 796.46 1797.8 798.69 1798.64 800.92C1799.48 803.15 1800.27 805.38 1801.05 807.67C1803.4 814.42 1805.69 821.24 1807.86 828.05C1808.58 830.34 1809.31 832.63 1810.03 834.92C1810.75 837.21 1811.42 839.5 1812.14 841.79C1812.5 842.94 1812.8 844.08 1813.17 845.23C1813.83 847.52 1814.56 849.81 1815.22 852.1C1818.6 863.62 1821.91 875.13 1825.29 886.65C1825.95 888.94 1826.68 891.23 1827.34 893.52C1828 895.81 1828.73 898.1 1829.45 900.39C1830.17 902.68 1830.9 904.97 1831.56 907.26C1832.46 910.15 1833.43 913.05 1834.33 915.88C1822.87 880.42 1815.94 845.27 1803.16 810.78C1791.58 779.67 1779.1 750.54 1757.15 721.54C1764.51 731.37 1770.96 741.56 1776.75 751.99C1778.5 755.13 1780.13 758.32 1781.75 761.52L1781.76 761.55Z" fill="#416057"/>
<path d="M1817.45 784.77C1809.55 771.62 1793.51 745.27 1777.89 731.47C1766.61 721.4 1755.34 708.01 1741.77 701.68C1742.37 702.4 1743.4 703.73 1744.85 705.48C1751.42 713.8 1764.57 731.95 1767.22 735.99C1774.7 743.41 1782.9 751.06 1789.17 759.51C1800.2 774.46 1819.2 797.2 1829.33 831.51C1833.91 846.95 1837.17 858.1 1836.02 873.24C1835.12 885.24 1832.1 891.75 1832.82 904.54C1833.6 917.38 1837.64 927.63 1840.96 934.27C1840.18 927.58 1839.39 917.45 1839.87 905.15C1840.41 891.28 1842.1 886.46 1842.82 876.09C1844.21 855.59 1839.93 839.55 1837.51 830.26C1832.57 811.51 1825.87 798.78 1817.43 784.79L1817.45 784.77Z" fill="#689285"/>
<path d="M1853.71 1084.16C1853.71 1084.16 1859.17 1067.55 1860.25 1062.72C1861.63 1056.6 1862.89 1050.49 1862.89 1050.49L1880.49 1055.94L1881.81 1059.61C1881.81 1059.61 1881.87 1060.88 1884.28 1064.74C1886.69 1068.6 1890.86 1080 1890.86 1080C1890.86 1080 1877.77 1079.51 1871.44 1080.78C1865.11 1082.05 1853.71 1084.16 1853.71 1084.16Z" fill="#091614"/>
<path d="M1912.05 1067.49C1910.22 1066.95 1907.42 1066.34 1904.05 1066.49C1897.96 1066.76 1894.28 1069.31 1893.49 1068.24C1892.42 1066.8 1898.14 1060.91 1898.43 1060.62C1901.4 1057.58 1906.23 1053.51 1913.68 1050.18C1908.16 1051.13 1900.27 1053.22 1892.06 1058.24C1888.3 1060.54 1885.21 1062.99 1882.73 1065.28C1882.85 1064.92 1882.55 1066.73 1880.98 1069.68C1879.77 1071.85 1879.11 1073.78 1879.11 1073.78C1880.37 1074.78 1881.88 1075.85 1883.66 1076.87C1886.31 1078.39 1888.81 1079.36 1890.88 1080C1892.76 1077.79 1895.85 1074.68 1900.38 1071.99C1904.95 1069.28 1909.21 1068.07 1912.07 1067.49H1912.05Z" fill="#091614"/>
<path d="M1836.05 1088.08C1836.05 1088.08 1839.73 1082.29 1841.36 1079.1C1844.74 1072.47 1829.76 1061.75 1829.76 1061.75L1849.32 1067.37L1862.64 1069.56L1864.51 1072.82C1866.56 1075.41 1869.21 1081.14 1869.21 1081.14C1869.21 1081.14 1860.23 1083.13 1855.52 1083.79C1849.55 1084.63 1836.04 1087.95 1836.04 1087.95V1088.07L1836.05 1088.08Z" fill="#091614"/>
<path opacity="0.39" d="M93.3505 1047.54C93.3505 1047.54 37.5405 1064.12 0.600533 1072.04C-36.3395 1079.96 -244.019 1101.31 53.9605 1096.38C351.941 1091.45 331.821 1092.59 209.511 1072.32C87.2005 1052.05 106.601 1049.01 93.3505 1047.53V1047.54Z" fill="black"/>
<path d="M57.3998 955.28C41.0098 938.23 28.3898 920.72 20.5498 901.44C10.2498 876.08 8.57985 850.1 6.52985 824.13C4.56985 799.34 2.21984 774.63 -2.37016 749.95C-5.08015 735.41 -9.33015 720.92 -15.3302 706.77C-18.3702 699.6 -24.5702 691.47 -25.7302 684.25C-26.9102 683 -28.0102 681.87 -29.0102 680.83C-30.0302 679.78 -30.9502 678.83 -31.7602 678C-32.5802 677.17 -33.2802 676.45 -33.8802 675.85C-34.4802 675.25 -34.9602 674.76 -35.3302 674.4C-35.7002 674.04 -35.9502 673.79 -36.0702 673.66C-36.1402 673.6 -36.1602 673.57 -36.1602 673.57C-36.0402 682.45 -33.2902 691.5 -31.3102 700.3C-27.9102 715.4 -24.3402 730.91 -23.5102 746.16C-21.2402 787.91 -27.2302 829.65 -24.5902 871.38C-22.9702 897.18 -16.3302 922.27 -9.28016 947.65C-4.42016 965.65 6.07984 983.35 15.2898 1000.64C20.2298 1005.67 23.1098 1011.91 26.9298 1017.33L74.3598 1072.06C82.8698 1072.18 105.93 1015.49 93.3499 984.34C78.4199 976.68 67.2398 965.49 57.4098 955.28H57.3998Z" fill="#070B0B"/>
<path d="M44.8204 1010.75C41.0004 1005.33 38.1204 999.09 33.1804 994.06C23.9704 976.77 13.4704 959.07 8.61039 941.07C1.56039 915.7 -5.07961 890.61 -6.69961 864.8C-9.31961 823.07 -3.34961 781.33 -5.61961 739.58C-5.73961 737.5 -5.89961 735.4 -6.10961 733.31C-8.52961 724.38 -11.5696 715.51 -15.2696 706.77C-18.3096 699.6 -24.5096 691.47 -25.6696 684.25C-26.8496 683 -27.9496 681.87 -28.9496 680.83C-29.9696 679.78 -30.8896 678.83 -31.6996 678C-32.5196 677.17 -33.2196 676.45 -33.8196 675.85C-34.4196 675.25 -34.8996 674.76 -35.2696 674.4C-35.6396 674.03 -35.8896 673.79 -36.0096 673.66C-36.0796 673.6 -36.0996 673.57 -36.0996 673.57C-35.9796 682.45 -33.2296 691.5 -31.2496 700.3C-27.8496 715.4 -24.2796 730.91 -23.4496 746.16C-21.1796 787.91 -27.1696 829.65 -24.5296 871.38C-22.9096 897.18 -16.2696 922.27 -9.2196 947.65C-4.3596 965.65 6.1404 983.35 15.3504 1000.64C20.2904 1005.67 23.1704 1011.91 26.9904 1017.33L74.4204 1072.06C77.1404 1072.1 81.3304 1066.36 85.3704 1057.51L44.8404 1010.75H44.8204Z" fill="#010303"/>
<path d="M69.6912 894.93C68.9712 892.51 68.2613 890.08 67.5713 887.66C66.8812 885.24 66.2012 882.8 65.5312 880.37C64.8612 877.94 64.2012 875.5 63.5512 873.07C60.2912 860.9 57.2213 848.69 53.9912 836.52C53.3412 834.09 52.6912 831.65 52.0312 829.22C51.7012 828.01 51.3612 826.79 51.0312 825.58C50.3612 823.15 49.6812 820.72 48.9812 818.3C48.2912 815.88 47.5713 813.45 46.8512 811.04C44.6813 803.78 42.3512 796.55 39.8112 789.35C38.9612 786.95 38.0912 784.56 37.1912 782.17C36.2912 779.78 35.3712 777.4 34.4112 775.02C32.4912 770.26 30.4612 765.53 28.2812 760.81C27.1912 758.45 26.0613 756.1 24.9013 753.76C22.5713 749.08 20.0912 744.42 17.4312 739.8C15.4312 736.33 13.3412 732.88 11.1312 729.45C3.78125 718.01 -4.77875 706.78 -14.8988 695.82C-19.0388 691.33 -22.6788 687.47 -25.7188 684.28C-24.5488 691.49 -18.3588 699.62 -15.3188 706.8C-9.31876 720.95 -5.05876 735.44 -2.35876 749.98C2.23124 774.66 4.57125 799.36 6.54124 824.16C8.59124 850.12 10.2612 876.11 20.5612 901.47C28.4012 920.76 41.0112 938.27 57.4112 955.31C67.2312 965.52 78.4112 976.71 93.3512 984.37C83.6012 965.42 82.2512 943.61 79.3312 923.88C76.7712 917.26 74.5512 910.69 72.5312 904.13C71.5612 901.07 70.6113 898.02 69.7113 894.96L69.6912 894.93Z" fill="#0E1917"/>
<path d="M77.8312 947.8C61.4412 930.75 48.8212 913.24 40.9812 893.96C30.6812 868.6 29.0112 842.62 26.9613 816.65C25.0013 791.86 22.6512 767.15 18.0612 742.47C17.9112 741.66 17.7412 740.85 17.5812 740.05C17.5312 739.96 17.4812 739.87 17.4312 739.78C15.4312 736.31 13.3412 732.86 11.1312 729.43C3.78125 717.99 -4.77875 706.76 -14.8988 695.8C-19.0388 691.31 -22.6788 687.45 -25.7188 684.26C-24.5488 691.47 -18.3588 699.6 -15.3188 706.78C-9.31876 720.93 -5.05876 735.42 -2.35876 749.96C2.23124 774.64 4.57125 799.34 6.54124 824.14C8.59124 850.1 10.2612 876.09 20.5612 901.45C28.4012 920.74 41.0112 938.25 57.4112 955.29C67.2312 965.5 78.4112 976.69 93.3512 984.35C88.3913 974.69 85.5912 964.28 83.6712 953.78C81.6612 951.78 79.7312 949.78 77.8412 947.82L77.8312 947.8Z" fill="#1E302D"/>
<path d="M100.601 646.73C98.9315 643.87 76.2715 614.88 76.2715 614.88C83.1215 643.69 79.4415 787.26 79.4415 787.26C79.4415 787.26 79.4215 787.24 79.4015 787.2C82.5715 792.04 85.5015 796.7 87.8315 800.77C122.241 856.42 113.611 871.5 117.211 919.52C123.421 900.24 129.301 881.57 131.781 864.29C142.571 788.88 144.691 715.74 100.611 646.73H100.601Z" fill="#242F2C"/>
<path d="M100.601 646.73C98.9315 643.87 76.2715 614.88 76.2715 614.88C77.9015 621.73 78.9315 635.08 79.5515 651.42C120.761 716.09 121.441 784.4 112.461 854.8C117.121 874.85 115.101 891.63 117.191 919.5C123.401 900.22 129.281 881.55 131.761 864.27C142.551 788.86 144.671 715.72 100.591 646.71L100.601 646.73Z" fill="#3C4A46"/>
<path d="M87.8206 800.78C85.5006 796.71 82.5606 792.05 79.3906 787.21C78.6606 786.18 68.1006 771.16 57.2206 754.33C56.8206 753.71 56.3606 753.05 55.8406 752.34C55.3306 751.63 54.7506 750.89 54.1406 750.12C53.2106 748.95 52.1706 747.7 51.0106 746.39C49.4806 744.64 47.7606 742.75 45.9106 740.78C45.4506 740.29 44.9706 739.79 44.4806 739.27C43.8006 738.55 43.0806 737.82 42.3606 737.09C41.0506 735.74 39.6806 734.37 38.2706 732.96C36.8606 731.56 35.4006 730.13 33.9106 728.69C33.4106 728.21 32.9106 727.72 32.4006 727.23C30.8806 725.77 29.3406 724.3 27.7606 722.82C26.8706 721.99 25.9806 721.16 25.0706 720.31C23.4706 718.83 21.8406 717.33 20.2106 715.84C18.9306 714.67 17.6406 713.51 16.3506 712.35C15.7006 711.77 15.0506 711.19 14.4006 710.61C13.4606 709.77 12.5106 708.94 11.5706 708.1C10.8606 707.47 10.1406 706.85 9.43063 706.22C8.84063 705.7 8.25063 705.19 7.66063 704.68C6.30063 703.5 4.95063 702.34 3.62063 701.2C2.68063 700.4 1.74062 699.6 0.820625 698.82C-1.08937 697.2 -2.96937 695.63 -4.82937 694.1C-6.05937 693.08 -7.28937 692.09 -8.47937 691.12C-10.8794 689.18 -13.1994 687.35 -15.3994 685.64C-17.0594 684.36 -18.6494 683.15 -20.1694 682.02C-20.9294 681.46 -21.6594 680.92 -22.3794 680.4C-23.5794 679.54 -24.9794 678.73 -26.1294 678.04C-29.4294 676.1 -35.7294 673.05 -36.1094 672.82C-36.1094 672.82 -36.0694 672.86 -35.9994 672.94C-35.8594 673.11 -35.5694 673.45 -35.1394 673.94C-34.7194 674.43 -34.1594 675.1 -33.4594 675.91C-32.7694 676.73 -31.9494 677.7 -31.0094 678.82C-30.0694 679.94 -29.0094 681.22 -27.8294 682.65C-26.6694 684.04 -25.3994 685.59 -24.0394 687.28C-24.0394 687.26 -24.0394 687.24 -24.0394 687.21C-19.6994 692.61 -14.6094 698.99 -11.5194 702.88C23.3506 746.7 36.4606 790.34 51.1106 835.32C67.3406 885.13 76.0806 933.72 89.5206 984.7C90.6206 988.74 91.7406 992.78 92.9206 996.8C94.3506 1001.69 95.8306 1006.56 97.3806 1011.41C97.3606 1009.67 97.3806 1007.92 97.4306 1006.16C97.4506 1005.6 97.4806 1005.05 97.5006 1004.49C97.5506 1003.28 97.6106 1002.07 97.6806 1000.86C97.7206 1000.22 97.7706 999.58 97.8106 998.94C97.9006 997.77 98.0006 996.6 98.1206 995.44C98.1806 994.82 98.2506 994.2 98.3106 993.58C98.4506 992.27 98.6306 990.94 98.8006 989.63C98.8606 989.18 98.9206 988.73 98.9706 988.27C99.2206 986.51 99.5006 984.74 99.8006 982.97C99.8706 982.55 99.9506 982.13 100.031 981.71C100.271 980.35 100.521 978.99 100.791 977.63C100.921 976.99 101.051 976.35 101.181 975.72C101.421 974.55 101.661 973.39 101.921 972.23C102.061 971.57 102.211 970.9 102.361 970.23C102.631 969.04 102.911 967.85 103.201 966.67C103.341 966.06 103.491 965.47 103.631 964.86C104.011 963.32 104.401 961.79 104.801 960.25C104.861 960.01 104.931 959.78 104.981 959.54C105.441 957.78 105.931 956.01 106.421 954.25C106.591 953.64 106.771 953.05 106.931 952.44C107.271 951.26 107.601 950.08 107.951 948.9C108.151 948.19 108.361 947.48 108.581 946.79C108.911 945.69 109.231 944.6 109.561 943.51C109.771 942.8 109.981 942.11 110.211 941.4C110.571 940.25 110.921 939.11 111.281 937.96C111.471 937.34 111.671 936.71 111.861 936.1C112.381 934.44 112.911 932.77 113.441 931.12C113.731 930.22 114.021 929.31 114.311 928.41C114.581 927.58 114.851 926.74 115.121 925.9C115.791 923.82 116.461 921.74 117.121 919.68C117.141 919.62 117.161 919.57 117.181 919.51C113.571 871.49 122.221 856.41 87.8006 800.76H87.8306L87.8206 800.78Z" fill="#3C4A46"/>
<path d="M88.3002 800.63C76.3002 781.14 52.0702 741.91 25.5702 720.19C6.50016 704.32 -11.7598 683.95 -36.0898 672.84C-35.1298 673.96 -33.4298 675.92 -31.1698 678.64C-20.6798 691.27 0.140156 718.61 4.20016 724.63C16.6702 736.2 30.5002 748.19 40.3802 760.93C57.8702 783.51 88.6002 818.13 99.8102 867.3C104.86 889.44 108.49 905.37 102.76 926.17C98.2402 942.56 90.9202 951.1 89.3702 968.86C87.8002 986.74 93.1602 1001.61 97.9002 1011.31C98.0302 1001.95 98.9102 987.81 102.72 970.85C107.01 951.74 111.36 945.38 115.13 931.15C122.59 903.02 118.29 880.11 115.81 866.91C110.78 840.12 101.09 821.39 88.3302 800.66H88.3002V800.63Z" fill="#687B76"/>
<path d="M128.811 1007.39C141.961 996.92 152.081 986.17 158.371 974.32C166.631 958.75 167.971 942.79 169.621 926.84C171.191 911.61 173.081 896.44 176.761 881.28C178.931 872.35 182.351 863.45 187.161 854.76C189.601 850.35 194.571 845.36 195.511 840.93C196.461 840.17 197.341 839.47 198.141 838.83C198.961 838.18 199.701 837.6 200.351 837.09C201.001 836.58 201.571 836.14 202.051 835.77C202.531 835.4 202.921 835.1 203.211 834.88C203.501 834.66 203.701 834.5 203.801 834.43C203.851 834.39 203.871 834.37 203.871 834.37C203.781 839.82 201.561 845.38 199.981 850.78C197.251 860.06 194.391 869.58 193.721 878.94C191.901 904.58 196.701 930.22 194.591 955.84C193.291 971.69 187.971 987.1 182.311 1002.68C178.411 1013.73 169.991 1024.61 162.601 1035.22C158.641 1038.31 156.321 1042.14 153.261 1045.47L115.211 1079.08C108.381 1079.16 89.8813 1044.34 99.9713 1025.21C111.951 1020.5 120.911 1013.64 128.801 1007.36L128.811 1007.39Z" fill="#070B0B"/>
<path d="M138.911 1041.45C141.971 1038.12 144.741 1035.84 148.251 1031.2C155.631 1020.58 164.061 1009.71 167.961 998.66C173.611 983.08 178.941 967.67 180.241 951.82C182.351 926.19 177.551 900.55 179.371 874.92C179.461 873.64 179.601 872.36 179.761 871.07C181.701 865.58 184.141 860.14 187.111 854.77C189.551 850.36 194.521 845.37 195.461 840.94C196.411 840.18 197.291 839.48 198.091 838.84C198.911 838.19 199.651 837.61 200.301 837.1C200.951 836.59 201.521 836.15 202.001 835.78C202.481 835.41 202.871 835.11 203.161 834.89C203.451 834.67 203.651 834.51 203.751 834.44C203.801 834.4 203.821 834.38 203.821 834.38C203.731 839.83 201.511 845.39 199.931 850.79C197.201 860.07 194.341 869.59 193.671 878.95C191.851 904.59 196.651 930.23 194.541 955.85C193.241 971.7 187.921 987.11 182.261 1002.69C178.361 1013.74 169.941 1024.62 162.551 1035.23C158.591 1038.32 156.271 1042.15 153.211 1045.48L115.161 1079.09C112.981 1079.12 109.621 1075.59 106.371 1070.16L138.881 1041.44H138.891L138.911 1041.45Z" fill="#010303"/>
<path d="M118.961 970.32C119.541 968.83 120.111 967.34 120.661 965.85C121.211 964.36 121.761 962.87 122.301 961.37C122.831 959.88 123.371 958.38 123.891 956.89C126.501 949.41 128.971 941.92 131.561 934.44C132.081 932.95 132.601 931.45 133.131 929.96C133.401 929.22 133.661 928.47 133.931 927.72C134.471 926.23 135.011 924.74 135.571 923.25C136.121 921.76 136.701 920.27 137.281 918.79C139.021 914.33 140.891 909.89 142.931 905.47C143.611 904 144.311 902.53 145.031 901.06C145.751 899.59 146.491 898.13 147.261 896.67C148.801 893.75 150.431 890.84 152.181 887.95C153.061 886.5 153.961 885.06 154.891 883.62C156.761 880.74 158.751 877.88 160.881 875.04C162.481 872.91 164.161 870.79 165.931 868.68C171.821 861.65 178.691 854.75 186.811 848.03C190.131 845.27 193.051 842.9 195.491 840.94C194.551 845.37 189.581 850.36 187.141 854.77C182.331 863.46 178.911 872.36 176.741 881.29C173.061 896.44 171.181 911.61 169.601 926.85C167.961 942.79 166.611 958.76 158.351 974.33C152.061 986.18 141.941 996.93 128.791 1007.4C120.911 1013.67 111.941 1020.54 99.9609 1025.25C107.781 1013.61 108.871 1000.22 111.211 988.1C113.261 984.04 115.051 980 116.661 975.97C117.441 974.09 118.201 972.22 118.931 970.34L118.961 970.32Z" fill="#0E1917"/>
<path d="M112.431 1002.8C125.581 992.33 135.701 981.58 141.991 969.73C150.251 954.16 151.591 938.2 153.241 922.25C154.811 907.02 156.701 891.85 160.381 876.69C160.501 876.2 160.641 875.7 160.771 875.2C160.811 875.14 160.851 875.09 160.891 875.03C162.491 872.9 164.171 870.78 165.941 868.67C171.831 861.64 178.701 854.74 186.821 848.02C190.141 845.26 193.061 842.89 195.501 840.93C194.561 845.36 189.591 850.35 187.151 854.76C182.341 863.45 178.921 872.35 176.751 881.28C173.071 896.43 171.191 911.6 169.611 926.84C167.971 942.78 166.621 958.75 158.361 974.32C152.071 986.17 141.951 996.92 128.801 1007.39C120.921 1013.66 111.951 1020.53 99.9707 1025.24C103.951 1019.3 106.191 1012.92 107.741 1006.47C109.351 1005.24 110.901 1004.01 112.421 1002.81L112.431 1002.8Z" fill="#1E302D"/>
<path d="M104.411 912.5C106.271 910 108.631 907.14 111.171 904.17C111.761 903.54 120.221 894.31 128.951 883.98C129.271 883.6 129.641 883.19 130.051 882.76C130.461 882.33 130.921 881.87 131.421 881.39C132.171 880.67 133.001 879.91 133.931 879.1C135.161 878.02 136.531 876.86 138.021 875.66C138.391 875.36 138.781 875.05 139.161 874.74C139.711 874.3 140.281 873.85 140.861 873.4C141.911 872.57 143.011 871.73 144.141 870.86C145.271 870 146.441 869.12 147.641 868.24C148.041 867.94 148.441 867.65 148.851 867.34C150.071 866.44 151.311 865.54 152.571 864.63C153.281 864.12 154.001 863.61 154.731 863.09C156.011 862.18 157.321 861.26 158.631 860.34C159.661 859.62 160.691 858.91 161.731 858.19C162.251 857.83 162.771 857.48 163.291 857.12C164.051 856.6 164.801 856.09 165.561 855.58C166.131 855.19 166.701 854.81 167.271 854.43C167.741 854.11 168.221 853.8 168.691 853.48C169.781 852.76 170.861 852.05 171.931 851.34C172.691 850.85 173.441 850.36 174.181 849.88C175.711 848.89 177.221 847.92 178.711 846.98C179.701 846.35 180.681 845.75 181.641 845.15C183.561 843.96 185.431 842.83 187.191 841.78C188.521 840.99 189.791 840.25 191.011 839.56C191.621 839.22 192.211 838.88 192.791 838.57C193.761 838.04 194.881 837.54 195.791 837.12C198.441 835.93 203.491 834.06 203.791 833.91C203.791 833.91 203.761 833.94 203.711 833.99C203.591 834.09 203.361 834.3 203.021 834.6C202.681 834.9 202.231 835.31 201.681 835.81C201.121 836.31 200.471 836.91 199.721 837.6C198.961 838.29 198.111 839.08 197.171 839.95C196.241 840.81 195.221 841.76 194.131 842.79C194.131 842.78 194.131 842.76 194.131 842.75C190.651 846.07 186.571 849.99 184.091 852.37C156.121 879.28 145.601 906.08 133.841 933.71C120.821 964.3 113.811 994.14 103.031 1025.45C102.151 1027.93 101.251 1030.41 100.301 1032.88C99.1606 1035.88 97.9706 1038.88 96.7206 1041.86C96.7406 1040.79 96.7206 1039.71 96.6806 1038.64C96.6606 1038.3 96.6406 1037.96 96.6306 1037.61C96.5906 1036.86 96.5505 1036.13 96.4805 1035.38C96.4505 1034.99 96.4106 1034.59 96.3706 1034.2C96.3006 1033.48 96.2206 1032.76 96.1206 1032.05C96.0706 1031.67 96.0206 1031.29 95.9706 1030.9C95.8506 1030.09 95.7206 1029.28 95.5806 1028.47C95.5306 1028.19 95.4906 1027.92 95.4406 1027.64C95.2406 1026.56 95.0205 1025.47 94.7805 1024.38C94.7305 1024.12 94.6605 1023.86 94.5905 1023.61C94.4005 1022.78 94.2005 1021.94 93.9805 1021.11C93.8805 1020.72 93.7705 1020.32 93.6705 1019.94C93.4805 1019.22 93.2806 1018.51 93.0806 1017.79C92.9606 1017.38 92.8506 1016.98 92.7206 1016.56C92.5006 1015.83 92.2806 1015.1 92.0506 1014.37C91.9306 1014 91.8205 1013.63 91.7005 1013.26C91.4005 1012.31 91.0806 1011.38 90.7606 1010.43C90.7106 1010.29 90.6606 1010.14 90.6105 1010C90.2406 1008.92 89.8505 1007.83 89.4505 1006.75C89.3105 1006.38 89.1706 1006.01 89.0406 1005.64C88.7706 1004.92 88.5006 1004.19 88.2206 1003.47C88.0606 1003.04 87.8906 1002.6 87.7206 1002.17C87.4606 1001.49 87.1906 1000.82 86.9306 1000.16C86.7606 999.73 86.5906 999.3 86.4106 998.86C86.1206 998.16 85.8406 997.45 85.5506 996.75C85.4006 996.37 85.2405 995.98 85.0905 995.6C84.6705 994.58 84.2506 993.56 83.8206 992.54C83.5906 991.99 83.3606 991.43 83.1206 990.88C82.9006 990.37 82.6906 989.85 82.4706 989.34C81.9306 988.06 81.4005 986.79 80.8605 985.52C80.8405 985.49 80.8305 985.45 80.8105 985.42C83.7105 955.93 76.7706 946.67 104.381 912.49H104.361L104.411 912.5Z" fill="#3C4A46"/>
<path d="M104.021 912.41C113.651 900.44 133.091 876.35 154.351 863.01C169.651 853.26 184.301 840.75 203.811 833.93C203.041 834.62 201.681 835.82 199.861 837.49C191.451 845.24 174.741 862.04 171.491 865.73C161.491 872.84 150.391 880.2 142.471 888.02C128.441 901.89 103.781 923.15 94.7906 953.35C90.7406 966.95 87.8306 976.73 92.4306 989.51C96.0506 999.58 101.931 1004.82 103.181 1015.73C104.441 1026.71 100.141 1035.84 96.3406 1041.8C96.2306 1036.05 95.5306 1027.37 92.4706 1016.95C89.0206 1005.21 85.5406 1001.31 82.5106 992.57C76.5206 975.29 79.9806 961.22 81.9606 953.11C85.9906 936.66 93.7706 925.15 104.011 912.42H104.031L104.021 912.41Z" fill="#687B76"/>
<path d="M168.041 1079.83C168.041 1079.83 148.451 1078.52 143.721 1067.12C136.871 1050.6 150.421 1042.54 150.421 1042.54C150.421 1042.54 106.341 1047.84 102.151 995.939C102.151 995.939 101.521 1045.19 80.8613 1019.47C80.8613 1019.47 90.8113 1057.5 63.1113 1052.71C63.1113 1052.71 75.1113 1075.71 38.6113 1063.46C38.6113 1063.46 47.0013 1079.01 39.2613 1079.95C31.5213 1080.9 168.041 1079.83 168.041 1079.83Z" fill="#010303"/>
</g>
<defs>
<linearGradient id="paint0_linear_971_6264" x1="1364.08" y1="946.69" x2="1365.17" y2="912.914" gradientUnits="userSpaceOnUse">
<stop stop-color="#AA86CD"/>
<stop offset="1" stop-color="#D6B3E7"/>
</linearGradient>
<linearGradient id="paint1_linear_971_6264" x1="1348.82" y1="950.03" x2="1348.34" y2="921.466" gradientUnits="userSpaceOnUse">
<stop stop-color="#A988C6"/>
<stop offset="1" stop-color="#D0A2DF"/>
</linearGradient>
<linearGradient id="paint2_linear_971_6264" x1="398.221" y1="1043.12" x2="396.471" y2="997.5" gradientUnits="userSpaceOnUse">
<stop stop-color="#AA86CD"/>
<stop offset="1" stop-color="#D6B3E7"/>
</linearGradient>
<linearGradient id="paint3_linear_971_6264" x1="420.243" y1="1047.67" x2="421.033" y2="1008.99" gradientUnits="userSpaceOnUse">
<stop stop-color="#A988C6"/>
<stop offset="1" stop-color="#D0A2DF"/>
</linearGradient>
</defs>
</svg>
