<svg width="586" height="211" viewBox="0 0 586 211" fill="none" xmlns="http://www.w3.org/2000/svg">
<path d="M100.43 0.100052H233.5L441.75 4.57764e-05L438.86 2.96005C420.57 24.4501 404.44 48.67 395.69 75.74C404.7 69.61 412.26 63.4001 419.43 55.19L419.54 55.25C426.11 46.66 432.81 36.2101 436.25 25.89C438.53 19.05 439.65 11.53 443.3 5.24005C443.36 3.45006 444.1 1.78004 444.7 0.100052H479.17C476.54 4.32005 473.99 9.01006 470.79 12.8201C466.58 17.8201 460.78 22.11 455.87 26.4301C443.99 36.8801 434.51 46.3201 425.53 59.3801C422.26 67.6001 416.5 73.96 413.35 77.39L412.74 78.87C406 97.8501 407.01 111.71 409.34 121.01C412.17 132.37 417.25 138.16 414.44 146.29C411.41 155.06 403.31 154.64 392.99 164.58C378.56 178.48 384.06 189.25 374.34 195.76C359.41 205.76 343.12 182.53 310 183.8C284.89 184.76 280.02 198.65 254.7 198.83C234.93 198.97 218.77 190.65 208.31 183.69C205.98 182.57 203.64 181.43 201.27 180.27C197.59 178.47 193.6 176.5 192.33 175.79C191.55 175.51 190.63 175.04 189.62 174.44C186.3 172.46 187.66 167.36 191.53 167.26C197.59 167.11 204.29 166.7 208.62 166.34C213.78 165.91 216.97 165.03 218.93 164.39C223.1 163.03 225.97 161.33 228.29 159.95C231.78 157.87 236.57 154.55 241.56 149.46C244.35 146.81 246.95 143.95 249.61 141.17L247.72 143.17L245.4 141.09C244.99 141.14 244.87 141.11 244.47 141.1C241.98 141.03 185.21 128.1 181.99 126.88C165.56 120.67 115.99 92.41 109.02 76.27C109.02 76.27 111.29 70.11 111.8 61.55C112.98 53.23 111.81 35.83 113.95 29.8C114.04 29.53 114.15 29.2701 114.23 29C116.74 21.15 110.83 25.11 107.7 18.8501L107.63 18.83C99.3796 14.95 94.7496 9.70004 89.7496 2.25005L89.3296 0.0700531H100.41L100.43 0.100052ZM259.23 105.1C259.23 105.1 259.23 105.06 259.23 105.04C259.23 105.04 259.23 105.07 259.23 105.1ZM204.75 32C205.58 32.73 206.42 33.46 207.26 34.2C206.42 33.46 205.59 32.73 204.75 32ZM211.04 45.81C210.63 45.54 210.23 45.2701 209.83 45.0101C208.89 44.4001 207.96 43.8201 207.03 43.2901C206.09 42.7601 205.13 42.2701 204.13 41.8201C205.14 42.2701 206.09 42.7601 207.03 43.2901C207.97 43.8201 208.89 44.4001 209.83 45.0101C210.23 45.2701 210.64 45.54 211.04 45.81ZM197.42 40.55C199.42 41.91 202.56 43.3801 204.68 45.1301C202.56 43.3801 199.42 41.92 197.42 40.55ZM196.18 46.3C196.85 46.4601 197.53 46.6201 198.22 46.7901C197.53 46.6301 196.84 46.4601 196.18 46.3C192.63 45.44 178.16 43.83 176.41 41.7701C178.16 43.8201 192.62 45.4301 196.18 46.3Z" fill="#1D2137"/>
<path d="M62.3498 181.01C68.4498 197.56 73.4097 209.45 74.5497 209.96C75.4397 210.35 76.2498 210.25 76.2498 210.25C76.2498 210.25 76.8597 210.18 77.4297 209.83C78.5098 209.19 79.0498 207.81 79.6598 205.82C80.0398 204.59 80.4597 203.05 80.8597 201.26L80.2397 201.12C78.5897 202.26 78.1098 205.96 77.0998 207.92L76.2498 207.94L76.1097 207.25C75.4197 202.8 74.3598 197.45 74.1198 194.63C73.5998 191.7 72.7397 187.2 71.4197 181.78C65.0097 155.39 58.9697 152.89 53.2397 129.85C50.4797 118.76 47.1698 98.41 46.5598 95.47C46.1498 93.49 46.1698 91.52 45.6298 89.55C45.5998 89.44 45.5698 89.33 45.5298 89.22C49.7498 89.37 54.6197 91.68 56.6697 91.67L55.5497 84.39L52.6298 66.61C52.6298 66.61 35.5297 43.11 35.2997 37.24C31.9997 37.03 28.8497 36.89 25.6797 35.83C27.2797 48.06 29.9398 59.85 26.8198 65.97C25.7298 68.12 25.4098 70.57 25.9098 72.92C27.8798 82.09 32.1798 91.5 35.2198 100.12C36.7698 104.51 37.9298 109.53 39.9698 113.68C41.3198 117.67 42.6397 121.66 43.9197 125.67C46.4697 133.61 48.2198 139.43 48.7598 141.21C50.7898 147.91 54.2098 158.41 60.3098 174.91C60.9898 176.94 61.6598 178.97 62.3398 181L62.3498 181.01Z" fill="#1C111D"/>
<path d="M77.0093 195.77L78.4793 195.57C73.1293 180.18 71.2293 162.67 68.3393 146.6C65.0393 128.2 61.0793 109.22 56.2793 91.14C56.2793 91.14 49.7493 89.38 45.5293 89.23C45.5593 89.34 45.5293 93.69 45.9393 95.67C49.9493 115.04 52.5593 129.94 52.5593 129.94C58.9593 152.52 63.2893 156.12 70.7693 182.13C72.2993 187.43 73.4193 191.81 74.1193 194.65L77.0093 195.78V195.77Z" fill="#251D2B"/>
<path d="M81.7594 189.47C81.4794 192.74 81.1994 195.91 80.3594 199.1L79.7094 198.99L79.4994 197.75L78.4894 195.57L74.1294 194.64C74.2294 195.89 74.3594 197.17 74.5194 198.48C74.9194 201.84 75.4594 205 76.0894 207.95C76.1194 207.99 76.1594 208.05 76.2394 208.09C76.5394 208.26 76.9694 208.01 77.1094 207.93C77.8994 207.47 77.9994 205.64 78.4394 204.23C78.6894 203.44 79.1694 202.33 80.2494 201.14L80.8694 201.28C82.1994 197.95 82.0394 193.01 81.7594 189.48V189.47Z" fill="#312537"/>
<path d="M91.8995 100.25C90.1495 92.29 100.279 56.24 102.679 46.05C98.5494 39.33 93.7994 31.36 86.6694 27.42C84.0394 25.97 80.9395 25.18 77.9795 26.05C74.8095 26.99 72.6795 29.5399 71.2195 32.39C64.9395 44.66 63.1594 64.39 67.4894 77.57C72.0094 87.44 73.6195 129.49 74.7895 142.28C76.4595 160.55 79.2494 179.41 79.4994 197.75C79.5394 198.95 79.6394 200.32 79.8694 200.34C80.0194 200.35 80.1894 199.77 80.3594 199.1C80.8994 197 81.1694 195.95 81.3794 194.29C81.5394 193.03 81.6994 191.39 81.7594 189.47C83.8494 179.43 84.4194 145.47 87.2694 139.14C89.1194 133.18 88.0695 126.09 89.5995 119.94C90.1395 113.39 91.8895 106.82 91.9095 100.26L91.8995 100.25Z" fill="#56385A"/>
<path d="M14.0195 39.66C13.8795 30.57 16.3195 24.54 13.2695 16.14C10.4495 8.36 4.62953 3.25 0.0195312 0.100006C39.5595 0.110001 79.0995 0.12001 118.64 0.130005C118.64 0.130005 116.069 65.09 112.609 70.58C107.939 77.98 104.71 83.41 104.71 83.41C102.18 87.67 100.09 91.35 96.2795 95.72C94.5395 97.72 92.9795 99.25 91.9095 100.25C90.1595 92.29 100.29 56.24 102.69 46.05C98.5595 39.33 93.8095 31.36 86.6795 27.42C84.0495 25.97 80.9495 25.18 77.9895 26.05C74.8195 26.99 72.6896 29.54 71.2296 32.39C64.9496 44.66 63.1695 64.39 67.4995 77.57C72.0195 87.44 73.6295 129.49 74.7995 142.28C76.4695 160.55 79.2595 179.41 79.5095 197.75L78.4995 195.57C73.1495 180.18 71.2495 162.67 68.3595 146.6C65.0795 128.32 61.7695 113.77 57.0195 95.81C56.8695 95.81 56.1895 92.52 56.1395 92.56C55.9895 88.92 55.4995 84.55 54.3195 79.73C52.4595 72.17 49.5395 66.2 47.0295 61.99C46.5795 57.18 45.1295 55.64 43.9395 55.12C38.4695 52.73 27.5395 67.04 24.5295 71.09C16.1095 58.06 14.1495 47.31 14.0295 39.66H14.0195Z" fill="#312537"/>
<path d="M83.4795 78.56C87.0995 78.85 88.0695 73.1 88.6295 68.21C88.9295 61.85 89.1795 54.26 84.1195 50.33C75.1395 47.28 77.4095 77.13 83.3495 78.52L83.4795 78.56Z" fill="#F07C7C"/>
<path d="M83.1897 85.65C78.6997 86.7 78.6097 114.51 85.8297 110.28C90.4497 106.63 89.6197 86.84 83.3097 85.62L83.1897 85.65Z" fill="#F07C7C"/>
<path d="M81.7493 116.04C78.1893 116.49 78.6393 141.29 83.0993 139.04C85.8793 136.16 86.3393 117.09 81.8593 116.02L81.7493 116.04Z" fill="#F07C7C"/>
<path d="M100.53 31.04C99.7997 31.44 97.2998 24.25 89.5397 19.04C86.8097 17.21 82.2397 14.14 76.6997 14.95C71.3197 15.74 67.9297 19.78 65.2997 22.99C57.3497 32.74 56.9697 43.08 56.3597 42.96C55.5497 42.8 52.9797 24.52 64.7497 15.51C71.8897 10.04 80.3297 11.04 81.2997 11.17C82.9297 11.39 88.6497 12.34 93.6497 17.05C99.6497 22.71 101.27 30.63 100.53 31.04Z" fill="#593348"/>
<path d="M97.5596 32.47C97.9096 32.11 101.6 34.78 104.61 38.49C107.53 42.1 109.39 46.19 108.98 46.47C108.6 46.73 106.23 43.81 102.7 39.47C99.2796 35.26 97.2596 32.77 97.5596 32.47Z" fill="#6B3C4B"/>
<path d="M98.8896 18.67C99.4896 18.05 94.6996 10.46 86.2796 5.93001C85.3196 5.41001 82.3596 3.89 78.1196 2.92C67.1396 0.409996 57.2296 3.84 57.3096 4.44C57.3796 4.99 65.8896 1.87 76.5696 4.63C90.6596 8.27 98.1396 19.45 98.8796 18.68L98.8896 18.67Z" fill="#6B3C4B"/>
<path d="M111.8 44.0201C111.82 37.6001 111.83 34.3801 112.23 32.75C113.09 29.2401 114.35 28.1101 113.74 25.6901C113.34 24.1201 112.43 23.0701 111.68 22.2901C107.53 17.9501 104.26 17.2601 99.0797 13.3401C96.8297 11.6401 93.7497 8.96006 91.6597 4.73006C91.2797 3.95006 90.2097 1.78006 90.7297 1.37006C91.5697 0.710052 94.5797 6.13005 101.08 9.16005C106.4 11.6401 109.71 10.5001 113.93 14.2701C115.81 15.9601 116.83 17.6901 116.65 17.8701C116.41 18.1101 114.27 15.6101 110.65 14.89C109.23 14.6101 107.3 14.5401 107.12 15.0801C106.77 16.18 114.35 17.6601 116.15 23.0201C116.42 23.8401 116.42 24.33 116.3 27.67C116.06 34.52 115.94 37.9501 115.84 39.0101C115.3 44.6201 114.7 45.1601 113.4 53.0701C111.89 62.2801 111.73 67.38 111.31 67.36C110.9 67.34 110.42 62.6101 110.85 57.7101C111.13 54.4601 111.65 52.95 111.82 48.7C111.88 47.15 111.82 47.35 111.82 44L111.8 44.0201Z" fill="#312537"/>
<path d="M91.8896 0.130005H118.63C118.55 1.96 118.47 3.8 118.39 5.63C118.28 7.90001 118.18 10.18 118.07 12.45C118.01 13.68 117.95 14.9 117.89 16.13C116.53 14.37 114.26 11.91 110.79 10.28C107.26 8.61 105.08 9.02001 101.73 7.84001C99.1197 6.92001 95.5096 4.94 91.8896 0.130005Z" fill="#6B3C4B"/>
<path d="M65.4296 31.5999C65.2096 31.4999 63.6196 34.4199 62.2096 37.4099C59.3096 43.5899 58.3496 47.6099 58.6096 47.7099C58.8096 47.7899 59.4996 45.4299 61.2396 45.0999C61.9296 44.9699 62.1296 45.2799 62.5596 45.0999C63.7796 44.5799 63.0696 41.5999 63.5296 38.0199C64.0296 34.1199 65.6396 31.6799 65.4296 31.5899V31.5999Z" fill="#593348"/>
<path d="M217.819 164.41C221.989 163.05 224.859 161.35 227.179 159.97C230.669 157.89 235.459 154.57 240.449 149.48L244.249 151.02C236.799 159.67 229.719 163.9 219.469 168.72C213.579 170.11 199.529 175.26 200.439 175.88C197.429 176.94 194.459 175.6 191.239 175.8C190.459 175.52 189.539 175.05 188.529 174.45C185.209 172.47 186.569 167.37 190.439 167.27C196.499 167.12 203.199 166.71 207.529 166.35C212.689 165.92 215.879 165.04 217.839 164.4L217.819 164.41Z" fill="#1D2137"/>
<path d="M202.969 36.7299C204.349 37.8799 205.699 39.1299 207.259 40.0399C209.779 43.1399 215.189 45.9899 216.209 49.7899C213.649 48.3699 211.179 46.5999 208.709 45.0199C206.519 43.5899 204.439 42.3499 201.999 41.3999C196.869 37.5399 190.509 34.9399 184.649 32.4099C174.279 28.5399 163.679 25.0699 152.549 24.3999C142.229 23.7799 132.389 24.4399 122.089 22.7099L106.539 18.8599C98.2893 14.9799 93.6593 9.72991 88.6593 2.27991L88.2393 0.0999146H99.3193C106.809 5.06992 115.249 7.64991 123.809 10.1899C150.359 18.0599 179.569 20.8899 202.979 36.7399L202.969 36.7299Z" fill="#593348"/>
<path d="M203.639 31.9999C203.979 34.4099 205.399 35.6599 207.019 37.3099C205.739 37.1799 204.169 37.1999 202.969 36.7399C179.559 20.8899 150.359 18.0599 123.799 10.1899C115.239 7.64994 106.799 5.06995 99.3091 0.0999451H155.989C161.309 4.34995 172.119 10.8399 178.979 11.2599C186.309 15.2599 198.609 25.3399 203.629 31.9999H203.639Z" fill="#261934"/>
<path d="M155.989 0.100006H162.539C167.669 3.39001 174.799 6.93001 178.979 11.26C172.119 10.84 161.309 4.35001 155.989 0.100006Z" fill="#261934"/>
<path d="M182.709 34.8699C187.209 36.6999 191.969 38.3699 196.299 40.5499C198.909 42.3299 203.469 44.2899 205.159 46.8099L204.779 47.1799C196.959 43.9499 183.779 42.1199 175.289 41.7699C166.279 38.9599 157.259 36.4699 148.319 33.3799C144.579 30.6499 139.53 28.7099 135.25 26.9899C152.25 26.8299 166.559 29.2499 182.709 34.8599V34.8699Z" fill="#6B3C4B"/>
<path d="M135.249 27C139.539 28.72 144.579 30.66 148.319 33.39C144.839 34.01 130.379 27.38 125.969 25.84C124.499 24.9 123.249 24.02 122.079 22.71C132.379 24.43 142.209 23.78 152.539 24.4C163.669 25.07 174.269 28.54 184.639 32.41L182.699 34.88C166.549 29.27 152.239 26.85 135.239 27.01L135.249 27Z" fill="#261934"/>
<path d="M258.119 105.05L256.559 101.62C254.919 95.2399 249.309 87.6199 245.129 82.5799C219.769 52.0499 199.079 59.4999 165.619 49.1699C156.329 46.2999 148.399 41.5799 140.169 36.5099C137.699 34.9899 134.779 34.0499 132.489 32.3599C131.309 29.9399 128.569 28.8299 126.389 27.2199C126.389 27.2199 125.769 26.7199 125.909 26.1899C125.939 26.0699 125.949 25.9499 125.969 25.8399C130.379 27.3799 144.839 34.0099 148.319 33.3899C157.259 36.4699 166.279 38.9599 175.289 41.7799C177.039 43.8299 191.499 45.4399 195.059 46.3099C205.729 48.9099 220.169 51.6099 228.889 58.3699C233.099 61.6299 236.939 66.5699 241.579 69.0099C244.819 70.3799 248.039 71.7899 251.249 73.2399C254.709 81.8799 255.759 90.0899 258.089 98.8999L258.109 105.06L258.119 105.05Z" fill="#5B1D46"/>
<path d="M248.499 141.19L246.609 143.19L244.289 141.11C245.059 140.41 245.659 139.95 246.619 139.52C247.769 139 248.859 138.43 249.969 137.83C256.439 127.58 258.349 115.22 258.099 103.29V98.8999L258.729 99.2199C258.959 105.04 257.769 119.44 258.909 123.8C256.879 128.31 254.749 132.77 252.529 137.18C251.259 138.52 249.999 140.11 248.499 141.2V141.19Z" fill="#1D2137"/>
<path d="M106.549 18.7799L122.099 22.6299C123.269 23.9399 124.519 24.8199 125.989 25.7599C125.969 25.8799 131.329 29.8599 132.509 32.2799C134.799 33.9699 137.719 34.9099 140.189 36.4299C148.419 41.4999 156.349 46.2199 165.639 49.0899C199.099 59.4199 219.789 51.9699 245.149 82.4999C249.329 87.5399 254.939 95.1499 256.579 101.54L256.779 101.78C257.639 102.78 258.139 104.05 258.139 105.36C258.139 116.64 256.139 128.27 250.039 137.94C248.929 138.54 247.849 139.12 246.709 139.64C245.759 140.07 245.099 140.4 244.329 141.1C243.889 141.16 243.769 141.13 243.369 141.11C240.879 141.04 184.109 128.11 180.889 126.89C164.459 120.68 114.889 92.4199 107.919 76.2799C107.919 76.2799 110.189 70.1199 110.699 61.5599C111.879 53.2399 110.709 35.8399 112.849 29.8099C112.939 29.5399 113.049 29.2799 113.129 29.0099C115.649 21.1199 109.669 25.1699 106.549 18.7699V18.7799Z" fill="url(#paint0_linear_897_970)"/>
<path d="M191.229 175.8C194.449 175.59 197.419 176.93 200.429 175.88C205.609 176.05 210.769 176.46 215.949 176.29C233.789 175.68 249.149 168.4 261.309 155.23C268.109 147.87 270.339 139.45 269.979 129.66C269.999 124.98 275.849 114.45 276.829 108.23C280.579 95.97 284.809 57.86 285.259 44.17C290.609 60.64 297.919 94.15 296.079 110.84C295.499 116.11 293.299 121.55 290.899 126.26C285.289 137.25 260.639 167.3 250.349 174.59C246.519 177.3 241.279 179.05 236.829 180.47C227.079 183.59 217.349 184.05 207.189 183.69C207.189 183.69 193.739 177.21 191.219 175.79L191.229 175.8Z" fill="#593348"/>
<path d="M260.399 141.35C251.549 152.2 238.099 166.19 224.099 169.86L223.199 168.78L219.459 168.73C229.709 163.91 236.79 159.68 244.24 151.03C248.37 146.38 250.719 143.18 252.519 137.18C254.749 132.77 256.869 128.31 258.899 123.8C262.259 116.39 264.069 108.92 264.479 100.77C264.649 97.33 264.049 93.71 265.039 90.39C266.859 96.29 268.979 102.95 268.979 109.17C270.499 121.59 267.109 131.06 260.389 141.35H260.399Z" fill="#593348"/>
<path d="M260.399 141.35C251.549 152.2 238.099 166.19 224.099 169.86L223.199 168.78L219.459 168.73C229.709 163.91 236.79 159.68 244.24 151.03C248.37 146.38 250.719 143.18 252.519 137.18C254.749 132.77 256.869 128.31 258.899 123.8C262.259 116.39 264.069 108.92 264.479 100.77C264.649 97.33 264.049 93.71 265.039 90.39C266.859 96.29 268.979 102.95 268.979 109.17C270.499 121.59 267.109 131.06 260.389 141.35H260.399Z" fill="url(#paint1_linear_897_970)"/>
<path d="M264.489 100.77C264.079 108.91 262.259 116.39 258.909 123.8C257.769 119.44 258.949 105.04 258.729 99.2199L258.109 98.8999C255.779 90.0899 254.719 81.8799 251.269 73.2399C254.869 74.7299 258.099 76.9099 261.389 78.9899C264.219 83.0199 265.909 85.0099 265.109 90.1799C265.099 90.2499 265.079 90.3199 265.059 90.3899C264.079 93.7199 264.679 97.3399 264.499 100.77H264.489Z" fill="#1D2137"/>
<path d="M264.849 138.68L260.409 141.34C267.129 131.04 270.519 121.58 268.999 109.16C272.369 113.16 269.429 118.36 271.399 121.03C273.789 117.25 273.909 112.42 276.529 108.67C276.629 108.53 276.739 108.38 276.839 108.24C275.859 114.45 270.009 124.99 269.989 129.67C268.349 132.61 266.829 135.99 264.859 138.69L264.849 138.68Z" fill="#1B1E39"/>
<path d="M248.499 141.19C249.989 140.1 251.249 138.52 252.529 137.17C250.729 143.17 248.379 146.37 244.249 151.02L240.449 149.48C243.239 146.83 245.839 143.97 248.499 141.19Z" fill="#1D2137"/>
<path d="M219.459 168.72L223.199 168.77L224.099 169.85L221.419 171.5L221.619 172.06C223.679 171.79 225.509 171.2 227.429 170.45C241.279 165.1 258.689 152.65 264.839 138.67C266.819 135.97 268.329 132.59 269.969 129.65C270.329 139.44 268.099 147.86 261.299 155.22C249.139 168.39 233.779 175.67 215.939 176.28C210.759 176.46 205.599 176.04 200.419 175.87C199.509 175.25 213.569 170.1 219.449 168.71L219.459 168.72Z" fill="#593348"/>
<path d="M227.429 170.46C225.499 171.2 223.68 171.8 221.62 172.07L221.419 171.51L224.099 169.86C238.099 166.19 251.549 152.2 260.399 141.35L264.839 138.69C258.689 152.66 241.279 165.12 227.429 170.47V170.46Z" fill="#1B1E39"/>
<path d="M218.329 26.4299C230.209 36.8799 239.689 46.3199 248.669 59.3799C251.249 65.2799 256.719 72.4199 260.779 77.4899L261.469 79.1799C258.179 77.0999 254.869 74.7199 251.269 73.2299C248.059 71.7899 244.839 70.3799 241.599 68.9999C237.199 63.4099 231.309 57.5599 225.969 52.8599C218.959 45.5699 211.269 38.6399 203.649 31.9899C198.629 25.3299 186.329 15.2499 178.999 11.2499C174.819 6.91992 167.689 3.37994 162.559 0.0899353H195.039C197.669 4.30994 200.219 8.99992 203.419 12.8099C207.629 17.8099 213.429 22.0999 218.339 26.4199L218.329 26.4299Z" fill="#593348"/>
<path d="M237.949 25.8899C241.399 36.2299 248.119 46.6899 254.699 55.2899L252.189 56.7099L251.679 57.4799C253.449 60.9099 255.139 64.2099 256.299 67.9099C253.089 66.6499 252.409 60.4099 248.669 59.3899C239.689 46.3199 230.219 36.8899 218.329 26.4399C213.409 22.1199 207.619 17.8299 203.409 12.8299C200.209 9.02991 197.659 4.32991 195.029 0.109909H206.239C207.219 2.29991 207.589 3.79991 209.519 5.26991C211.129 3.78991 211.219 2.17991 211.799 0.109909H229.509C230.109 1.77991 230.849 3.44991 230.909 5.24991C234.559 11.5499 235.679 19.0699 237.959 25.8999L237.949 25.8899Z" fill="#1D2137"/>
<path d="M256.289 67.9C255.139 64.2 253.439 60.9 251.669 57.47L252.179 56.7C256.389 62.11 259.45 70.79 260.76 77.49C256.71 72.42 251.229 65.28 248.649 59.38C252.379 60.4 253.059 66.64 256.279 67.9H256.289Z" fill="#1D2137"/>
<path d="M206.229 0.100006H211.789C211.209 2.17001 211.12 3.78001 209.51 5.26001C207.57 3.79001 207.209 2.29001 206.229 0.100006Z" fill="#1D2137"/>
<path d="M204.789 47.19L205.169 46.82C203.479 44.3 198.919 42.34 196.309 40.56C191.969 38.37 187.219 36.71 182.719 34.88L184.659 32.41C190.519 34.94 196.879 37.54 202.009 41.4C204.449 42.36 206.519 43.6 208.719 45.02C211.189 46.6 213.649 48.38 216.219 49.79C215.199 45.99 209.799 43.14 207.269 40.04C205.719 39.13 204.359 37.88 202.979 36.73C204.169 37.19 205.749 37.17 207.029 37.3C205.409 35.65 203.989 34.4 203.649 31.99C211.269 38.64 218.959 45.57 225.969 52.86C231.309 57.56 237.199 63.41 241.599 69C236.959 66.56 233.109 61.62 228.909 58.36C220.189 51.6 205.749 48.89 195.079 46.3C191.529 45.44 177.059 43.83 175.309 41.77C183.809 42.12 196.979 43.95 204.799 47.18L204.789 47.19Z" fill="#261934"/>
<path d="M230.899 5.22997L232.51 3.06996H235.269C253.559 24.55 269.689 48.76 278.439 75.84C269.429 69.71 261.869 63.5 254.699 55.29C248.119 46.69 241.399 36.22 237.949 25.89C235.669 19.05 234.549 11.53 230.899 5.23996V5.22997Z" fill="#593348"/>
<path d="M232.51 3.06998L230.899 5.22998C230.839 3.43998 230.1 1.76998 229.5 0.0899811H232.38L235.269 3.04997H232.51V3.06998Z" fill="#593348"/>
<g style="mix-blend-mode:multiply" opacity="0.4">
<path d="M136.22 69.87C140.81 65.15 149.1 67.35 153.51 69.87C155.08 70.76 161.62 74.4999 162.46 82.2999C163 87.3699 161.039 93.3499 156.049 96.6099C151.239 99.7499 145.39 99.2199 141.31 96.6099C136.74 93.6799 135.43 88.7999 134.63 85.8399C133.88 83.0199 131.62 74.59 136.21 69.87H136.22Z" fill="#395436"/>
</g>
<path d="M149.049 91.7099C148.069 93.3599 147.019 94.7199 145.749 96.1499C137.579 98.9499 133.629 87.9899 126.599 86.3699C126.319 85.1199 126.029 83.8299 125.959 82.5499C125.759 78.3499 127.409 74.9499 130.189 71.9499C134.799 74.3899 139.849 75.6699 144.069 78.8299C150.299 83.4999 149.689 90.5399 153.389 93.5899C154.319 93.2199 155.249 92.8699 156.139 92.3899L152.209 96.1999C151.689 94.5799 151.149 93.2099 150.249 91.7599L149.039 91.7199L149.049 91.7099Z" fill="#F07C7C"/>
<path d="M127.089 87.8199L126.599 86.3699C127.699 86.5599 129.309 86.9599 130.949 87.9799C133.469 89.5399 133.469 90.9199 135.749 92.9199C138.509 95.3199 143.009 97.2299 145.389 95.6699C145.839 95.3799 146.629 94.6899 147.099 93.6499C147.819 92.0599 147.259 90.7999 147.889 90.4799C148.649 90.0899 150.129 91.6199 150.259 91.7599C150.929 92.4599 151.239 93.1899 151.539 93.9199C151.929 94.8399 152.119 95.6399 152.219 96.2099C151.009 96.9599 148.989 97.9899 146.309 98.4799C145.219 98.6799 141.559 99.2299 137.279 97.6799C133.769 96.3999 131.629 94.3499 130.669 93.4099C128.379 91.1699 127.759 89.3299 127.089 87.8399V87.8199Z" fill="#F9A5A5"/>
<path d="M144.069 78.8199C143.049 77.9699 141.219 76.8099 137.269 75.1099C134.899 74.0899 132.489 73.1599 130.179 71.9399C134.369 69.1099 138.319 68.0399 143.369 68.9899C148.369 69.9299 153.169 72.7699 156.069 76.9999C158.109 79.9699 159.089 83.8199 158.359 87.3899C157.999 89.1599 157.449 90.6999 156.139 92.3799C155.879 92.7099 155.329 93.1399 154.569 93.4699C154.569 93.4699 153.549 93.9199 152.599 93.8999C150.019 93.8499 150.109 83.8899 144.069 78.8099V78.8199Z" fill="#F63860"/>
<g style="mix-blend-mode:multiply" opacity="0.4">
<path d="M191.009 60.59C194.859 56.8 201.819 58.57 205.519 60.59C206.839 61.31 212.329 64.31 213.029 70.58C213.489 74.66 211.839 79.45 207.649 82.07C203.609 84.59 198.699 84.17 195.279 82.07C191.439 79.72 190.339 75.8 189.679 73.42C189.049 71.16 187.149 64.39 191.009 60.59Z" fill="#395436"/>
</g>
<path d="M194.349 67.13C196.769 68.21 199.589 69.13 201.809 70.57C202.879 73.16 203.829 76.05 205.529 78.29C203.909 79.57 202.159 80.62 200.119 81.07C197.059 81.75 193.769 80.73 191.169 79.11C188.319 77.33 186.059 74.6 185.329 71.27C184.539 67.63 185.449 65.02 187.399 61.98C188.589 65.08 191.429 65.83 194.349 67.12V67.13Z" fill="#F0807F"/>
<path d="M205.529 78.3C203.829 76.06 202.879 73.17 201.809 70.58C199.009 64.64 196.439 62.66 191.019 59.33C195.089 58.28 197.989 58.03 201.749 60.2C202.089 60.4 202.409 60.6101 202.729 60.8401C203.049 61.0701 203.349 61.3201 203.639 61.5701C203.929 61.8301 204.209 62.1 204.479 62.39C204.749 62.68 204.999 62.9801 205.229 63.2901C205.469 63.6001 205.689 63.9301 205.889 64.2601C206.089 64.5901 206.279 64.9401 206.449 65.2901C206.619 65.6401 206.769 66.0001 206.909 66.3701C207.039 66.7401 207.159 67.1101 207.259 67.4901C208.179 70.9501 207.469 74.82 205.759 77.94C205.689 78.06 205.609 78.1701 205.539 78.2901L205.529 78.3Z" fill="#F03557"/>
<path d="M201.799 70.5801C199.579 69.1401 196.769 68.2101 194.339 67.1401C191.419 65.8401 188.579 65.0901 187.389 62.0001C188.479 61.0201 189.809 60.2001 190.999 59.3401C196.429 62.6701 198.999 64.6401 201.789 70.5901L201.799 70.5801Z" fill="#D12A52"/>
<g style="mix-blend-mode:multiply" opacity="0.4">
<path d="M177.019 102.32C179.559 99.8199 184.149 100.99 186.589 102.32C187.459 102.79 191.079 104.77 191.539 108.91C191.839 111.6 190.759 114.76 187.989 116.49C185.329 118.15 182.089 117.87 179.829 116.49C177.299 114.94 176.569 112.35 176.139 110.79C175.719 109.3 174.469 104.83 177.019 102.33V102.32Z" fill="#395436"/>
</g>
<path d="M179.219 106.64C180.819 107.35 182.679 107.96 184.139 108.91C184.839 110.62 185.469 112.52 186.599 114C185.529 114.85 184.369 115.54 183.029 115.84C181.009 116.29 178.839 115.62 177.129 114.55C175.249 113.38 173.759 111.58 173.279 109.38C172.759 106.98 173.359 105.26 174.639 103.25C175.429 105.29 177.299 105.79 179.219 106.64Z" fill="#F0807F"/>
<path d="M186.589 114C185.469 112.52 184.839 110.62 184.129 108.91C182.289 104.99 180.589 103.69 177.009 101.49C179.699 100.8 181.609 100.64 184.079 102.07C184.299 102.2 184.519 102.34 184.729 102.49C184.939 102.64 185.139 102.8 185.329 102.97C185.519 103.14 185.709 103.32 185.879 103.51C186.059 103.7 186.219 103.9 186.379 104.1C186.539 104.31 186.679 104.52 186.809 104.74C186.939 104.96 187.069 105.19 187.179 105.42C187.289 105.65 187.389 105.89 187.479 106.13C187.569 106.37 187.649 106.62 187.709 106.87C188.319 109.15 187.849 111.71 186.719 113.76C186.679 113.84 186.619 113.91 186.569 113.99L186.589 114Z" fill="#F03557"/>
<path d="M184.139 108.91C182.679 107.96 180.819 107.35 179.219 106.64C177.289 105.79 175.419 105.29 174.639 103.25C175.359 102.6 176.239 102.06 177.019 101.5C180.599 103.69 182.289 105 184.139 108.92V108.91Z" fill="#D12A52"/>
<g style="mix-blend-mode:multiply" opacity="0.4">
<path d="M120.489 39.2999C124.339 35.5099 131.299 37.2799 134.999 39.2999C136.319 40.0199 141.809 43.0199 142.509 49.2899C142.969 53.3699 141.319 58.1599 137.129 60.7799C133.089 63.2999 128.179 62.8799 124.759 60.7799C120.919 58.4299 119.819 54.5099 119.159 52.1299C118.529 49.8699 116.629 43.0999 120.489 39.2999Z" fill="#395436"/>
</g>
<path d="M133.869 50.7499C134.469 52.6399 134.939 55.0099 135.929 56.7199C134.309 57.6499 132.269 58.5799 130.399 58.7899C127.219 59.1599 123.699 58.1899 121.219 56.1599C118.759 54.1499 117.289 51.2099 116.969 48.0799C116.599 44.4499 117.759 42.2399 119.959 39.4699C126.999 41.7399 130.309 44.1399 133.869 50.7599V50.7499Z" fill="#F07C7C"/>
<path d="M133.87 50.7499C130.31 44.1299 126.989 41.7299 119.959 39.4599C124.289 37.3399 126.91 37.2499 131.51 38.7799C132.19 39.0099 132.749 39.2799 133.359 39.6499C133.389 39.8299 133.419 40.0099 133.449 40.1899C134.369 45.1999 137.01 45.6599 133.87 50.7499Z" fill="#F03557"/>
<path d="M135.929 56.72C134.939 55.01 134.469 52.65 133.869 50.75C137.009 45.66 134.369 45.2 133.449 40.19C133.419 40.01 133.389 39.83 133.359 39.65C136.299 41.93 138.419 44.57 138.859 48.39C139.179 51.2 138.299 53.94 136.489 56.1C136.309 56.31 136.119 56.51 135.929 56.71V56.72Z" fill="#D12A52"/>
<g style="mix-blend-mode:multiply" opacity="0.4">
<path d="M222.14 97.65C226.93 92.93 235.6 95.13 240.21 97.65C241.85 98.54 248.69 102.28 249.56 110.08C250.13 115.15 248.08 121.13 242.86 124.39C237.83 127.53 231.72 127 227.46 124.39C222.68 121.46 221.31 116.58 220.48 113.62C219.69 110.8 217.33 102.37 222.13 97.65H222.14Z" fill="#395436"/>
</g>
<path d="M238.799 111.91C239.549 114.27 240.129 117.21 241.359 119.34C239.349 120.5 236.799 121.65 234.469 121.92C230.509 122.38 226.129 121.18 223.029 118.65C219.969 116.15 218.139 112.49 217.739 108.58C217.279 104.06 218.719 101.31 221.459 97.85C230.219 100.67 234.349 103.66 238.779 111.9L238.799 111.91Z" fill="#F07C7C"/>
<path d="M238.799 111.91C234.369 103.67 230.239 100.68 221.479 97.86C226.879 95.22 230.129 95.11 235.859 97.01C236.709 97.29 237.399 97.64 238.159 98.09C238.199 98.31 238.229 98.53 238.269 98.76C239.419 104.99 242.699 105.58 238.799 111.91Z" fill="#F03557"/>
<path d="M241.359 119.34C240.129 117.21 239.549 114.27 238.799 111.91C242.699 105.58 239.419 105 238.269 98.76C238.229 98.54 238.189 98.32 238.159 98.09C241.819 100.93 244.469 104.21 245.009 108.97C245.409 112.46 244.319 115.88 242.059 118.57C241.839 118.83 241.599 119.08 241.369 119.33L241.359 119.34Z" fill="#D12A52"/>
<path d="M471.23 36.7401C469.85 37.8901 468.5 39.14 466.94 40.05C464.42 43.15 459.01 46 457.99 49.8C460.55 48.38 463.02 46.61 465.49 45.03C467.68 43.6 469.76 42.36 472.2 41.41C477.33 37.55 483.69 34.95 489.55 32.42C499.92 28.55 510.52 25.08 521.65 24.41C531.97 23.79 541.81 24.45 552.11 22.72L567.66 18.8701C575.91 14.9901 580.54 9.74006 585.54 2.29005L585.96 0.110046H574.88C567.39 5.08005 558.95 7.66004 550.39 10.2C523.84 18.07 494.63 20.9 471.22 36.75L471.23 36.7401Z" fill="#593348"/>
<path d="M470.56 31.9999C470.22 34.4099 468.8 35.6599 467.18 37.3099C468.46 37.1799 470.03 37.1999 471.23 36.7399C494.64 20.8899 523.84 18.0599 550.4 10.1899C558.96 7.64994 567.4 5.06995 574.89 0.0999451H518.21C512.89 4.34995 502.08 10.8399 495.22 11.2599C487.89 15.2599 475.59 25.3399 470.57 31.9999H470.56Z" fill="#261934"/>
<path d="M518.21 0.100006H511.66C506.53 3.39001 499.4 6.93001 495.22 11.26C502.08 10.84 512.89 4.35001 518.21 0.100006Z" fill="#261934"/>
<path d="M491.49 34.8699C486.99 36.6999 482.23 38.3699 477.9 40.5499C475.29 42.3299 470.73 44.2899 469.04 46.8099L469.42 47.1799C477.24 43.9499 490.42 42.1199 498.91 41.7699C507.92 38.9599 516.94 36.4699 525.88 33.3799C529.62 30.6499 534.67 28.7099 538.95 26.9899C521.95 26.8299 507.64 29.2499 491.49 34.8599V34.8699Z" fill="#6B3C4B"/>
<path d="M538.95 27.01C534.66 28.73 529.62 30.67 525.88 33.4C529.36 34.02 543.82 27.39 548.23 25.85C549.7 24.91 550.95 24.03 552.12 22.72C541.82 24.44 531.99 23.79 521.66 24.41C510.53 25.08 499.93 28.55 489.56 32.42L491.5 34.89C507.65 29.28 521.96 26.86 538.96 27.02L538.95 27.01Z" fill="#261934"/>
<path d="M337.69 0.100006H401.72C391.91 16.19 379.29 34.36 373.86 52.38C369.24 67.69 319.66 112.68 313.5 98.14C307.17 83.19 306.08 67.69 301.46 52.38C296.02 34.36 283.41 16.19 273.6 0.100006H337.7H337.69Z" fill="#08131F"/>
<path d="M455.869 26.43C443.989 36.88 434.509 46.32 425.529 59.38C422.949 65.28 417.409 72.31 413.349 77.39L412.529 79.28C415.819 77.2 419.319 74.73 422.929 73.23C426.139 71.79 429.359 70.38 432.599 69C436.999 63.41 442.889 57.56 448.229 52.86C455.239 45.57 462.929 38.64 470.549 31.99C475.569 25.33 487.869 15.25 495.199 11.25C499.379 6.92003 506.509 3.38004 511.639 0.0900421H479.159C476.529 4.31004 473.979 9.00003 470.779 12.81C466.569 17.81 460.769 22.1 455.859 26.42L455.869 26.43Z" fill="#593348"/>
<path d="M469.41 47.19L469.03 46.82C470.72 44.3 475.28 42.34 477.89 40.56C482.23 38.37 486.98 36.71 491.48 34.88L489.54 32.41C483.68 34.94 477.32 37.54 472.19 41.4C469.75 42.36 467.68 43.6 465.48 45.02C463.01 46.6 460.55 48.38 457.98 49.79C459 45.99 464.4 43.14 466.93 40.04C468.48 39.13 469.84 37.88 471.22 36.73C470.03 37.19 468.45 37.17 467.17 37.3C468.79 35.65 470.21 34.4 470.55 31.99C462.93 38.64 455.24 45.57 448.23 52.86C442.89 57.56 437 63.41 432.6 69C437.24 66.56 441.09 61.62 445.29 58.36C454.01 51.6 468.45 48.89 479.12 46.3C482.67 45.44 497.14 43.83 498.89 41.77C490.39 42.12 477.22 43.95 469.4 47.18L469.41 47.19Z" fill="#261934"/>
<path d="M438.089 2.99995L441.039 0.0999603H444.699C444.099 1.76996 443.359 3.43996 443.299 5.23996C439.649 11.54 438.529 19.06 436.249 25.89C432.799 36.23 426.079 46.69 419.499 55.29C412.319 63.5 404.559 69.71 395.549 75.84C404.289 48.77 419.789 24.49 438.079 2.99995H438.089Z" fill="#593348"/>
<path d="M331.539 113.52C328.409 108.96 324.879 105.19 320.959 101.29C328.829 105.5 336.479 109.99 343.579 115.41V115.39C361.569 124.24 374.699 126.42 394.149 120.93C381.029 129.29 370.8 130.33 356.01 134.07C359.14 138.63 362.669 142.4 366.589 146.3C358.719 142.09 351.069 137.6 343.969 132.18V132.2C325.979 123.35 312.849 121.17 293.399 126.66C306.519 118.3 316.749 117.26 331.539 113.52Z" fill="#06101E"/>
<path d="M299.45 152.92C300.75 153.86 302.44 155.44 303.91 155.99C310.26 160.56 317.15 164.61 323.93 168.51C325.03 169.22 327.49 170.73 328.65 171.34C333.67 174.27 336.66 176.66 341.39 180.06C343.36 181.49 345.52 182.74 347.58 184.04C355.28 190.99 367 191.06 376.64 191.23L376.28 191.62C373.2 191.73 370.39 192.55 367.38 192.81C363.5 193.14 359.96 192.83 356.66 191.92C350.53 190.24 345.1 186.68 342.45 183.51C342.17 183.18 341.74 182.63 341 181.95C338.98 180.1 337.8 180.16 334.39 178.37C330.97 176.57 330.84 175.81 328.99 175.5C328.5 175.42 327.32 175.27 325.76 174.76C324.96 174.5 324.33 174.24 323.92 174.06V174.04C322.64 173.25 321.07 172.66 319.71 172.01C309.93 167.96 301.62 160.97 293.14 154.78C295.55 155.27 297.73 156.7 299.86 157.88C298.75 155.78 297.89 153.7 297.11 151.46C297.16 151.48 297.23 151.49 297.29 151.49C298.02 151.51 298.66 151.98 299.13 152.55L299.44 152.93" fill="#06101E"/>
<path d="M249.65 191.95C250.81 191.76 252.49 191.68 253.53 191.2C259.16 190.23 264.79 188.72 270.29 187.18C271.22 186.97 273.27 186.46 274.18 186.17C278.28 185.06 281.05 184.72 285.23 184C286.99 183.71 288.73 183.22 290.47 182.81C298.02 182.35 304.05 176.3 309.07 171.37L309.09 171.75C307.57 173.41 306.57 175.29 305.16 176.99C303.35 179.18 301.37 180.86 299.22 182.11C295.21 184.44 290.58 185.44 287.58 185.2C287.27 185.17 286.76 185.12 286.02 185.16C284.03 185.27 283.45 185.91 280.78 186.76C278.1 187.62 277.63 187.3 276.53 188.1C276.24 188.31 275.56 188.85 274.49 189.41C273.95 189.69 273.49 189.89 273.18 190.01C272.11 190.27 271.01 190.77 269.97 191.15C262.86 194.17 254.97 194.91 247.41 196.16C248.89 195.16 250.76 194.75 252.46 194.25C250.8 193.76 249.28 193.14 247.71 192.4C247.75 192.38 247.78 192.35 247.82 192.32C248.2 191.95 248.78 191.86 249.31 191.9L249.67 191.93" fill="#06101E"/>
<path d="M312.29 150.77C317.02 154.17 321.28 158.5 326.3 161.44C327.46 162.04 328.65 162.62 329.75 163.33C333.07 165.27 336.47 167.34 339.92 169.55C345.4 173.07 350.51 176.61 355.26 180.11C348.43 176.7 343.89 174.29 342.21 173.05C341.81 172.76 340.42 171.67 339.21 172.09C338.99 172.17 338.67 172.28 338.57 172.53C338.11 173.63 342.25 176.39 346.09 178.95C348.38 180.48 350.29 181.63 353.18 183.92C353.67 184.3 354.06 184.63 354.32 184.84C351.19 183.03 348.73 181.41 347.05 180.25C341.61 176.51 339 173.99 333.19 170.62C331.74 169.78 330.53 169.14 329.74 168.73V168.52C322.96 164.62 316.07 160.57 309.72 156C311.89 155.57 315.32 158.06 317.28 159.02C318.84 159.78 319.97 160.31 321.62 159.74C317.95 155.14 308.5 150.92 306.21 147.03C306.16 146.95 306.13 146.87 306.08 146.79C308.14 148.09 310.3 149.33 312.27 150.77H312.29Z" fill="#2B6465"/>
<path d="M416.29 11.53C410.48 20.18 402.99 28.04 398.03 37.19C397.02 39.3 396.06 41.46 394.86 43.47C391.59 49.52 388.08 55.71 384.32 62.02C378.35 72.03 372.32 81.36 366.33 90.04C372.03 77.63 376.08 69.38 378.2 66.31C378.7 65.58 380.56 63.03 379.74 60.89C379.59 60.5 379.37 59.94 378.92 59.77C376.92 59.02 372.23 66.58 367.87 73.59C365.27 77.7801 363.32 81.25 359.4 86.56C358.74 87.45 358.19 88.17 357.81 88.66C360.86 82.96 363.63 78.46 365.59 75.4C371.96 65.46 376.32 60.65 382 50.07C383.41 47.44 384.49 45.23 385.17 43.79H385.55C392.13 31.43 398.97 18.8801 406.78 7.26005C407.68 11.12 403.42 17.39 401.82 20.95C400.55 23.78 399.67 25.83 400.79 28.76C408.8 21.93 415.79 4.80005 422.61 0.480049C422.74 0.390053 422.88 0.320045 423.02 0.240044C420.81 4.01004 418.72 7.93005 416.27 11.54L416.29 11.53Z" fill="#2B6465"/>
<path d="M314.5 127.06C317.34 126.85 321.29 127 325.33 128.86C327.95 130.07 327.93 130.77 333.24 134.19C336.9 136.55 339.6 138.27 343.4 139.57C346.22 140.54 348.67 140.94 350.33 141.14C351.3 141.4 351.79 141.64 351.78 141.86C351.78 141.99 351.61 142.11 351.27 142.23C346.06 143.07 342.58 142.11 340.34 141.06C337.75 139.84 337.57 138.84 332.58 135.41C329.99 133.63 327.64 132.03 324.42 130.65C320.99 129.17 317.85 128.49 315.45 128.15C313.33 128.15 312.26 128.06 312.24 127.84C312.22 127.66 312.98 127.39 314.51 127.05L314.5 127.06Z" fill="#0F192D"/>
<path d="M364.28 119.2C366.91 120.3 370.71 121.41 375.12 120.92C377.99 120.6 378.19 119.93 384.32 118.37C388.54 117.29 391.64 116.52 395.66 116.48C398.64 116.45 401.09 116.84 402.73 117.19C403.74 117.25 404.27 117.18 404.33 116.96C404.37 116.84 404.24 116.66 403.96 116.44C399.29 113.99 395.68 113.8 393.22 114.09C390.38 114.43 389.89 115.32 384.07 116.99C381.05 117.86 378.31 118.63 374.82 118.92C371.1 119.23 367.91 118.89 365.52 118.45C363.51 117.77 362.46 117.53 362.38 117.72C362.3 117.89 362.94 118.38 364.29 119.19L364.28 119.2Z" fill="#0F192D"/>
<path d="M284.62 142.99C295.27 139.7 303.74 139.63 313.77 144.97C321.53 149.1 328.02 158.39 336.98 159.63C336.98 159.63 338.22 160.01 338.68 160.22C339.94 160.79 340.83 161.37 341.2 161.63C359.68 175 368.92 181.69 368.35 182.52C368.09 182.9 365.88 182.21 364.4 181.39C363.21 180.74 362.42 179.97 362.15 180.19C361.92 180.38 362.18 181.2 362.56 181.81C363.82 183.86 366.62 184.18 366.54 184.51C366.51 184.64 366.04 184.64 365.31 184.64C364.81 184.64 364.41 184.64 363.9 184.51C363.33 184.36 362.91 184.12 362.5 183.88C362.18 183.7 361.93 183.52 361.75 183.38C360.93 182.75 359.74 181.87 358.3 180.83C357.53 180.28 356.89 179.83 356.3 179.42C353.34 177.37 350.51 175.41 346.83 173.09C345.35 172.16 343.37 170.95 340.98 169.56C340.13 168.97 339.22 168.38 338.23 167.81C337.81 167.57 337.4 167.33 337 167.11V167.08C335.9 166.37 334.71 165.8 333.55 165.2C328.53 162.27 324.27 157.93 319.54 154.53C317.57 153.1 315.41 151.85 313.35 150.55C305.65 143.6 293.93 143.53 284.29 143.36L284.65 142.97L284.62 142.99ZM319.2 151.85C319.2 151.85 319.26 151.93 319.3 151.96C319.27 151.92 319.24 151.88 319.2 151.85Z" fill="#08131F"/>
<defs>
<linearGradient id="paint0_linear_897_970" x1="158.399" y1="113.12" x2="187.699" y2="61.9799" gradientUnits="userSpaceOnUse">
<stop stop-color="#40432E"/>
<stop offset="1" stop-color="#7F154C"/>
</linearGradient>
<linearGradient id="paint1_linear_897_970" x1="264.254" y1="135.945" x2="235.869" y2="127.705" gradientUnits="userSpaceOnUse">
<stop stop-color="#49303F"/>
<stop offset="1" stop-color="#683F5F"/>
</linearGradient>
</defs>
</svg>
