<svg width="466" height="80" viewBox="0 0 466 80" fill="none" xmlns="http://www.w3.org/2000/svg">
<path d="M54.4751 25.8715C54.4751 25.8715 46.3451 18.7414 42.5651 17.6414C38.7851 16.5414 28.2551 13.7015 28.2551 13.7015C28.2551 13.7015 24.7451 14.1015 21.6351 11.1315C18.5251 8.16146 -3.23489 5.73145 0.435109 0.191452L33.0251 0.981461L49.9751 16.1615L55.5351 21.1215L54.4751 25.8715Z" fill="#08262C"/>
<path d="M87.3149 79.2615C88.1049 78.3615 88.905 77.2615 89.835 76.5115C91.695 74.5015 93.495 72.4415 95.225 70.3115C95.945 69.5215 96.685 68.5315 97.515 67.8615L99.245 65.8315C99.245 65.8315 99.145 65.8715 99.105 65.8815C98.195 66.2615 97.405 66.9315 96.615 67.5215C97.115 66.6515 97.815 65.6715 98.115 64.7115C95.905 66.8015 94.355 69.5815 92.025 71.5415C91.075 73.3315 90.0049 75.6815 88.1349 76.6515L87.895 77.0115L87.375 78.6515L87.325 79.2415L87.3149 79.2615Z" fill="#041C1D"/>
<path d="M98.1149 64.7315C101.025 60.9515 104.055 57.2415 106.855 53.3815C110.615 48.2015 114.095 42.7815 117.675 37.4715C120.025 33.9815 122.845 30.4615 124.795 26.7515C124.725 26.8915 132.245 27.8515 132.245 27.8515C132.645 27.5715 139.795 17.8615 140.235 17.6415C132.945 19.3415 112.865 19.5715 111.775 20.1915C108.175 37.8715 98.1749 54.8215 92.0249 71.5715C94.3549 69.6115 95.9049 66.8315 98.1149 64.7415V64.7315Z" fill="#08262C"/>
<path d="M101.085 36.1115C100.985 36.6415 100.855 37.1415 100.715 37.6615C99.3353 42.7815 97.7453 47.8715 96.2253 52.9515C94.9153 58.0415 93.0353 63.0515 91.3453 68.0215C91.0153 68.8115 90.7753 69.6615 90.4953 70.4815C89.6653 72.5315 88.9153 74.6115 88.1353 76.6715C90.0053 75.6915 91.0753 73.3515 92.0253 71.5615C98.1753 54.8115 108.175 37.8615 111.775 20.1815C110.075 19.7815 104.715 19.9615 103.175 20.8215C102.865 22.0415 103.095 24.5815 102.975 25.8315C102.405 28.3215 102.175 30.9115 101.675 33.4315C101.385 34.2615 101.275 35.2515 101.095 36.1115H101.085Z" fill="#06504A"/>
<path d="M106.855 53.3815C104.055 57.2415 101.025 60.9615 98.1152 64.7315C97.8152 65.6815 97.1152 66.6615 96.6152 67.5415C97.3952 66.9515 98.1952 66.2715 99.1052 65.9015C99.1552 65.8815 99.1952 65.8615 99.2452 65.8515C100.615 64.8115 101.925 63.3115 103.035 61.9915L104.705 60.1115C105.885 58.7715 107.035 57.3415 108.295 56.0815C116.595 46.9415 124.575 37.5315 132.245 27.8515C129.775 27.5115 127.285 26.9815 124.845 26.4615C122.895 30.1715 120.025 33.9815 117.675 37.4715C114.095 42.7815 110.615 48.2015 106.855 53.3815Z" fill="#041C1D"/>
<path d="M184.645 47.8715C186.045 42.2215 187.175 36.6015 188.165 30.8615C185.775 29.2015 183.385 27.2715 180.895 25.7915C180.895 26.9115 181.195 28.0915 181.225 29.2415C181.345 33.5415 181.385 37.8515 181.345 42.1515C181.265 48.4815 180.595 54.8615 180.665 61.1715C181.835 58.2715 182.725 55.2615 183.525 52.2415L184.635 47.8615L184.645 47.8715Z" fill="#041C1D"/>
<path d="M149.235 52.5515C149.235 52.5515 162.935 45.1315 167.665 40.5915C167.765 38.0315 170.395 30.8415 171.905 28.6915C172.075 28.4515 172.195 28.1915 172.325 27.9215C170.455 29.3415 168.645 32.2515 167.125 34.1315C163.185 38.9715 155.845 46.9715 150.465 50.0415L149.975 50.5515C149.865 51.3915 149.755 51.8515 149.235 52.5415V52.5515Z" fill="#041C1D"/>
<path d="M167.665 40.5914C170.115 37.7414 171.795 34.1414 173.865 31.0114C174.315 29.5914 173.985 27.2914 173.895 25.7714C173.455 26.3814 172.885 27.4614 172.325 27.9214C172.195 28.1814 172.075 28.4514 171.905 28.6914C170.395 30.8414 167.765 38.0314 167.665 40.5914Z" fill="#08262C"/>
<path d="M145.865 54.8315C146.595 54.4015 148.625 53.1215 149.235 52.5515C149.755 51.8615 162.195 40.5815 166.135 35.7415C167.665 33.8615 169.655 30.9115 172.325 27.9315C172.885 27.4715 173.455 26.4015 173.895 25.7815C173.985 27.2915 174.315 29.5915 173.865 31.0215C174.645 36.7515 175.095 42.5615 175.665 48.3215C175.905 49.8915 176.055 51.4815 176.245 53.0515C177.155 56.8115 177.315 60.5915 178.615 64.2915L179.045 64.6415C179.405 64.4115 179.555 64.2615 179.785 63.8915L180.685 61.1815C180.615 54.8715 181.275 48.4815 181.365 42.1615C181.405 37.8615 181.365 33.5515 181.245 29.2515C181.205 28.1015 180.915 26.9215 180.915 25.8015C179.115 24.2215 171.665 18.6515 169.645 18.2315L168.625 20.4015C167.615 22.0215 166.535 23.9715 166.005 25.8115C166.005 25.8115 159.255 36.7815 156.985 39.9915C154.605 43.3615 151.975 46.5715 149.515 49.8815C148.455 51.1915 147.295 52.4815 146.445 53.9415L145.885 54.8315H145.865Z" fill="#042E2F"/>
<path d="M171.775 13.2515C178.145 19.8015 186.685 23.5615 195.215 26.4115C185.725 19.0715 177.765 13.0115 174.395 0.991501H160.335C164.415 4.8915 167.855 9.23149 171.775 13.2515Z" fill="#06504A"/>
<path d="M205.585 43.7515C205.585 43.7515 205.585 43.7215 205.595 43.7015L205.455 43.5915C205.495 43.6415 205.545 43.7015 205.585 43.7515Z" fill="#06504A"/>
<path d="M57.895 46.1014C59.915 42.5714 61.9151 39.0114 63.8751 35.4514C61.9051 39.0214 59.915 42.5714 57.895 46.1014Z" fill="#AF9356"/>
<path d="M40.7149 8.63144C43.7649 11.6714 46.8549 14.6714 49.7249 17.8714C49.7249 17.8714 55.0449 21.3714 54.8349 22.9014C54.4149 24.6914 54.2249 30.4614 54.0349 32.3014C53.7649 36.7914 53.3049 41.3514 52.5549 45.7914C51.9849 48.1414 51.7449 50.7114 51.3449 53.1014L51.9349 51.8414C53.1449 45.9714 55.5449 40.1914 56.4249 34.2914C57.9449 30.5414 58.6549 26.0814 59.5749 22.1314C61.8349 22.2614 64.1649 22.4714 66.4149 22.3014C71.4649 21.9214 76.4849 20.1914 81.4649 19.2414C85.3949 18.4914 89.4049 18.1214 93.3849 17.7414C83.8049 15.9414 74.2049 14.2414 64.5849 12.6614C60.3049 8.66144 56.0549 4.73143 51.5349 1.00143H33.0249C35.5649 3.57143 38.1249 6.12144 40.7149 8.65144V8.63144Z" fill="#06504A"/>
<path d="M66.4151 22.2915C64.1651 22.4615 61.8251 22.2415 59.5751 22.1215C58.6651 26.0715 57.9551 30.5315 56.4251 34.2815C55.5451 40.1815 53.1451 45.9615 51.9351 51.8315L51.3451 53.0915C50.9651 55.4915 50.4351 57.8915 49.9751 60.2815C51.1951 58.0415 61.9151 39.0215 63.8751 35.4615C64.9051 33.6015 69.5951 25.2415 70.2251 24.8815C77.2351 25.4015 84.7851 23.6515 91.7451 22.6315C94.0551 22.2915 124.605 19.6615 128.565 20.1615C126.655 19.4715 119.485 17.5715 118.735 15.7415C118.705 15.6615 118.685 15.5815 118.655 15.5015C119.275 14.7315 120.415 14.7115 121.345 14.6115C122.315 14.5015 124.425 14.5315 125.155 13.9215C121.955 11.0615 90.7051 3.0615 84.6251 0.991501H51.5351C56.0551 4.7215 60.3051 8.6615 64.5851 12.6515C74.2051 14.2415 83.8051 15.9315 93.3851 17.7315C89.4051 18.1115 85.3951 18.4815 81.4651 19.2315C76.4851 20.1815 71.4651 21.9115 66.4151 22.2915Z" fill="#08262C"/>
<path d="M411.955 25.8715C411.955 25.8715 420.085 18.7414 423.865 17.6414C427.645 16.5414 438.175 13.7015 438.175 13.7015C438.175 13.7015 441.685 14.1015 444.795 11.1315C447.905 8.16146 465.995 7.61145 465.995 0.191452L433.405 0.981461L416.455 16.1615L410.895 21.1215L411.955 25.8715Z" fill="#08262C"/>
<path d="M125.165 13.9114C124.435 14.5214 122.325 14.4914 121.355 14.6014C120.425 14.7014 119.275 14.7214 118.665 15.4914C118.695 15.5714 118.715 15.6515 118.745 15.7315C119.485 17.5615 126.665 19.4715 128.575 20.1515C132.535 20.5115 139.765 18.2514 140.245 17.6314C141.305 16.2414 158.625 15.0814 170.515 21.6614C174.835 24.0514 179.075 26.4414 187.135 32.1114C195.275 37.8414 198.565 41.1215 205.615 43.7015C208.115 44.6215 211.335 45.1914 217.665 46.3014C235.255 49.3814 244.185 50.8614 250.615 48.3314C253.725 47.1014 261.025 43.5115 261.025 43.5115C261.025 43.5115 271.015 37.3114 279.325 32.1114C296.035 21.6514 295.165 22.1014 295.945 21.6614C307.835 15.0814 325.155 16.2414 326.215 17.6314C326.695 18.2514 333.925 20.5115 337.885 20.1515C339.795 19.4615 346.965 17.5615 347.715 15.7315C347.745 15.6515 347.765 15.5714 347.795 15.4914C347.175 14.7214 346.035 14.7014 345.105 14.6014C344.135 14.4914 342.025 14.5214 341.295 13.9114C344.495 11.0514 375.745 3.05145 381.825 0.981453H306.115C302.035 4.88145 298.595 9.22145 294.675 13.2414C288.305 19.7914 279.765 23.5515 271.235 26.4015C280.725 19.0615 288.685 13.0015 292.055 0.981453H290.605C285.635 6.54145 268.085 22.6314 261.915 24.7514C259.195 25.6814 255.965 25.8914 253.125 26.3514C246.495 27.4214 239.845 28.3615 233.225 29.4815C226.615 28.3615 219.955 27.4214 213.325 26.3514C210.485 25.8914 207.255 25.6814 204.535 24.7514C198.365 22.6314 180.815 6.54145 175.845 0.981453H174.395C177.765 13.0015 185.725 19.0615 195.215 26.4015C186.685 23.5515 178.145 19.7914 171.775 13.2414C167.865 9.21145 164.415 4.88145 160.335 0.981453H84.625C90.715 3.05145 121.955 11.0514 125.155 13.9114H125.165Z" fill="#041C1D"/>
<path d="M379.115 79.2615C378.325 78.3615 377.525 77.2615 376.595 76.5115C374.735 74.5015 372.935 72.4415 371.205 70.3115C370.485 69.5215 369.745 68.5315 368.915 67.8615L367.185 65.8315C367.185 65.8315 367.285 65.8715 367.325 65.8815C368.235 66.2615 369.025 66.9315 369.815 67.5215C369.315 66.6515 368.615 65.6715 368.315 64.7115C370.525 66.8015 372.075 69.5815 374.405 71.5415C375.355 73.3315 376.425 75.6815 378.295 76.6515L378.535 77.0115L379.055 78.6515L379.105 79.2415L379.115 79.2615Z" fill="#041C1D"/>
<path d="M368.315 64.7315C365.405 60.9515 362.375 57.2415 359.575 53.3815C355.815 48.2015 352.335 42.7815 348.755 37.4715C346.405 33.9815 343.585 30.4615 341.635 26.7515C341.705 26.8915 334.185 27.8515 334.185 27.8515C333.785 27.5715 326.635 17.8615 326.195 17.6415C333.485 19.3415 353.565 19.5715 354.655 20.1915C358.255 37.8715 368.255 54.8215 374.405 71.5715C372.075 69.6115 370.525 66.8315 368.315 64.7415V64.7315Z" fill="#08262C"/>
<path d="M365.355 36.1115C365.455 36.6415 365.585 37.1415 365.725 37.6615C367.105 42.7815 368.695 47.8715 370.215 52.9515C371.525 58.0415 373.405 63.0515 375.095 68.0215C375.425 68.8115 375.665 69.6615 375.945 70.4815C376.775 72.5315 377.525 74.6115 378.305 76.6715C376.435 75.6915 375.365 73.3515 374.415 71.5615C368.265 54.8115 358.265 37.8615 354.665 20.1815C356.365 19.7815 361.725 19.9615 363.265 20.8215C363.575 22.0415 363.345 24.5815 363.465 25.8315C364.035 28.3215 364.265 30.9115 364.765 33.4315C365.055 34.2615 365.165 35.2515 365.345 36.1115H365.355Z" fill="#06504A"/>
<path d="M359.575 53.3815C362.375 57.2415 365.405 60.9615 368.315 64.7315C368.615 65.6815 369.315 66.6615 369.815 67.5415C369.035 66.9515 368.235 66.2715 367.325 65.9015C367.275 65.8815 367.235 65.8615 367.185 65.8515C365.815 64.8115 364.505 63.3115 363.395 61.9915L361.725 60.1115C360.545 58.7715 359.395 57.3415 358.135 56.0815C349.835 46.9415 341.855 37.5315 334.185 27.8515C336.655 27.5115 339.145 26.9815 341.585 26.4615C343.535 30.1715 346.405 33.9815 348.755 37.4715C352.335 42.7815 355.815 48.2015 359.575 53.3815Z" fill="#041C1D"/>
<path d="M281.785 47.8715C280.385 42.2215 279.255 36.6015 278.265 30.8615C280.655 29.2015 283.045 27.2715 285.535 25.7915C285.535 26.9115 285.235 28.0915 285.205 29.2415C285.085 33.5415 285.045 37.8515 285.085 42.1515C285.165 48.4815 285.835 54.8615 285.765 61.1715C284.595 58.2715 283.705 55.2615 282.905 52.2415L281.795 47.8615L281.785 47.8715Z" fill="#041C1D"/>
<path d="M317.195 52.5515C317.195 52.5515 303.495 45.1315 298.765 40.5915C298.665 38.0315 296.035 30.8415 294.525 28.6915C294.355 28.4515 294.235 28.1915 294.105 27.9215C295.975 29.3415 297.785 32.2515 299.305 34.1315C303.245 38.9715 310.585 46.9715 315.965 50.0415L316.455 50.5515C316.565 51.3915 316.675 51.8515 317.195 52.5415V52.5515Z" fill="#041C1D"/>
<path d="M298.775 40.5914C296.325 37.7414 294.645 34.1414 292.575 31.0114C292.125 29.5914 292.455 27.2914 292.545 25.7714C292.985 26.3814 293.555 27.4614 294.115 27.9214C294.245 28.1814 294.365 28.4514 294.535 28.6914C296.045 30.8414 298.675 38.0314 298.775 40.5914Z" fill="#08262C"/>
<path d="M320.575 54.8315C319.845 54.4015 317.815 53.1215 317.205 52.5515C316.685 51.8615 304.245 40.5815 300.305 35.7415C298.775 33.8615 296.785 30.9115 294.115 27.9315C293.555 27.4715 292.985 26.4015 292.545 25.7815C292.455 27.2915 292.125 29.5915 292.575 31.0215C291.795 36.7515 291.345 42.5615 290.775 48.3215C290.535 49.8915 290.385 51.4815 290.195 53.0515C289.285 56.8115 289.125 60.5915 287.825 64.2915L287.395 64.6415C287.035 64.4115 286.885 64.2615 286.655 63.8915L285.755 61.1815C285.825 54.8715 285.165 48.4815 285.075 42.1615C285.035 37.8615 285.075 33.5515 285.195 29.2515C285.235 28.1015 285.525 26.9215 285.525 25.8015C287.325 24.2215 294.775 18.6515 296.795 18.2315L297.815 20.4015C298.825 22.0215 299.905 23.9715 300.435 25.8115C300.435 25.8115 307.185 36.7815 309.455 39.9915C311.835 43.3615 314.465 46.5715 316.925 49.8815C317.985 51.1915 319.145 52.4815 319.995 53.9415L320.555 54.8315H320.575Z" fill="#042E2F"/>
<path d="M191.315 7.70151C206.255 8.07151 206.995 14.0015 218.515 20.6315C223.105 23.2715 228.085 24.6415 233.215 25.7815C238.345 24.6415 243.325 23.2715 247.915 20.6315C259.435 14.0015 260.175 8.07151 275.115 7.70151C277.165 5.58151 279.445 3.44151 281.085 0.981506H185.345C186.995 3.44151 189.275 5.58151 191.315 7.70151Z" fill="#041C1D"/>
<path d="M204.525 24.7514C207.245 25.6814 210.475 25.8914 213.315 26.3514C219.945 27.4214 226.595 28.3614 233.215 29.4814C239.825 28.3614 246.485 27.4214 253.115 26.3514C255.955 25.8914 259.185 25.6814 261.905 24.7514C268.075 22.6314 285.625 6.54144 290.595 0.981445H281.095C279.445 3.44144 277.165 5.58145 275.125 7.70145C260.185 8.07145 259.445 14.0014 247.925 20.6314C243.335 23.2714 238.355 24.6414 233.225 25.7814C228.095 24.6414 223.115 23.2714 218.525 20.6314C207.005 14.0014 206.265 8.07145 191.325 7.70145C189.275 5.58145 186.995 3.44144 185.355 0.981445H175.855C180.825 6.54144 198.375 22.6314 204.545 24.7514H204.525Z" fill="#06504A"/>
<path d="M294.655 13.2515C288.285 19.8015 279.745 23.5615 271.215 26.4115C280.705 19.0715 288.665 13.0115 292.035 0.991501H306.095C302.015 4.8915 298.575 9.23149 294.655 13.2515Z" fill="#06504A"/>
<path d="M214.545 37.1414C218.805 38.5114 221.145 39.2714 224.215 40.5914C230.315 43.2214 231.215 44.6014 234.135 44.6014C237.055 44.6014 238.035 43.1914 244.055 40.5914C247.155 39.2514 249.535 38.4914 253.725 37.1414C257.765 35.8414 263.575 34.1914 271.215 32.6914C267.635 32.7914 262.525 33.1314 256.925 34.2614C243.325 37.0014 241.865 41.3514 234.135 41.3314C226.385 41.3114 225.005 36.9314 211.345 34.2614C206.175 33.2514 201.505 32.9314 198.285 32.8214C205.255 34.3214 210.685 35.8914 214.535 37.1314L214.545 37.1414Z" fill="#053E3E"/>
<path d="M260.845 43.7515C260.845 43.7515 260.845 43.7215 260.835 43.7015L260.975 43.5915C260.935 43.6415 260.885 43.7015 260.845 43.7515Z" fill="#06504A"/>
<path d="M408.535 46.1014C406.515 42.5714 404.515 39.0114 402.555 35.4514C404.525 39.0214 406.515 42.5714 408.535 46.1014Z" fill="#AF9356"/>
<path d="M425.715 8.63144C422.665 11.6714 419.575 14.6714 416.705 17.8714C416.705 17.8714 411.385 21.3714 411.595 22.9014C412.015 24.6914 412.205 30.4614 412.395 32.3014C412.665 36.7914 413.125 41.3514 413.875 45.7914C414.445 48.1414 414.685 50.7114 415.085 53.1014L414.495 51.8414C413.285 45.9714 410.885 40.1914 410.005 34.2914C408.485 30.5414 407.775 26.0814 406.855 22.1314C404.595 22.2614 402.265 22.4714 400.015 22.3014C394.965 21.9214 389.945 20.1914 384.965 19.2414C381.035 18.4914 377.025 18.1214 373.045 17.7414C382.625 15.9414 392.225 14.2414 401.845 12.6614C406.125 8.66144 410.375 4.73143 414.895 1.00143H433.405C430.865 3.57143 428.305 6.12144 425.715 8.65144V8.63144Z" fill="#06504A"/>
<path d="M400.015 22.2915C402.265 22.4615 404.605 22.2415 406.855 22.1215C407.765 26.0715 408.475 30.5315 410.005 34.2815C410.885 40.1815 413.285 45.9615 414.495 51.8315L415.085 53.0915C415.465 55.4915 415.995 57.8915 416.455 60.2815C415.235 58.0415 404.515 39.0215 402.555 35.4615C401.525 33.6015 396.835 25.2415 396.205 24.8815C389.195 25.4015 381.645 23.6515 374.685 22.6315C372.375 22.2915 341.825 19.6615 337.865 20.1615C339.775 19.4715 346.945 17.5715 347.695 15.7415C347.725 15.6615 347.745 15.5815 347.775 15.5015C347.155 14.7315 346.015 14.7115 345.085 14.6115C344.115 14.5015 342.005 14.5315 341.275 13.9215C344.475 11.0615 375.725 3.0615 381.805 0.991501H414.895C410.375 4.7215 406.125 8.6615 401.845 12.6515C392.225 14.2415 382.625 15.9315 373.045 17.7315C377.025 18.1115 381.035 18.4815 384.965 19.2315C389.945 20.1815 394.965 21.9115 400.015 22.2915Z" fill="#08262C"/>
</svg>
