<svg width="466" height="80" viewBox="0 0 466 80" fill="none" xmlns="http://www.w3.org/2000/svg">
<path d="M54.4751 53.39C54.4751 53.39 46.3451 60.52 42.5651 61.62C38.7851 62.72 28.2551 65.56 28.2551 65.56C28.2551 65.56 24.7451 65.16 21.6351 68.13C18.5251 71.1 -3.23489 73.53 0.435109 79.07L33.0251 78.28L49.9751 63.1L55.5351 58.14L54.4751 53.39Z" fill="#08262C"/>
<path d="M87.3149 0C88.1049 0.9 88.905 2 89.835 2.75C91.695 4.76 93.495 6.82001 95.225 8.95001C95.945 9.74001 96.685 10.73 97.515 11.4L99.245 13.43C99.245 13.43 99.145 13.39 99.105 13.38C98.195 13 97.405 12.33 96.615 11.74C97.115 12.61 97.815 13.59 98.115 14.55C95.905 12.46 94.355 9.68 92.025 7.72C91.075 5.93 90.0049 3.58 88.1349 2.61L87.895 2.25L87.375 0.610001L87.325 0.0200043L87.3149 0Z" fill="#041C1D"/>
<path d="M98.1149 14.53C101.025 18.31 104.055 22.02 106.855 25.88C110.615 31.06 114.095 36.48 117.675 41.79C120.025 45.28 122.845 48.8 124.795 52.51C124.725 52.37 132.245 51.41 132.245 51.41C132.645 51.69 139.795 61.4 140.235 61.62C132.945 59.92 112.865 59.69 111.775 59.07C108.175 41.39 98.1749 24.44 92.0249 7.69C94.3549 9.65 95.9049 12.43 98.1149 14.52V14.53Z" fill="#08262C"/>
<path d="M101.085 43.15C100.985 42.62 100.855 42.12 100.715 41.6C99.3353 36.48 97.7453 31.39 96.2253 26.31C94.9153 21.22 93.0353 16.21 91.3453 11.24C91.0153 10.45 90.7753 9.60001 90.4953 8.78001C89.6653 6.73001 88.9153 4.65003 88.1353 2.59003C90.0053 3.57003 91.0753 5.91003 92.0253 7.70003C98.1753 24.45 108.175 41.4 111.775 59.08C110.075 59.48 104.715 59.3 103.175 58.44C102.865 57.22 103.095 54.68 102.975 53.43C102.405 50.94 102.175 48.35 101.675 45.83C101.385 45 101.275 44.01 101.095 43.15H101.085Z" fill="#06504A"/>
<path d="M106.855 25.88C104.055 22.02 101.025 18.3 98.1152 14.53C97.8152 13.58 97.1152 12.6 96.6152 11.72C97.3952 12.31 98.1952 12.99 99.1052 13.36C99.1552 13.38 99.1952 13.4 99.2452 13.41C100.615 14.45 101.925 15.95 103.035 17.27L104.705 19.15C105.885 20.49 107.035 21.92 108.295 23.18C116.595 32.32 124.575 41.73 132.245 51.41C129.775 51.75 127.285 52.28 124.845 52.8C122.895 49.09 120.025 45.28 117.675 41.79C114.095 36.48 110.615 31.06 106.855 25.88Z" fill="#041C1D"/>
<path d="M184.645 31.39C186.045 37.04 187.175 42.66 188.165 48.4C185.775 50.06 183.385 51.99 180.895 53.47C180.895 52.35 181.195 51.17 181.225 50.02C181.345 45.72 181.385 41.41 181.345 37.11C181.265 30.78 180.595 24.4 180.665 18.09C181.835 20.99 182.725 24 183.525 27.02L184.635 31.4L184.645 31.39Z" fill="#041C1D"/>
<path d="M149.235 26.71C149.235 26.71 162.935 34.13 167.665 38.67C167.765 41.23 170.395 48.42 171.905 50.57C172.075 50.81 172.195 51.07 172.325 51.34C170.455 49.92 168.645 47.01 167.125 45.13C163.185 40.29 155.845 32.29 150.465 29.22L149.975 28.71C149.865 27.87 149.755 27.41 149.235 26.72V26.71Z" fill="#041C1D"/>
<path d="M167.665 38.67C170.115 41.52 171.795 45.12 173.865 48.25C174.315 49.67 173.985 51.97 173.895 53.49C173.455 52.88 172.885 51.8 172.325 51.34C172.195 51.08 172.075 50.81 171.905 50.57C170.395 48.42 167.765 41.23 167.665 38.67Z" fill="#08262C"/>
<path d="M145.865 24.43C146.595 24.86 148.625 26.14 149.235 26.71C149.755 27.4 162.195 38.68 166.135 43.52C167.665 45.4 169.655 48.35 172.325 51.33C172.885 51.79 173.455 52.86 173.895 53.48C173.985 51.97 174.315 49.67 173.865 48.24C174.645 42.51 175.095 36.7 175.665 30.94C175.905 29.37 176.055 27.78 176.245 26.21C177.155 22.45 177.315 18.67 178.615 14.97L179.045 14.62C179.405 14.85 179.555 15 179.785 15.37L180.685 18.08C180.615 24.39 181.275 30.78 181.365 37.1C181.405 41.4 181.365 45.71 181.245 50.01C181.205 51.16 180.915 52.34 180.915 53.46C179.115 55.04 171.665 60.61 169.645 61.03L168.625 58.86C167.615 57.24 166.535 55.29 166.005 53.45C166.005 53.45 159.255 42.48 156.985 39.27C154.605 35.9 151.975 32.69 149.515 29.38C148.455 28.07 147.295 26.78 146.445 25.32L145.885 24.43H145.865Z" fill="#042E2F"/>
<path d="M171.775 66.01C178.145 59.46 186.685 55.7 195.215 52.85C185.725 60.19 177.765 66.25 174.395 78.27H160.335C164.415 74.37 167.855 70.03 171.775 66.01Z" fill="#06504A"/>
<path d="M205.585 35.51C205.585 35.51 205.585 35.54 205.595 35.56L205.455 35.67C205.495 35.62 205.545 35.56 205.585 35.51Z" fill="#06504A"/>
<path d="M57.895 33.16C59.915 36.69 61.9151 40.25 63.8751 43.81C61.9051 40.24 59.915 36.69 57.895 33.16Z" fill="#AF9356"/>
<path d="M40.7149 70.63C43.7649 67.59 46.8549 64.59 49.7249 61.39C49.7249 61.39 55.0449 57.89 54.8349 56.36C54.4149 54.57 54.2249 48.8 54.0349 46.96C53.7649 42.47 53.3049 37.91 52.5549 33.47C51.9849 31.12 51.7449 28.55 51.3449 26.16L51.9349 27.42C53.1449 33.29 55.5449 39.07 56.4249 44.97C57.9449 48.72 58.6549 53.18 59.5749 57.13C61.8349 57 64.1649 56.79 66.4149 56.96C71.4649 57.34 76.4849 59.07 81.4649 60.02C85.3949 60.77 89.4049 61.14 93.3849 61.52C83.8049 63.32 74.2049 65.02 64.5849 66.6C60.3049 70.6 56.0549 74.53 51.5349 78.26H33.0249C35.5649 75.69 38.1249 73.14 40.7149 70.61V70.63Z" fill="#06504A"/>
<path d="M66.4151 56.97C64.1651 56.8 61.8251 57.02 59.5751 57.14C58.6651 53.19 57.9551 48.73 56.4251 44.98C55.5451 39.08 53.1451 33.3 51.9351 27.43L51.3451 26.17C50.9651 23.77 50.4351 21.37 49.9751 18.98C51.1951 21.22 61.9151 40.24 63.8751 43.8C64.9051 45.66 69.5951 54.02 70.2251 54.38C77.2351 53.86 84.7851 55.61 91.7451 56.63C94.0551 56.97 124.605 59.6 128.565 59.1C126.655 59.79 119.485 61.69 118.735 63.52C118.705 63.6 118.685 63.68 118.655 63.76C119.275 64.53 120.415 64.55 121.345 64.65C122.315 64.76 124.425 64.73 125.155 65.34C121.955 68.2 90.7051 76.2 84.6251 78.27H51.5351C56.0551 74.54 60.3051 70.6 64.5851 66.61C74.2051 65.02 83.8051 63.33 93.3851 61.53C89.4051 61.15 85.3951 60.78 81.4651 60.03C76.4851 59.08 71.4651 57.35 66.4151 56.97Z" fill="#08262C"/>
<path d="M411.955 53.39C411.955 53.39 420.085 60.52 423.865 61.62C427.645 62.72 438.175 65.56 438.175 65.56C438.175 65.56 441.685 65.16 444.795 68.13C447.905 71.1 465.995 71.65 465.995 79.07L433.405 78.28L416.455 63.1L410.895 58.14L411.955 53.39Z" fill="#08262C"/>
<path d="M125.165 65.35C124.435 64.74 122.325 64.77 121.355 64.66C120.425 64.56 119.275 64.54 118.665 63.77C118.695 63.69 118.715 63.61 118.745 63.53C119.485 61.7 126.665 59.79 128.575 59.11C132.535 58.75 139.765 61.01 140.245 61.63C141.305 63.02 158.625 64.18 170.515 57.6C174.835 55.21 179.075 52.82 187.135 47.15C195.275 41.42 198.565 38.14 205.615 35.56C208.115 34.64 211.335 34.07 217.665 32.96C235.255 29.88 244.185 28.4 250.615 30.93C253.725 32.16 261.025 35.75 261.025 35.75C261.025 35.75 271.015 41.95 279.325 47.15C296.035 57.61 295.165 57.16 295.945 57.6C307.835 64.18 325.155 63.02 326.215 61.63C326.695 61.01 333.925 58.75 337.885 59.11C339.795 59.8 346.965 61.7 347.715 63.53C347.745 63.61 347.765 63.69 347.795 63.77C347.175 64.54 346.035 64.56 345.105 64.66C344.135 64.77 342.025 64.74 341.295 65.35C344.495 68.21 375.745 76.21 381.825 78.28H306.115C302.035 74.38 298.595 70.04 294.675 66.02C288.305 59.47 279.765 55.71 271.235 52.86C280.725 60.2 288.685 66.26 292.055 78.28H290.605C285.635 72.72 268.085 56.63 261.915 54.51C259.195 53.58 255.965 53.37 253.125 52.91C246.495 51.84 239.845 50.9 233.225 49.78C226.615 50.9 219.955 51.84 213.325 52.91C210.485 53.37 207.255 53.58 204.535 54.51C198.365 56.63 180.815 72.72 175.845 78.28H174.395C177.765 66.26 185.725 60.2 195.215 52.86C186.685 55.71 178.145 59.47 171.775 66.02C167.865 70.05 164.415 74.38 160.335 78.28H84.625C90.715 76.21 121.955 68.21 125.155 65.35H125.165Z" fill="#041C1D"/>
<path d="M379.115 0C378.325 0.9 377.525 2 376.595 2.75C374.735 4.76 372.935 6.82001 371.205 8.95001C370.485 9.74001 369.745 10.73 368.915 11.4L367.185 13.43C367.185 13.43 367.285 13.39 367.325 13.38C368.235 13 369.025 12.33 369.815 11.74C369.315 12.61 368.615 13.59 368.315 14.55C370.525 12.46 372.075 9.68 374.405 7.72C375.355 5.93 376.425 3.58 378.295 2.61L378.535 2.25L379.055 0.610001L379.105 0.0200043L379.115 0Z" fill="#041C1D"/>
<path d="M368.315 14.53C365.405 18.31 362.375 22.02 359.575 25.88C355.815 31.06 352.335 36.48 348.755 41.79C346.405 45.28 343.585 48.8 341.635 52.51C341.705 52.37 334.185 51.41 334.185 51.41C333.785 51.69 326.635 61.4 326.195 61.62C333.485 59.92 353.565 59.69 354.655 59.07C358.255 41.39 368.255 24.44 374.405 7.69C372.075 9.65 370.525 12.43 368.315 14.52V14.53Z" fill="#08262C"/>
<path d="M365.355 43.15C365.455 42.62 365.585 42.12 365.725 41.6C367.105 36.48 368.695 31.39 370.215 26.31C371.525 21.22 373.405 16.21 375.095 11.24C375.425 10.45 375.665 9.60001 375.945 8.78001C376.775 6.73001 377.525 4.65003 378.305 2.59003C376.435 3.57003 375.365 5.91003 374.415 7.70003C368.265 24.45 358.265 41.4 354.665 59.08C356.365 59.48 361.725 59.3 363.265 58.44C363.575 57.22 363.345 54.68 363.465 53.43C364.035 50.94 364.265 48.35 364.765 45.83C365.055 45 365.165 44.01 365.345 43.15H365.355Z" fill="#06504A"/>
<path d="M359.575 25.88C362.375 22.02 365.405 18.3 368.315 14.53C368.615 13.58 369.315 12.6 369.815 11.72C369.035 12.31 368.235 12.99 367.325 13.36C367.275 13.38 367.235 13.4 367.185 13.41C365.815 14.45 364.505 15.95 363.395 17.27L361.725 19.15C360.545 20.49 359.395 21.92 358.135 23.18C349.835 32.32 341.855 41.73 334.185 51.41C336.655 51.75 339.145 52.28 341.585 52.8C343.535 49.09 346.405 45.28 348.755 41.79C352.335 36.48 355.815 31.06 359.575 25.88Z" fill="#041C1D"/>
<path d="M281.785 31.39C280.385 37.04 279.255 42.66 278.265 48.4C280.655 50.06 283.045 51.99 285.535 53.47C285.535 52.35 285.235 51.17 285.205 50.02C285.085 45.72 285.045 41.41 285.085 37.11C285.165 30.78 285.835 24.4 285.765 18.09C284.595 20.99 283.705 24 282.905 27.02L281.795 31.4L281.785 31.39Z" fill="#041C1D"/>
<path d="M317.195 26.71C317.195 26.71 303.495 34.13 298.765 38.67C298.665 41.23 296.035 48.42 294.525 50.57C294.355 50.81 294.235 51.07 294.105 51.34C295.975 49.92 297.785 47.01 299.305 45.13C303.245 40.29 310.585 32.29 315.965 29.22L316.455 28.71C316.565 27.87 316.675 27.41 317.195 26.72V26.71Z" fill="#041C1D"/>
<path d="M298.775 38.67C296.325 41.52 294.645 45.12 292.575 48.25C292.125 49.67 292.455 51.97 292.545 53.49C292.985 52.88 293.555 51.8 294.115 51.34C294.245 51.08 294.365 50.81 294.535 50.57C296.045 48.42 298.675 41.23 298.775 38.67Z" fill="#08262C"/>
<path d="M320.575 24.43C319.845 24.86 317.815 26.14 317.205 26.71C316.685 27.4 304.245 38.68 300.305 43.52C298.775 45.4 296.785 48.35 294.115 51.33C293.555 51.79 292.985 52.86 292.545 53.48C292.455 51.97 292.125 49.67 292.575 48.24C291.795 42.51 291.345 36.7 290.775 30.94C290.535 29.37 290.385 27.78 290.195 26.21C289.285 22.45 289.125 18.67 287.825 14.97L287.395 14.62C287.035 14.85 286.885 15 286.655 15.37L285.755 18.08C285.825 24.39 285.165 30.78 285.075 37.1C285.035 41.4 285.075 45.71 285.195 50.01C285.235 51.16 285.525 52.34 285.525 53.46C287.325 55.04 294.775 60.61 296.795 61.03L297.815 58.86C298.825 57.24 299.905 55.29 300.435 53.45C300.435 53.45 307.185 42.48 309.455 39.27C311.835 35.9 314.465 32.69 316.925 29.38C317.985 28.07 319.145 26.78 319.995 25.32L320.555 24.43H320.575Z" fill="#042E2F"/>
<path d="M191.315 71.56C206.255 71.19 206.995 65.26 218.515 58.63C223.105 55.99 228.085 54.62 233.215 53.48C238.345 54.62 243.325 55.99 247.915 58.63C259.435 65.26 260.175 71.19 275.115 71.56C277.165 73.68 279.445 75.82 281.085 78.28H185.345C186.995 75.82 189.275 73.68 191.315 71.56Z" fill="#041C1D"/>
<path d="M204.525 54.51C207.245 53.58 210.475 53.37 213.315 52.91C219.945 51.84 226.595 50.9 233.215 49.78C239.825 50.9 246.485 51.84 253.115 52.91C255.955 53.37 259.185 53.58 261.905 54.51C268.075 56.63 285.625 72.72 290.595 78.28H281.095C279.445 75.82 277.165 73.68 275.125 71.56C260.185 71.19 259.445 65.26 247.925 58.63C243.335 55.99 238.355 54.62 233.225 53.48C228.095 54.62 223.115 55.99 218.525 58.63C207.005 65.26 206.265 71.19 191.325 71.56C189.275 73.68 186.995 75.82 185.355 78.28H175.855C180.825 72.72 198.375 56.63 204.545 54.51H204.525Z" fill="#06504A"/>
<path d="M294.655 66.01C288.285 59.46 279.745 55.7 271.215 52.85C280.705 60.19 288.665 66.25 292.035 78.27H306.095C302.015 74.37 298.575 70.03 294.655 66.01Z" fill="#06504A"/>
<path d="M214.545 42.12C218.805 40.75 221.145 39.99 224.215 38.67C230.315 36.04 231.215 34.66 234.135 34.66C237.055 34.66 238.035 36.07 244.055 38.67C247.155 40.01 249.535 40.77 253.725 42.12C257.765 43.42 263.575 45.07 271.215 46.57C267.635 46.47 262.525 46.13 256.925 45C243.325 42.26 241.865 37.91 234.135 37.93C226.385 37.95 225.005 42.33 211.345 45C206.175 46.01 201.505 46.33 198.285 46.44C205.255 44.94 210.685 43.37 214.535 42.13L214.545 42.12Z" fill="#053E3E"/>
<path d="M260.845 35.51C260.845 35.51 260.845 35.54 260.835 35.56L260.975 35.67C260.935 35.62 260.885 35.56 260.845 35.51Z" fill="#06504A"/>
<path d="M408.535 33.16C406.515 36.69 404.515 40.25 402.555 43.81C404.525 40.24 406.515 36.69 408.535 33.16Z" fill="#AF9356"/>
<path d="M425.715 70.63C422.665 67.59 419.575 64.59 416.705 61.39C416.705 61.39 411.385 57.89 411.595 56.36C412.015 54.57 412.205 48.8 412.395 46.96C412.665 42.47 413.125 37.91 413.875 33.47C414.445 31.12 414.685 28.55 415.085 26.16L414.495 27.42C413.285 33.29 410.885 39.07 410.005 44.97C408.485 48.72 407.775 53.18 406.855 57.13C404.595 57 402.265 56.79 400.015 56.96C394.965 57.34 389.945 59.07 384.965 60.02C381.035 60.77 377.025 61.14 373.045 61.52C382.625 63.32 392.225 65.02 401.845 66.6C406.125 70.6 410.375 74.53 414.895 78.26H433.405C430.865 75.69 428.305 73.14 425.715 70.61V70.63Z" fill="#06504A"/>
<path d="M400.015 56.97C402.265 56.8 404.605 57.02 406.855 57.14C407.765 53.19 408.475 48.73 410.005 44.98C410.885 39.08 413.285 33.3 414.495 27.43L415.085 26.17C415.465 23.77 415.995 21.37 416.455 18.98C415.235 21.22 404.515 40.24 402.555 43.8C401.525 45.66 396.835 54.02 396.205 54.38C389.195 53.86 381.645 55.61 374.685 56.63C372.375 56.97 341.825 59.6 337.865 59.1C339.775 59.79 346.945 61.69 347.695 63.52C347.725 63.6 347.745 63.68 347.775 63.76C347.155 64.53 346.015 64.55 345.085 64.65C344.115 64.76 342.005 64.73 341.275 65.34C344.475 68.2 375.725 76.2 381.805 78.27H414.895C410.375 74.54 406.125 70.6 401.845 66.61C392.225 65.02 382.625 63.33 373.045 61.53C377.025 61.15 381.035 60.78 384.965 60.03C389.945 59.08 394.965 57.35 400.015 56.97Z" fill="#08262C"/>
</svg>
