<svg width="586" height="211" viewBox="0 0 586 211" fill="none" xmlns="http://www.w3.org/2000/svg">
<path d="M100.43 210.161H233.5L441.75 210.261L438.86 207.301C420.57 185.811 404.44 161.591 395.69 134.521C404.7 140.651 412.26 146.861 419.43 155.071L419.54 155.011C426.11 163.601 432.81 174.051 436.25 184.371C438.53 191.211 439.65 198.731 443.3 205.021C443.36 206.811 444.1 208.481 444.7 210.161H479.17C476.54 205.941 473.99 201.251 470.79 197.441C466.58 192.441 460.78 188.151 455.87 183.831C443.99 173.381 434.51 163.941 425.53 150.881C422.26 142.661 416.5 136.301 413.35 132.871L412.74 131.391C406 112.411 407.01 98.5515 409.34 89.2515C412.17 77.8915 417.25 72.1015 414.44 63.9715C411.41 55.2015 403.31 55.6215 392.99 45.6815C378.56 31.7815 384.06 21.0115 374.34 14.5015C359.41 4.50149 343.12 27.7315 310 26.4615C284.89 25.5015 280.02 11.6115 254.7 11.4315C234.93 11.2915 218.77 19.6115 208.31 26.5715C205.98 27.6915 203.64 28.8315 201.27 29.9915C197.59 31.7915 193.6 33.7615 192.33 34.4715C191.55 34.7515 190.63 35.2215 189.62 35.8215C186.3 37.8015 187.66 42.9015 191.53 43.0015C197.59 43.1515 204.29 43.5615 208.62 43.9215C213.78 44.3515 216.97 45.2315 218.93 45.8715C223.1 47.2315 225.97 48.9315 228.29 50.3115C231.78 52.3915 236.57 55.7115 241.56 60.8015C244.35 63.4515 246.95 66.3115 249.61 69.0915L247.72 67.0915L245.4 69.1715C244.99 69.1215 244.87 69.1515 244.47 69.1615C241.98 69.2315 185.21 82.1615 181.99 83.3815C165.56 89.5915 115.99 117.851 109.02 133.991C109.02 133.991 111.29 140.151 111.8 148.711C112.98 157.031 111.81 174.431 113.95 180.461C114.04 180.731 114.15 180.991 114.23 181.261C116.74 189.111 110.83 185.151 107.7 191.411L107.63 191.431C99.3796 195.311 94.7496 200.561 89.7496 208.011L89.3296 210.191H100.41L100.43 210.161ZM259.23 105.161C259.23 105.161 259.23 105.201 259.23 105.221C259.23 105.221 259.23 105.191 259.23 105.161ZM204.75 178.261C205.58 177.531 206.42 176.801 207.26 176.061C206.42 176.801 205.59 177.531 204.75 178.261ZM211.04 164.451C210.63 164.721 210.23 164.991 209.83 165.251C208.89 165.861 207.96 166.441 207.03 166.971C206.09 167.501 205.13 167.991 204.13 168.441C205.14 167.991 206.09 167.501 207.03 166.971C207.97 166.441 208.89 165.861 209.83 165.251C210.23 164.991 210.64 164.721 211.04 164.451ZM197.42 169.711C199.42 168.351 202.56 166.881 204.68 165.131C202.56 166.881 199.42 168.341 197.42 169.711ZM196.18 163.961C196.85 163.801 197.53 163.641 198.22 163.471C197.53 163.631 196.84 163.801 196.18 163.961C192.63 164.821 178.16 166.431 176.41 168.491C178.16 166.441 192.62 164.831 196.18 163.961Z" fill="#1D2137"/>
<path d="M62.3498 29.2515C68.4498 12.7015 73.4097 0.811491 74.5497 0.301491C75.4397 -0.088509 76.2498 0.0114909 76.2498 0.0114909C76.2498 0.0114909 76.8597 0.081491 77.4297 0.431491C78.5098 1.07149 79.0498 2.45149 79.6598 4.44149C80.0398 5.67149 80.4597 7.21149 80.8597 9.00149L80.2397 9.14149C78.5897 8.00149 78.1098 4.30149 77.0998 2.34149L76.2498 2.32149L76.1097 3.01149C75.4197 7.46149 74.3598 12.8115 74.1198 15.6315C73.5998 18.5615 72.7397 23.0615 71.4197 28.4815C65.0097 54.8715 58.9697 57.3715 53.2397 80.4115C50.4797 91.5015 47.1698 111.851 46.5598 114.791C46.1498 116.771 46.1698 118.741 45.6298 120.711C45.5998 120.821 45.5698 120.931 45.5298 121.041C49.7498 120.891 54.6197 118.581 56.6697 118.591L55.5497 125.871L52.6298 143.651C52.6298 143.651 35.5297 167.151 35.2997 173.021C31.9997 173.231 28.8497 173.371 25.6797 174.431C27.2797 162.201 29.9398 150.411 26.8198 144.291C25.7298 142.141 25.4098 139.691 25.9098 137.341C27.8798 128.171 32.1798 118.761 35.2198 110.141C36.7698 105.751 37.9298 100.731 39.9698 96.5815C41.3198 92.5915 42.6397 88.6015 43.9197 84.5915C46.4697 76.6515 48.2198 70.8315 48.7598 69.0515C50.7898 62.3515 54.2098 51.8515 60.3098 35.3515C60.9898 33.3215 61.6598 31.2915 62.3398 29.2615L62.3498 29.2515Z" fill="#1C111D"/>
<path d="M77.0093 14.4915L78.4793 14.6915C73.1293 30.0815 71.2293 47.5915 68.3393 63.6615C65.0393 82.0615 61.0793 101.042 56.2793 119.122C56.2793 119.122 49.7493 120.882 45.5293 121.032C45.5593 120.922 45.5293 116.572 45.9393 114.592C49.9493 95.2215 52.5593 80.3215 52.5593 80.3215C58.9593 57.7415 63.2893 54.1415 70.7693 28.1315C72.2993 22.8315 73.4193 18.4515 74.1193 15.6115L77.0093 14.4815V14.4915Z" fill="#251D2B"/>
<path d="M81.7594 20.7915C81.4794 17.5215 81.1994 14.3515 80.3594 11.1615L79.7094 11.2715L79.4994 12.5115L78.4894 14.6915L74.1294 15.6215C74.2294 14.3715 74.3594 13.0915 74.5194 11.7815C74.9194 8.42152 75.4594 5.26152 76.0894 2.31152C76.1194 2.27152 76.1594 2.21152 76.2394 2.17152C76.5394 2.00152 76.9694 2.25152 77.1094 2.33152C77.8994 2.79152 77.9994 4.62152 78.4394 6.03152C78.6894 6.82152 79.1694 7.93152 80.2494 9.12152L80.8694 8.98152C82.1994 12.3115 82.0394 17.2515 81.7594 20.7815V20.7915Z" fill="#312537"/>
<path d="M91.8995 110.012C90.1495 117.972 100.279 154.022 102.679 164.212C98.5494 170.932 93.7994 178.902 86.6694 182.842C84.0394 184.292 80.9395 185.082 77.9795 184.212C74.8095 183.272 72.6795 180.722 71.2195 177.872C64.9395 165.602 63.1594 145.872 67.4894 132.692C72.0094 122.822 73.6195 80.7715 74.7895 67.9815C76.4595 49.7115 79.2494 30.8515 79.4994 12.5115C79.5394 11.3115 79.6394 9.94151 79.8694 9.92151C80.0194 9.91151 80.1894 10.4915 80.3594 11.1615C80.8994 13.2615 81.1694 14.3115 81.3794 15.9715C81.5394 17.2315 81.6994 18.8715 81.7594 20.7915C83.8494 30.8315 84.4194 64.7915 87.2694 71.1215C89.1194 77.0815 88.0695 84.1715 89.5995 90.3215C90.1395 96.8715 91.8895 103.442 91.9095 110.002L91.8995 110.012Z" fill="#56385A"/>
<path d="M14.0195 170.601C13.8795 179.691 16.3195 185.721 13.2695 194.121C10.4495 201.901 4.62953 207.011 0.0195312 210.161C39.5595 210.151 79.0995 210.141 118.64 210.131C118.64 210.131 116.069 145.171 112.609 139.681C107.939 132.281 104.71 126.851 104.71 126.851C102.18 122.591 100.09 118.911 96.2795 114.541C94.5395 112.541 92.9795 111.011 91.9095 110.011C90.1595 117.971 100.29 154.021 102.69 164.211C98.5595 170.931 93.8095 178.901 86.6795 182.841C84.0495 184.291 80.9495 185.081 77.9895 184.211C74.8195 183.271 72.6896 180.721 71.2296 177.871C64.9496 165.601 63.1695 145.871 67.4995 132.691C72.0195 122.821 73.6295 80.7715 74.7995 67.9815C76.4695 49.7115 79.2595 30.8515 79.5095 12.5115L78.4995 14.6915C73.1495 30.0815 71.2495 47.5915 68.3595 63.6615C65.0795 81.9415 61.7695 96.4915 57.0195 114.451C56.8695 114.451 56.1895 117.741 56.1395 117.701C55.9895 121.341 55.4995 125.711 54.3195 130.531C52.4595 138.091 49.5395 144.061 47.0295 148.271C46.5795 153.081 45.1295 154.621 43.9395 155.141C38.4695 157.531 27.5395 143.221 24.5295 139.171C16.1095 152.201 14.1495 162.951 14.0295 170.601H14.0195Z" fill="#312537"/>
<path d="M83.4795 131.701C87.0995 131.411 88.0695 137.161 88.6295 142.051C88.9295 148.411 89.1795 156.001 84.1195 159.931C75.1395 162.981 77.4095 133.131 83.3495 131.741L83.4795 131.701Z" fill="#F07C7C"/>
<path d="M83.1897 124.612C78.6997 123.562 78.6097 95.7515 85.8297 99.9815C90.4497 103.632 89.6197 123.422 83.3097 124.642L83.1897 124.612Z" fill="#F07C7C"/>
<path d="M81.7493 94.2215C78.1893 93.7715 78.6393 68.9715 83.0993 71.2215C85.8793 74.1015 86.3393 93.1715 81.8593 94.2415L81.7493 94.2215Z" fill="#F07C7C"/>
<path d="M100.53 179.221C99.7997 178.821 97.2998 186.011 89.5397 191.221C86.8097 193.051 82.2397 196.121 76.6997 195.311C71.3197 194.521 67.9297 190.481 65.2997 187.271C57.3497 177.521 56.9697 167.181 56.3597 167.301C55.5497 167.461 52.9797 185.741 64.7497 194.751C71.8897 200.221 80.3297 199.221 81.2997 199.091C82.9297 198.871 88.6497 197.921 93.6497 193.211C99.6497 187.551 101.27 179.631 100.53 179.221Z" fill="#593348"/>
<path d="M97.5596 177.791C97.9096 178.151 101.6 175.481 104.61 171.771C107.53 168.161 109.39 164.071 108.98 163.791C108.6 163.531 106.23 166.451 102.7 170.791C99.2796 175.001 97.2596 177.491 97.5596 177.791Z" fill="#6B3C4B"/>
<path d="M98.8896 191.591C99.4896 192.211 94.6996 199.801 86.2796 204.331C85.3196 204.851 82.3596 206.371 78.1196 207.341C67.1396 209.851 57.2296 206.421 57.3096 205.821C57.3796 205.271 65.8896 208.391 76.5696 205.631C90.6596 201.991 98.1396 190.811 98.8796 191.581L98.8896 191.591Z" fill="#6B3C4B"/>
<path d="M111.8 166.241C111.82 172.661 111.83 175.881 112.23 177.511C113.09 181.021 114.35 182.151 113.74 184.571C113.34 186.141 112.43 187.191 111.68 187.971C107.53 192.311 104.26 193.001 99.0797 196.921C96.8297 198.621 93.7497 201.301 91.6597 205.531C91.2797 206.311 90.2097 208.481 90.7297 208.891C91.5697 209.551 94.5797 204.131 101.08 201.101C106.4 198.621 109.71 199.761 113.93 195.991C115.81 194.301 116.83 192.571 116.65 192.391C116.41 192.151 114.27 194.651 110.65 195.371C109.23 195.651 107.3 195.721 107.12 195.181C106.77 194.081 114.35 192.601 116.15 187.241C116.42 186.421 116.42 185.931 116.3 182.591C116.06 175.741 115.94 172.311 115.84 171.251C115.3 165.641 114.7 165.101 113.4 157.191C111.89 147.981 111.73 142.881 111.31 142.901C110.9 142.921 110.42 147.651 110.85 152.551C111.13 155.801 111.65 157.311 111.82 161.561C111.88 163.111 111.82 162.911 111.82 166.261L111.8 166.241Z" fill="#312537"/>
<path d="M91.8896 210.131H118.63C118.55 208.301 118.47 206.461 118.39 204.631C118.28 202.361 118.18 200.081 118.07 197.811C118.01 196.581 117.95 195.361 117.89 194.131C116.53 195.891 114.26 198.351 110.79 199.981C107.26 201.651 105.08 201.241 101.73 202.421C99.1197 203.341 95.5096 205.321 91.8896 210.131Z" fill="#6B3C4B"/>
<path d="M65.4296 178.661C65.2096 178.761 63.6196 175.841 62.2096 172.851C59.3096 166.671 58.3496 162.651 58.6096 162.551C58.8096 162.471 59.4996 164.831 61.2396 165.161C61.9296 165.291 62.1296 164.981 62.5596 165.161C63.7796 165.681 63.0696 168.661 63.5296 172.241C64.0296 176.141 65.6396 178.581 65.4296 178.671V178.661Z" fill="#593348"/>
<path d="M217.819 45.8515C221.989 47.2115 224.859 48.9115 227.179 50.2915C230.669 52.3715 235.459 55.6915 240.449 60.7815L244.249 59.2415C236.799 50.5915 229.719 46.3615 219.469 41.5415C213.579 40.1515 199.529 35.0015 200.439 34.3815C197.429 33.3215 194.459 34.6615 191.239 34.4615C190.459 34.7415 189.539 35.2115 188.529 35.8115C185.209 37.7915 186.569 42.8915 190.439 42.9915C196.499 43.1415 203.199 43.5515 207.529 43.9115C212.689 44.3415 215.879 45.2215 217.839 45.8615L217.819 45.8515Z" fill="#1D2137"/>
<path d="M202.969 173.531C204.349 172.381 205.699 171.131 207.259 170.221C209.779 167.121 215.189 164.271 216.209 160.471C213.649 161.891 211.179 163.662 208.709 165.242C206.519 166.672 204.439 167.911 201.999 168.861C196.869 172.721 190.509 175.322 184.649 177.852C174.279 181.722 163.679 185.191 152.549 185.861C142.229 186.481 132.389 185.821 122.089 187.551L106.539 191.402C98.2893 195.282 93.6593 200.532 88.6593 207.982L88.2393 210.161H99.3193C106.809 205.191 115.249 202.612 123.809 200.072C150.359 192.202 179.569 189.372 202.979 173.521L202.969 173.531Z" fill="#593348"/>
<path d="M203.639 178.262C203.979 175.852 205.399 174.602 207.019 172.952C205.739 173.082 204.169 173.062 202.969 173.522C179.559 189.372 150.359 192.202 123.799 200.072C115.239 202.612 106.799 205.192 99.3091 210.162H155.989C161.309 205.912 172.119 199.422 178.979 199.002C186.309 195.002 198.609 184.922 203.629 178.262H203.639Z" fill="#261934"/>
<path d="M155.989 210.162H162.539C167.669 206.872 174.799 203.332 178.979 199.002C172.119 199.422 161.309 205.912 155.989 210.162Z" fill="#261934"/>
<path d="M182.709 175.392C187.209 173.562 191.969 171.892 196.299 169.712C198.909 167.932 203.469 165.972 205.159 163.452L204.779 163.082C196.959 166.312 183.779 168.142 175.289 168.492C166.279 171.302 157.259 173.792 148.319 176.882C144.579 179.612 139.53 181.552 135.25 183.272C152.25 183.432 166.559 181.012 182.709 175.402V175.392Z" fill="#6B3C4B"/>
<path d="M135.249 183.262C139.539 181.542 144.579 179.602 148.319 176.872C144.839 176.252 130.379 182.882 125.969 184.422C124.499 185.362 123.249 186.242 122.079 187.552C132.379 185.832 142.209 186.482 152.539 185.862C163.669 185.192 174.269 181.722 184.639 177.852L182.699 175.382C166.549 180.992 152.239 183.412 135.239 183.252L135.249 183.262Z" fill="#261934"/>
<path d="M258.119 105.212L256.559 108.642C254.919 115.022 249.309 122.642 245.129 127.682C219.769 158.212 199.079 150.762 165.619 161.092C156.329 163.962 148.399 168.682 140.169 173.752C137.699 175.272 134.779 176.212 132.489 177.902C131.309 180.322 128.569 181.432 126.389 183.042C126.389 183.042 125.769 183.542 125.909 184.072C125.939 184.192 125.949 184.312 125.969 184.422C130.379 182.882 144.839 176.252 148.319 176.872C157.259 173.792 166.279 171.302 175.289 168.482C177.039 166.432 191.499 164.822 195.059 163.952C205.729 161.352 220.169 158.652 228.889 151.892C233.099 148.632 236.939 143.692 241.579 141.252C244.819 139.882 248.039 138.472 251.249 137.022C254.709 128.382 255.759 120.172 258.089 111.362L258.109 105.202L258.119 105.212Z" fill="#5B1D46"/>
<path d="M248.499 69.0715L246.609 67.0715L244.289 69.1515C245.059 69.8515 245.659 70.3115 246.619 70.7415C247.769 71.2615 248.859 71.8315 249.969 72.4315C256.439 82.6815 258.349 95.0415 258.099 106.972V111.362L258.729 111.042C258.959 105.222 257.769 90.8215 258.909 86.4615C256.879 81.9515 254.749 77.4915 252.529 73.0815C251.259 71.7415 249.999 70.1515 248.499 69.0615V69.0715Z" fill="#1D2137"/>
<path d="M106.549 191.481L122.099 187.631C123.269 186.321 124.519 185.441 125.989 184.501C125.969 184.381 131.329 180.401 132.509 177.981C134.799 176.291 137.719 175.351 140.189 173.831C148.419 168.761 156.349 164.041 165.639 161.171C199.099 150.841 219.789 158.291 245.149 127.761C249.329 122.721 254.939 115.111 256.579 108.721L256.779 108.481C257.639 107.481 258.139 106.211 258.139 104.901C258.139 93.6215 256.139 81.9915 250.039 72.3215C248.929 71.7215 247.849 71.1415 246.709 70.6215C245.759 70.1915 245.099 69.8615 244.329 69.1615C243.889 69.1015 243.769 69.1315 243.369 69.1515C240.879 69.2215 184.109 82.1515 180.889 83.3715C164.459 89.5815 114.889 117.841 107.919 133.981C107.919 133.981 110.189 140.141 110.699 148.701C111.879 157.021 110.709 174.421 112.849 180.451C112.939 180.721 113.049 180.981 113.129 181.251C115.649 189.141 109.669 185.091 106.549 191.491V191.481Z" fill="url(#paint0_linear_897_789)"/>
<path d="M191.229 34.4615C194.449 34.6715 197.419 33.3315 200.429 34.3815C205.609 34.2115 210.769 33.8015 215.949 33.9715C233.789 34.5815 249.149 41.8615 261.309 55.0315C268.109 62.3915 270.339 70.8115 269.979 80.6015C269.999 85.2815 275.849 95.8115 276.829 102.032C280.579 114.292 284.809 152.402 285.259 166.092C290.609 149.622 297.919 116.112 296.079 99.4215C295.499 94.1515 293.299 88.7115 290.899 84.0015C285.289 73.0115 260.639 42.9615 250.349 35.6715C246.519 32.9615 241.279 31.2115 236.829 29.7915C227.079 26.6715 217.349 26.2115 207.189 26.5715C207.189 26.5715 193.739 33.0515 191.219 34.4715L191.229 34.4615Z" fill="#593348"/>
<path d="M260.399 68.9115C251.549 58.0615 238.099 44.0715 224.099 40.4015L223.199 41.4815L219.459 41.5315C229.709 46.3515 236.79 50.5815 244.24 59.2315C248.37 63.8815 250.719 67.0815 252.519 73.0815C254.749 77.4915 256.869 81.9515 258.899 86.4615C262.259 93.8715 264.069 101.341 264.479 109.491C264.649 112.931 264.049 116.551 265.039 119.871C266.859 113.971 268.979 107.311 268.979 101.091C270.499 88.6715 267.109 79.2015 260.389 68.9115H260.399Z" fill="#593348"/>
<path d="M260.399 68.9115C251.549 58.0615 238.099 44.0715 224.099 40.4015L223.199 41.4815L219.459 41.5315C229.709 46.3515 236.79 50.5815 244.24 59.2315C248.37 63.8815 250.719 67.0815 252.519 73.0815C254.749 77.4915 256.869 81.9515 258.899 86.4615C262.259 93.8715 264.069 101.341 264.479 109.491C264.649 112.931 264.049 116.551 265.039 119.871C266.859 113.971 268.979 107.311 268.979 101.091C270.499 88.6715 267.109 79.2015 260.389 68.9115H260.399Z" fill="url(#paint1_linear_897_789)"/>
<path d="M264.489 109.491C264.079 101.351 262.259 93.8715 258.909 86.4615C257.769 90.8215 258.949 105.221 258.729 111.041L258.109 111.361C255.779 120.171 254.719 128.381 251.269 137.021C254.869 135.531 258.099 133.351 261.389 131.271C264.219 127.241 265.909 125.251 265.109 120.081C265.099 120.011 265.079 119.941 265.059 119.871C264.079 116.541 264.679 112.921 264.499 109.491H264.489Z" fill="#1D2137"/>
<path d="M264.849 71.5815L260.409 68.9215C267.129 79.2215 270.519 88.6815 268.999 101.102C272.369 97.1015 269.429 91.9015 271.399 89.2315C273.789 93.0115 273.909 97.8415 276.529 101.592C276.629 101.732 276.739 101.882 276.839 102.022C275.859 95.8115 270.009 85.2715 269.989 80.5915C268.349 77.6515 266.829 74.2715 264.859 71.5715L264.849 71.5815Z" fill="#1B1E39"/>
<path d="M248.499 69.0715C249.989 70.1615 251.249 71.7415 252.529 73.0915C250.729 67.0915 248.379 63.8915 244.249 59.2415L240.449 60.7815C243.239 63.4315 245.839 66.2915 248.499 69.0715Z" fill="#1D2137"/>
<path d="M219.459 41.5415L223.199 41.4915L224.099 40.4115L221.419 38.7615L221.619 38.2015C223.679 38.4715 225.509 39.0615 227.429 39.8115C241.279 45.1615 258.689 57.6115 264.839 71.5915C266.819 74.2915 268.329 77.6715 269.969 80.6115C270.329 70.8215 268.099 62.4015 261.299 55.0415C249.139 41.8715 233.779 34.5915 215.939 33.9815C210.759 33.8015 205.599 34.2215 200.419 34.3915C199.509 35.0115 213.569 40.1615 219.449 41.5515L219.459 41.5415Z" fill="#593348"/>
<path d="M227.429 39.8015C225.499 39.0615 223.68 38.4615 221.62 38.1915L221.419 38.7515L224.099 40.4015C238.099 44.0715 251.549 58.0615 260.399 68.9115L264.839 71.5715C258.689 57.6015 241.279 45.1415 227.429 39.7915V39.8015Z" fill="#1B1E39"/>
<path d="M218.329 183.832C230.209 173.382 239.689 163.942 248.669 150.882C251.249 144.982 256.719 137.842 260.779 132.772L261.469 131.082C258.179 133.162 254.869 135.542 251.269 137.032C248.059 138.472 244.839 139.882 241.599 141.262C237.199 146.852 231.309 152.702 225.969 157.402C218.959 164.692 211.269 171.622 203.649 178.272C198.629 184.932 186.329 195.012 178.999 199.012C174.819 203.342 167.689 206.882 162.559 210.172H195.039C197.669 205.952 200.219 201.262 203.419 197.452C207.629 192.452 213.429 188.162 218.339 183.842L218.329 183.832Z" fill="#593348"/>
<path d="M237.949 184.372C241.399 174.032 248.119 163.571 254.699 154.971L252.189 153.551L251.679 152.781C253.449 149.351 255.139 146.052 256.299 142.352C253.089 143.612 252.409 149.852 248.669 150.872C239.689 163.942 230.219 173.372 218.329 183.822C213.409 188.142 207.619 192.432 203.409 197.432C200.209 201.232 197.659 205.932 195.029 210.152H206.239C207.219 207.962 207.589 206.462 209.519 204.992C211.129 206.472 211.219 208.082 211.799 210.152H229.509C230.109 208.482 230.849 206.812 230.909 205.012C234.559 198.712 235.679 191.191 237.959 184.361L237.949 184.372Z" fill="#1D2137"/>
<path d="M256.289 142.361C255.139 146.061 253.439 149.361 251.669 152.791L252.179 153.561C256.389 148.151 259.45 139.471 260.76 132.771C256.71 137.841 251.229 144.981 248.649 150.881C252.379 149.861 253.059 143.621 256.279 142.361H256.289Z" fill="#1D2137"/>
<path d="M206.229 210.162H211.789C211.209 208.092 211.12 206.482 209.51 205.002C207.57 206.472 207.209 207.972 206.229 210.162Z" fill="#1D2137"/>
<path d="M204.789 163.072L205.169 163.442C203.479 165.962 198.919 167.922 196.309 169.702C191.969 171.892 187.219 173.552 182.719 175.382L184.659 177.852C190.519 175.322 196.879 172.722 202.009 168.862C204.449 167.902 206.519 166.662 208.719 165.242C211.189 163.662 213.649 161.882 216.219 160.472C215.199 164.272 209.799 167.122 207.269 170.222C205.719 171.132 204.359 172.382 202.979 173.532C204.169 173.072 205.749 173.092 207.029 172.962C205.409 174.612 203.989 175.862 203.649 178.272C211.269 171.622 218.959 164.692 225.969 157.402C231.309 152.702 237.199 146.852 241.599 141.262C236.959 143.702 233.109 148.642 228.909 151.902C220.189 158.662 205.749 161.372 195.079 163.962C191.529 164.822 177.059 166.432 175.309 168.492C183.809 168.142 196.979 166.312 204.799 163.082L204.789 163.072Z" fill="#261934"/>
<path d="M230.899 205.032L232.51 207.192H235.269C253.559 185.712 269.689 161.502 278.439 134.422C269.429 140.552 261.869 146.762 254.699 154.972C248.119 163.572 241.399 174.042 237.949 184.372C235.669 191.212 234.549 198.732 230.899 205.022V205.032Z" fill="#593348"/>
<path d="M232.51 207.191L230.899 205.031C230.839 206.821 230.1 208.491 229.5 210.171H232.38L235.269 207.212H232.51V207.191Z" fill="#593348"/>
<g style="mix-blend-mode:multiply" opacity="0.4">
<path d="M136.22 140.392C140.81 145.112 149.1 142.912 153.51 140.392C155.08 139.502 161.62 135.762 162.46 127.962C163 122.892 161.039 116.912 156.049 113.652C151.239 110.512 145.39 111.042 141.31 113.652C136.74 116.582 135.43 121.462 134.63 124.422C133.88 127.242 131.62 135.672 136.21 140.392H136.22Z" fill="#395436"/>
</g>
<path d="M149.049 118.552C148.069 116.902 147.019 115.542 145.749 114.112C137.579 111.312 133.629 122.272 126.599 123.892C126.319 125.142 126.029 126.432 125.959 127.712C125.759 131.912 127.409 135.312 130.189 138.312C134.799 135.872 139.849 134.592 144.069 131.432C150.299 126.762 149.689 119.722 153.389 116.672C154.319 117.042 155.249 117.392 156.139 117.872L152.209 114.062C151.689 115.682 151.149 117.052 150.249 118.502L149.039 118.542L149.049 118.552Z" fill="#F07C7C"/>
<path d="M127.089 122.442L126.599 123.892C127.699 123.702 129.309 123.302 130.949 122.282C133.469 120.722 133.469 119.342 135.749 117.342C138.509 114.942 143.009 113.032 145.389 114.592C145.839 114.882 146.629 115.572 147.099 116.612C147.819 118.202 147.259 119.462 147.889 119.782C148.649 120.172 150.129 118.642 150.259 118.502C150.929 117.802 151.239 117.072 151.539 116.342C151.929 115.422 152.119 114.622 152.219 114.052C151.009 113.302 148.989 112.272 146.309 111.782C145.219 111.582 141.559 111.032 137.279 112.582C133.769 113.862 131.629 115.912 130.669 116.852C128.379 119.092 127.759 120.932 127.089 122.422V122.442Z" fill="#F9A5A5"/>
<path d="M144.069 131.441C143.049 132.291 141.219 133.451 137.269 135.151C134.899 136.171 132.489 137.101 130.179 138.321C134.369 141.151 138.319 142.221 143.369 141.271C148.369 140.331 153.169 137.491 156.069 133.261C158.109 130.291 159.089 126.441 158.359 122.871C157.999 121.101 157.449 119.561 156.139 117.881C155.879 117.551 155.329 117.121 154.569 116.791C154.569 116.791 153.549 116.341 152.599 116.361C150.019 116.411 150.109 126.371 144.069 131.451V131.441Z" fill="#F63860"/>
<g style="mix-blend-mode:multiply" opacity="0.4">
<path d="M191.009 149.672C194.859 153.462 201.819 151.692 205.519 149.672C206.839 148.952 212.329 145.952 213.029 139.682C213.489 135.602 211.839 130.812 207.649 128.192C203.609 125.672 198.699 126.092 195.279 128.192C191.439 130.542 190.339 134.462 189.679 136.842C189.049 139.102 187.149 145.872 191.009 149.672Z" fill="#395436"/>
</g>
<path d="M194.349 143.132C196.769 142.052 199.589 141.132 201.809 139.692C202.879 137.102 203.829 134.212 205.529 131.972C203.909 130.692 202.159 129.642 200.119 129.192C197.059 128.512 193.769 129.532 191.169 131.152C188.319 132.932 186.059 135.662 185.329 138.992C184.539 142.632 185.449 145.242 187.399 148.282C188.589 145.182 191.429 144.432 194.349 143.142V143.132Z" fill="#F0807F"/>
<path d="M205.529 131.962C203.829 134.202 202.879 137.092 201.809 139.682C199.009 145.622 196.439 147.602 191.019 150.932C195.089 151.982 197.989 152.232 201.749 150.062C202.089 149.862 202.409 149.652 202.729 149.422C203.049 149.192 203.349 148.942 203.639 148.692C203.929 148.432 204.209 148.162 204.479 147.872C204.749 147.582 204.999 147.282 205.229 146.972C205.469 146.662 205.689 146.332 205.889 146.002C206.089 145.672 206.279 145.322 206.449 144.972C206.619 144.622 206.769 144.262 206.909 143.892C207.039 143.522 207.159 143.152 207.259 142.772C208.179 139.312 207.469 135.442 205.759 132.322C205.689 132.202 205.609 132.092 205.539 131.972L205.529 131.962Z" fill="#F03557"/>
<path d="M201.799 139.682C199.579 141.122 196.769 142.052 194.339 143.122C191.419 144.422 188.579 145.172 187.389 148.262C188.479 149.242 189.809 150.062 190.999 150.922C196.429 147.592 198.999 145.622 201.789 139.672L201.799 139.682Z" fill="#D12A52"/>
<g style="mix-blend-mode:multiply" opacity="0.4">
<path d="M177.019 107.941C179.559 110.441 184.149 109.271 186.589 107.941C187.459 107.471 191.079 105.491 191.539 101.351C191.839 98.6615 190.759 95.5015 187.989 93.7715C185.329 92.1115 182.089 92.3915 179.829 93.7715C177.299 95.3215 176.569 97.9115 176.139 99.4715C175.719 100.962 174.469 105.432 177.019 107.932V107.941Z" fill="#395436"/>
</g>
<path d="M179.219 103.622C180.819 102.912 182.679 102.302 184.139 101.352C184.839 99.6415 185.469 97.7415 186.599 96.2615C185.529 95.4115 184.369 94.7215 183.029 94.4215C181.009 93.9715 178.839 94.6415 177.129 95.7115C175.249 96.8815 173.759 98.6815 173.279 100.882C172.759 103.282 173.359 105.002 174.639 107.012C175.429 104.972 177.299 104.472 179.219 103.622Z" fill="#F0807F"/>
<path d="M186.589 96.2615C185.469 97.7415 184.839 99.6415 184.129 101.351C182.289 105.271 180.589 106.571 177.009 108.771C179.699 109.461 181.609 109.621 184.079 108.191C184.299 108.061 184.519 107.921 184.729 107.771C184.939 107.621 185.139 107.461 185.329 107.291C185.519 107.121 185.709 106.941 185.879 106.751C186.059 106.561 186.219 106.361 186.379 106.161C186.539 105.951 186.679 105.741 186.809 105.521C186.939 105.301 187.069 105.071 187.179 104.841C187.289 104.611 187.389 104.371 187.479 104.131C187.569 103.891 187.649 103.641 187.709 103.391C188.319 101.111 187.849 98.5515 186.719 96.5015C186.679 96.4215 186.619 96.3515 186.569 96.2715L186.589 96.2615Z" fill="#F03557"/>
<path d="M184.139 101.351C182.679 102.301 180.819 102.911 179.219 103.621C177.289 104.471 175.419 104.971 174.639 107.011C175.359 107.661 176.239 108.201 177.019 108.761C180.599 106.571 182.289 105.261 184.139 101.341V101.351Z" fill="#D12A52"/>
<g style="mix-blend-mode:multiply" opacity="0.4">
<path d="M120.489 170.962C124.339 174.752 131.299 172.982 134.999 170.962C136.319 170.242 141.809 167.242 142.509 160.972C142.969 156.892 141.319 152.102 137.129 149.482C133.089 146.962 128.179 147.382 124.759 149.482C120.919 151.832 119.819 155.752 119.159 158.132C118.529 160.392 116.629 167.162 120.489 170.962Z" fill="#395436"/>
</g>
<path d="M133.869 159.512C134.469 157.622 134.939 155.252 135.929 153.542C134.309 152.612 132.269 151.682 130.399 151.472C127.219 151.102 123.699 152.072 121.219 154.102C118.759 156.112 117.289 159.052 116.969 162.182C116.599 165.812 117.759 168.022 119.959 170.792C126.999 168.522 130.309 166.122 133.869 159.502V159.512Z" fill="#F07C7C"/>
<path d="M133.87 159.512C130.31 166.132 126.989 168.532 119.959 170.802C124.289 172.922 126.91 173.012 131.51 171.482C132.19 171.252 132.749 170.982 133.359 170.612C133.389 170.432 133.419 170.252 133.449 170.072C134.369 165.062 137.01 164.602 133.87 159.512Z" fill="#F03557"/>
<path d="M135.929 153.542C134.939 155.252 134.469 157.612 133.869 159.512C137.009 164.602 134.369 165.062 133.449 170.072C133.419 170.252 133.389 170.432 133.359 170.612C136.299 168.332 138.419 165.692 138.859 161.872C139.179 159.062 138.299 156.322 136.489 154.162C136.309 153.952 136.119 153.752 135.929 153.552V153.542Z" fill="#D12A52"/>
<g style="mix-blend-mode:multiply" opacity="0.4">
<path d="M222.14 112.612C226.93 117.332 235.6 115.132 240.21 112.612C241.85 111.722 248.69 107.982 249.56 100.182C250.13 95.1115 248.08 89.1315 242.86 85.8715C237.83 82.7315 231.72 83.2615 227.46 85.8715C222.68 88.8015 221.31 93.6815 220.48 96.6415C219.69 99.4615 217.33 107.892 222.13 112.612H222.14Z" fill="#395436"/>
</g>
<path d="M238.799 98.3515C239.549 95.9915 240.129 93.0515 241.359 90.9215C239.349 89.7615 236.799 88.6115 234.469 88.3415C230.509 87.8815 226.129 89.0815 223.029 91.6115C219.969 94.1115 218.139 97.7715 217.739 101.681C217.279 106.201 218.719 108.951 221.459 112.411C230.219 109.591 234.349 106.601 238.779 98.3615L238.799 98.3515Z" fill="#F07C7C"/>
<path d="M238.799 98.3515C234.369 106.592 230.239 109.582 221.479 112.402C226.879 115.042 230.129 115.152 235.859 113.252C236.709 112.972 237.399 112.622 238.159 112.172C238.199 111.952 238.229 111.732 238.269 111.502C239.419 105.272 242.699 104.682 238.799 98.3515Z" fill="#F03557"/>
<path d="M241.359 90.9215C240.129 93.0515 239.549 95.9915 238.799 98.3515C242.699 104.682 239.419 105.262 238.269 111.502C238.229 111.722 238.189 111.942 238.159 112.172C241.819 109.332 244.469 106.052 245.009 101.292C245.409 97.8015 244.319 94.3815 242.059 91.6915C241.839 91.4315 241.599 91.1815 241.369 90.9315L241.359 90.9215Z" fill="#D12A52"/>
<path d="M471.23 173.521C469.85 172.371 468.5 171.121 466.94 170.211C464.42 167.111 459.01 164.261 457.99 160.461C460.55 161.881 463.02 163.651 465.49 165.231C467.68 166.661 469.76 167.901 472.2 168.851C477.33 172.711 483.69 175.311 489.55 177.841C499.92 181.711 510.52 185.181 521.65 185.851C531.97 186.471 541.81 185.811 552.11 187.541L567.66 191.391C575.91 195.271 580.54 200.521 585.54 207.971L585.96 210.151H574.88C567.39 205.181 558.95 202.601 550.39 200.061C523.84 192.191 494.63 189.361 471.22 173.511L471.23 173.521Z" fill="#593348"/>
<path d="M470.56 178.261C470.22 175.851 468.8 174.601 467.18 172.951C468.46 173.081 470.03 173.061 471.23 173.521C494.64 189.371 523.84 192.201 550.4 200.071C558.96 202.611 567.4 205.191 574.89 210.161H518.21C512.89 205.911 502.08 199.421 495.22 199.001C487.89 195.001 475.59 184.921 470.57 178.261H470.56Z" fill="#261934"/>
<path d="M518.21 210.161H511.66C506.53 206.871 499.4 203.331 495.22 199.001C502.08 199.421 512.89 205.911 518.21 210.161Z" fill="#261934"/>
<path d="M491.49 175.391C486.99 173.561 482.23 171.891 477.9 169.711C475.29 167.931 470.73 165.971 469.04 163.451L469.42 163.081C477.24 166.311 490.42 168.141 498.91 168.491C507.92 171.301 516.94 173.791 525.88 176.881C529.62 179.611 534.67 181.551 538.95 183.271C521.95 183.431 507.64 181.011 491.49 175.401V175.391Z" fill="#6B3C4B"/>
<path d="M538.95 183.251C534.66 181.531 529.62 179.591 525.88 176.861C529.36 176.241 543.82 182.871 548.23 184.411C549.7 185.351 550.95 186.231 552.12 187.541C541.82 185.821 531.99 186.471 521.66 185.851C510.53 185.181 499.93 181.711 489.56 177.841L491.5 175.371C507.65 180.981 521.96 183.401 538.96 183.241L538.95 183.251Z" fill="#261934"/>
<path d="M337.69 210.161H401.72C391.91 194.071 379.29 175.901 373.86 157.881C369.24 142.571 319.66 97.5815 313.5 112.121C307.17 127.071 306.08 142.571 301.46 157.881C296.02 175.901 283.41 194.071 273.6 210.161H337.7H337.69Z" fill="#08131F"/>
<path d="M455.869 183.831C443.989 173.381 434.509 163.942 425.529 150.882C422.949 144.982 417.409 137.952 413.349 132.872L412.529 130.982C415.819 133.062 419.319 135.531 422.929 137.031C426.139 138.471 429.359 139.882 432.599 141.262C436.999 146.852 442.889 152.702 448.229 157.402C455.239 164.692 462.929 171.621 470.549 178.271C475.569 184.931 487.869 195.012 495.199 199.012C499.379 203.342 506.509 206.881 511.639 210.171H479.159C476.529 205.951 473.979 201.262 470.779 197.452C466.569 192.452 460.769 188.162 455.859 183.842L455.869 183.831Z" fill="#593348"/>
<path d="M469.41 163.071L469.03 163.441C470.72 165.961 475.28 167.921 477.89 169.701C482.23 171.891 486.98 173.551 491.48 175.381L489.54 177.851C483.68 175.321 477.32 172.721 472.19 168.861C469.75 167.901 467.68 166.661 465.48 165.241C463.01 163.661 460.55 161.881 457.98 160.471C459 164.271 464.4 167.121 466.93 170.221C468.48 171.131 469.84 172.381 471.22 173.531C470.03 173.071 468.45 173.091 467.17 172.961C468.79 174.611 470.21 175.861 470.55 178.271C462.93 171.621 455.24 164.691 448.23 157.401C442.89 152.701 437 146.851 432.6 141.261C437.24 143.701 441.09 148.641 445.29 151.901C454.01 158.661 468.45 161.371 479.12 163.961C482.67 164.821 497.14 166.431 498.89 168.491C490.39 168.141 477.22 166.311 469.4 163.081L469.41 163.071Z" fill="#261934"/>
<path d="M438.089 207.262L441.039 210.162H444.699C444.099 208.492 443.359 206.822 443.299 205.022C439.649 198.722 438.529 191.202 436.249 184.372C432.799 174.032 426.079 163.572 419.499 154.972C412.319 146.762 404.559 140.552 395.549 134.422C404.289 161.492 419.789 185.772 438.079 207.262H438.089Z" fill="#593348"/>
<path d="M331.539 96.7415C328.409 101.301 324.879 105.071 320.959 108.971C328.829 104.761 336.479 100.271 343.579 94.8515V94.8715C361.569 86.0215 374.699 83.8415 394.149 89.3315C381.029 80.9715 370.8 79.9315 356.01 76.1915C359.14 71.6315 362.669 67.8615 366.589 63.9615C358.719 68.1715 351.069 72.6615 343.969 78.0815V78.0615C325.979 86.9115 312.849 89.0915 293.399 83.6015C306.519 91.9615 316.749 93.0015 331.539 96.7415Z" fill="#06101E"/>
<path d="M299.45 57.3415C300.75 56.4015 302.44 54.8215 303.91 54.2715C310.26 49.7015 317.15 45.6515 323.93 41.7515C325.03 41.0415 327.49 39.5315 328.65 38.9215C333.67 35.9915 336.66 33.6015 341.39 30.2015C343.36 28.7715 345.52 27.5215 347.58 26.2215C355.28 19.2715 367 19.2015 376.64 19.0315L376.28 18.6415C373.2 18.5315 370.39 17.7115 367.38 17.4515C363.5 17.1215 359.96 17.4315 356.66 18.3415C350.53 20.0215 345.1 23.5815 342.45 26.7515C342.17 27.0815 341.74 27.6315 341 28.3115C338.98 30.1615 337.8 30.1015 334.39 31.8915C330.97 33.6915 330.84 34.4515 328.99 34.7615C328.5 34.8415 327.32 34.9915 325.76 35.5015C324.96 35.7615 324.33 36.0215 323.92 36.2015V36.2215C322.64 37.0115 321.07 37.6015 319.71 38.2515C309.93 42.3015 301.62 49.2915 293.14 55.4815C295.55 54.9915 297.73 53.5615 299.86 52.3815C298.75 54.4815 297.89 56.5615 297.11 58.8015C297.16 58.7815 297.23 58.7715 297.29 58.7715C298.02 58.7515 298.66 58.2815 299.13 57.7115L299.44 57.3315" fill="#06101E"/>
<path d="M249.65 18.3115C250.81 18.5015 252.49 18.5815 253.53 19.0615C259.16 20.0315 264.79 21.5415 270.29 23.0815C271.22 23.2915 273.27 23.8015 274.18 24.0915C278.28 25.2015 281.05 25.5415 285.23 26.2615C286.99 26.5515 288.73 27.0415 290.47 27.4515C298.02 27.9115 304.05 33.9615 309.07 38.8915L309.09 38.5115C307.57 36.8515 306.57 34.9715 305.16 33.2715C303.35 31.0815 301.37 29.4015 299.22 28.1515C295.21 25.8215 290.58 24.8215 287.58 25.0615C287.27 25.0915 286.76 25.1415 286.02 25.1015C284.03 24.9915 283.45 24.3515 280.78 23.5015C278.1 22.6415 277.63 22.9615 276.53 22.1615C276.24 21.9515 275.56 21.4115 274.49 20.8515C273.95 20.5715 273.49 20.3715 273.18 20.2515C272.11 19.9915 271.01 19.4915 269.97 19.1115C262.86 16.0915 254.97 15.3515 247.41 14.1015C248.89 15.1015 250.76 15.5115 252.46 16.0115C250.8 16.5015 249.28 17.1215 247.71 17.8615C247.75 17.8815 247.78 17.9115 247.82 17.9415C248.2 18.3115 248.78 18.4015 249.31 18.3615L249.67 18.3315" fill="#06101E"/>
<path d="M312.29 59.4915C317.02 56.0915 321.28 51.7615 326.3 48.8215C327.46 48.2215 328.65 47.6415 329.75 46.9315C333.07 44.9915 336.47 42.9215 339.92 40.7115C345.4 37.1915 350.51 33.6515 355.26 30.1515C348.43 33.5615 343.89 35.9715 342.21 37.2115C341.81 37.5015 340.42 38.5915 339.21 38.1715C338.99 38.0915 338.67 37.9815 338.57 37.7315C338.11 36.6315 342.25 33.8715 346.09 31.3115C348.38 29.7815 350.29 28.6315 353.18 26.3415C353.67 25.9615 354.06 25.6315 354.32 25.4215C351.19 27.2315 348.73 28.8515 347.05 30.0115C341.61 33.7515 339 36.2715 333.19 39.6415C331.74 40.4815 330.53 41.1215 329.74 41.5315V41.7415C322.96 45.6415 316.07 49.6915 309.72 54.2615C311.89 54.6915 315.32 52.2015 317.28 51.2415C318.84 50.4815 319.97 49.9515 321.62 50.5215C317.95 55.1215 308.5 59.3415 306.21 63.2315C306.16 63.3115 306.13 63.3915 306.08 63.4715C308.14 62.1715 310.3 60.9315 312.27 59.4915H312.29Z" fill="#2B6465"/>
<path d="M416.29 198.731C410.48 190.081 402.99 182.221 398.03 173.071C397.02 170.961 396.06 168.801 394.86 166.791C391.59 160.741 388.08 154.551 384.32 148.241C378.35 138.231 372.32 128.901 366.33 120.221C372.03 132.631 376.08 140.882 378.2 143.951C378.7 144.681 380.56 147.231 379.74 149.371C379.59 149.761 379.37 150.321 378.92 150.491C376.92 151.241 372.23 143.681 367.87 136.671C365.27 132.481 363.32 129.011 359.4 123.701C358.74 122.811 358.19 122.091 357.81 121.601C360.86 127.301 363.63 131.801 365.59 134.861C371.96 144.801 376.32 149.611 382 160.191C383.41 162.821 384.49 165.031 385.17 166.471H385.55C392.13 178.831 398.97 191.381 406.78 203.001C407.68 199.141 403.42 192.871 401.82 189.312C400.55 186.481 399.67 184.431 400.79 181.501C408.8 188.331 415.79 205.461 422.61 209.781C422.74 209.871 422.88 209.941 423.02 210.021C420.81 206.251 418.72 202.331 416.27 198.721L416.29 198.731Z" fill="#2B6465"/>
<path d="M314.5 83.2015C317.34 83.4115 321.29 83.2615 325.33 81.4015C327.95 80.1915 327.93 79.4915 333.24 76.0715C336.9 73.7115 339.6 71.9915 343.4 70.6915C346.22 69.7215 348.67 69.3215 350.33 69.1215C351.3 68.8615 351.79 68.6215 351.78 68.4015C351.78 68.2715 351.61 68.1515 351.27 68.0315C346.06 67.1915 342.58 68.1515 340.34 69.2015C337.75 70.4215 337.57 71.4215 332.58 74.8515C329.99 76.6315 327.64 78.2315 324.42 79.6115C320.99 81.0915 317.85 81.7715 315.45 82.1115C313.33 82.1115 312.26 82.2015 312.24 82.4215C312.22 82.6015 312.98 82.8715 314.51 83.2115L314.5 83.2015Z" fill="#0F192D"/>
<path d="M364.28 91.0615C366.91 89.9615 370.71 88.8515 375.12 89.3415C377.99 89.6615 378.19 90.3315 384.32 91.8915C388.54 92.9715 391.64 93.7415 395.66 93.7815C398.64 93.8115 401.09 93.4215 402.73 93.0715C403.74 93.0115 404.27 93.0815 404.33 93.3015C404.37 93.4215 404.24 93.6015 403.96 93.8215C399.29 96.2715 395.68 96.4615 393.22 96.1715C390.38 95.8315 389.89 94.9415 384.07 93.2715C381.05 92.4015 378.31 91.6315 374.82 91.3415C371.1 91.0315 367.91 91.3715 365.52 91.8115C363.51 92.4915 362.46 92.7315 362.38 92.5415C362.3 92.3715 362.94 91.8815 364.29 91.0715L364.28 91.0615Z" fill="#0F192D"/>
<path d="M284.62 67.2715C295.27 70.5615 303.74 70.6315 313.77 65.2915C321.53 61.1615 328.02 51.8715 336.98 50.6315C336.98 50.6315 338.22 50.2515 338.68 50.0415C339.94 49.4715 340.83 48.8915 341.2 48.6315C359.68 35.2615 368.92 28.5715 368.35 27.7415C368.09 27.3615 365.88 28.0515 364.4 28.8715C363.21 29.5215 362.42 30.2915 362.15 30.0715C361.92 29.8815 362.18 29.0615 362.56 28.4515C363.82 26.4015 366.62 26.0815 366.54 25.7515C366.51 25.6215 366.04 25.6215 365.31 25.6215C364.81 25.6215 364.41 25.6215 363.9 25.7515C363.33 25.9015 362.91 26.1415 362.5 26.3815C362.18 26.5615 361.93 26.7415 361.75 26.8815C360.93 27.5115 359.74 28.3915 358.3 29.4315C357.53 29.9815 356.89 30.4315 356.3 30.8415C353.34 32.8915 350.51 34.8515 346.83 37.1715C345.35 38.1015 343.37 39.3115 340.98 40.7015C340.13 41.2915 339.22 41.8815 338.23 42.4515C337.81 42.6915 337.4 42.9315 337 43.1515V43.1815C335.9 43.8915 334.71 44.4615 333.55 45.0615C328.53 47.9915 324.27 52.3315 319.54 55.7315C317.57 57.1615 315.41 58.4115 313.35 59.7115C305.65 66.6615 293.93 66.7315 284.29 66.9015L284.65 67.2915L284.62 67.2715ZM319.2 58.4115C319.2 58.4115 319.26 58.3315 319.3 58.3015C319.27 58.3415 319.24 58.3815 319.2 58.4115Z" fill="#08131F"/>
<defs>
<linearGradient id="paint0_linear_897_789" x1="158.399" y1="97.1415" x2="187.699" y2="148.281" gradientUnits="userSpaceOnUse">
<stop stop-color="#40432E"/>
<stop offset="1" stop-color="#7F154C"/>
</linearGradient>
<linearGradient id="paint1_linear_897_789" x1="264.254" y1="74.3165" x2="235.869" y2="82.5565" gradientUnits="userSpaceOnUse">
<stop stop-color="#49303F"/>
<stop offset="1" stop-color="#683F5F"/>
</linearGradient>
</defs>
</svg>
