<svg width="375" height="108" viewBox="0 0 375 108" fill="none" xmlns="http://www.w3.org/2000/svg">
<path d="M44.8455 79C65.9055 69.8 107.215 77.06 165.105 75.9C190.025 75.4 209.235 74.37 223.185 73.53C242.005 72.4 246.796 71.64 259.516 72.05C282.456 72.8 313.525 76.81 350.955 90.9C360.025 94.32 374.385 107.79 374.385 107.79L0.515524 107.76C-3.12448 104.98 14.2555 92.34 20.5355 90.36C33.4155 86.29 38.5155 81.77 44.8555 79H44.8455Z" fill="#1C111D"/>
<path d="M85.7456 80.78C75.2556 78.55 69.8256 75.45 67.2056 78.19C64.8856 80.62 66.2356 86.11 68.0656 89.61C76.2656 105.3 105.886 103.73 112.036 103.41C116.646 103.17 132.876 102.31 133.806 97.16C134.586 92.86 124.416 87.11 117.206 84.44C105.336 80.04 102.376 84.32 85.7356 80.78H85.7456Z" fill="#0B070C"/>
<path d="M119.975 0C109.365 12.07 97.1155 28.44 86.5055 49.47C80.3755 61.63 75.8955 73.14 72.6055 83.42C78.5955 86.77 87.0155 90.67 97.6055 93.28C107.175 95.64 115.615 96.22 122.075 96.19C123.375 82.62 124.146 67.54 123.906 51.16C123.636 32.3 122.095 15.14 119.975 0Z" fill="#1C111D"/>
<path d="M97.6157 93.28C107.186 95.64 115.626 96.22 122.086 96.19C123.386 82.62 124.156 67.54 123.916 51.16C123.646 32.3 122.106 15.14 119.986 0L97.6257 93.28H97.6157Z" fill="#3A253D"/>
<path d="M259.746 85.74C253.496 86.83 249.826 86.32 248.996 88.41C248.256 90.26 250.206 92.97 251.986 94.49C259.946 101.3 275.865 93.9 279.175 92.37C281.655 91.22 290.376 87.17 289.756 84.14C289.236 81.61 282.386 80.69 277.836 80.82C270.346 81.02 269.666 84.02 259.746 85.75V85.74Z" fill="#0B070C"/>
<path d="M260.726 33.83C257.556 42.8 254.446 54.49 253.256 68.38C252.566 76.41 252.656 83.72 253.106 90.09C257.136 90.61 262.616 90.9 269.016 89.99C274.786 89.17 279.556 87.63 283.096 86.19C280.816 78.45 277.916 70 274.176 61.06C269.866 50.76 265.236 41.68 260.736 33.83H260.726Z" fill="#1C111D"/>
<path d="M269.015 89.99C274.785 89.17 279.555 87.63 283.095 86.19C280.815 78.45 277.915 70 274.175 61.06C269.865 50.76 265.235 41.68 260.735 33.83L269.025 89.99H269.015Z" fill="#3A253D"/>
</svg>
