<svg width="375" height="109" viewBox="0 0 375 109" fill="none" xmlns="http://www.w3.org/2000/svg">
<path d="M44.8455 29.2615C65.9055 38.4615 107.215 31.2015 165.105 32.3615C190.025 32.8615 209.235 33.8915 223.185 34.7315C242.005 35.8615 246.796 36.6215 259.516 36.2115C282.456 35.4615 313.525 31.4515 350.955 17.3615C360.025 13.9415 374.385 0.471485 374.385 0.471485L0.515524 0.501484C-3.12448 3.28148 14.2555 15.9215 20.5355 17.9015C33.4155 21.9715 38.5155 26.4915 44.8555 29.2615H44.8455Z" fill="#1C111D"/>
<path d="M85.7456 27.4815C75.2556 29.7115 69.8256 32.8115 67.2056 30.0715C64.8856 27.6415 66.2356 22.1515 68.0656 18.6515C76.2656 2.96152 105.886 4.53152 112.036 4.85151C116.646 5.09151 132.876 5.95152 133.806 11.1015C134.586 15.4015 124.416 21.1515 117.206 23.8215C105.336 28.2215 102.376 23.9415 85.7356 27.4815H85.7456Z" fill="#0B070C"/>
<path d="M119.975 108.261C109.365 96.1915 97.1155 79.8215 86.5055 58.7915C80.3755 46.6315 75.8955 35.1215 72.6055 24.8415C78.5955 21.4915 87.0155 17.5915 97.6055 14.9815C107.175 12.6215 115.615 12.0415 122.075 12.0715C123.375 25.6415 124.146 40.7215 123.906 57.1015C123.636 75.9615 122.095 93.1215 119.975 108.261Z" fill="#1C111D"/>
<path d="M97.6157 14.9815C107.186 12.6215 115.626 12.0415 122.086 12.0715C123.386 25.6415 124.156 40.7215 123.916 57.1015C123.646 75.9615 122.106 93.1215 119.986 108.261L97.6257 14.9815H97.6157Z" fill="#3A253D"/>
<path d="M259.746 22.5216C253.496 21.4316 249.826 21.9416 248.996 19.8516C248.256 18.0016 250.206 15.2916 251.986 13.7716C259.946 6.96155 275.865 14.3616 279.175 15.8916C281.655 17.0416 290.376 21.0916 289.756 24.1216C289.236 26.6516 282.386 27.5715 277.836 27.4415C270.346 27.2415 269.666 24.2416 259.746 22.5116V22.5216Z" fill="#0B070C"/>
<path d="M260.726 74.4315C257.556 65.4615 254.446 53.7715 253.256 39.8815C252.566 31.8515 252.656 24.5415 253.106 18.1715C257.136 17.6515 262.616 17.3615 269.016 18.2715C274.786 19.0915 279.556 20.6315 283.096 22.0715C280.816 29.8115 277.916 38.2615 274.176 47.2015C269.866 57.5015 265.236 66.5815 260.736 74.4315H260.726Z" fill="#1C111D"/>
<path d="M269.015 18.2715C274.785 19.0915 279.555 20.6315 283.095 22.0715C280.815 29.8115 277.915 38.2615 274.175 47.2015C269.865 57.5015 265.235 66.5815 260.735 74.4315L269.025 18.2715H269.015Z" fill="#3A253D"/>
</svg>
