<svg width="1545" height="512" viewBox="0 0 1545 512" fill="none" xmlns="http://www.w3.org/2000/svg">
<g clip-path="url(#clip0_81_25)">
<path d="M1412.61 230.66C1413.38 230.66 1414 230.042 1414 229.28C1414 228.518 1413.38 227.9 1412.61 227.9C1411.84 227.9 1411.22 228.518 1411.22 229.28C1411.22 230.042 1411.84 230.66 1412.61 230.66Z" fill="white"/>
<path fill-rule="evenodd" clip-rule="evenodd" d="M1410.81 401.59C1412.29 399.84 1414.91 399.62 1416.67 401.08C1418.43 402.55 1418.66 405.16 1417.18 406.91C1415.7 408.66 1413.08 408.88 1411.32 407.42C1409.56 405.95 1409.33 403.34 1410.81 401.59Z" fill="white"/>
<path fill-rule="evenodd" clip-rule="evenodd" d="M1329.13 328.28C1329.62 327.7 1330.5 327.62 1331.08 328.11C1331.67 328.6 1331.74 329.47 1331.25 330.05C1330.76 330.63 1329.88 330.71 1329.3 330.22C1328.71 329.73 1328.64 328.86 1329.13 328.28Z" fill="white"/>
<path fill-rule="evenodd" clip-rule="evenodd" d="M894.18 368.81C894.18 371.09 892.32 372.94 890.02 372.94C887.72 372.94 885.86 371.09 885.86 368.81C885.86 366.53 887.72 364.68 890.02 364.68C892.32 364.68 894.18 366.53 894.18 368.81Z" fill="white"/>
<path fill-rule="evenodd" clip-rule="evenodd" d="M1189.14 403.78C1188.67 404.34 1187.83 404.41 1187.26 403.94C1186.7 403.47 1186.62 402.63 1187.1 402.07C1187.57 401.51 1188.41 401.44 1188.98 401.91C1189.54 402.38 1189.62 403.22 1189.14 403.78Z" fill="white"/>
<path fill-rule="evenodd" clip-rule="evenodd" d="M674.64 253.05C673.16 254.8 670.54 255.02 668.78 253.56C667.02 252.09 666.79 249.48 668.27 247.73C669.75 245.98 672.37 245.76 674.13 247.22C675.89 248.69 676.12 251.3 674.64 253.05Z" fill="white"/>
<path fill-rule="evenodd" clip-rule="evenodd" d="M1220.17 228.3C1219.68 228.88 1218.8 228.96 1218.22 228.47C1217.63 227.98 1217.56 227.11 1218.05 226.53C1218.54 225.95 1219.42 225.87 1220 226.36C1220.59 226.85 1220.66 227.72 1220.17 228.3Z" fill="white"/>
<path fill-rule="evenodd" clip-rule="evenodd" d="M8.32 292.83C8.32 290.55 6.46 288.7 4.16 288.7C1.86 288.7 0 290.55 0 292.83C0 295.11 1.86 296.96 4.16 296.96C6.46 296.96 8.32 295.11 8.32 292.83Z" fill="white"/>
<path fill-rule="evenodd" clip-rule="evenodd" d="M156.68 244.32C156.21 243.76 155.37 243.69 154.8 244.16C154.24 244.63 154.16 245.47 154.64 246.03C155.11 246.59 155.95 246.66 156.52 246.19C157.08 245.72 157.16 244.88 156.68 244.32Z" fill="white"/>
<path fill-rule="evenodd" clip-rule="evenodd" d="M136.58 108.7C136.58 106.42 134.72 104.57 132.42 104.57C130.12 104.57 128.26 106.42 128.26 108.7C128.26 110.98 130.12 112.83 132.42 112.83C134.72 112.83 136.58 110.98 136.58 108.7Z" fill="white"/>
<path fill-rule="evenodd" clip-rule="evenodd" d="M284.93 60.19C284.46 59.63 283.62 59.56 283.05 60.03C282.49 60.5 282.41 61.34 282.89 61.9C283.36 62.46 284.2 62.53 284.77 62.06C285.33 61.59 285.41 60.75 284.93 60.19Z" fill="white"/>
<path fill-rule="evenodd" clip-rule="evenodd" d="M355.05 165.24C354.58 164.68 353.74 164.61 353.17 165.08C352.61 165.55 352.53 166.39 353.01 166.95C353.48 167.51 354.32 167.58 354.89 167.11C355.45 166.64 355.53 165.8 355.05 165.24Z" fill="white"/>
<path fill-rule="evenodd" clip-rule="evenodd" d="M116.79 489.45C115.31 487.7 112.69 487.48 110.93 488.94C109.17 490.41 108.94 493.02 110.42 494.77C111.9 496.52 114.52 496.74 116.28 495.28C118.04 493.81 118.27 491.2 116.79 489.45Z" fill="white"/>
<path fill-rule="evenodd" clip-rule="evenodd" d="M198.47 416.15C197.98 415.57 197.1 415.49 196.52 415.98C195.93 416.47 195.86 417.34 196.35 417.92C196.84 418.5 197.72 418.58 198.3 418.09C198.89 417.6 198.96 416.73 198.47 416.15Z" fill="white"/>
<path fill-rule="evenodd" clip-rule="evenodd" d="M981.96 104.7C981.96 102.42 983.82 100.57 986.12 100.57C988.42 100.57 990.28 102.42 990.28 104.7C990.28 106.98 988.42 108.83 986.12 108.83C983.82 108.83 981.96 106.98 981.96 104.7Z" fill="white"/>
<path d="M798.25 74.68C799.018 74.68 799.64 74.0621 799.64 73.3C799.64 72.5378 799.018 71.92 798.25 71.92C797.482 71.92 796.86 72.5378 796.86 73.3C796.86 74.0621 797.482 74.68 798.25 74.68Z" fill="white"/>
<path fill-rule="evenodd" clip-rule="evenodd" d="M756.57 0.469988C757.04 -0.0900119 757.88 -0.160012 758.45 0.309988C759.01 0.779988 759.09 1.61999 758.61 2.17999C758.14 2.73999 757.3 2.80999 756.73 2.33999C756.17 1.86999 756.09 1.02999 756.57 0.469988Z" fill="white"/>
<path fill-rule="evenodd" clip-rule="evenodd" d="M686.46 105.52C686.93 104.96 687.77 104.89 688.34 105.36C688.9 105.83 688.98 106.67 688.5 107.23C688.03 107.79 687.19 107.86 686.62 107.39C686.06 106.92 685.98 106.08 686.46 105.52Z" fill="white"/>
<path fill-rule="evenodd" clip-rule="evenodd" d="M1537.31 110.61C1538.79 108.86 1541.41 108.64 1543.17 110.1C1544.93 111.56 1545.16 114.18 1543.68 115.93C1542.2 117.68 1539.58 117.9 1537.82 116.44C1536.06 114.97 1535.83 112.36 1537.31 110.61Z" fill="white"/>
<path fill-rule="evenodd" clip-rule="evenodd" d="M410.58 38.67C409.1 40.42 406.48 40.64 404.72 39.18C402.96 37.72 402.73 35.1 404.21 33.35C405.69 31.6 408.31 31.38 410.07 32.84C411.83 34.31 412.06 36.92 410.58 38.67Z" fill="white"/>
<path fill-rule="evenodd" clip-rule="evenodd" d="M332.26 507.17C332.26 509.45 330.4 511.3 328.1 511.3C325.8 511.3 323.94 509.45 323.94 507.17C323.94 504.89 325.8 503.04 328.1 503.04C330.4 503.04 332.26 504.89 332.26 507.17Z" fill="white"/>
<path d="M419.03 320.05C419.798 320.05 420.42 319.432 420.42 318.67C420.42 317.908 419.798 317.29 419.03 317.29C418.262 317.29 417.64 317.908 417.64 318.67C417.64 319.432 418.262 320.05 419.03 320.05Z" fill="white"/>
<path fill-rule="evenodd" clip-rule="evenodd" d="M461.12 467.13C460.65 467.69 459.81 467.76 459.24 467.29C458.68 466.82 458.6 465.98 459.08 465.42C459.55 464.86 460.39 464.79 460.96 465.26C461.52 465.73 461.6 466.57 461.12 467.13Z" fill="white"/>
<path fill-rule="evenodd" clip-rule="evenodd" d="M702.25 492.87C701.76 493.45 700.88 493.53 700.3 493.04C699.71 492.55 699.64 491.68 700.13 491.1C700.62 490.52 701.5 490.44 702.08 490.93C702.67 491.42 702.74 492.29 702.25 492.87Z" fill="white"/>
</g>
<defs>
<clipPath id="clip0_81_25">
<rect width="1544.65" height="511.3" fill="white"/>
</clipPath>
</defs>
</svg>
