<svg width="1920" height="1080" viewBox="0 0 1920 1080" fill="none" xmlns="http://www.w3.org/2000/svg">
<mask id="mask0_987_6682" style="mask-type:luminance" maskUnits="userSpaceOnUse" x="0" y="0" width="1920" height="1080">
<path d="M1920 0H0V1080H1920V0Z" fill="white"/>
</mask>
<g mask="url(#mask0_987_6682)">
<path d="M933.07 869.34C909.87 858.45 855.51 902 812.48 893.84C769.44 885.67 703.76 882.28 678.84 894.87C653.92 907.45 570.12 931.28 552 894.87C550.53 891.91 549.59 888.74 549.09 885.42C576.28 869.69 595.88 848.25 597.81 819.89C603.06 742.97 629.29 741.71 629.29 741.71C687.01 748.01 683.86 731.62 683.86 731.62C703.8 676.14 742.63 683.7 785.65 682.44C828.68 681.18 881.14 688.74 890.59 708.92C900.03 729.1 909.48 727.84 919.97 726.57C930.46 725.31 938.86 727.83 938.86 745.49C938.86 763.15 946.21 761.88 946.21 761.88C946.21 761.88 983.39 773.24 983.99 745.49C984.6 716.9 1019.16 719.01 1019.16 719.01V858.46C1019.16 858.46 956.27 880.23 933.07 869.35V869.34Z" fill="#A67C52"/>
<mask id="mask1_987_6682" style="mask-type:luminance" maskUnits="userSpaceOnUse" x="549" y="682" width="471" height="233">
<path d="M933.07 869.34C909.87 858.45 855.51 902 812.48 893.84C769.44 885.67 703.76 882.28 678.84 894.87C653.92 907.45 570.12 931.28 552 894.87C550.53 891.91 549.59 888.74 549.09 885.42C576.28 869.69 595.88 848.25 597.81 819.89C603.06 742.97 629.29 741.71 629.29 741.71C687.01 748.01 683.86 731.62 683.86 731.62C703.8 676.14 742.63 683.7 785.65 682.44C828.68 681.18 881.14 688.74 890.59 708.92C900.03 729.1 909.48 727.84 919.97 726.57C930.46 725.31 938.86 727.83 938.86 745.49C938.86 763.15 946.21 761.88 946.21 761.88C946.21 761.88 984.08 773.25 983.99 745.49C983.89 717.08 1019.16 719.01 1019.16 719.01V858.46C1019.16 858.46 956.27 880.23 933.07 869.35V869.34Z" fill="white"/>
</mask>
<g mask="url(#mask1_987_6682)">
<path d="M1033.66 807.09C1002.87 757.6 1009.05 746.39 977.469 759.07C945.889 771.75 940.699 815.52 917.119 757.96C907.299 756.95 897.42 766.75 886.94 737.44C876.46 708.13 750.329 682.17 707.099 696.31C663.869 710.45 653.11 729.34 653.11 729.34L683.86 731.63C683.86 731.63 716.83 763.42 660.54 761.75C584.26 759.48 602.3 708.79 602.3 708.79L734.989 649.57L865.329 666.74L913.8 701.88L954.409 729.35L1019.17 691.6L1046.77 771.77L1033.67 807.12L1033.66 807.09Z" fill="#B58E6B"/>
<path d="M1022.06 834.32C1008.24 842.03 993.41 847.89 978 851.51C970.4 853.3 962.669 854.54 954.889 855.21C947.109 855.88 938.73 855.79 930.63 855.81C922.53 855.83 914.039 856.05 905.909 857.68C898.269 859.21 890.929 861.88 883.659 864.61C876.369 867.35 869.08 870.19 861.52 872.08C853.96 873.97 845.98 874.64 838.09 874.27C822.12 873.52 806.619 869.12 791.029 865.94C783.41 864.38 775.709 863.09 767.929 862.6C759.919 862.1 751.869 862.44 743.909 863.36C727.829 865.22 712.129 869.34 696.559 873.64C681.679 877.74 666.81 882.12 651.57 884.75C638.15 887.07 624.389 888.1 610.809 886.72C597.249 885.34 583.929 881.34 572.309 874.12C569.309 872.26 566.449 870.2 563.719 867.97C562.949 867.34 561.839 868.44 562.619 869.07C573.269 877.78 585.869 883.62 599.309 886.49C612.599 889.33 626.349 889.43 639.829 887.98C654.519 886.39 668.84 882.86 683.07 878.99C698.98 874.66 714.809 869.92 731.029 866.9C747.099 863.91 763.34 862.97 779.54 865.44C795.45 867.87 810.919 872.54 826.869 874.75C834.609 875.82 842.449 876.31 850.239 875.59C858.009 874.87 865.51 872.81 872.86 870.25C880.21 867.69 887.479 864.67 894.909 862.25C902.779 859.69 910.759 858.12 919.029 857.64C927.299 857.16 935.979 857.49 944.449 857.31C952.239 857.14 960 856.43 967.69 855.16C983.18 852.6 998.269 847.77 1012.45 841.04C1015.98 839.37 1019.44 837.57 1022.85 835.67C1023.73 835.18 1022.94 833.83 1022.06 834.32Z" fill="#8C6239"/>
<path d="M1023.03 808.371C993.649 813.201 964.269 818.031 934.889 822.861C920.279 825.261 905.669 827.661 891.069 830.071C876.389 832.481 861.729 835.191 846.969 837.061C839.759 837.971 832.509 838.611 825.229 838.691C817.969 838.771 810.749 838.161 803.559 837.241C789.489 835.431 775.389 832.591 761.139 833.251C746.889 833.911 733.659 838.601 720.209 842.481C706.549 846.421 692.579 849.231 678.449 850.791C650.469 853.871 622.009 852.111 594.619 845.611C591.229 844.811 587.859 843.931 584.509 842.981C583.539 842.711 583.129 844.211 584.099 844.481C611.279 852.121 639.719 855.151 667.899 853.271C681.789 852.341 695.599 850.251 709.139 847.011C722.679 843.771 736.449 838.471 750.519 835.991C764.969 833.441 779.449 835.351 793.829 837.431C800.799 838.441 807.769 839.451 814.799 839.941C821.829 840.431 829.279 840.291 836.489 839.711C851.149 838.531 865.669 835.811 880.169 833.431C894.939 831.001 909.709 828.571 924.489 826.141C953.869 821.311 983.249 816.481 1012.63 811.651C1016.24 811.061 1019.85 810.461 1023.46 809.871C1024.45 809.711 1024.03 808.201 1023.05 808.371H1023.03Z" fill="#8C6239"/>
<path d="M1031.12 790.6C1003.17 787.05 974.949 789.38 947.169 793.24C919.119 797.14 891.269 802.59 863.059 805.28C849.109 806.61 835.079 807.26 821.069 806.67C806.359 806.05 791.819 803.67 777.149 802.58C769.719 802.02 762.239 801.81 754.809 802.39C747.379 802.97 740.599 804.33 733.619 806.03C726.639 807.73 719.229 809.8 711.979 811.46C704.729 813.12 697.869 814.44 690.739 815.56C661.809 820.11 632.229 820.48 603.199 816.69C599.619 816.22 596.049 815.68 592.499 815.09C591.519 814.93 591.099 816.43 592.089 816.59C620.809 821.38 650.159 822.13 679.079 818.72C693.499 817.02 707.739 814.27 721.799 810.65C728.999 808.8 736.189 806.83 743.509 805.46C750.829 804.09 758.439 803.51 765.979 803.61C780.809 803.81 795.479 806.23 810.229 807.52C824.279 808.75 838.389 808.67 852.449 807.71C880.699 805.79 908.579 800.57 936.539 796.35C964.449 792.14 992.759 788.87 1021.01 791.12C1024.39 791.39 1027.76 791.74 1031.13 792.17C1032.12 792.3 1032.11 790.74 1031.13 790.61L1031.12 790.6Z" fill="#8C6239"/>
<path d="M1023.17 761.37C994.659 762.16 966.349 765.86 938.169 770.04C909.769 774.26 881.429 779.01 852.849 781.81C838.809 783.19 824.719 784.09 810.619 784.22C796.129 784.35 781.749 783.4 767.329 782.07C752.899 780.75 738.389 779.39 723.889 780.34C709.449 781.29 695.709 785.38 681.729 788.79C667.629 792.23 653.289 793.92 638.789 794.17C624.289 794.42 609.609 793.35 595.109 791.83C591.559 791.46 588.009 791.05 584.469 790.64C583.479 790.52 583.479 792.08 584.469 792.2C613.169 795.58 642.439 797.93 671.079 792.7C685.179 790.13 698.789 785.36 712.959 783.12C727.129 780.88 742.409 781.51 757.069 782.73C771.729 783.95 785.749 785.46 800.169 785.74C814.429 786.02 828.689 785.42 842.899 784.27C871.249 781.98 899.359 777.5 927.459 773.23C955.559 768.96 984.109 764.81 1012.7 763.35C1016.19 763.17 1019.68 763.03 1023.18 762.94C1024.18 762.91 1024.19 761.35 1023.18 761.38L1023.17 761.37Z" fill="#8C6239"/>
<path d="M1026.54 734.61C1012.32 732.85 997.949 732.48 983.669 733.55C969.349 734.62 955.369 737.5 941.319 740.3C927.269 743.1 912.679 745.01 898.149 745.97C883.669 746.94 869.159 747.36 854.659 747.94C825.349 749.1 796.039 750.27 766.729 751.43C737.419 752.59 708.109 753.76 678.799 754.92C649.489 756.08 620.179 757.25 590.869 758.41C587.209 758.56 583.539 758.7 579.879 758.85C578.879 758.89 578.869 760.45 579.879 760.41C609.189 759.25 638.498 758.08 667.808 756.92C697.118 755.76 726.429 754.59 755.739 753.43C785.049 752.27 814.359 751.1 843.669 749.94C858.229 749.36 872.798 748.87 887.348 748.15C901.658 747.44 915.978 746.35 930.118 743.97C944.439 741.56 958.549 737.98 972.979 736.18C987.189 734.41 1001.57 734.04 1015.85 735.11C1019.42 735.38 1022.99 735.73 1026.55 736.17C1027.54 736.29 1027.53 734.73 1026.55 734.61H1026.54Z" fill="#8C6239"/>
<path d="M905.589 713.2C874.369 709.98 842.939 712 811.789 714.97C780.669 717.93 749.589 721.82 718.299 722.35C702.629 722.62 685.629 723 671.889 714.3C671.039 713.76 670.259 715.11 671.099 715.65C683.019 723.19 697.309 723.96 711.019 723.97C726.719 723.97 742.399 723.05 758.029 721.74C789.499 719.1 820.849 714.9 852.419 713.54C870.149 712.78 887.929 712.94 905.589 714.76C906.589 714.86 906.579 713.3 905.589 713.2Z" fill="#8C6239"/>
</g>
<path opacity="0.2" d="M597.24 749.69C598.73 642.79 611.18 659.07 587.83 629.34C560.11 594.05 569.06 484.41 424.38 484.41C338.81 484.41 312.73 590.05 282.58 611.63C241.04 641.36 177.09 605.38 179.74 712.28C182.39 791.52 69.0297 781.11 52.6797 817.61L0 916.44L661.04 915.46V820.25C661.04 754.21 595.75 828.94 597.24 749.7V749.69Z" fill="#1E1813"/>
<path d="M657.49 748.87C658.98 640.49 630.17 670.63 606.82 640.49C579.1 604.71 572.16 502.33 427.48 502.33C341.91 502.33 363.13 618.61 332.97 640.49C291.43 670.63 240.16 640.49 242.81 748.87C245.46 829.21 129.28 780.72 112.92 817.72L76.5703 916.43L721.291 915.45V820.39C721.291 753.44 656 829.2 657.49 748.86V748.87Z" fill="#7A553C"/>
<mask id="mask2_987_6682" style="mask-type:luminance" maskUnits="userSpaceOnUse" x="76" y="502" width="646" height="415">
<path d="M657.49 748.87C658.98 640.49 630.17 670.63 606.82 640.49C579.1 604.71 572.16 502.33 427.48 502.33C341.91 502.33 363.13 618.61 332.97 640.49C291.43 670.63 240.16 640.49 242.81 748.87C245.46 829.21 129.28 780.72 112.92 817.72L76.5703 916.43L721.291 915.45V820.39C721.291 753.44 656 829.2 657.49 748.86V748.87Z" fill="white"/>
</mask>
<g mask="url(#mask2_987_6682)">
<path d="M566.61 494.99C566.61 494.99 413.85 491.751 399.1 580.621C384.35 669.501 388.49 685.431 321.17 696.061C253.85 706.691 345.92 793.39 171.07 825.21C90.4198 839.89 205.73 938.311 151.83 938.401L36.5 928.521C36.5 928.521 40.1999 782.361 142.9 772.521C245.6 762.681 187.16 624.75 187.16 624.75L317.33 611.891L367.41 457.811L566.61 494.98V494.99Z" fill="#91694D"/>
<path d="M358.32 548.95C386.54 546.12 415.05 552.02 443.17 547.67C449.99 546.61 456.69 544.87 463.07 542.22C469.45 539.57 475.76 536.1 482.59 534.32C489.95 532.4 497.65 532.46 505.2 532.48C513.2 532.5 521.2 532.52 529.2 532.54C547.37 532.59 565.53 532.64 583.7 532.69C584.85 532.69 584.85 530.9 583.7 530.9C567.53 530.86 551.37 530.81 535.2 530.77C527.2 530.75 519.2 530.73 511.2 530.71C503.2 530.69 495.84 530.41 488.25 531.43C480.66 532.45 474.54 535.11 467.97 538.12C461.4 541.13 455.29 543.42 448.49 544.89C434.84 547.84 420.72 547.72 406.84 547.26C390.68 546.72 374.45 545.57 358.31 547.18C357.17 547.29 357.16 549.08 358.31 548.97L358.32 548.95Z" fill="#8C6239"/>
<path d="M337.03 574.661C353.52 575.751 370.03 576.751 386.56 576.741C403.09 576.731 418.79 575.761 434.6 572.731C442.27 571.261 449.86 569.291 457.22 566.671C464.58 564.051 471.79 560.521 478.99 557.211C486.19 553.901 494.04 550.801 502.13 549.421C510.22 548.041 518.68 548.121 526.93 548.841C543.78 550.321 560.32 554.401 577.24 555.271C579.38 555.381 581.53 555.431 583.67 555.431C584.82 555.431 584.82 553.641 583.67 553.641C566.6 553.651 549.91 549.731 533.04 547.691C524.85 546.701 516.55 546.141 508.31 546.841C500.19 547.531 492.4 549.591 484.87 552.681C477.48 555.711 470.42 559.461 463.04 562.521C455.79 565.531 448.26 567.851 440.62 569.621C424.89 573.271 408.71 574.621 392.59 574.891C376.47 575.161 359.65 574.321 343.22 573.271C341.15 573.141 339.08 573.001 337.01 572.871C335.86 572.791 335.86 574.581 337.01 574.661H337.03Z" fill="#8C6239"/>
<path d="M335.62 604.46C357.15 607.12 378.74 609.78 400.46 610.16C420.3 610.51 440.31 608.93 459.5 603.69C468.27 601.3 476.86 598.14 484.93 593.95C488.81 591.94 492.56 589.68 496.12 587.15C499.68 584.62 503.11 581.66 506.94 579.41C515.91 574.13 526.74 574.81 536.78 574.69C547.69 574.56 558.61 574.61 569.52 574.84C591.32 575.29 613.1 576.45 634.83 578.31C637.46 578.54 640.09 578.77 642.71 579.02C643.86 579.13 643.85 577.34 642.71 577.23C621.01 575.2 599.24 573.87 577.45 573.24C566.54 572.93 555.63 572.79 544.71 572.84C539.28 572.86 533.84 572.92 528.41 573.04C523.48 573.15 518.46 573.34 513.67 574.62C504.89 576.96 498.46 583.74 490.95 588.45C483.44 593.16 474.93 596.94 466.34 599.77C447.68 605.92 427.93 608.22 408.34 608.41C386.61 608.61 364.96 606.26 343.43 603.63C340.82 603.31 338.22 602.99 335.61 602.67C334.47 602.53 334.48 604.32 335.61 604.46H335.62Z" fill="#8C6239"/>
<path d="M334.91 632.22C358.03 635.75 381.26 639.121 404.66 640.001C427.38 640.851 450.5 639.31 472.3 632.47C494.19 625.59 513.721 612.941 535.651 606.141C555.761 599.901 577.041 597.571 598.041 598.571C618.881 599.571 639.79 603.871 658.97 612.191C661.23 613.171 663.461 614.211 665.671 615.311C666.701 615.821 667.61 614.281 666.57 613.761C648.09 604.611 627.8 599.421 607.31 597.441C586.82 595.461 564.941 596.771 544.481 601.811C533.911 604.421 523.75 608.181 513.83 612.661C503.11 617.491 492.661 622.92 481.711 627.22C460.221 635.67 437.18 638.531 414.2 638.401C391.22 638.271 367.17 635.241 343.89 631.761C341.06 631.341 338.22 630.91 335.39 630.47C334.26 630.3 333.78 632.021 334.91 632.201V632.22Z" fill="#8C6239"/>
<path d="M311.55 647.471C332.81 657.481 355.42 664.521 378.51 668.791C401.57 673.051 425.38 674.931 448.77 672.661C459.92 671.581 471.02 669.531 481.68 666.021C486.85 664.321 491.92 662.261 496.79 659.821C502.23 657.101 507.4 653.911 512.68 650.891C522.24 645.411 532.26 641.161 542.9 638.281C553.55 635.401 564.51 633.751 575.5 632.871C598.15 631.071 620.94 632.411 643.54 634.211C646.25 634.431 648.96 634.651 651.67 634.881C652.82 634.981 652.81 633.191 651.67 633.091C629.19 631.201 606.6 629.521 584.03 630.551C562.69 631.521 541.04 634.951 521.59 644.141C510.9 649.191 501.24 656.171 490.35 660.841C480.14 665.221 469.26 667.991 458.3 669.671C435.11 673.241 411.21 672.111 388.09 668.581C364.75 665.021 341.75 658.691 320.05 649.331C317.5 648.231 314.96 647.081 312.45 645.901C311.41 645.411 310.5 646.951 311.55 647.451V647.471Z" fill="#8C6239"/>
<path d="M216.969 787.51C233.379 788.41 249.609 785.42 265.599 782.06C273.619 780.38 281.62 778.601 289.69 777.191C297.78 775.771 305.93 774.74 314.11 774.08C330.33 772.77 346.669 772.901 362.869 774.451C378.989 775.991 394.96 778.99 410.54 783.46C426.12 787.93 441.26 793.62 456.77 798.23C471.46 802.59 486.489 805.841 501.849 806.391C516.049 806.891 530.7 805.2 543.73 799.25C556.6 793.37 566.37 783.13 577.32 774.48C582.89 770.08 588.869 766.311 595.369 763.441C601.869 760.571 608.68 758.53 615.59 757.01C630.24 753.78 645.31 752.83 660.27 752.31C663.93 752.18 667.579 752.09 671.239 752C672.389 751.97 672.389 750.18 671.239 750.21C656.289 750.58 641.299 751.06 626.489 753.22C612.599 755.25 598.62 758.84 586.42 766.01C574.3 773.14 564.88 783.791 553.34 791.701C541.8 799.611 527.2 803.75 512.69 804.51C498.18 805.27 482.639 803.18 468.099 799.5C452.319 795.5 437.04 789.851 421.54 784.931C406.13 780.031 390.46 776.23 374.44 774.02C358.41 771.81 342.189 770.99 326.009 771.6C309.789 772.21 293.759 774.391 277.869 777.661C261.719 780.991 245.58 784.95 229.04 785.75C225.02 785.94 221 785.94 216.98 785.72C215.83 785.66 215.83 787.45 216.98 787.51H216.969Z" fill="#8C6239"/>
<path d="M233.67 774.3C250.22 770.03 266.92 766.31 283.75 763.31C300.58 760.31 318.07 757.96 335.38 756.62C352.51 755.3 369.73 754.92 386.9 755.77C403.9 756.62 420.85 758.68 437.5 762.26C445.81 764.05 453.98 766.29 462.12 768.71C470.58 771.22 479.05 773.78 487.73 775.45C496.41 777.12 504.84 777.83 513.4 776.77C520.65 775.88 527.65 773.73 534.26 770.65C547.06 764.68 557.97 755.57 569.57 747.69C581.85 739.35 595.25 733.21 609.45 728.92C624.51 724.37 640.1 721.71 655.72 719.99C671.34 718.27 687.99 717.43 704.17 716.9C708.09 716.77 712.01 716.66 715.94 716.55C717.09 716.52 717.09 714.73 715.94 714.76C699.78 715.2 683.61 715.73 667.5 717.06C651.68 718.37 635.87 720.41 620.42 724.1C605.92 727.56 591.66 732.52 578.65 739.88C565.64 747.24 555.5 756.19 543.43 763.61C537.31 767.37 530.84 770.62 523.95 772.71C516.08 775.1 507.88 775.85 499.69 775.26C482.07 774.01 465.43 767.34 448.45 762.99C432.14 758.81 415.45 756.16 398.68 754.76C381.91 753.36 364.42 753.19 347.31 754.06C330.04 754.93 312.83 756.83 295.75 759.49C278.78 762.13 261.93 765.55 245.23 769.56C241.2 770.53 237.19 771.53 233.18 772.56C232.07 772.85 232.54 774.57 233.66 774.29L233.67 774.3Z" fill="#8C6239"/>
<path d="M231.53 757.79C248.33 754.2 265.27 751.24 282.29 748.9C299.52 746.53 316.84 744.811 334.19 743.701C351.53 742.59 368.9 742.11 386.27 742.25C403.64 742.39 420.99 743.16 438.3 744.56C455.61 745.96 472.05 747.86 488.98 747.1C497.12 746.73 505.26 745.72 513.15 743.65C520.43 741.74 527.43 738.91 534.16 735.54C547.37 728.93 559.48 720.37 572.57 713.53C585.66 706.69 600.29 701.83 615 698.67C630.34 695.38 645.99 693.74 661.65 692.92C677.6 692.08 693.58 692.11 709.55 692.35C713.44 692.41 717.32 692.48 721.2 692.56C722.35 692.58 722.35 690.79 721.2 690.77C705.19 690.45 689.16 690.2 673.15 690.66C657.46 691.11 641.77 692.23 626.27 694.74C610.77 697.25 596.61 700.9 582.67 706.79C568.99 712.57 556.68 720.79 543.89 728.21C537.42 731.96 530.79 735.48 523.84 738.24C516.34 741.21 508.52 743.22 500.53 744.29C483.84 746.53 466.9 745.2 450.21 743.77C433.52 742.34 415.68 741.08 398.35 740.65C380.98 740.22 363.59 740.41 346.24 741.23C328.85 742.05 311.49 743.49 294.2 745.57C277.18 747.61 260.24 750.26 243.41 753.54C239.29 754.34 235.17 755.18 231.06 756.06C229.93 756.3 230.41 758.03 231.54 757.79H231.53Z" fill="#8C6239"/>
<path d="M229.769 738.99C246.519 734.56 263.449 730.871 280.509 727.891C297.569 724.911 315.119 722.61 332.559 721.06C350.009 719.5 367.529 718.67 385.049 718.55C402.569 718.43 420.269 719.03 437.829 720.37C455.749 721.74 473.809 724.51 491.799 722.77C506.889 721.31 521.279 716.5 535.029 710.27C548.689 704.08 561.739 696.64 575.289 690.21C589.559 683.44 604.399 678.37 619.869 675.12C635.339 671.87 652.599 670.08 669.129 669.34C685.999 668.58 702.909 668.751 719.789 669.151C723.869 669.241 727.959 669.35 732.039 669.46C733.189 669.49 733.189 667.701 732.039 667.671C715.169 667.211 698.299 666.811 681.419 667.151C664.819 667.491 648.189 668.56 631.779 671.13C615.369 673.7 600.399 677.551 585.599 683.671C571.739 689.391 558.639 696.701 545.249 703.401C531.759 710.151 517.829 716.23 502.989 719.29C485.479 722.89 467.719 721.271 450.089 719.641C432.579 718.021 415.029 717.02 397.449 716.8C379.839 716.58 362.219 717.09 344.649 718.32C327.229 719.54 309.869 721.47 292.609 724.12C275.349 726.77 258.379 730.101 241.489 734.191C237.419 735.181 233.349 736.21 229.299 737.28C228.189 737.57 228.659 739.3 229.779 739.01L229.769 738.99Z" fill="#8C6239"/>
<path d="M233.62 710.02C250.31 705.99 267.17 702.66 284.14 700.041C301.35 697.381 318.66 695.441 336.03 694.201C353.4 692.961 370.81 692.431 388.21 692.591C405.58 692.761 422.93 693.65 440.22 695.21C457.16 696.73 474.09 698.691 491.12 698.821C507.66 698.941 524.23 697.171 539.87 691.571C554.6 686.291 568.07 678.271 581.78 670.861C595.49 663.451 609.76 657.19 624.65 652.46C639.95 647.59 655.72 644.161 671.65 642.131C687.58 640.101 704.08 639.42 720.32 640.22C724.27 640.41 728.21 640.701 732.14 641.061C733.29 641.171 733.28 639.38 732.14 639.27C715.94 637.77 699.62 637.721 683.41 639.091C667.37 640.451 651.43 643.171 635.88 647.321C620.33 651.471 606.25 656.641 592.3 663.421C578.27 670.241 565.06 678.621 550.88 685.141C543.53 688.521 535.93 691.35 528.07 693.27C519.92 695.27 511.56 696.33 503.19 696.77C486.08 697.68 468.96 696.12 451.94 694.51C434.72 692.89 417.5 691.52 400.21 691.03C382.8 690.54 365.38 690.751 347.99 691.671C330.6 692.591 313.36 694.2 296.16 696.51C279.1 698.8 262.12 701.79 245.31 705.49C241.25 706.38 237.2 707.321 233.16 708.301C232.04 708.571 232.51 710.3 233.64 710.03L233.62 710.02Z" fill="#8C6239"/>
<path d="M98.82 831.021C121.01 831.651 143.16 829.691 165.19 827.231C187.21 824.761 209.18 821.781 231.31 820.391C253.21 819.011 275.31 819.261 296.94 823.251C318.57 827.241 339.29 834.551 360.51 840.011C380.6 845.181 401.18 848.221 421.91 849.131C442.66 850.041 463.51 848.861 484.03 845.611C504.55 842.361 524.05 837.031 543.15 829.591C553.13 825.701 562.99 821.471 573.12 817.971C583.19 814.491 593.49 811.931 604.04 810.481C625.14 807.571 646.55 808.461 667.75 809.501C689.09 810.541 710.53 811.881 731.87 810.071C736.91 809.641 741.93 809.031 746.91 808.221C748.04 808.031 747.56 806.311 746.43 806.491C725.3 809.941 703.78 809.411 682.47 808.431C661.25 807.451 639.96 805.921 618.72 807.251C608.38 807.901 598.06 809.241 587.99 811.681C577.92 814.121 567.52 817.961 557.57 821.921C547.62 825.881 538.04 829.861 528.02 833.171C518.35 836.361 508.5 839.001 498.54 841.111C478.22 845.421 457.44 847.561 436.67 847.641C415.9 847.721 395.09 845.741 374.75 841.511C353.43 837.071 332.85 829.791 311.72 824.621C301.11 822.031 290.37 820.081 279.49 819.011C268.61 817.941 257.86 817.681 247.03 817.921C225.02 818.411 203.13 821.011 181.29 823.581C159.24 826.171 137.15 828.781 114.93 829.281C109.56 829.401 104.18 829.391 98.8098 829.241C97.6598 829.211 97.6598 831.001 98.8098 831.031L98.82 831.021Z" fill="#8C6239"/>
<path d="M70.5407 858.821C95.1607 856.091 119.77 853.361 144.39 850.641C168.58 847.961 192.78 845.031 217.1 843.751C241.42 842.471 265.96 843.191 290.14 847.271C301.99 849.271 313.74 851.78 325.56 853.96C337.35 856.13 349.21 857.941 361.12 859.391C385.17 862.331 409.39 863.821 433.62 863.861C457.42 863.901 481.38 862.631 504.7 857.641C527.75 852.701 549.94 844.501 573.06 839.861C595.82 835.291 619.011 833.221 642.191 832.381C665.551 831.531 688.93 831.901 712.3 832.331C735.92 832.761 759.54 833.261 783.16 832.641C788.83 832.491 794.501 832.271 800.171 831.981C801.321 831.921 801.321 830.131 800.171 830.191C776.621 831.421 753.02 831.251 729.45 830.851C706.02 830.461 682.581 829.851 659.151 830.171C636.011 830.491 612.841 831.741 589.921 835.131C578.571 836.811 567.3 839.031 556.18 841.901C544.69 844.861 533.361 848.401 521.921 851.541C510.421 854.701 498.811 857.301 487.001 858.951C475.191 860.601 463.111 861.461 451.111 861.841C426.931 862.601 402.68 861.731 378.6 859.491C366.46 858.361 354.36 856.871 342.31 855.001C330.45 853.161 318.69 850.841 306.91 848.551C295.13 846.261 283.23 844.101 271.24 842.871C259.13 841.621 246.951 841.221 234.791 841.371C210.501 841.681 186.301 844.221 162.171 846.881C137.571 849.601 112.981 852.331 88.3806 855.061C82.4306 855.721 76.4807 856.381 70.5407 857.041C69.4107 857.171 69.4007 858.961 70.5407 858.831V858.821Z" fill="#8C6239"/>
<path d="M67.1906 884.66C90.6906 880.36 114.36 876.99 138.12 874.56C161.95 872.12 185.87 870.61 209.82 870.01C233.88 869.41 257.961 869.74 282.001 870.99C306.041 872.24 329.731 874.5 353.481 877.51C377.371 880.54 401.22 884.04 425.24 885.78C449.26 887.52 472.69 887.44 496.05 883.35C519.19 879.3 541.251 870.96 564.041 865.48C586.651 860.05 609.85 857.58 633.05 856.6C656.51 855.6 680.011 856.09 703.481 856.61C727.061 857.14 750.66 857.72 774.24 856.95C779.9 856.77 785.561 856.5 791.211 856.14C792.351 856.07 792.361 854.28 791.211 854.35C767.631 855.85 743.98 855.66 720.37 855.18C696.75 854.71 673.12 853.94 649.49 854.33C626.43 854.7 603.32 856.18 580.58 860.21C569.13 862.24 557.87 865.04 546.7 868.25C535.53 871.46 524.311 874.97 512.981 877.84C501.361 880.78 489.58 882.89 477.64 883.98C465.7 885.07 453.93 885.25 442.08 884.88C417.95 884.11 393.98 881.01 370.07 877.87C346.3 874.76 322.54 871.9 298.62 870.21C274.7 868.53 250.71 867.77 226.74 867.94C202.69 868.11 178.65 869.2 154.68 871.22C130.91 873.22 107.22 876.14 83.6803 879.99C78.0203 880.92 72.3706 881.9 66.7306 882.93C65.6006 883.14 66.0806 884.86 67.2106 884.66H67.1906Z" fill="#8C6239"/>
<path d="M54.2203 902.621C80.8803 899.871 107.54 897.121 134.2 894.371C160.53 891.651 186.85 888.691 213.24 886.721C239.55 884.761 265.87 884.241 292.22 885.631C318.57 887.021 343.77 889.791 369.47 892.591C395.28 895.401 421.11 898.241 447.05 899.671C472.84 901.091 498.68 900.981 524.39 898.321C550.4 895.631 576.14 890.901 602.06 887.501C628.02 884.091 654.13 881.841 680.28 880.391C706.54 878.941 732.84 878.291 759.14 878.081C785.49 877.881 811.85 878.121 838.2 878.451C844.6 878.531 850.99 878.621 857.39 878.701C858.54 878.721 858.54 876.931 857.39 876.911C830.96 876.561 804.54 876.201 778.11 876.221C751.87 876.231 725.62 876.601 699.4 877.681C673.13 878.761 646.88 880.561 620.74 883.451C594.91 886.311 569.32 890.751 543.58 894.221C530.5 895.991 517.38 897.421 504.2 898.151C491.27 898.871 478.31 898.971 465.37 898.631C439.59 897.961 413.901 895.551 388.271 892.831C362.471 890.091 336.7 887.031 310.83 885.051C284.75 883.061 258.64 882.411 232.51 883.711C206.04 885.031 179.67 887.871 153.31 890.591C126.73 893.331 100.16 896.071 73.5801 898.811C67.1201 899.481 60.6605 900.141 54.2105 900.811C53.0805 900.931 53.0605 902.721 54.2105 902.601L54.2203 902.621Z" fill="#8C6239"/>
</g>
<path opacity="0.2" d="M1790.38 791.13C1790.38 752.43 1764.6 718.51 1727.34 708.06C1645.19 685.02 1515.09 657.06 1509.47 628.62C1492.96 544.99 1456.7 507.23 1390.92 506.11C1275.98 504.16 1233.17 511.38 1184.83 566.68C1096.91 667.28 862.3 574.73 914.4 683.89C953.87 766.59 611.69 728.88 669.65 916.43H1790.36V791.12L1790.38 791.13Z" fill="#1E1813"/>
<path d="M1545.18 587.111C1470.38 500.121 1244.43 577.151 1207.88 603.021C1204.97 605.081 1188.29 616.421 1164.1 629.171C1156.41 633.221 1147.2 637.351 1135.29 641.471C1048.26 671.611 940.849 641.471 946.409 749.851C951.969 830.191 727.699 780.951 708.609 916.441H1808.07C1837.84 840.941 1823.54 808.851 1807.9 785.501C1761.95 716.901 1632.5 760.661 1576.01 678.271C1548.68 638.411 1573.06 619.551 1545.18 587.121V587.111Z" fill="#7A553C"/>
<mask id="mask3_987_6682" style="mask-type:luminance" maskUnits="userSpaceOnUse" x="708" y="546" width="1118" height="371">
<path d="M1545.18 587.111C1470.38 500.121 1244.43 577.151 1207.88 603.021C1204.97 605.081 1188.29 616.421 1164.1 629.171C1156.41 633.221 1147.2 637.351 1135.29 641.471C1048.26 671.611 940.849 641.471 946.409 749.851C951.969 830.191 727.699 780.951 708.609 916.441H1808.07C1837.84 840.941 1823.54 808.851 1807.9 785.501C1761.95 716.901 1632.5 760.661 1576.01 678.271C1548.68 638.411 1573.06 619.551 1545.18 587.121V587.111Z" fill="white"/>
</mask>
<g mask="url(#mask3_987_6682)">
<path d="M1498.62 701.051C1431.6 655.911 1444.14 613.081 1400.61 595.301C1321.08 562.821 1258.65 697.381 1117.11 689.801C1094.01 688.561 1063.76 683.271 1033.86 701.051C996.89 723.031 989.589 762.951 978.159 786.551C924.709 896.871 652.41 915.911 631.11 863.051C608.95 808.051 851.77 658.221 1013.61 581.801C1086.14 547.551 1472.79 364.981 1614.36 503.051C1659.34 546.921 1644.03 588.491 1711.11 644.801C1796.33 716.341 1887.64 705.131 1902.36 761.801C1909.73 790.181 1896.02 828.331 1870.86 842.801C1823 870.321 1771.6 790.311 1609.86 741.551C1558.12 725.951 1535.08 725.601 1498.62 701.051Z" fill="#AA8165"/>
<path d="M905.39 714.901C947.56 689.461 1010.96 675.751 1087.87 682.951C1127.8 686.691 1206.61 705.401 1248.45 692.861C1289.8 680.461 1286.3 642.941 1443.99 654.841C1504.6 659.411 1529.01 624.181 1586.57 605.531C1604.72 599.651 1623.47 593.691 1642.6 594.941C1661.73 596.201 1681.54 606.541 1687.39 623.911" stroke="#634125" stroke-width="3" stroke-miterlimit="10"/>
<path d="M970.52 644.311C1023.07 627.551 1080.22 636.991 1135.62 638.191C1157.57 638.671 1179.94 637.751 1200.69 630.911C1219.19 624.811 1235.65 614.241 1253.3 606.191C1293.48 587.861 1338.81 582.97 1383.22 579.48C1441.33 574.91 1499.61 572.281 1557.91 571.601" stroke="#634125" stroke-width="3" stroke-miterlimit="10"/>
<path d="M953.97 671.701C1007.9 648.271 1070.29 642.951 1127.74 656.871C1159.15 664.481 1192.24 677.641 1222.69 667.041C1241.54 660.481 1255.85 645.741 1273.37 636.431C1295.28 624.791 1321.05 622.171 1346.02 619.781C1419.6 612.741 1493.19 605.711 1566.77 598.671" stroke="#634125" stroke-width="3" stroke-miterlimit="10"/>
<path d="M927.14 726.301C957.72 725.471 987.2 711.791 1017.66 714.351C1045.86 716.721 1073.24 732.901 1100.71 726.561C1109.24 724.591 1117.02 720.541 1125.31 717.851C1150.13 709.801 1177.33 714.401 1203.42 717.441C1228.82 720.401 1254.41 721.801 1279.99 722.621C1298.43 723.211 1317.27 723.451 1334.89 718.381C1350.81 713.801 1364.98 705.081 1380.57 699.631C1399 693.181 1418.92 691.461 1438.57 690.011C1504.45 685.161 1570.55 682.801 1636.63 682.951" stroke="#634125" stroke-width="3" stroke-miterlimit="10"/>
<path d="M922.05 746.211C963.34 736.911 1040.18 730.051 1078.02 746.151C1175.64 787.691 1146.18 717.141 1383.8 752.731C1397.09 754.721 1411.02 751.991 1423.89 748.691C1435.06 745.831 1445.27 741.051 1455.86 737.021C1526.64 710.051 1609.58 717.561 1687.4 725.661" stroke="#634125" stroke-width="3" stroke-miterlimit="10"/>
<path d="M919.83 761.301C956.73 762.061 993.341 752.171 1030.02 755.281C1051.69 757.121 1072.17 763.401 1092.78 768.781C1115.29 774.651 1138.28 779.501 1161.57 783.281C1176.96 785.781 1192.82 787.821 1208.38 786.041C1223.47 784.311 1237.4 779.081 1251.99 775.701C1279.25 769.371 1308.33 769.571 1336.85 770.061C1373.8 770.701 1410.74 771.751 1447.65 773.201C1468.63 774.031 1489.96 774.961 1510.38 771.261C1523.97 768.791 1536.77 764.331 1550.12 761.221C1578.08 754.691 1607.81 754.181 1637.08 754.071C1691.57 753.861 1746.08 754.841 1800.5 757.011" stroke="#634125" stroke-width="3" stroke-miterlimit="10"/>
<path d="M857.72 783.221C932.95 772.951 1011.26 776.941 1084.17 794.781C1139.28 808.261 1197.47 829.681 1252.02 814.861C1264.05 811.591 1275.23 806.661 1287.04 802.931C1320.98 792.211 1358.78 791.791 1395.19 794.521C1422.87 796.591 1450.49 800.401 1478.27 799.541C1503.57 798.761 1528.39 794.121 1553.44 791.201C1642.86 780.801 1733.79 792.421 1822.97 804.031" stroke="#634125" stroke-width="3" stroke-miterlimit="10"/>
<path d="M766.619 808.511C832.089 794.731 902.049 801.061 968.369 812.291C1034.69 823.521 1099.85 839.561 1167.41 845.201C1198.12 847.761 1229.58 848.111 1259.5 842.311C1280.95 838.151 1301.13 830.921 1322.29 825.981C1411.68 805.121 1507.72 826.651 1601.3 826.851C1642.17 826.941 1682.9 822.911 1723.77 823.051C1763.39 823.191 1802.79 827.251 1842.05 831.301" stroke="#634125" stroke-width="3" stroke-miterlimit="10"/>
<path d="M716.55 842.861C896.52 803.621 1090.83 896.641 1272.58 862.391C1292.93 858.551 1312.75 853.161 1333.25 849.791C1365.48 844.501 1398.77 844.321 1431.75 844.641C1567.65 845.951 1703.17 855.291 1838.51 864.631" stroke="#634125" stroke-width="3" stroke-miterlimit="10"/>
<path d="M670.43 867.361C730.91 863.621 791.74 859.89 852.15 864.24C965.76 872.42 1074.27 908.931 1188.23 913.121C1207.13 913.821 1226.4 913.571 1244.44 909.101C1259.79 905.291 1273.66 898.571 1288.34 893.371C1326.78 879.771 1369.84 876.961 1411.96 875.701C1562.88 871.181 1714.64 884.151 1860.8 914.071" stroke="#634125" stroke-width="3" stroke-miterlimit="10"/>
</g>
</g>
</svg>
