<svg width="1920" height="1080" viewBox="0 0 1920 1080" fill="none" xmlns="http://www.w3.org/2000/svg">
<mask id="mask0_987_6498" style="mask-type:luminance" maskUnits="userSpaceOnUse" x="0" y="0" width="1920" height="1080">
<path d="M1920 0H0V1080H1920V0Z" fill="white"/>
</mask>
<g mask="url(#mask0_987_6498)">
<g style="mix-blend-mode:multiply" opacity="0.39">
<path d="M535.57 727.28C536.94 617.86 548.43 634.52 526.89 604.1C501.32 567.98 509.57 455.75 376.1 455.75C297.16 455.75 273.1 563.88 245.28 585.97C206.96 616.4 147.97 579.57 150.41 688.99C152.86 770.1 48.28 759.45 33.2 796.8L0 895.47H594.43V799.49C594.43 731.9 534.2 808.38 535.58 727.27L535.57 727.28Z" fill="#876A4A"/>
</g>
<path d="M591.15 722.75C592.52 613.33 565.94 643.76 544.4 613.33C518.83 577.21 512.43 473.84 378.95 473.84C300.01 473.84 319.58 591.24 291.77 613.33C253.45 643.76 206.16 613.33 208.6 722.75C211.05 803.86 103.87 754.91 88.7803 792.27L55.5703 890.94L687.01 887.62L650 794.97C629.51 749.87 589.77 803.86 591.15 722.75Z" fill="#C69C6D"/>
<mask id="mask1_987_6498" style="mask-type:luminance" maskUnits="userSpaceOnUse" x="55" y="473" width="633" height="418">
<path d="M591.15 722.75C592.52 613.33 565.94 643.76 544.4 613.33C518.83 577.21 512.43 473.84 378.95 473.84C300.01 473.84 319.58 591.24 291.77 613.33C253.45 643.76 206.16 613.33 208.6 722.75C211.05 803.86 103.87 754.91 88.7803 792.27L55.5703 890.94L687.01 887.62L650 794.97C623.51 744.87 589.77 803.86 591.15 722.75Z" fill="white"/>
</mask>
<g mask="url(#mask1_987_6498)">
<path d="M507.32 466.43C507.32 466.43 366.4 463.16 352.79 552.89C339.18 642.62 343.01 658.71 280.9 669.44C218.8 680.17 303.74 767.71 142.43 799.84C68.03 814.66 174.41 914.03 124.68 914.12L18.29 904.14C18.29 904.14 21.7 756.58 116.44 746.64C211.18 736.7 157.27 597.45 157.27 597.45L277.35 584.47L323.55 428.91L507.31 466.44L507.32 466.43Z" fill="#CEA57C"/>
<path d="M315.16 520.86C341.16 518.01 367.48 523.95 393.38 519.58C399.56 518.54 405.6 516.83 411.33 514.28C417.35 511.61 423.02 508.1 429.37 506.21C436.26 504.16 443.54 504.2 450.67 504.22C457.8 504.24 465.32 504.26 472.64 504.28C489.45 504.33 506.27 504.38 523.08 504.43C524.19 504.43 524.19 502.71 523.08 502.7C508.1 502.66 493.11 502.61 478.13 502.57C470.64 502.55 463.15 502.53 455.66 502.5C448.71 502.48 441.69 502.23 434.8 503.26C427.91 504.29 422.26 506.99 416.33 509.96C410.4 512.93 404.63 515.33 398.28 516.83C385.73 519.79 372.68 519.67 359.86 519.21C344.97 518.67 330.02 517.51 315.16 519.13C314.07 519.25 314.05 520.98 315.16 520.86Z" fill="#8C6239"/>
<path d="M295.53 546.82C310.76 547.92 326 548.93 341.28 548.92C356.56 548.91 371.2 547.91 385.82 544.82C392.96 543.31 399.99 541.28 406.79 538.62C413.59 535.96 420.07 532.46 426.62 529.16C433.17 525.86 440.38 522.73 447.89 521.33C455.4 519.93 463.17 520.02 470.78 520.76C486.34 522.26 501.55 526.38 517.19 527.25C519.15 527.36 521.11 527.41 523.07 527.41C524.18 527.41 524.18 525.68 523.07 525.68C507.37 525.68 492.07 521.76 476.58 519.7C469.03 518.69 461.37 518.11 453.77 518.8C446.17 519.49 439.23 521.48 432.4 524.5C425.57 527.52 419.13 531.25 412.38 534.37C405.63 537.49 398.72 539.86 391.6 541.69C377.07 545.44 362.03 546.84 347.05 547.14C332.07 547.44 316.49 546.57 301.25 545.51C299.34 545.38 297.44 545.24 295.54 545.1C294.43 545.02 294.44 546.75 295.54 546.83L295.53 546.82Z" fill="#8C6239"/>
<path d="M294 576.88C313.93 579.58 333.93 582.28 354.06 582.67C372.35 583.02 390.82 581.41 408.42 576.17C416.46 573.78 424.3 570.63 431.62 566.52C435.21 564.5 438.67 562.24 441.94 559.73C445.21 557.22 448.18 554.41 451.57 552.11C455.4 549.51 459.61 548.03 464.2 547.47C469.05 546.88 473.99 546.94 478.87 546.87C489 546.73 499.14 546.77 509.27 546.99C529.6 547.43 549.91 548.6 570.16 550.5C572.62 550.73 575.07 550.97 577.52 551.22C578.62 551.33 578.62 549.61 577.52 549.49C557.38 547.43 537.16 546.08 516.93 545.45C506.88 545.14 496.83 545.01 486.78 545.06C481.71 545.08 476.63 545.14 471.56 545.27C467.02 545.39 462.37 545.63 458.01 547C450 549.51 444.3 556.15 437.55 560.79C430.8 565.43 423.01 569.27 415.13 572.13C398.29 578.25 380.3 580.68 362.45 580.95C342.22 581.25 322.07 578.89 302.05 576.22C299.52 575.88 297 575.54 294.47 575.2C293.38 575.05 292.91 576.72 294.01 576.87L294 576.88Z" fill="#8C6239"/>
<path d="M293.56 604.94C314.99 608.52 336.53 611.94 358.27 612.81C379.31 613.64 400.76 612 420.76 605.04C440.9 598.03 458.55 585.47 478.76 578.61C497.27 572.33 517.04 569.94 536.54 570.99C555.76 572.02 574.98 576.43 592.41 584.7C594.53 585.7 596.62 586.77 598.68 587.89C599.66 588.42 600.53 586.93 599.55 586.4C582.75 577.3 564.06 571.99 545.09 569.96C526.12 567.93 505.93 569.24 487.12 574.29C477.43 576.89 468.16 580.61 459.15 585.03C449.4 589.81 439.95 595.18 430 599.56C410.22 608.27 388.77 611.38 367.27 611.31C345.36 611.24 323.58 608.15 302 604.63C299.33 604.2 296.67 603.75 294.01 603.31C292.92 603.13 292.46 604.79 293.55 604.98L293.56 604.94Z" fill="#8C6239"/>
<path d="M272 620.341C291.44 630.361 312.32 637.521 333.75 641.861C355.18 646.201 376.96 648.061 398.52 645.781C408.83 644.691 419.08 642.621 428.85 639.111C433.56 637.421 438.15 635.401 442.55 633.021C447.59 630.291 452.35 627.091 457.2 624.031C466 618.491 475.26 614.101 485.24 611.121C495.22 608.141 505.08 606.521 515.21 605.631C536.16 603.781 557.26 605.121 578.16 606.951C580.7 607.171 583.24 607.401 585.78 607.641C586.89 607.741 586.88 606.011 585.78 605.911C564.93 603.991 543.96 602.281 523.02 603.361C503.26 604.381 483.24 607.971 465.54 617.181C455.75 622.271 447.03 629.171 437.02 633.891C427.62 638.321 417.5 641.161 407.27 642.871C385.97 646.441 363.95 645.301 342.73 641.771C321.51 638.241 299.83 631.731 279.97 622.361C277.58 621.231 275.22 620.061 272.87 618.861C271.88 618.351 271.01 619.841 272 620.351V620.341Z" fill="#8C6239"/>
<path d="M184.77 761.72C200.07 762.64 215.17 759.55 230 756.14C237.49 754.42 244.97 752.61 252.52 751.18C260.07 749.75 267.59 748.74 275.2 748.1C305.27 745.55 335.77 748.85 364.53 758.02C393.29 767.19 419.18 780.03 448.87 780.83C462.09 781.19 475.74 779.19 487.53 772.9C499.32 766.61 507.75 756.68 517.6 748.24C522.62 743.94 528.04 740.23 534 737.35C539.96 734.47 546.08 732.48 552.4 730.95C565.89 727.68 579.83 726.71 593.66 726.19C597.05 726.06 600.43 725.96 603.82 725.87C604.93 725.84 604.93 724.11 603.82 724.14C590.02 724.51 576.17 725 562.52 727.18C549.59 729.25 536.64 732.94 525.55 740.09C514.46 747.24 506.39 757.14 496.28 765.07C490.98 769.22 485.15 772.61 478.79 774.86C472.43 777.11 465.71 778.38 458.96 778.87C444.95 779.9 430.89 777.83 417.39 774.16C402.86 770.21 388.87 764.59 374.68 759.61C360.41 754.6 345.88 750.63 330.92 748.31C315.96 745.99 300.9 745.12 285.83 745.7C270.76 746.28 256.08 748.43 241.46 751.71C226.44 755.08 211.44 759.17 196 760C192.25 760.2 188.49 760.2 184.74 759.98C183.63 759.91 183.63 761.64 184.74 761.71L184.77 761.72Z" fill="#8C6239"/>
<path d="M200.19 748.39C215.59 744.05 231.16 740.25 246.87 737.2C262.58 734.15 278.71 731.8 294.79 730.48C310.87 729.16 326.8 728.83 342.79 729.76C358.78 730.69 374.46 732.89 389.92 736.65C397.65 738.53 405.22 740.9 412.78 743.35C420.34 745.8 428.21 748.34 436.17 749.88C444.13 751.42 451.87 751.92 459.71 750.68C466.24 749.64 472.51 747.36 478.35 744.28C490.08 738.1 499.91 729.05 510.51 721.22C521.64 713 533.93 706.84 547.07 702.52C560.9 697.97 575.3 695.28 589.74 693.55C604.49 691.78 619.33 690.99 634.17 690.46C637.81 690.33 641.46 690.22 645.1 690.11C646.21 690.08 646.21 688.35 645.1 688.38C630.21 688.82 615.31 689.36 600.47 690.7C585.94 692.01 571.42 694.06 557.29 697.73C543.82 701.22 530.65 706.24 518.76 713.53C506.87 720.82 497.68 729.67 486.71 737.17C481.23 740.92 475.41 744.25 469.14 746.49C462.11 748.99 454.71 749.98 447.26 749.58C430.94 748.71 415.66 742.08 400.14 737.59C384.62 733.1 369.49 730.42 353.84 728.9C338.19 727.38 321.93 727.17 305.99 728.01C289.96 728.85 273.99 730.75 258.17 733.42C242.35 736.09 226.62 739.57 211.08 743.65C207.3 744.64 203.52 745.67 199.75 746.74C198.68 747.04 199.14 748.71 200.21 748.41L200.19 748.39Z" fill="#8C6239"/>
<path d="M198.21 731.72C213.76 728.09 229.46 725.08 245.26 722.71C261.3 720.3 277.44 718.55 293.63 717.44C309.82 716.33 325.8 715.87 341.9 716.04C358.06 716.21 374.22 717.02 390.32 718.48C406.42 719.94 421.45 721.79 437.07 720.84C444.63 720.38 452.19 719.24 459.44 717.01C466.04 714.98 472.35 712.08 478.37 708.72C490.34 702.04 501.23 693.63 513.14 686.86C525.05 680.09 538.62 675.14 552.27 671.96C565.92 668.78 580.72 667.03 595.12 666.21C609.83 665.37 624.58 665.4 639.3 665.65C642.84 665.71 646.38 665.78 649.93 665.86C651.04 665.88 651.04 664.16 649.93 664.13C635.23 663.81 620.52 663.56 605.81 664.02C591.1 664.48 576.85 665.59 562.57 668.1C548.81 670.52 535.25 674.3 522.52 680.11C509.79 685.92 498.84 693.92 487.27 701.33C481.48 705.04 475.54 708.55 469.27 711.41C462.54 714.48 455.47 716.65 448.18 717.87C432.67 720.48 416.79 719.2 401.23 717.76C385.67 716.32 369.25 714.99 353.19 714.52C337.13 714.05 320.82 714.23 304.65 715.04C288.52 715.85 272.41 717.31 256.4 719.4C240.54 721.47 224.76 724.16 209.11 727.5C205.31 728.31 201.52 729.16 197.74 730.04C196.66 730.29 197.12 731.96 198.2 731.71L198.21 731.72Z" fill="#8C6239"/>
<path d="M196.58 712.74C212.07 708.26 227.77 704.51 243.61 701.49C259.58 698.45 275.68 696.15 291.86 694.59C308.04 693.03 324.42 692.19 340.74 692.09C357.06 691.99 373.23 692.63 389.41 694.01C406.07 695.43 422.9 698.23 439.63 696.21C453.35 694.55 466.33 689.66 478.63 683.52C490.93 677.38 502.9 669.95 515.23 663.54C528.24 656.78 541.84 651.63 556.14 648.32C571.14 644.85 586.5 643.17 601.86 642.41C617.37 641.64 632.91 641.82 648.44 642.21C652.26 642.31 656.08 642.42 659.9 642.53C661.01 642.56 661.01 640.84 659.9 640.8C644.32 640.34 628.73 639.93 613.14 640.28C597.55 640.63 582.43 641.71 567.3 644.32C552.66 646.84 538.28 650.87 524.72 656.99C512.01 662.73 500.09 670 487.88 676.7C475.67 683.4 463.1 689.5 449.52 692.7C433.46 696.48 417.14 695.03 400.9 693.38C384.66 691.73 368.25 690.65 351.86 690.41C335.62 690.17 319.36 690.66 303.16 691.89C286.96 693.12 270.92 695.05 254.95 697.72C238.98 700.39 223.19 703.77 207.56 707.9C203.73 708.91 199.92 709.97 196.12 711.07C195.05 711.38 195.51 713.05 196.58 712.74Z" fill="#8C6239"/>
<path d="M200.14 683.49C215.57 679.41 231.19 676.04 246.93 673.38C262.67 670.72 278.91 668.73 295.01 667.48C311.11 666.23 327.38 665.7 343.58 665.9C359.78 666.1 375.72 667.04 391.73 668.63C407.49 670.2 423.27 672.17 439.13 672.18C454.99 672.19 469.66 670.14 483.91 664.36C497.35 658.9 509.5 650.93 521.95 643.58C534.4 636.23 547.5 629.99 561.22 625.24C574.94 620.49 589.57 617 604.16 614.94C618.75 612.88 634.05 612.2 649.02 613C652.69 613.2 656.35 613.48 660.01 613.86C661.11 613.97 661.11 612.24 660.01 612.13C645.08 610.61 630.02 610.56 615.08 611.95C600.14 613.34 585.84 616.02 571.68 620.12C557.52 624.22 544.25 629.5 531.46 636.26C518.7 643 506.8 651.25 493.95 657.84C487.34 661.24 480.48 664.16 473.33 666.22C465.79 668.38 458 669.58 450.18 670.11C434.33 671.19 418.43 669.66 402.67 668.04C386.91 666.42 370.79 664.96 354.76 664.43C338.56 663.9 322.34 664.09 306.16 665.01C290.1 665.92 274.08 667.54 258.16 669.87C242.33 672.18 226.61 675.2 211.06 678.94C207.25 679.86 203.45 680.82 199.66 681.82C198.59 682.1 199.04 683.77 200.12 683.49H200.14Z" fill="#8C6239"/>
<path d="M75.7803 805.65C96.2703 806.29 116.71 804.31 137.02 801.82C157.33 799.33 177.59 796.32 198.02 794.92C218.15 793.54 238.51 793.78 258.36 797.77C278.33 801.78 297.38 809.13 316.93 814.66C336.48 820.19 354.61 823.02 373.89 823.94C393.01 824.85 412.24 823.66 431.1 820.39C449.81 817.14 468 811.73 485.47 804.31C494.7 800.39 503.77 796.11 513.15 792.55C522.33 789.07 531.76 786.47 541.48 784.98C560.99 781.98 580.85 782.87 600.48 783.92C620.16 784.97 639.95 786.33 659.62 784.52C664.33 784.09 669.01 783.47 673.67 782.64C674.76 782.44 674.3 780.78 673.21 780.97C653.75 784.45 633.86 783.92 614.2 782.92C594.54 781.92 574.71 780.37 554.98 781.76C545.44 782.44 535.92 783.82 526.67 786.3C517.16 788.86 508.03 792.6 499.01 796.52C489.99 800.44 481.07 804.51 471.83 807.85C462.59 811.19 453.87 813.73 444.67 815.87C425.85 820.25 406.54 822.43 387.22 822.5C367.9 822.57 348.72 820.52 329.96 816.21C310.33 811.71 291.51 804.4 272.07 799.21C262.35 796.62 252.5 794.67 242.49 793.59C232.48 792.51 222.47 792.24 212.44 792.49C192.12 792.99 171.93 795.62 151.8 798.21C131.55 800.82 111.25 803.44 90.8103 803.95C85.8103 804.08 80.8003 804.07 75.8003 803.91C74.6903 803.88 74.6903 805.6 75.8003 805.64L75.7803 805.65Z" fill="#8C6239"/>
<path d="M49.6897 833.71C72.3897 830.96 95.0896 828.2 117.79 825.45C140.49 822.7 162.76 819.74 185.38 818.46C196.62 817.83 207.9 817.64 219.15 818.16C230.4 818.68 241.62 820.06 252.73 822.13C263.57 824.15 274.3 826.66 285.11 828.83C295.99 831.02 306.94 832.84 317.94 834.3C340.14 837.26 362.54 838.76 384.93 838.79C407.32 838.82 429.08 837.5 450.54 832.43C472 827.36 491.96 819.24 513.22 814.57C534.48 809.9 555.55 807.87 576.94 807.01C598.33 806.15 620.14 806.53 641.74 806.96C663.34 807.39 685.27 807.9 707.03 807.27C712.28 807.12 717.53 806.9 722.77 806.6C723.87 806.54 723.88 804.81 722.77 804.87C701.07 806.11 679.33 805.94 657.61 805.54C635.88 805.15 614.14 804.52 592.4 804.86C570.66 805.2 549.72 806.46 528.65 809.88C518.19 811.58 507.82 813.82 497.62 816.7C487.42 819.58 476.8 823.18 466.36 826.33C455.92 829.48 445.24 832.13 434.39 833.82C423.54 835.51 412.41 836.4 401.36 836.8C378.96 837.61 356.47 836.73 334.17 834.48C322.93 833.35 311.74 831.84 300.6 829.95C289.46 828.06 278.74 825.75 267.85 823.43C256.96 821.11 246.2 818.97 235.21 817.72C224.22 816.47 212.78 816.01 201.54 816.16C179.01 816.45 156.6 819.02 134.26 821.72C111.92 824.42 88.8997 827.22 66.2097 829.97C60.6997 830.64 55.1897 831.31 49.6797 831.97C48.5897 832.1 48.5797 833.83 49.6797 833.7L49.6897 833.71Z" fill="#8C6239"/>
<path d="M46.6098 859.8C68.3098 855.45 90.1898 852.04 112.19 849.58C134.19 847.12 156.31 845.59 178.45 845C200.59 844.41 222.8 844.74 244.93 846.01C267.11 847.29 289.2 849.59 311.2 852.65C333.12 855.71 355.01 859.21 377.09 860.94C399.17 862.67 420.84 862.58 442.32 858.45C463.61 854.36 483.74 846.04 504.65 840.51C525.56 834.98 546.78 832.49 568.17 831.48C589.56 830.47 611.68 830.94 633.43 831.47C655.18 832 676.99 832.6 698.77 831.82C704.02 831.63 709.27 831.36 714.52 831C715.62 830.92 715.63 829.2 714.52 829.27C692.74 830.79 670.9 830.59 649.09 830.11C627.28 829.63 605.61 828.87 583.86 829.25C562.11 829.63 541.04 831.13 520.02 835.22C509.46 837.27 499.11 840.11 488.86 843.33C478.61 846.55 468.35 850.07 457.95 852.95C447.55 855.83 436.6 858.03 425.65 859.14C414.7 860.25 403.81 860.47 392.88 860.1C370.53 859.35 348.35 856.21 326.25 853.04C304.15 849.87 282.4 847 260.31 845.3C238.21 843.59 216.04 842.83 193.88 842.99C171.72 843.15 149.57 844.25 127.51 846.28C105.45 848.31 83.7898 851.23 62.1398 855.09C56.8098 856.04 51.4798 857.05 46.1698 858.12C45.0798 858.34 45.5398 860 46.6298 859.79L46.6098 859.8Z" fill="#8C6239"/>
<path d="M34.6401 877.93C59.2401 875.15 83.8401 872.38 108.44 869.6C133.04 866.82 156.98 863.87 181.33 861.88C205.68 859.89 229.8 859.37 254.09 860.78C278.38 862.19 301.62 864.97 325.3 867.79C348.98 870.61 372.6 873.46 396.37 874.92C420.14 876.38 444.02 876.32 467.73 873.68C491.73 871 515.44 866.25 539.33 862.78C563.45 859.28 587.73 856.98 612.06 855.5C636.23 854.03 660.44 853.38 684.64 853.17C708.84 852.96 733.48 853.2 757.9 853.54C763.79 853.62 769.69 853.71 775.58 853.79C776.69 853.81 776.69 852.08 775.58 852.06C751.17 851.7 726.76 851.35 702.34 851.36C677.92 851.37 653.88 851.75 629.67 852.84C605.39 853.94 581.14 855.77 557.01 858.69C532.88 861.61 509.34 866.12 485.46 869.62C473.38 871.4 461.24 872.83 449.04 873.54C436.84 874.25 425.41 874.32 413.59 873.97C389.82 873.27 366.14 870.84 342.52 868.09C318.82 865.33 295.15 862.26 271.36 860.27C247.57 858.28 223.19 857.6 199.05 858.92C174.91 860.24 150.47 863.11 126.25 865.84C101.65 868.62 77.0501 871.39 52.4501 874.17L34.6201 876.18C33.5301 876.3 33.5201 878.03 34.6201 877.91L34.6401 877.93Z" fill="#8C6239"/>
</g>
<g style="mix-blend-mode:multiply" opacity="0.39">
<path d="M826.35 903.63L832.15 843.31C834.51 818.72 840.67 796.62 850.44 777.64C858.95 761.1 870.29 746.86 884.13 735.3C906.35 716.76 930.92 708.06 952.59 700.39C960.32 697.66 970.94 693.9 977.72 690.49C977.92 670.81 980.4 653.62 985.26 638.23C991.44 618.65 1001.3 602.74 1014.55 590.93C1034.56 573.1 1057.73 568.49 1080.13 564.03C1094.51 561.17 1108.1 558.47 1119.61 552.62C1125.77 549.5 1126.4 548.83 1129.45 545.65C1136.5 538.29 1144.23 530.77 1161.26 519.66C1240.3 468.1 1319.1 466.86 1348.76 466.39C1351.35 466.35 1353.66 466.3 1355.74 466.26C1359.31 466.19 1362.39 466.13 1365.13 466.13H1365.55C1367.09 466.15 1368.65 466.16 1370.22 466.17C1371.85 466.18 1373.47 466.19 1375.07 466.21C1377.79 466.2 1379.47 466.18 1381.16 466.17C1382.93 466.16 1384.71 466.14 1387.64 466.13H1387.81C1389.03 466.13 1390.18 466.19 1392.89 466.35C1394.01 466.41 1396.06 466.53 1396.78 466.55C1423.48 466.71 1504.15 467.28 1584.99 519.58C1602.47 530.89 1610.24 538.5 1617.28 545.94C1620.1 548.92 1620.68 549.54 1626.75 552.61C1638.26 558.45 1651.84 561.15 1666.23 564.02C1688.63 568.48 1711.79 573.09 1731.81 590.92C1745.06 602.72 1754.91 618.64 1761.1 638.22C1765.96 653.61 1768.45 670.79 1768.64 690.48C1775.43 693.89 1786.05 697.65 1793.77 700.38C1815.45 708.05 1840.02 716.75 1862.23 735.29C1876.08 746.85 1887.41 761.09 1895.92 777.63C1905.69 796.61 1911.84 818.7 1914.21 843.3L1920.01 903.62H826.35V903.63Z" fill="#876A4A"/>
</g>
<path d="M1728.57 722.5C1731.98 613.08 1666.03 643.51 1612.59 613.08C1589.18 599.75 1597.87 595.91 1567.61 573.94C1496.23 522.14 1424.78 520.61 1396.45 520.42C1394.71 520.41 1388.67 519.95 1387.78 519.95C1381.96 519.98 1380.75 520.01 1374.93 520.04C1371.7 519.99 1368.36 520 1365.13 519.95C1361.2 519.95 1356.2 520.11 1349.23 520.24C1317.54 520.8 1248.32 523.04 1178.75 573.94C1148.93 595.76 1157 599.85 1133.77 613.08C1080.33 643.51 1014.38 613.08 1017.79 722.5C1021.2 803.61 883.49 753.9 871.77 890.69H1874.6C1862.88 753.9 1725.17 803.61 1728.58 722.5H1728.57Z" fill="#F3D5A7"/>
<mask id="mask2_987_6498" style="mask-type:luminance" maskUnits="userSpaceOnUse" x="871" y="519" width="1004" height="372">
<path d="M1728.57 722.5C1731.98 613.08 1666.03 643.51 1612.59 613.08C1589.18 599.75 1597.87 595.91 1567.61 573.94C1496.23 522.14 1424.78 520.61 1396.45 520.42C1394.71 520.41 1388.67 519.95 1387.78 519.95C1381.96 519.98 1380.75 520.01 1374.93 520.04C1371.7 519.99 1368.36 520 1365.13 519.95C1361.2 519.95 1356.2 520.11 1349.23 520.24C1317.54 520.8 1248.32 523.04 1178.75 573.94C1148.93 595.76 1157 599.85 1133.77 613.08C1080.33 643.51 1014.38 613.08 1017.79 722.5C1021.2 803.61 883.49 753.9 871.77 890.69H1874.6C1862.88 753.9 1725.17 803.61 1728.58 722.5H1728.57Z" fill="white"/>
</mask>
<g mask="url(#mask2_987_6498)">
<path d="M888.539 811.19C903.009 819.27 918.009 826.39 933.439 832.43C948.869 838.47 964.389 843.34 980.349 847.12C996.309 850.9 1011.93 853.44 1027.95 854.9C1045.07 856.45 1062.21 856.29 1079.38 856.31C1097.06 856.32 1114.86 856.74 1132.23 860.33C1148.15 863.62 1163.45 869.25 1178.63 874.96C1193.81 880.67 1209.18 886.62 1225.07 890.47C1240.96 894.32 1257.23 895.57 1273.53 894.78C1289.83 893.99 1306.24 891.31 1322.34 888.06C1338.69 884.76 1354.91 880.84 1371.25 877.49C1387.65 874.12 1404.2 871.33 1420.94 870.39C1437.68 869.45 1454.67 870.27 1471.4 872.3C1488.26 874.35 1504.96 877.61 1521.49 881.47C1538.02 885.33 1554.81 889.89 1571.37 894.47C1587.93 899.05 1604.52 903.71 1621.2 907.9C1635.74 911.55 1650.37 914.8 1665.16 917.21C1679.95 919.62 1693.4 921.11 1707.64 921.74C1721.88 922.37 1736.1 922.02 1750.22 920.37C1764.13 918.75 1777.91 915.87 1791.22 911.45C1804.53 907.03 1817.51 900.99 1829.45 893.45C1835.48 889.64 1841.25 885.44 1846.76 880.92C1847.62 880.21 1846.39 879 1845.54 879.7C1834.29 888.93 1821.86 896.7 1808.63 902.77C1795.4 908.84 1782.33 912.89 1768.55 915.71C1754.78 918.54 1740.74 919.93 1726.7 920.24C1712.66 920.55 1698.19 919.74 1684.03 918.11C1669.87 916.48 1655.62 914 1641.6 910.94C1625.46 907.42 1609.48 903.16 1593.55 898.8C1577.09 894.29 1560.68 889.62 1544.17 885.32C1527.72 881.03 1511.16 877.08 1494.42 874.07C1477.68 871.06 1461.33 869.03 1444.62 868.44C1427.91 867.85 1411.44 868.95 1395 871.44C1378.56 873.93 1362.41 877.56 1346.22 881.16C1330.03 884.76 1313.81 888.35 1297.38 890.7C1280.95 893.05 1264.69 894.08 1248.35 892.6C1232.13 891.14 1216.46 886.77 1201.13 881.41C1185.8 876.05 1170.64 869.76 1155.11 864.72C1147.4 862.22 1139.57 860.02 1131.61 858.43C1123.14 856.74 1114.53 855.77 1105.91 855.23C1088.31 854.13 1070.67 854.81 1053.06 854.49C1036.65 854.19 1020.28 852.78 1004.08 850.11C987.879 847.44 972.379 843.72 956.959 838.88C941.539 834.04 925.799 827.87 910.879 820.78C903.609 817.32 896.449 813.62 889.419 809.69C888.449 809.15 887.579 810.64 888.549 811.18L888.539 811.19Z" fill="#8C6239"/>
<path d="M887.1 757.35C917.81 762.4 948.53 767.45 979.24 772.5C1009.95 777.55 1040.5 782.569 1071.14 787.609C1101.78 792.649 1132.4 797.68 1163.04 802.72C1178.32 805.23 1193.59 807.74 1208.87 810.26C1224.12 812.77 1239.37 815.29 1254.7 817.23C1270.03 819.17 1285.16 820.5 1300.48 820.64C1315.8 820.78 1330.45 819.5 1345.35 817.58C1374.89 813.77 1404.48 807.809 1434.41 809.339C1464.15 810.859 1492.31 821.1 1520.69 829.17C1548.99 837.22 1577.97 842.86 1607.23 846C1636.25 849.11 1665.52 849.75 1694.65 847.9C1723.94 846.04 1753.08 841.68 1781.64 834.88C1788.57 833.23 1795.47 831.43 1802.33 829.5C1803.4 829.2 1802.94 827.53 1801.87 827.83C1773.4 835.85 1744.26 841.46 1714.83 844.49C1685.4 847.52 1656.52 848 1627.41 846.03C1598.11 844.05 1568.99 839.539 1540.46 832.589C1526.09 829.089 1511.96 824.79 1497.79 820.57C1483.62 816.35 1469.45 812.33 1454.91 809.88C1440.37 807.43 1425.75 806.92 1411.08 807.77C1396.32 808.63 1381.67 810.69 1367.05 812.8C1352.23 814.94 1337.4 817.14 1322.46 818.22C1307.52 819.3 1292.03 819.02 1276.85 817.81C1246.08 815.36 1215.63 809.62 1185.2 804.62C1154.77 799.62 1123.77 794.52 1093.06 789.47C1062.51 784.45 1031.96 779.42 1001.41 774.4C970.86 769.38 940.31 764.35 909.76 759.33C902.37 758.11 894.98 756.9 887.59 755.68C886.5 755.5 886.04 757.17 887.13 757.35H887.1Z" fill="#8C6239"/>
<path d="M870.91 720.42C900.02 716.7 929.43 716.02 958.72 717.33C988.06 718.65 1017.28 721.92 1046.35 725.98C1075.42 730.04 1104.67 734.93 1133.81 739.47C1162.81 743.99 1191.88 748.21 1221.11 751C1250.22 753.78 1279.5 755.13 1308.73 753.89C1339.54 752.59 1370.01 747.59 1400.74 745.32C1416.15 744.18 1431.64 743.78 1447.06 745C1462.48 746.22 1477.61 749.35 1492.59 753.04C1507.58 756.74 1522.46 760.88 1537.53 764.28C1552.48 767.66 1567.55 770.51 1582.71 772.81C1612.65 777.37 1642.91 779.829 1673.2 780.129C1703.49 780.429 1733.93 778.58 1764.03 774.58C1771.25 773.62 1778.46 772.539 1785.64 771.339C1786.73 771.159 1786.27 769.49 1785.18 769.67C1755.13 774.69 1724.73 777.57 1694.27 778.26C1663.93 778.95 1633.54 777.479 1603.4 773.879C1572.96 770.239 1542.96 764.23 1513.3 756.54C1498.44 752.69 1483.58 748.7 1468.46 746.02C1453.34 743.34 1438.05 742.3 1422.7 742.54C1391.61 743.03 1360.86 748.14 1329.93 750.78C1300.63 753.28 1271.18 753.02 1241.86 750.97C1212.46 748.92 1183.21 745.14 1154.08 740.8C1124.95 736.46 1095.79 731.54 1066.6 727.16C1037.41 722.78 1008.61 718.99 979.42 716.82C950.36 714.66 921.13 714.17 892.06 716.48C885 717.04 877.95 717.77 870.92 718.67C869.83 718.81 869.82 720.54 870.92 720.4L870.91 720.42Z" fill="#8C6239"/>
<path d="M887.47 659.51C917.22 660.33 946.91 662.67 976.49 665.91C1006.07 669.15 1035.76 673.3 1065.3 677.7C1094.79 682.09 1124.25 686.74 1153.75 691.02C1183.16 695.29 1212.63 699.19 1242.2 702.1C1271.56 704.99 1301.04 706.88 1330.54 707.15C1345.3 707.28 1360.06 707.01 1374.79 706.25C1390.09 705.46 1405.34 704.08 1420.59 702.68C1450.79 699.91 1481.16 697.07 1511.5 699.1C1526.62 700.11 1541.5 702.59 1556.26 706C1571.01 709.41 1585.58 713.53 1600.3 717.07C1629.5 724.08 1659.29 727.45 1689.3 727.91C1719.59 728.37 1749.86 726.14 1779.97 722.97C1787.22 722.2 1794.47 721.38 1801.72 720.53C1802.81 720.4 1802.82 718.67 1801.72 718.8C1771.63 722.35 1741.42 725.34 1711.11 726.07C1680.92 726.8 1650.58 725.25 1620.85 719.73C1591.34 714.25 1562.83 704.24 1533.12 699.72C1502.98 695.13 1472.38 696.52 1442.12 699.04C1426.94 700.3 1411.78 701.85 1396.6 703.06C1381.42 704.27 1366.85 705.04 1351.94 705.32C1322.29 705.88 1292.63 704.64 1263.07 702.25C1233.51 699.86 1203.99 696.31 1174.58 692.25C1145.17 688.19 1115.44 683.56 1085.9 679.08C1056.36 674.6 1027.27 670.29 997.86 666.68C968.31 663.05 938.65 660.15 908.9 658.64C901.75 658.28 894.6 657.99 887.45 657.8C886.34 657.77 886.34 659.5 887.45 659.53L887.47 659.51Z" fill="#8C6239"/>
<path d="M880.45 603.73C910.32 600.02 940.55 599.29 970.56 601.58C985.51 602.72 1000.38 604.64 1015.15 607.23C1029.92 609.82 1044.74 612.99 1059.52 615.91C1074.3 618.83 1089.04 621.4 1103.94 623.28C1118.79 625.15 1133.7 626.46 1148.64 627.44C1178.98 629.45 1209.39 630.34 1239.77 631.55C1270.24 632.76 1300.72 633.97 1331.19 635.18C1361.66 636.39 1392.14 637.6 1422.61 638.81C1453.25 640.03 1483.89 641.24 1514.53 642.46C1545 643.67 1575.48 644.88 1605.95 646.09C1636.42 647.3 1666.9 648.51 1697.37 649.72C1727.93 650.93 1758.49 652.15 1789.04 653.36C1796.45 653.65 1803.86 653.95 1811.27 654.24C1812.38 654.28 1812.38 652.56 1811.27 652.51C1780.63 651.29 1749.99 650.08 1719.35 648.86C1688.88 647.65 1658.4 646.44 1627.93 645.23C1597.46 644.02 1566.98 642.81 1536.51 641.6C1506.04 640.39 1475.23 639.17 1444.59 637.95C1414.12 636.74 1383.64 635.53 1353.17 634.32C1322.7 633.11 1292.22 631.9 1261.75 630.69C1231.28 629.48 1200.77 628.46 1170.3 626.94C1140.16 625.45 1110.01 623.14 1080.25 618.02C1050.49 612.9 1021.74 605.71 992.06 602C962.38 598.29 932.12 597.54 902.19 599.81C894.92 600.36 887.67 601.09 880.44 601.99C879.35 602.13 879.34 603.85 880.44 603.72L880.45 603.73Z" fill="#8C6239"/>
<path d="M1132.5 559.13C1148.8 557.44 1165.17 556.43 1181.55 555.97C1197.9 555.52 1214.27 555.61 1230.62 556.12C1246.92 556.62 1263.21 557.53 1279.47 558.7C1295.86 559.88 1312.23 561.32 1328.59 562.87C1344.98 564.43 1361.35 566.11 1377.73 567.77C1394.11 569.43 1410.49 571.07 1426.89 572.54C1443.29 574.01 1459.66 575.32 1476.07 576.32C1492.48 577.32 1508.86 578 1525.27 578.24C1540.22 578.45 1555.27 578.57 1570.16 577.07C1585.05 575.57 1598.39 572.58 1611.27 566.39C1614.54 564.82 1617.71 563.05 1620.77 561.1C1621.7 560.5 1620.84 559.01 1619.9 559.61C1607.63 567.42 1593.7 571.89 1579.4 574.16C1565.1 576.43 1550.28 576.64 1535.69 576.61C1519.36 576.57 1503.03 576.06 1486.73 575.21C1470.43 574.36 1454.08 573.17 1437.79 571.78C1421.5 570.39 1405.16 568.81 1388.87 567.18C1372.57 565.55 1356.27 563.86 1339.97 562.26C1323.67 560.66 1307.4 559.15 1291.09 557.86C1274.82 556.58 1258.53 555.52 1242.23 554.83C1225.93 554.14 1209.68 553.83 1193.39 554.02C1177.1 554.21 1160.65 554.93 1144.34 556.3C1140.39 556.63 1136.45 557 1132.5 557.41C1131.41 557.52 1131.39 559.25 1132.5 559.14V559.13Z" fill="#8C6239"/>
</g>
</g>
</svg>
