<svg width="1920" height="1080" viewBox="0 0 1920 1080" fill="none" xmlns="http://www.w3.org/2000/svg">
<mask id="mask0_987_6539" style="mask-type:luminance" maskUnits="userSpaceOnUse" x="0" y="0" width="1920" height="1080">
<path d="M1920 0H0V1080H1920V0Z" fill="white"/>
</mask>
<g mask="url(#mask0_987_6539)">
<path d="M1719.7 792.36C1706.49 784.22 1675.53 816.78 1651.02 810.68C1626.51 804.57 1589.1 802.04 1574.91 811.45C1560.72 820.86 1512.99 838.67 1502.67 811.45C1501.83 809.24 1501.3 806.87 1501.01 804.39C1516.49 792.63 1527.66 776.6 1528.76 755.39C1531.75 697.87 1546.69 696.93 1546.69 696.93C1579.56 701.64 1577.77 689.39 1577.77 689.39C1589.13 647.9 1611.24 653.56 1635.74 652.62C1660.24 651.68 1690.13 657.33 1695.5 672.42C1700.88 687.51 1706.26 686.56 1712.23 685.62C1718.21 684.68 1722.99 686.56 1722.99 699.76C1722.99 712.96 1727.17 712.02 1727.17 712.02C1727.17 712.02 1748.35 720.52 1748.69 699.76C1748.76 695.37 1749.65 691.94 1751.02 689.27C1754.84 681.82 1765.59 679.79 1768.72 679.96C1782.43 680.69 1796.08 718.34 1804.3 770.26C1792.44 774.91 1780.58 779.57 1768.72 784.22C1768.72 784.22 1732.9 800.5 1719.69 792.36H1719.7Z" fill="#A67C52"/>
<mask id="mask1_987_6539" style="mask-type:luminance" maskUnits="userSpaceOnUse" x="1501" y="652" width="304" height="174">
<path d="M1719.7 792.36C1706.55 789.06 1696.3 797.5 1685.2 802.97C1679.97 805.54 1670.32 807.26 1651.02 810.68C1616.82 816.75 1607.58 789.79 1574.91 811.45C1560.72 820.86 1512.99 838.67 1502.67 811.45C1501.83 809.24 1501.3 806.87 1501.01 804.39C1516.49 792.63 1527.66 776.6 1528.76 755.39C1531.75 697.87 1546.69 696.93 1546.69 696.93C1579.56 701.64 1577.77 689.39 1577.77 689.39C1589.13 647.9 1611.24 653.56 1635.74 652.62C1660.24 651.68 1690.13 657.33 1695.5 672.42C1700.88 687.51 1706.26 686.56 1712.23 685.62C1718.21 684.68 1722.99 686.56 1722.99 699.76C1722.99 712.96 1727.17 712.02 1727.17 712.02C1727.17 712.02 1748.74 720.52 1748.69 699.76C1748.64 678.52 1769.44 680.03 1769.44 680.03C1771.55 680.16 1772.85 681.26 1775.47 683.23C1781.25 687.59 1783.97 694.41 1785.79 699.23C1794.49 719.41 1798.36 739.21 1798.36 739.22C1800.1 746.86 1802.29 757.41 1804.31 770.26C1792.45 774.91 1780.59 779.57 1768.73 784.22C1763.02 786.35 1757.3 788.49 1751.59 790.62C1745.73 793.5 1737.12 796.4 1727.09 794.52C1723.46 793.84 1722.61 793.09 1719.7 792.36Z" fill="white"/>
</mask>
<g mask="url(#mask1_987_6539)">
<path d="M1784.85 781.7C1767.31 744.69 1762.97 700.42 1744.99 709.9C1727.01 719.38 1724.05 752.11 1710.62 709.07C1705.02 708.31 1699.4 715.64 1693.43 693.73C1687.46 671.81 1615.63 652.4 1591.01 662.98C1566.39 673.55 1560.26 687.68 1560.26 687.68L1577.77 689.39C1577.77 689.39 1596.54 713.16 1564.49 711.91C1521.05 710.22 1531.32 672.31 1531.32 672.31L1606.89 628.03L1681.12 640.87L1708.72 667.15L1731.85 687.69L1768.73 659.46L1824.71 771.5L1784.85 781.72V781.7Z" fill="#B58E6B"/>
<path d="M1805.15 764.3C1800.02 768.03 1793.49 769.97 1787.47 771.74C1779.25 774.15 1770.85 775.97 1762.44 777.54C1754.54 779.01 1746.6 780.26 1738.62 781.22C1735.72 781.57 1732.82 781.88 1729.91 782.09C1724.81 782.46 1719.69 782.21 1714.58 782.38C1708.46 782.58 1702.77 783.81 1697.15 786.25C1691.53 788.69 1686.51 791.66 1680.93 793.78C1675.35 795.9 1669.42 796.6 1663.41 795.95C1657.4 795.3 1651.53 793.57 1645.73 791.88C1639.93 790.19 1634.22 788.49 1628.27 787.7C1622.32 786.91 1616.66 787.2 1610.92 788.15C1598.61 790.17 1586.99 795.04 1575.28 799.17C1565.25 802.7 1554.93 805.75 1544.22 805.91C1533.51 806.07 1523.89 803.33 1515.64 797.1C1513.38 795.4 1511.31 793.47 1509.38 791.4C1508.93 790.92 1508.21 791.64 1508.66 792.12C1515.83 799.8 1525.13 804.88 1535.55 806.38C1545.37 807.79 1555.39 806.3 1564.87 803.61C1576.87 800.2 1588.3 795.06 1600.29 791.63C1606.37 789.89 1612.61 788.58 1618.94 788.31C1625.27 788.04 1631.04 788.97 1636.96 790.48C1648.42 793.4 1660.04 798.35 1672.1 797.03C1684.16 795.71 1693.43 787.47 1704.84 784.62C1711.27 783.01 1717.94 783.43 1724.5 783.35C1727.75 783.31 1730.97 783.07 1734.2 782.74C1741.66 781.98 1749.09 780.9 1756.48 779.64C1765.1 778.18 1773.69 776.46 1782.16 774.27C1789.05 772.48 1796.14 770.5 1802.46 767.16C1803.56 766.58 1804.64 765.94 1805.65 765.2C1806.17 764.82 1805.67 763.94 1805.14 764.32L1805.15 764.3Z" fill="#8C6239"/>
<path d="M1806.2 751.77C1791.79 754.87 1776.93 756.03 1762.27 757.32C1745.25 758.82 1728.21 760.02 1711.22 761.79C1704.02 762.54 1696.83 763.38 1689.69 764.56C1680.25 766.12 1671 768.79 1661.4 769.38C1655.53 769.74 1649.79 769.12 1644.03 768.07C1638.6 767.08 1633.19 765.88 1627.68 765.49C1622.17 765.1 1616.73 765.81 1611.41 767.48C1606.09 769.15 1600.89 771.51 1595.58 773.38C1574.24 780.88 1551.01 781.64 1529.26 775.36C1526.54 774.57 1523.85 773.68 1521.2 772.71C1520.58 772.48 1520.32 773.47 1520.93 773.69C1541.89 781.41 1564.75 782.78 1586.42 777.23C1591.98 775.81 1597.35 773.88 1602.68 771.78C1608.01 769.68 1613.07 767.65 1618.58 766.79C1630.09 765 1641.35 769.36 1652.72 770.32C1664.09 771.28 1674.45 768.5 1685.19 766.39C1691.93 765.07 1698.75 764.19 1705.57 763.41C1722.54 761.47 1739.58 760.26 1756.59 758.81C1771.81 757.51 1787.15 756.32 1802.19 753.58C1803.62 753.32 1805.05 753.04 1806.47 752.73C1807.11 752.59 1806.84 751.61 1806.2 751.75V751.77Z" fill="#8C6239"/>
<path d="M1803.51 742.58C1788.34 740.05 1772.76 740.29 1757.44 740.94C1739.98 741.68 1722.56 743.22 1705.12 744.44C1689.25 745.55 1673.24 746.59 1657.33 745.69C1647.56 745.13 1637.99 742.97 1628.24 742.3C1623.06 741.94 1617.87 742.13 1612.79 743.25C1607.71 744.37 1602.46 746.34 1597.34 748.03C1576.87 754.77 1554.98 756.75 1533.67 753.37C1531.02 752.95 1528.38 752.44 1525.75 751.87C1525.11 751.73 1524.84 752.71 1525.48 752.85C1546.15 757.36 1567.66 756.99 1588.16 751.77C1593.36 750.44 1598.42 748.72 1603.5 747.01C1608.58 745.3 1613.97 743.69 1619.47 743.28C1630.25 742.48 1640.85 745.2 1651.51 746.26C1666.95 747.79 1682.63 746.91 1698.07 745.93C1715.52 744.83 1732.93 743.24 1750.39 742.3C1766.19 741.45 1782.22 740.9 1797.97 742.8C1799.73 743.01 1801.48 743.27 1803.23 743.56C1803.87 743.67 1804.15 742.69 1803.5 742.58H1803.51Z" fill="#8C6239"/>
<path d="M1796.2 714.16C1781.25 710.99 1765.64 711.88 1750.56 713.63C1733.39 715.62 1716.41 718.98 1699.41 722.06C1682.41 725.14 1666.96 727.9 1650.53 728.56C1642.1 728.9 1633.84 728.23 1625.47 727.22C1614.71 725.92 1603.75 724.63 1593.05 727.08C1587.88 728.26 1582.9 730.14 1577.87 731.8C1572.84 733.46 1567.45 734.82 1562.05 735.52C1551.31 736.91 1540.42 736.21 1529.71 734.83C1526.9 734.47 1524.1 734.06 1521.3 733.62C1520.66 733.52 1520.38 734.5 1521.03 734.6C1531.61 736.23 1542.31 737.57 1553.04 737.24C1558.33 737.07 1563.62 736.5 1568.8 735.38C1573.98 734.26 1579.08 732.44 1584.16 730.74C1589.24 729.04 1594.59 727.49 1600.07 726.97C1605.55 726.45 1611.05 726.71 1616.51 727.23C1625.86 728.12 1635.13 729.68 1644.55 729.7C1660.47 729.73 1676.34 727.16 1691.97 724.43C1709.13 721.43 1726.22 717.94 1743.49 715.56C1759.05 713.42 1775.16 711.91 1790.79 714.23C1792.52 714.49 1794.23 714.8 1795.94 715.16C1796.58 715.3 1796.85 714.31 1796.21 714.18L1796.2 714.16Z" fill="#8C6239"/>
<path d="M1792.99 703.25C1789.34 698.93 1783.93 696.44 1778.64 694.77C1772.36 692.79 1765.76 691.86 1759.21 691.46C1753.53 691.11 1747.78 691.14 1742.12 691.83C1733.64 692.87 1725.5 695.89 1717.17 697.68C1706.96 699.88 1696.51 700.52 1686.11 701.07C1675.71 701.62 1664.73 702.19 1654.04 702.74C1632.79 703.85 1611.53 704.96 1590.28 706.07C1569.03 707.18 1547.77 708.29 1526.52 709.4C1523.86 709.54 1521.21 709.68 1518.55 709.82C1517.9 709.85 1517.89 710.87 1518.55 710.84C1539.64 709.74 1560.73 708.64 1581.81 707.54C1602.9 706.44 1623.99 705.34 1645.07 704.24C1655.7 703.69 1666.32 703.13 1676.95 702.58C1687.58 702.03 1697.37 701.71 1707.5 700.37C1712.53 699.71 1717.49 698.74 1722.41 697.5C1727.33 696.26 1732.46 694.77 1737.54 693.66C1742.62 692.55 1747.89 692.26 1753.11 692.28C1759.7 692.31 1766.33 692.89 1772.77 694.29C1778.61 695.56 1784.69 697.48 1789.44 701.25C1790.47 702.07 1791.41 702.98 1792.26 703.98C1792.68 704.48 1793.4 703.76 1792.98 703.26L1792.99 703.25Z" fill="#8C6239"/>
<path d="M1704.19 675.71C1686.41 673.32 1668.48 674.79 1650.76 677C1633.04 679.21 1614.97 682.19 1596.89 682.55C1587.88 682.73 1578.4 682.62 1571.09 676.59C1570.59 676.18 1569.86 676.89 1570.37 677.31C1576.32 682.22 1583.67 683.47 1591.17 683.59C1600.21 683.73 1609.26 683.08 1618.25 682.13C1636.45 680.21 1654.51 676.98 1672.79 675.87C1683.16 675.24 1693.6 675.32 1703.91 676.71C1704.55 676.8 1704.83 675.82 1704.18 675.73L1704.19 675.71Z" fill="#8C6239"/>
</g>
<g style="mix-blend-mode:multiply" opacity="0.6">
<path d="M1719.7 792.36C1706.49 784.22 1675.53 816.78 1651.02 810.68C1626.51 804.57 1589.1 802.04 1574.91 811.45C1560.72 820.86 1512.99 838.67 1502.67 811.45C1501.83 809.24 1501.3 806.87 1501.01 804.39C1516.49 792.63 1527.66 776.6 1528.76 755.39C1531.75 697.87 1546.69 696.93 1546.69 696.93C1579.56 701.64 1577.77 689.39 1577.77 689.39C1589.13 647.9 1611.24 653.56 1635.74 652.62C1660.24 651.68 1690.13 657.33 1695.5 672.42C1700.88 687.51 1706.26 686.56 1712.23 685.62C1718.21 684.68 1722.99 686.56 1722.99 699.76C1722.99 712.96 1727.17 712.02 1727.17 712.02C1727.17 712.02 1748.35 720.52 1748.69 699.76C1748.76 695.37 1749.65 691.94 1751.02 689.27C1754.84 681.82 1765.59 679.79 1768.72 679.96C1782.43 680.69 1796.08 718.34 1804.3 770.26C1792.44 774.91 1780.58 779.57 1768.72 784.22C1768.72 784.22 1732.9 800.5 1719.69 792.36H1719.7Z" fill="#A67C52"/>
</g>
<path d="M1527.14 923.339C1548.65 910.039 1606.89 946.579 1648.16 933.699C1689.43 920.819 1753.45 910.049 1779.31 919.569C1805.17 929.079 1890.04 942.959 1903.68 905.199C1904.79 902.129 1905.35 898.919 1905.47 895.609C1877.03 883.269 1855.38 864.469 1850.27 836.879C1836.41 762.049 1810.54 763.789 1810.54 763.789C1754.66 776.509 1755.89 760.079 1755.89 760.079C1730.05 707.929 1692.84 719.749 1650.51 723.389C1608.18 727.029 1557.59 740.389 1550.61 761.239C1543.63 782.089 1534.23 781.929 1523.8 781.879C1513.37 781.829 1505.42 785.259 1507.42 802.569C1509.42 819.879 1502.07 819.479 1502.07 819.479C1502.07 819.479 1466.9 834.829 1463.17 807.689C1462.38 801.939 1460.33 797.629 1457.57 794.399C1449.87 785.389 1431.04 784.869 1425.68 785.709C1402.18 789.389 1384.38 841.479 1378.1 911.209C1399.22 914.959 1420.35 918.699 1441.47 922.449C1441.47 922.449 1505.6 936.679 1527.12 923.369L1527.14 923.339Z" fill="#A67C52"/>
<mask id="mask2_987_6539" style="mask-type:luminance" maskUnits="userSpaceOnUse" x="1378" y="719" width="528" height="215">
<path d="M1527.14 923.339C1549.28 916.399 1568.2 925.429 1588.14 930.389C1597.53 932.729 1614.41 933.049 1648.16 933.699C1707.97 934.859 1719.79 897.669 1779.31 919.569C1805.17 929.079 1890.04 942.959 1903.68 905.199C1904.79 902.129 1905.35 898.919 1905.47 895.609C1877.03 883.269 1855.38 864.469 1850.27 836.879C1836.41 762.049 1810.54 763.789 1810.54 763.789C1754.66 776.509 1755.89 760.079 1755.89 760.079C1730.05 707.929 1692.84 719.749 1650.51 723.389C1608.18 727.029 1557.59 740.389 1550.61 761.239C1543.63 782.089 1534.23 781.929 1523.8 781.879C1513.37 781.829 1505.42 785.259 1507.42 802.569C1509.42 819.879 1502.07 819.479 1502.07 819.479C1502.07 819.479 1466.22 834.919 1463.17 807.689C1460.05 779.819 1424.46 785.949 1424.46 785.949C1420.84 786.549 1418.78 788.229 1414.56 791.349C1405.26 798.209 1401.62 807.699 1399.21 814.379C1387.28 842.569 1383.63 869.309 1383.63 869.309C1381.79 879.669 1379.61 893.949 1378.1 911.199C1399.22 914.949 1420.35 918.689 1441.47 922.439C1451.63 924.099 1461.79 925.759 1471.95 927.419C1482.47 930.029 1497.74 932.119 1514.72 927.659C1520.87 926.049 1522.21 924.889 1527.11 923.359L1527.14 923.339Z" fill="white"/>
</mask>
<g mask="url(#mask2_987_6539)">
<path d="M1413.36 922.329C1437.95 870.319 1438.71 811.389 1471.11 820.249C1503.51 829.109 1513.56 871.439 1530.16 812.319C1539.68 810.219 1550.47 818.709 1557.43 788.779C1564.39 758.849 1685.12 719.109 1729.11 728.079C1773.1 737.049 1785.79 754.349 1785.79 754.349L1755.9 760.079C1755.9 760.079 1727.18 794.989 1782.18 786.969C1856.72 776.109 1833.29 728.439 1833.29 728.439L1696.48 685.399L1570.62 716.999L1527.07 756.949L1490.36 788.489L1422.59 758.809L1343.19 916.869L1413.36 922.349V922.329Z" fill="#B58E6B"/>
<path d="M1375.2 904.909C1379.29 906.599 1383.66 907.609 1387.99 908.469C1393.79 909.609 1399.66 910.399 1405.54 911.049C1419.68 912.609 1433.92 913.339 1448.14 913.769C1461.89 914.179 1475.66 914.279 1489.41 914.019C1494.71 913.919 1500.01 913.769 1505.3 913.509C1512.6 913.149 1519.84 912.309 1527.09 911.469C1538.23 910.179 1549.25 909.489 1560.36 911.439C1571.47 913.389 1581.24 916.609 1591.81 918.569C1601.73 920.409 1611.62 920.539 1621.58 918.869C1631.54 917.199 1641.12 914.099 1650.62 910.839C1660.12 907.579 1669.78 904.049 1679.62 901.529C1690.03 898.869 1700.68 897.659 1711.42 897.619C1733.73 897.539 1755.73 901.929 1777.72 905.149C1795.93 907.819 1814.36 909.589 1832.73 907.499C1849.8 905.559 1866.64 900.229 1880.51 889.839C1884 887.229 1887.27 884.339 1890.3 881.209C1890.99 880.499 1889.9 879.409 1889.21 880.119C1876.86 892.859 1860.76 900.699 1843.49 904.249C1826.34 907.779 1808.56 907.409 1791.24 905.409C1769.31 902.869 1747.66 898.169 1725.61 896.589C1714.87 895.819 1704.06 895.829 1693.37 897.269C1683.22 898.639 1673.4 901.469 1663.72 904.709C1644.88 911.019 1625.8 919.049 1605.56 918.569C1594.85 918.319 1584.46 915.439 1574.12 912.879C1563.78 910.319 1553.29 908.269 1542.49 908.619C1531.92 908.959 1521.47 910.849 1510.93 911.619C1506.5 911.939 1502.07 912.119 1497.63 912.259C1484.73 912.669 1471.81 912.689 1458.9 912.469C1444.42 912.219 1429.94 911.659 1415.51 910.459C1404 909.499 1392.21 908.389 1381.05 905.269C1379.2 904.749 1377.37 904.159 1375.6 903.429C1374.69 903.049 1374.29 904.539 1375.19 904.909H1375.2Z" fill="#8C6239"/>
<path d="M1371.9 888.769C1383.28 889.309 1394.68 889.189 1406.07 888.929C1420.06 888.609 1434.05 888.009 1448.03 887.339C1463.08 886.619 1478.13 885.799 1493.18 885.029C1507.76 884.279 1522.35 883.559 1536.94 883.029C1549.52 882.579 1562.12 882.239 1574.71 882.379C1591.18 882.559 1607.61 884.189 1624.08 883.069C1633.8 882.409 1643.29 880.609 1652.72 878.209C1662.15 875.809 1671.49 873.049 1681.08 871.349C1690.67 869.649 1700.6 869.479 1710.45 870.739C1720.3 871.999 1730.47 874.259 1740.54 875.619C1759.43 878.169 1778.61 878.539 1797.58 876.649C1816.55 874.759 1835.25 870.669 1853.24 864.449C1857.68 862.919 1862.08 861.249 1866.42 859.469C1867.32 859.099 1866.93 857.609 1866.01 857.989C1848.27 865.259 1829.71 870.469 1810.77 873.429C1791.83 876.389 1772.64 877.059 1753.58 875.499C1743.68 874.689 1733.91 873.119 1724.14 871.379C1714.37 869.639 1704.37 867.969 1694.35 868.339C1675.12 869.049 1657.07 876.519 1638.29 879.839C1619.67 883.129 1600.88 881.579 1582.12 880.999C1570.27 880.629 1558.4 880.839 1546.56 881.189C1532.3 881.599 1518.05 882.249 1503.8 882.959C1488.78 883.709 1473.76 884.519 1458.74 885.279C1444.36 885.999 1429.98 886.679 1415.6 887.139C1403.5 887.519 1391.38 887.779 1379.27 887.499C1376.81 887.439 1374.36 887.359 1371.9 887.239C1370.91 887.189 1370.91 888.729 1371.9 888.779V888.769Z" fill="#8C6239"/>
<path d="M1375.81 876.089C1387.95 873.089 1400.3 870.999 1412.68 869.299C1426.7 867.379 1440.79 865.989 1454.89 864.819C1469.84 863.579 1484.81 862.619 1499.78 861.719C1514.87 860.809 1529.96 859.979 1545.05 859.039C1560.14 858.099 1573.98 857.159 1588.41 855.849C1601.29 854.679 1614.16 853.279 1626.94 851.259C1634.19 850.119 1641.38 848.709 1648.54 847.089C1657.58 845.049 1666.58 842.799 1675.71 841.179C1684.94 839.539 1694.28 838.619 1703.67 839.109C1713.19 839.609 1722.6 841.229 1732.05 842.449C1750.52 844.819 1769.2 845.509 1787.8 844.489C1806.4 843.469 1824.43 840.809 1842.3 836.509C1846.71 835.449 1851.09 834.289 1855.44 833.039C1856.39 832.769 1855.99 831.279 1855.03 831.559C1837.1 836.719 1818.7 840.249 1800.13 842.029C1781.71 843.799 1763.12 843.879 1744.69 842.279C1726.26 840.679 1707.32 836.179 1688.39 837.909C1669.46 839.639 1652.86 845.079 1635.05 848.349C1622.64 850.629 1610.09 852.179 1597.54 853.449C1583.44 854.879 1569.31 855.929 1555.17 856.869C1540.17 857.859 1525.16 858.699 1510.16 859.579C1495.16 860.459 1480.02 861.369 1464.96 862.509C1449.9 863.649 1436.19 864.869 1421.86 866.599C1409.1 868.139 1396.36 870.029 1383.78 872.709C1380.98 873.309 1378.2 873.939 1375.42 874.629C1374.46 874.869 1374.87 876.349 1375.83 876.109L1375.81 876.089Z" fill="#8C6239"/>
<path d="M1384.1 837.369C1396.34 833.899 1408.94 831.759 1421.57 830.319C1435.54 828.729 1449.6 827.979 1463.65 827.629C1478.58 827.259 1493.51 827.359 1508.44 827.609C1523.54 827.859 1538.64 828.279 1553.74 828.609C1568.84 828.939 1583.22 829.159 1597.96 828.999C1611.62 828.849 1625.29 828.389 1638.9 827.149C1645.09 826.589 1651.27 825.859 1657.41 824.889C1665.56 823.609 1673.62 821.869 1681.69 820.179C1699.65 816.419 1717.84 812.819 1736.29 814.039C1745.69 814.659 1754.98 816.269 1764.31 817.439C1773.64 818.609 1782.88 819.089 1792.22 818.829C1810.72 818.309 1829.04 815.179 1847.08 811.239C1851.51 810.269 1855.93 809.249 1860.34 808.209C1861.3 807.979 1860.9 806.499 1859.93 806.729C1841.75 811.029 1823.4 814.919 1804.76 816.559C1795.52 817.369 1786.23 817.619 1776.96 817.099C1767.69 816.579 1758.28 815.049 1748.96 813.829C1739.64 812.609 1730.51 811.929 1721.2 812.459C1711.89 812.989 1703.25 814.359 1694.39 816.049C1678.76 819.019 1663.31 822.839 1647.5 824.719C1634.25 826.289 1620.91 826.989 1607.58 827.309C1593.03 827.659 1578.48 827.539 1563.93 827.279C1549.38 827.019 1533.8 826.589 1518.74 826.279C1503.68 825.969 1488.66 825.749 1473.61 825.929C1459.31 826.099 1444.99 826.609 1430.74 827.869C1417.81 829.009 1404.89 830.759 1392.23 833.699C1389.36 834.369 1386.52 835.099 1383.69 835.899C1382.74 836.169 1383.14 837.649 1384.1 837.379V837.369Z" fill="#8C6239"/>
<path d="M1388.67 822.02C1394.96 814.85 1404.51 810.82 1413.33 807.77C1424.15 804.02 1435.44 801.61 1446.76 799.89C1456.28 798.44 1465.95 797.43 1475.58 797.4C1482.58 797.38 1489.59 798.04 1496.55 798.63C1505.47 799.38 1514.39 800.17 1523.35 800.37C1541.22 800.77 1559.07 799.33 1576.87 797.99C1594.67 796.65 1613.07 795.26 1631.16 793.89C1649.17 792.53 1667.19 791.17 1685.2 789.81C1703.21 788.45 1721.4 787.08 1739.49 785.71C1757.58 784.34 1775.52 782.99 1793.53 781.63C1811.63 780.26 1829.73 778.9 1847.82 777.53C1852.22 777.2 1856.62 776.87 1861.02 776.53C1862 776.46 1862.01 774.92 1861.02 774.99C1842.84 776.36 1824.66 777.73 1806.48 779.1C1788.3 780.47 1770.28 781.83 1752.19 783.2C1734.1 784.57 1715.83 785.94 1697.65 787.31C1679.47 788.68 1661.29 790.05 1643.11 791.42C1625.01 792.79 1606.91 794.15 1588.82 795.52C1570.81 796.88 1552.77 798.53 1534.7 798.82C1525.73 798.97 1516.78 798.67 1507.83 797.99C1498.88 797.31 1489.85 796.37 1480.83 795.96C1471.81 795.55 1462.54 796.28 1453.49 797.4C1442.1 798.8 1430.75 800.9 1419.72 804.1C1410.07 806.91 1400.06 810.51 1392.04 816.75C1390.43 818 1388.92 819.37 1387.58 820.91C1386.93 821.65 1388.01 822.74 1388.67 822V822.02Z" fill="#8C6239"/>
<path d="M1536.69 768.639C1567.35 761.859 1598.81 760.349 1630.1 759.749C1661.26 759.149 1692.51 759.409 1723.55 756.189C1738.59 754.629 1754.51 752.739 1766.68 742.909C1767.45 742.289 1766.36 741.199 1765.59 741.819C1754.65 750.649 1740.42 752.769 1726.88 754.289C1711.48 756.019 1696 756.849 1680.52 757.309C1649.52 758.239 1618.47 757.699 1587.53 759.989C1570.32 761.259 1553.15 763.429 1536.29 767.169C1535.32 767.379 1535.73 768.869 1536.7 768.649L1536.69 768.639Z" fill="#8C6239"/>
</g>
<g style="mix-blend-mode:multiply" opacity="0.39">
<path d="M0 892.49L100.64 817.77C127.03 798.18 148.51 774.9 164.49 748.58C202.09 686.65 204.21 616.82 206.09 555.2C207 525.11 207.8 499.12 212.69 476.15C220.02 441.72 236.76 418.28 262.44 406.49C273.26 401.52 285.1 399.01 297.64 399.01C312.86 399.01 329.26 402.77 346.39 410.19C370.48 420.42 414.24 435.52 431.88 435.52C432.45 435.52 432.71 435.5 432.71 435.5C436.3 435.11 440 434.91 444.01 434.91C454.83 434.91 465.82 436.35 477.46 437.87C490.49 439.57 503.96 441.34 518.6 441.34C543.04 441.34 564.69 436.31 586.72 425.5C611.98 413.11 640.2 406.82 670.57 406.82C729.17 406.82 815.16 439.95 871.11 506.21C897.17 537.07 907.53 563.01 941.79 669.39C962.31 733.11 988.1 815.42 1016.65 912.52L0 892.49Z" fill="#876A4A"/>
</g>
<path d="M332.43 492.299C332.43 492.299 407.76 524.389 440.29 520.819C472.82 517.249 531.91 544.269 608.51 506.699C685.11 469.119 791.81 510.409 839.75 574.589C887.69 638.769 933.06 904.029 953.6 911.159C678.77 905.749 403.94 900.339 129.11 894.919C148.03 880.869 179.09 854.659 204.04 813.569C285.69 679.089 222.48 516.059 283.25 488.179C291.38 484.449 306.4 480.989 332.45 492.299H332.43Z" fill="#876A4A"/>
<mask id="mask3_987_6539" style="mask-type:luminance" maskUnits="userSpaceOnUse" x="129" y="484" width="825" height="428">
<path d="M332.43 492.299C332.43 492.299 407.76 524.389 440.29 520.819C472.82 517.249 531.91 544.269 608.51 506.699C685.11 469.119 791.81 510.409 839.75 574.589C887.69 638.769 933.06 904.029 953.6 911.159C678.77 905.749 403.94 900.339 129.11 894.919C148.03 880.869 179.09 854.659 204.04 813.569C285.69 679.089 222.48 516.059 283.25 488.179C291.38 484.449 306.4 480.989 332.45 492.299H332.43Z" fill="white"/>
</mask>
<g mask="url(#mask3_987_6539)">
<path d="M228.64 596.169C228.64 596.169 351.871 530.709 454.851 583.679C569.471 642.639 618.031 470.079 690.201 536.319C762.37 602.559 831.551 545.219 852.901 553.449C874.25 561.679 721.461 476.469 721.461 476.469C721.461 476.469 689.64 412.109 596.66 438.249C503.69 464.389 501.21 539.919 408.08 512.679C314.96 485.439 248.35 446.849 236.14 459.129C223.93 471.409 228.631 596.169 228.631 596.169H228.64Z" fill="#B2906F"/>
<path d="M883.401 537.369C826.451 529.449 697.851 619.209 608.891 628.419C526.211 636.979 458.631 652.089 375.941 645.019C181.491 628.419 220.071 676.199 159.061 670.829" stroke="#664225" stroke-miterlimit="10"/>
<path d="M923.641 556.109C893.281 546.999 859.421 553.319 830.201 564.919C800.981 576.519 774.731 593.139 746.191 605.979C642.261 652.739 569.111 666.189 452.321 661.659C169.291 650.679 232.511 700.749 159.061 700.749" stroke="#664225" stroke-miterlimit="10"/>
<path d="M924.67 578.7C873.05 568.1 822.96 596.339 775.49 616.999C627.39 681.469 496.28 677.939 330.92 672.789C193.7 668.509 289.46 722.909 152.24 718.629" stroke="#664225" stroke-miterlimit="10"/>
<path d="M938.37 603.219C909.01 600.289 878.62 597.429 850.45 605.209C826.07 611.939 805.46 626.059 783.61 637.659C719.28 671.829 580.56 700.379 388.21 690.779C199.98 681.389 292.36 746.749 144.16 745.349" stroke="#664225" stroke-miterlimit="10"/>
<path d="M935.991 629.179C885.321 623.469 838.671 650.739 793.061 670.839C696.731 713.289 509.651 710.289 401.861 706.029C268.191 700.749 295.461 769.969 137.351 784.159" stroke="#664225" stroke-miterlimit="10"/>
<path d="M959.73 651.249C931.82 650.609 892.36 644.899 798.78 689.599C690.57 741.289 461.57 728.819 415.49 730.669C269.54 736.539 312.07 813.359 137.34 828.139" stroke="#664225" stroke-miterlimit="10"/>
<path d="M942.741 677.099C860.061 685.659 856.561 748.369 548.541 745.379C285.601 742.829 185.861 875.599 124.851 870.229" stroke="#664225" stroke-miterlimit="10"/>
<path d="M953.131 706.289C789.231 739.409 742.611 780.769 625.981 773.829C267.251 752.499 198.301 900.139 124.851 900.139" stroke="#664225" stroke-miterlimit="10"/>
<path d="M959.731 725.689C811.631 790.159 680.481 791.309 515.121 786.149C377.901 781.869 303.731 909.329 166.511 905.049" stroke="#664225" stroke-miterlimit="10"/>
<path d="M967.711 749.839C903.381 784.009 754.191 812.929 561.871 802.959C350.951 792.019 366.651 962.879 158.431 931.779" stroke="#664225" stroke-miterlimit="10"/>
<path d="M975.43 773.739C879.1 816.189 683.3 822.469 575.51 818.209C441.84 812.929 410.04 900.149 283.19 940.749" stroke="#664225" stroke-miterlimit="10"/>
<path d="M982.81 796.949C874.6 848.639 635.22 841.009 589.14 842.859C443.19 848.729 471.41 911.389 340.46 940.719" stroke="#664225" stroke-miterlimit="10"/>
<path d="M1003.16 815.749C894.951 867.439 655.571 859.809 609.491 861.659C463.541 867.529 491.761 930.189 360.811 959.519" stroke="#664225" stroke-miterlimit="10"/>
<path d="M1008.62 833.27C900.41 884.96 765.72 878.36 719.67 876.18C493.43 865.44 487.98 945.799 366.28 977.039" stroke="#664225" stroke-miterlimit="10"/>
<path d="M1039.72 842.709C946.471 881.439 740.461 908.749 647.381 900.159C522.221 888.599 567.901 943.389 455.061 965.369" stroke="#664225" stroke-miterlimit="10"/>
<path d="M1070.26 870.389C962.05 922.079 722.67 914.449 676.59 916.299C612.91 918.859 582.39 932.229 557.34 948.929" stroke="#664225" stroke-miterlimit="10"/>
<path d="M1075.72 887.909C967.51 939.599 832.82 932.999 786.77 930.819C689.44 926.199 632.98 938.439 590.54 956.369" stroke="#664225" stroke-miterlimit="10"/>
<path d="M1106.82 897.339C1013.57 936.069 807.56 963.379 714.48 954.789" stroke="#664225" stroke-miterlimit="10"/>
<path d="M882.73 487.439C853.37 484.509 822.98 481.649 794.81 489.429C770.43 496.159 748.93 509.129 727.97 521.879C665.67 559.779 536.251 605.399 332.571 574.999C146.801 547.269 236.721 630.969 88.5205 629.569" stroke="#664225" stroke-miterlimit="10"/>
<path d="M880.35 513.399C829.68 507.689 780.77 531.539 737.42 555.059C580.83 640.029 440.31 608.859 328.53 604.989C194.82 600.359 239.82 654.189 81.71 668.379" stroke="#664225" stroke-miterlimit="10"/>
<path d="M77.8506 581.359C192.711 582.759 127.391 533.899 273.641 536.879C499.311 541.469 601.001 540.189 661.101 492.479C705.131 457.519 730.771 451.779 782.421 447.889" stroke="#664225" stroke-miterlimit="10"/>
<path d="M791.96 460.759C752.69 455.049 706.66 495.189 671.31 515.299C596.65 557.749 353.09 561.269 269.55 557.009C165.95 551.729 195.11 605.989 72.5703 620.179" stroke="#664225" stroke-miterlimit="10"/>
<path d="M681.991 460.759C569.941 516.249 538.311 515.299 362.421 512.759C261.481 511.309 203.161 520.939 159.221 540.189" stroke="#664225" stroke-miterlimit="10"/>
</g>
</g>
</svg>
