<svg width="1920" height="1080" viewBox="0 0 1920 1080" fill="none" xmlns="http://www.w3.org/2000/svg">
<mask id="mask0_987_6603" style="mask-type:luminance" maskUnits="userSpaceOnUse" x="0" y="0" width="1920" height="1080">
<path d="M1920 0H0V1080H1920V0Z" fill="white"/>
</mask>
<g mask="url(#mask0_987_6603)">
<path opacity="0.2" d="M1890.52 940.3C1912.03 891.19 1907.89 586.77 1787.94 441.57C1779.96 431.91 1770.74 422.79 1760.09 414.43C1729.25 396.92 1708.03 372.96 1704.83 341.47C1703.15 325.02 1669.12 325.11 1669.12 325.11C1603.66 332.13 1590.57 330.54 1590.57 330.54C1567.96 268.76 1501.22 299.88 1452.43 298.48C1403.63 297.08 1355.12 294.5 1344.41 316.97C1333.7 339.44 1309.68 347.59 1309.68 347.59C1309.68 347.59 1301.21 361.09 1300.02 330.2C1298.4 288.12 1237.04 319.89 1237.04 319.89C1199.36 367.49 1214.14 337.95 1170.22 420.2C1058.12 630.12 1072.3 843.24 1087.99 940.31H1890.52V940.3Z" fill="#1E1813"/>
<mask id="mask1_987_6603" style="mask-type:luminance" maskUnits="userSpaceOnUse" x="1110" y="286" width="803" height="655">
<path d="M1903.37 940.3C1923.46 897.61 1919.59 633 1807.57 506.79C1800.12 498.39 1791.51 490.47 1781.56 483.2C1752.76 467.98 1732 447.231 1729.95 419.781C1724.39 345.331 1696.6 344.11 1696.6 344.11C1635.46 350.21 1638.8 334.35 1638.8 334.35C1617.68 280.65 1576.55 287.971 1530.98 286.751C1485.41 285.531 1429.83 292.85 1419.82 312.38C1409.82 331.91 1399.81 330.69 1388.7 329.47C1377.58 328.25 1368.69 330.691 1368.69 347.781C1368.69 364.871 1360.91 363.65 1360.91 363.65C1360.91 363.65 1322.01 374.631 1320.89 347.781C1319.38 311.201 1283.63 322.15 1283.63 322.15C1248.44 363.53 1210.1 417.76 1178.42 485.99C1090.26 675.87 1108.59 855.93 1123.24 940.31H1903.37V940.3Z" fill="white"/>
</mask>
<g mask="url(#mask1_987_6603)">
<path d="M1903.37 940.3C1923.46 897.61 1919.59 633 1807.57 506.79C1800.12 498.39 1791.51 490.47 1781.56 483.2C1752.76 467.98 1732 447.231 1729.95 419.781C1724.39 345.331 1696.6 344.11 1696.6 344.11C1635.46 350.21 1638.8 334.35 1638.8 334.35C1617.68 280.65 1576.55 287.971 1530.98 286.751C1485.41 285.531 1429.83 292.85 1419.82 312.38C1409.82 331.91 1399.81 330.69 1388.7 329.47C1377.58 328.25 1368.69 330.691 1368.69 347.781C1368.69 364.871 1360.91 363.65 1360.91 363.65C1360.91 363.65 1322.01 374.631 1320.89 347.781C1319.38 311.201 1283.63 322.15 1283.63 322.15C1248.44 363.53 1210.1 417.76 1178.42 485.99C1090.26 675.87 1108.59 855.93 1123.24 940.31H1903.37V940.3Z" fill="#4C2A1E"/>
<path d="M1169.58 505.83C1202.19 457.93 1262.58 392.95 1326.5 395.79C1362.09 397.37 1343.7 403.49 1368.68 347.78C1407.31 345.82 1420.38 361.13 1431.48 332.76C1442.58 304.39 1490.8 311.28 1536.59 324.97C1582.38 338.65 1583.5 365.63 1643.12 364.01C1723.92 361.82 1738.29 350.83 1738.29 350.83L1566.51 259.75L1428.44 276.37L1377.1 310.38L1334.08 336.97L1278.47 293.91L1217.99 350.83L1169.56 505.83H1169.58Z" fill="#634036"/>
<path d="M1156.76 474.23C1179.03 482.03 1202.08 487.58 1225.42 491C1237.22 492.73 1249.09 493.919 1261 494.559C1273.21 495.219 1285.44 495.15 1297.66 495.15C1309.96 495.15 1322.3 495.3 1334.53 496.7C1346.76 498.1 1358.14 500.68 1369.79 503.42C1381.44 506.16 1392.83 508.959 1404.54 510.809C1416.25 512.659 1428.15 513.349 1440.04 513.069C1464.27 512.499 1488.22 508.37 1512.21 505.24C1524.3 503.66 1536.43 502.319 1548.62 501.789C1560.83 501.259 1573.06 501.53 1585.24 502.37C1609.53 504.03 1633.6 507.929 1657.58 512.059C1680.73 516.049 1703.87 520.34 1727.23 522.96C1748.81 525.38 1770.63 526.479 1792.32 525.09C1814.01 523.7 1833.69 520.169 1853.01 512.569C1857.51 510.799 1861.92 508.81 1866.21 506.61C1867.11 506.15 1866.32 504.78 1865.41 505.25C1847.07 514.67 1826.8 519.79 1806.4 522.23C1784.98 524.79 1763.28 524.539 1741.8 522.799C1718.92 520.949 1696.28 517.18 1673.68 513.27C1649.86 509.15 1626.05 504.85 1602 502.28C1577.95 499.71 1553.63 499.2 1529.42 501.65C1505.21 504.1 1481.52 508.529 1457.41 510.549C1445.39 511.559 1433.29 511.95 1421.24 511.15C1409.19 510.35 1397.71 508.22 1386.13 505.63C1374.58 503.04 1363.11 500.069 1351.49 497.809C1339.87 495.549 1327.97 494.26 1316.04 493.85C1304.11 493.44 1291.19 493.699 1278.77 493.569C1266.35 493.439 1254.9 492.82 1243.01 491.62C1219.44 489.25 1196.07 484.72 1173.36 477.97C1167.93 476.35 1162.53 474.61 1157.18 472.73C1156.22 472.39 1155.81 473.92 1156.76 474.25V474.23Z" fill="#693F2D"/>
<path d="M1094.12 501.02C1120.79 508.85 1148.12 514.34 1175.69 517.75C1189.79 519.5 1203.97 520.69 1218.16 521.34C1232.35 521.99 1247.16 521.94 1261.67 521.94C1276.18 521.94 1290.99 522.07 1305.58 523.44C1319.81 524.77 1333.88 527.38 1347.89 530.14C1361.9 532.9 1375.45 535.69 1389.39 537.56C1403.44 539.45 1417.6 540.13 1431.77 539.86C1460.52 539.31 1489.03 535.21 1517.56 532.08C1531.94 530.5 1546.35 529.15 1560.81 528.6C1575.24 528.05 1589.69 528.29 1604.11 529.09C1632.94 530.69 1661.59 534.53 1690.16 538.65C1717.85 542.64 1745.52 546.97 1773.38 549.63C1799.28 552.11 1825.37 553.25 1851.37 551.91C1876.11 550.63 1900.98 547.13 1924.56 539.34C1929.87 537.59 1935.1 535.6 1940.23 533.39C1941.16 532.99 1940.36 531.63 1939.43 532.03C1917 541.7 1892.75 546.66 1868.53 549.05C1842.73 551.6 1816.69 551.3 1790.86 549.5C1763.53 547.6 1736.4 543.79 1709.31 539.85C1680.93 535.72 1652.54 531.46 1623.95 528.95C1609.6 527.69 1595.21 526.88 1580.81 526.75C1566.41 526.62 1551.97 527.27 1537.59 528.51C1509.07 530.97 1480.74 535.38 1452.18 537.36C1438.04 538.34 1423.84 538.71 1409.68 537.93C1395.52 537.15 1381.34 534.98 1367.33 532.34C1353.32 529.7 1339.82 526.77 1325.96 524.52C1311.83 522.23 1297.64 520.98 1283.33 520.6C1268.72 520.2 1254.1 520.47 1239.48 520.34C1224.86 520.21 1210.86 519.57 1196.59 518.36C1168.61 515.98 1140.8 511.48 1113.55 504.67C1107.17 503.08 1100.83 501.35 1094.52 499.5C1093.54 499.21 1093.13 500.74 1094.1 501.02H1094.12Z" fill="#693F2D"/>
<path d="M1155.76 457.21C1178.27 459.53 1200.79 461.85 1223.3 464.18C1245.81 466.51 1268.33 468.82 1290.84 471.15C1313.35 473.47 1335.87 475.79 1358.38 478.12C1380.89 480.45 1403.21 483 1425.67 484.85C1436.77 485.76 1447.9 486.43 1459.04 486.58C1470.2 486.73 1481.34 486.24 1492.47 485.38C1514.56 483.67 1536.63 480.81 1558.83 481.3C1580.9 481.79 1602.43 486.55 1624.06 490.43C1645.69 494.31 1666.71 496.87 1688.21 498.34C1709.91 499.82 1731.7 500.13 1753.43 499.27C1775.01 498.42 1796.54 496.41 1817.9 493.23C1823.07 492.46 1828.23 491.62 1833.38 490.71C1834.38 490.53 1833.96 489.01 1832.96 489.19C1811.56 492.97 1789.96 495.54 1768.28 496.93C1746.65 498.32 1724.95 498.54 1703.29 497.61C1681.63 496.68 1660.01 494.58 1638.58 491.27C1617.08 487.95 1595.84 482.78 1574.16 480.65C1552.48 478.52 1530.06 480.47 1508.09 482.46C1497.03 483.46 1485.96 484.44 1474.86 484.84C1463.76 485.24 1452.58 485 1441.47 484.38C1419.01 483.13 1396.64 480.5 1374.27 478.19C1351.84 475.88 1329.41 473.56 1306.98 471.25C1284.55 468.94 1262.12 466.62 1239.69 464.31C1217.18 461.99 1194.66 459.67 1172.15 457.34L1155.76 455.65C1154.75 455.55 1154.76 457.13 1155.76 457.23V457.21Z" fill="#693F2D"/>
<path d="M1194.31 441.13C1214.04 439.39 1233.87 439.08 1253.66 439.71C1273.5 440.34 1293.3 441.899 1313.05 443.819C1332.88 445.749 1352.67 448.05 1372.48 450.18C1392.27 452.31 1412.09 454.27 1431.96 455.52C1451.78 456.76 1471.65 457.289 1491.5 456.549C1511.35 455.809 1532.12 453.449 1552.48 452.549C1562.64 452.099 1572.83 452.02 1582.98 452.69C1593.18 453.37 1603.3 454.91 1613.36 456.67C1623.28 458.4 1633.17 460.269 1643.12 461.789C1652.92 463.289 1662.76 464.55 1672.63 465.58C1692.6 467.65 1712.66 468.75 1732.74 468.87C1752.82 468.99 1772.9 468.139 1792.9 466.299C1797.73 465.859 1802.55 465.349 1807.37 464.799C1808.37 464.679 1808.38 463.1 1807.37 463.22C1787.44 465.52 1767.39 466.86 1747.33 467.21C1727.27 467.56 1707.16 466.94 1687.14 465.34C1667.07 463.74 1647.1 461.089 1627.28 457.559C1617.42 455.799 1607.57 453.94 1597.64 452.61C1587.71 451.28 1577.43 450.62 1567.26 450.62C1546.84 450.62 1526.52 452.87 1506.16 454.21C1485.8 455.55 1466.3 455.58 1446.37 454.71C1426.44 453.84 1406.67 452.13 1386.88 450.11C1367.09 448.09 1347.26 445.77 1327.44 443.7C1307.62 441.63 1287.89 439.79 1268.04 438.74C1248.19 437.69 1228.45 437.44 1208.68 438.52C1203.89 438.78 1199.1 439.119 1194.32 439.549C1193.32 439.639 1193.31 441.22 1194.32 441.13H1194.31Z" fill="#693F2D"/>
<path d="M1205.41 412.84C1225.41 413.22 1245.38 414.31 1265.32 415.83C1285.27 417.35 1305.18 419.28 1325.08 421.34C1344.98 423.39 1364.87 425.57 1384.77 427.56C1404.56 429.54 1424.38 431.35 1444.23 432.69C1464.13 434.03 1484.07 434.89 1504.01 434.97C1524.12 435.05 1544.17 434.07 1564.23 432.79C1584.38 431.51 1604.59 430.26 1624.78 431.27C1644.84 432.28 1664.4 436.46 1684.17 439.71C1703.81 442.94 1723.65 444.42 1743.55 444.6C1763.61 444.79 1783.67 443.76 1803.67 442.3C1808.54 441.94 1813.42 441.56 1818.29 441.16C1819.3 441.08 1819.3 439.5 1818.29 439.58C1798.3 441.21 1778.27 442.59 1758.21 442.95C1738.23 443.31 1718.2 442.65 1698.35 440.19C1678.54 437.73 1659.07 433.03 1639.22 430.83C1619.23 428.62 1599.07 429.18 1579.02 430.3C1558.97 431.42 1538.78 432.98 1518.61 433.29C1498.44 433.6 1478.71 433.07 1458.8 431.98C1438.86 430.89 1418.96 429.25 1399.09 427.36C1379.22 425.47 1359.46 423.34 1339.65 421.26C1319.75 419.16 1299.85 417.12 1279.91 415.41C1259.99 413.71 1240.03 412.35 1220.04 411.64C1215.16 411.47 1210.29 411.33 1205.41 411.24C1204.39 411.22 1204.39 412.8 1205.41 412.82V412.84Z" fill="#693F2D"/>
<path d="M1200.7 386.93C1220.84 385.2 1241.09 384.87 1261.27 385.94C1281.44 387.02 1301.36 389.93 1321.35 392.66C1341.34 395.39 1361.46 397.09 1381.64 397.99C1401.92 398.9 1422.22 399.31 1442.51 399.87C1462.8 400.43 1483.28 400.99 1503.67 401.55C1524.06 402.11 1544.44 402.67 1564.83 403.23C1585.22 403.79 1605.6 404.35 1625.99 404.91C1646.46 405.47 1666.93 406.04 1687.4 406.6C1707.79 407.16 1728.17 407.72 1748.56 408.28C1768.95 408.84 1789.33 409.4 1809.72 409.96C1814.71 410.1 1819.71 410.23 1824.7 410.37C1825.72 410.4 1825.72 408.82 1824.7 408.79C1804.23 408.23 1783.76 407.66 1763.29 407.1C1742.82 406.54 1722.68 405.98 1702.38 405.42C1681.91 404.86 1661.44 404.29 1640.97 403.73C1620.58 403.17 1600.2 402.61 1579.81 402.05C1559.42 401.49 1539.04 400.93 1518.65 400.37C1498.26 399.81 1477.88 399.25 1457.49 398.69C1437.16 398.13 1416.82 397.65 1396.5 396.97C1376.18 396.29 1355.93 395.26 1335.77 392.91C1315.74 390.57 1295.86 387.1 1275.77 385.35C1255.72 383.6 1235.55 383.26 1215.45 384.3C1210.53 384.56 1205.62 384.9 1200.71 385.32C1199.71 385.41 1199.7 386.99 1200.71 386.9L1200.7 386.93Z" fill="#693F2D"/>
<path d="M1132.29 633.04C1161.98 641.84 1193.26 642.38 1223.99 642.23C1240.02 642.15 1256.03 642.01 1272.06 642.24C1288.5 642.48 1304.94 642.08 1321.37 642.61C1337.72 643.14 1353.98 645 1370.17 647.29C1386.08 649.54 1401.92 652.32 1417.67 655.5C1431.51 658.29 1445.23 661.44 1458.87 665.09C1470.49 668.2 1482.1 671.45 1493.93 673.67C1505.43 675.83 1517.15 676.94 1528.84 676.08C1541.95 675.12 1554.71 671.71 1566.78 666.54C1570.33 665.02 1573.82 663.35 1577.24 661.57C1580.17 660.04 1583.01 658.35 1585.98 656.91C1590.83 654.57 1595.94 652.79 1601.16 651.5C1612.04 648.82 1623.35 648.3 1634.5 648.93C1659.41 650.34 1683.8 657.08 1707.68 663.91C1731.56 670.74 1754.59 678.24 1778.75 682.06C1807.4 686.58 1837 685.94 1865.69 682.18C1894.48 678.41 1922.86 671.32 1950.04 661.12C1956.15 658.83 1962.2 656.37 1968.18 653.76C1969.11 653.35 1968.31 651.99 1967.38 652.4C1941.13 663.87 1913.48 672.23 1885.32 677.48C1856.06 682.93 1826.04 685 1796.34 682.53C1784.01 681.51 1771.89 679.5 1759.85 676.67C1747.81 673.84 1736.12 670.49 1724.34 667.09C1700.07 660.07 1675.71 652.59 1650.64 649C1628.9 645.9 1605.69 645.75 1585.46 655.4C1582.53 656.8 1579.73 658.46 1576.86 659.97C1573.43 661.77 1569.94 663.45 1566.38 664.99C1559.93 667.78 1553.25 670.07 1546.41 671.72C1534.62 674.57 1522.47 675.36 1510.4 674.36C1486.08 672.35 1462.82 663.93 1439.18 658.47C1408.27 651.34 1376.86 645.95 1345.32 642.64C1329 640.92 1312.62 640.72 1296.23 640.73C1279.84 640.74 1264.02 640.4 1247.91 640.47C1216.63 640.6 1184.97 641.87 1154.01 636.47C1146.82 635.21 1139.7 633.58 1132.7 631.51C1131.72 631.22 1131.31 632.74 1132.28 633.03L1132.29 633.04Z" fill="#693F2D"/>
<path d="M1131.07 596.38C1158 598.73 1184.99 600.27 1211.95 602.14C1238.91 604.01 1264.7 606.14 1290.88 609.9C1316.84 613.63 1342.61 618.96 1367.64 626.88C1374 628.89 1380.31 631.06 1386.56 633.41C1392.81 635.76 1398.8 638.55 1405.07 640.71C1415.47 644.29 1426.51 645.27 1437.4 643.84C1447.36 642.53 1456.93 639.42 1466.34 635.99C1475.11 632.8 1483.83 629.25 1492.96 627.18C1497.62 626.12 1502.23 625.71 1506.99 625.57C1514.21 625.35 1521.43 624.96 1528.64 624.48C1543.05 623.52 1557.44 622.23 1571.86 621.35C1586.24 620.48 1600.67 620.03 1615.07 620.76C1629.47 621.49 1643.75 623.43 1657.97 625.64C1671.85 627.79 1685.7 630.11 1699.62 631.94C1713.51 633.76 1727.45 635.22 1741.41 636.32C1769.45 638.53 1797.61 639.31 1825.73 638.69C1853.76 638.07 1881.76 636.06 1909.59 632.6C1916.26 631.77 1922.92 630.85 1929.57 629.86C1930.57 629.71 1930.15 628.19 1929.15 628.34C1901.34 632.51 1873.3 635.19 1845.21 636.46C1817.01 637.74 1788.75 637.59 1760.57 636.03C1732.6 634.48 1704.76 631.44 1677.09 627.08C1663.1 624.88 1649.14 622.51 1635.07 620.89C1620.75 619.24 1606.4 618.59 1591.99 618.91C1563.27 619.54 1534.72 623.23 1506.01 624.02C1496.77 624.28 1488.06 626.55 1479.36 629.58C1470.11 632.8 1461.03 636.54 1451.6 639.23C1441.55 642.09 1431.12 643.65 1420.67 642.58C1414.8 641.98 1409.03 640.56 1403.51 638.48C1397.25 636.12 1391.13 633.41 1384.85 631.1C1360.25 622.04 1334.73 615.68 1308.92 611.18C1283.12 606.69 1257.03 604.01 1230.93 601.96C1204.32 599.87 1177.67 598.42 1151.05 596.42C1144.39 595.92 1137.73 595.39 1131.07 594.8C1130.06 594.71 1130.06 596.29 1131.07 596.38Z" fill="#693F2D"/>
<path d="M1116.74 571.21C1132.72 570.12 1148.76 569.27 1164.78 569.38C1174.17 569.44 1183.61 569.81 1192.91 571.2C1198.73 572.07 1204.43 573.44 1210.05 575.16C1215.14 576.72 1220.18 578.44 1225.35 579.76C1232.63 581.61 1240.06 582.74 1247.53 583.46C1260.16 584.69 1272.89 584.9 1285.57 584.81C1294.12 584.75 1302.65 584.45 1311.19 584.2C1313.83 584.12 1316.48 584.18 1319.11 584.28C1326.74 584.56 1334.35 585.16 1341.95 585.79C1352.09 586.62 1362.23 587.55 1372.37 588.46C1384.47 589.55 1396.57 590.61 1408.67 591.59C1421.98 592.66 1435.31 593.63 1448.64 594.42C1462.64 595.25 1476.64 595.88 1490.66 596.23C1504.65 596.58 1518.65 596.64 1532.64 596.28C1545.94 595.93 1559.24 595.2 1572.48 593.85C1584.57 592.61 1596.64 590.87 1608.51 588.21C1613.89 587 1619.24 585.61 1624.5 583.95C1628.08 582.82 1631.57 581.68 1635.32 581.27C1639.62 580.8 1643.98 581 1648.26 581.56C1657.45 582.76 1666.34 585.56 1675.31 587.76C1684.46 590 1693.76 591.05 1703.1 592.13C1723.22 594.46 1743.41 596.19 1763.64 597.32C1783.96 598.46 1804.31 599.01 1824.66 598.97C1844.93 598.93 1865.19 598.3 1885.42 597.08C1895.22 596.49 1905.01 595.76 1914.79 594.89C1915.79 594.8 1915.8 593.22 1914.79 593.31C1894.56 595.11 1874.28 596.31 1853.97 596.92C1833.62 597.53 1813.25 597.55 1792.89 596.97C1772.66 596.4 1752.46 595.25 1732.3 593.5C1722.23 592.63 1712.17 591.61 1702.13 590.43C1697.14 589.85 1692.13 589.29 1687.16 588.56C1682.66 587.9 1678.21 586.87 1673.8 585.75C1665.06 583.54 1656.38 580.94 1647.4 579.87C1643.11 579.36 1638.77 579.24 1634.48 579.79C1630.87 580.25 1627.51 581.34 1624.07 582.43C1613.16 585.87 1601.92 588.21 1590.63 589.96C1577.9 591.93 1565.06 593.13 1552.2 593.89C1538.46 594.7 1524.69 594.99 1510.93 594.95C1497.17 594.91 1482.87 594.52 1468.86 593.9C1455.09 593.29 1441.33 592.45 1427.58 591.47C1414.83 590.56 1402.08 589.51 1389.34 588.4C1378.15 587.43 1366.96 586.4 1355.78 585.41C1346.86 584.62 1337.93 583.84 1328.99 583.24C1323 582.84 1316.98 582.45 1310.97 582.63C1295.11 583.13 1279.26 583.55 1263.4 582.93C1253.83 582.56 1244.23 581.85 1234.78 580.18C1228.85 579.13 1223.05 577.61 1217.31 575.81C1212.27 574.23 1207.25 572.56 1202.1 571.35C1194.92 569.67 1187.57 568.79 1180.21 568.31C1167.83 567.5 1155.4 567.72 1143.01 568.19C1134.24 568.53 1125.47 569.03 1116.71 569.63C1115.7 569.7 1115.69 571.28 1116.71 571.21H1116.74Z" fill="#693F2D"/>
<path d="M1131.2 542.921C1147.94 541.391 1164.7 540.181 1181.5 539.521C1194.62 539.011 1207.76 538.831 1220.89 539.221C1231.19 539.521 1241.48 540.18 1251.72 541.34C1259.97 542.28 1268.19 543.571 1276.33 545.231C1283.27 546.641 1290.15 548.331 1296.99 550.171C1303.43 551.901 1309.83 553.76 1316.26 555.54C1322.69 557.32 1329.63 559.14 1336.38 560.65C1344.1 562.37 1351.88 563.76 1359.71 564.83C1369.28 566.13 1378.9 566.95 1388.54 567.41C1400.77 568 1413.03 568.031 1425.27 567.731C1434.62 567.491 1443.88 566.71 1453.16 565.65C1464.68 564.33 1476.18 562.8 1487.69 561.37C1501.65 559.63 1515.63 557.99 1529.64 556.64C1545.28 555.14 1560.95 553.99 1576.65 553.39C1593.26 552.75 1609.9 552.711 1626.5 553.521C1643.48 554.341 1660.43 556.051 1677.18 558.981C1685.79 560.491 1694.27 562.611 1702.87 564.171C1712.09 565.851 1721.41 566.95 1730.74 567.87C1740.07 568.79 1749.47 569.511 1758.83 570.421C1768.3 571.341 1777.74 572.38 1787.24 573.05C1806.15 574.38 1825.11 574.831 1844.06 574.701C1863.17 574.571 1882.26 573.86 1901.34 572.87C1910.58 572.39 1919.81 571.841 1929.04 571.261C1930.05 571.201 1930.06 569.621 1929.04 569.681C1909.99 570.871 1890.93 571.93 1871.85 572.55C1852.77 573.17 1833.69 573.36 1814.61 572.81C1805.15 572.54 1795.7 572.08 1786.27 571.4C1776.84 570.72 1767.34 569.661 1757.87 568.751C1739.01 566.941 1720.03 565.85 1701.39 562.3C1692.87 560.68 1684.45 558.621 1675.89 557.171C1667.33 555.721 1659.36 554.66 1651.04 553.8C1634.29 552.06 1617.45 551.34 1600.61 551.35C1584.37 551.35 1568.14 552.041 1551.94 553.201C1537.01 554.271 1522.12 555.741 1507.26 557.451C1494.42 558.921 1481.61 560.581 1468.78 562.191C1458.79 563.451 1448.78 564.731 1438.74 565.531C1427.55 566.421 1416.27 566.45 1405.05 566.33C1394.3 566.21 1383.54 565.751 1372.83 564.761C1364.22 563.971 1355.65 562.821 1347.15 561.261C1339.98 559.941 1332.87 558.331 1325.82 556.501C1319.33 554.821 1312.89 552.981 1306.45 551.171C1299.89 549.321 1293.31 547.521 1286.68 545.931C1279.24 544.151 1271.73 542.641 1264.17 541.461C1255.04 540.031 1245.84 539.051 1236.62 538.421C1225.04 537.631 1213.42 537.381 1201.81 537.471C1186.89 537.591 1171.98 538.271 1157.1 539.281C1148.46 539.871 1139.82 540.57 1131.2 541.36C1130.2 541.45 1130.19 543.031 1131.2 542.941V542.921Z" fill="#693F2D"/>
<path d="M1930.4 898.299C1902.84 902.789 1874.94 905.129 1847.03 905.649C1832.76 905.909 1818.48 905.689 1804.22 904.999C1789.96 904.309 1775.26 902.959 1760.8 901.749C1746.34 900.539 1732.21 899.51 1717.87 899.52C1703.68 899.54 1689.52 900.619 1675.38 901.789C1661.45 902.949 1647.51 904.17 1633.53 904.52C1619.55 904.869 1605.36 904.149 1591.35 902.659C1563.49 899.699 1536.05 893.899 1508.51 888.929C1494.8 886.449 1481.06 884.179 1467.23 882.519C1452.83 880.799 1438.35 879.759 1423.86 879.219C1394.97 878.139 1366.05 878.999 1337.18 880.109C1309.39 881.179 1281.59 882.519 1253.76 882.419C1228.23 882.329 1202.66 881.119 1177.33 877.849C1153.3 874.749 1129.31 869.799 1106.59 861.259C1101.42 859.319 1096.34 857.179 1091.35 854.819C1090.44 854.389 1089.63 855.749 1090.55 856.179C1111.88 866.259 1134.89 872.419 1158.06 876.499C1183.14 880.919 1208.61 882.939 1234.05 883.669C1261.09 884.449 1288.13 883.589 1315.15 882.539C1344.1 881.419 1373.07 880.099 1402.05 880.319C1431.09 880.529 1459.99 882.549 1488.68 887.119C1516.36 891.539 1543.77 897.589 1571.5 901.689C1585.18 903.709 1598.94 905.259 1612.75 905.879C1626.56 906.499 1641.1 905.989 1655.25 904.969C1669.32 903.959 1683.37 902.539 1697.45 901.729C1711.53 900.919 1726.16 900.959 1740.52 901.809C1755.04 902.669 1769.52 904.129 1784.02 905.259C1798.4 906.379 1812.81 907.079 1827.24 907.259C1855.29 907.619 1883.39 906.149 1911.23 902.629C1917.77 901.799 1924.29 900.859 1930.8 899.799C1931.8 899.639 1931.38 898.12 1930.38 898.28L1930.4 898.299Z" fill="#693F2D"/>
<path d="M2003.57 912.21C1973.27 917.46 1942.64 920.72 1911.94 922.3C1896.1 923.12 1880.24 923.49 1864.38 923.42C1848.52 923.35 1832.45 922.71 1816.48 922.16C1800.51 921.61 1784.66 921.17 1768.76 921.69C1753.16 922.2 1737.62 923.7 1722.1 925.33C1706.58 926.96 1691.23 928.67 1675.73 929.61C1660.03 930.55 1644.3 930.53 1628.59 929.75C1597.13 928.19 1565.91 923.89 1534.64 920.32C1518.93 918.52 1503.19 916.9 1487.41 915.89C1471.63 914.88 1455.46 914.47 1439.48 914.52C1407.71 914.62 1375.97 916.5 1344.28 918.64C1313.5 920.71 1282.72 923.08 1251.88 924.14C1223 925.13 1194.05 925.07 1165.21 923.04C1137.94 921.13 1110.62 917.52 1084.2 910.34C1078.31 908.74 1072.47 906.95 1066.7 904.95C1065.74 904.62 1065.32 906.14 1066.28 906.47C1091.42 915.2 1117.85 919.92 1144.25 922.76C1172.86 925.84 1201.7 926.63 1230.46 926.23C1260.7 925.81 1290.87 923.86 1321.03 921.8C1352.78 919.63 1384.53 917.34 1416.34 916.46C1448.22 915.58 1480.04 916.38 1511.79 919.45C1543.26 922.5 1574.56 927.09 1606.06 929.78C1621.78 931.12 1637.55 931.98 1653.33 931.92C1669 931.86 1684.62 930.72 1700.21 929.19C1715.63 927.67 1731.01 925.84 1746.45 924.59C1762.21 923.31 1777.98 922.88 1793.78 923.13C1809.75 923.38 1825.71 924.14 1841.67 924.61C1857.63 925.08 1873.86 925.15 1889.95 924.74C1920.92 923.95 1951.85 921.49 1982.52 917.13C1989.69 916.11 1996.84 914.98 2003.98 913.74C2004.98 913.57 2004.56 912.05 2003.56 912.22L2003.57 912.21Z" fill="#693F2D"/>
<path d="M1091.04 809.979C1119.22 820.049 1148.41 827.239 1177.99 831.679C1193.03 833.939 1208.17 835.489 1223.36 836.329C1238.55 837.169 1254.49 837.099 1270.06 837.099C1285.76 837.099 1301.51 837.299 1317.13 839.139C1332.32 840.929 1347.25 844.349 1362.1 847.919C1376.68 851.419 1391.24 855.059 1406.05 857.439C1421.13 859.869 1436.37 860.719 1451.64 860.319C1482.25 859.509 1512.49 854.189 1542.78 850.159C1558.15 848.109 1573.59 846.379 1589.09 845.699C1604.5 845.029 1619.95 845.379 1635.34 846.449C1666.37 848.619 1697.1 853.699 1727.7 859.079C1757.08 864.249 1786.43 869.799 1816.08 873.169C1843.35 876.279 1870.92 877.689 1898.34 875.909C1925.76 874.129 1950.98 869.539 1975.5 859.699C1981.22 857.409 1986.82 854.829 1992.27 851.969C1993.17 851.499 1992.37 850.129 1991.47 850.609C1968.19 862.829 1942.36 869.489 1916.37 872.659C1889.21 875.969 1861.69 875.649 1834.46 873.399C1805.44 871.009 1776.73 866.149 1748.07 861.079C1717.77 855.729 1687.48 850.139 1656.87 846.799C1641.57 845.129 1626.19 844.019 1610.8 843.799C1595.41 843.579 1580.01 844.359 1564.68 845.939C1534.02 849.079 1503.68 854.869 1472.95 857.499C1457.82 858.789 1442.59 859.299 1427.42 858.299C1412.25 857.299 1397.33 854.519 1382.53 851.149C1367.92 847.819 1353.42 843.989 1338.73 841.049C1323.67 838.039 1308.51 836.359 1293.16 835.839C1277.41 835.299 1261.65 835.659 1245.89 835.479C1230.63 835.309 1215.38 834.489 1200.2 832.919C1170.31 829.829 1140.69 823.959 1111.94 815.229C1105.05 813.139 1098.22 810.879 1091.44 808.459C1090.48 808.119 1090.07 809.639 1091.02 809.979H1091.04Z" fill="#693F2D"/>
<path d="M1083.54 777.53C1112.53 780.55 1141.52 783.56 1170.51 786.58C1199.5 789.6 1228.49 792.61 1257.48 795.63C1286.47 798.65 1315.13 801.63 1343.96 804.63C1372.8 807.63 1401.63 810.96 1430.53 813.36C1444.82 814.55 1459.15 815.41 1473.49 815.6C1487.85 815.79 1502.18 815.14 1516.49 814.02C1544.83 811.8 1573.16 808.1 1601.64 808.75C1630.12 809.4 1657.78 815.6 1685.65 820.63C1712.81 825.54 1740.23 828.93 1767.76 830.83C1795.29 832.73 1823.69 833.16 1851.65 832.05C1879.43 830.94 1907.15 828.33 1934.64 824.19C1941.22 823.2 1947.79 822.12 1954.34 820.95C1955.34 820.77 1954.92 819.25 1953.92 819.43C1926.43 824.33 1898.67 827.67 1870.8 829.47C1843.04 831.27 1815.18 831.56 1787.39 830.36C1759.45 829.15 1731.57 826.42 1703.93 822.12C1676.44 817.84 1649.3 811.18 1621.59 808.4C1593.21 805.56 1564.81 808.12 1536.52 810.7C1522.29 812 1508.04 813.28 1493.76 813.79C1479.48 814.3 1465.08 814 1450.77 813.2C1422.05 811.59 1393.44 808.2 1364.84 805.22C1336.24 802.24 1306.86 799.19 1277.87 796.17C1249.04 793.17 1220.22 790.17 1191.39 787.17C1162.56 784.17 1133.41 781.14 1104.42 778.12C1097.46 777.4 1090.5 776.67 1083.55 775.95C1082.54 775.84 1082.55 777.42 1083.55 777.53H1083.54Z" fill="#693F2D"/>
<path d="M1067.91 755.28C1096.11 753 1124.43 752.62 1152.71 753.46C1180.88 754.3 1209.01 756.32 1237.07 758.83C1265.23 761.34 1293.35 764.33 1321.49 767.09C1349.77 769.87 1378.09 772.41 1406.47 774.01C1434.85 775.61 1462.86 776.24 1491.05 775.24C1519.84 774.22 1548.51 771.19 1577.3 770.06C1591.75 769.49 1606.23 769.42 1620.66 770.34C1634.97 771.25 1649.18 773.25 1663.34 775.51C1677.33 777.74 1691.28 780.15 1705.31 782.11C1719.3 784.06 1733.33 785.71 1747.4 787.03C1775.66 789.7 1804.03 791.1 1832.41 791.25C1860.8 791.4 1889.2 790.31 1917.49 787.94C1924.42 787.36 1931.35 786.7 1938.27 785.97C1939.27 785.86 1939.28 784.28 1938.27 784.39C1909.9 787.39 1881.39 789.11 1852.86 789.56C1824.47 790.01 1796.05 789.21 1767.73 787.14C1739.41 785.07 1711.23 781.7 1683.21 777.15C1669.2 774.88 1655.21 772.45 1641.12 770.7C1627.03 768.95 1612.43 768.06 1598 768.04C1569.15 768.01 1540.42 770.88 1511.65 772.63C1483.38 774.35 1455.06 774.48 1426.76 773.38C1398.46 772.28 1370.21 770.06 1342 767.45C1313.76 764.83 1285.55 761.81 1257.32 759.11C1229.24 756.42 1201.12 754.03 1172.94 752.66C1144.76 751.29 1116.7 750.95 1088.61 752.34C1081.7 752.68 1074.79 753.13 1067.9 753.69C1066.89 753.77 1066.89 755.35 1067.9 755.27L1067.91 755.28Z" fill="#693F2D"/>
<path d="M1056.76 718.599C1086.01 719.089 1115.23 720.509 1144.41 722.469C1173.59 724.429 1202.72 726.939 1231.84 729.599C1260.95 732.259 1290.05 735.079 1319.17 737.669C1348.33 740.259 1377.52 742.619 1406.75 744.359C1435.87 746.089 1465.03 747.199 1494.21 747.299C1523.6 747.399 1552.91 746.109 1582.25 744.459C1611.68 742.799 1641.19 741.189 1670.67 742.509C1685.4 743.169 1700.03 744.719 1714.62 746.819C1729.02 748.899 1743.35 751.379 1757.74 753.479C1786.54 757.669 1815.57 759.569 1844.67 759.799C1873.77 760.029 1903.3 758.699 1932.55 756.809C1939.65 756.349 1946.74 755.859 1953.84 755.339C1954.85 755.269 1954.86 753.689 1953.84 753.759C1924.61 755.869 1895.34 757.659 1866.03 758.119C1836.83 758.589 1807.58 757.749 1778.54 754.569C1749.59 751.399 1721.04 745.299 1692.05 742.439C1662.63 739.539 1633.01 740.259 1603.53 741.729C1574.05 743.199 1544.73 745.189 1515.26 745.609C1486.08 746.019 1456.9 745.319 1427.76 743.919C1398.61 742.509 1369.49 740.389 1340.41 737.939C1311.29 735.489 1282.19 732.709 1253.09 729.999C1223.98 727.279 1194.85 724.629 1165.69 722.429C1136.53 720.219 1107.33 718.469 1078.1 717.549C1070.99 717.329 1063.88 717.149 1056.77 717.029C1055.75 717.009 1055.75 718.589 1056.77 718.609L1056.76 718.599Z" fill="#693F2D"/>
<path d="M1067.91 689.049C1086.69 687.519 1105.5 686.299 1124.34 685.649C1139 685.139 1153.68 684.969 1168.35 685.349C1179.86 685.649 1191.36 686.309 1202.81 687.469C1212.06 688.409 1221.27 689.699 1230.42 691.369C1238.2 692.789 1245.92 694.479 1253.61 696.329C1260.8 698.059 1267.96 699.919 1275.15 701.699C1282.34 703.479 1290.17 705.309 1297.75 706.819C1306.4 708.539 1315.11 709.919 1323.86 710.979C1334.58 712.279 1345.36 713.089 1356.15 713.549C1369.91 714.139 1383.69 714.159 1397.45 713.849C1407.84 713.609 1418.17 712.809 1428.51 711.749C1441.47 710.419 1454.4 708.889 1467.35 707.439C1482.98 705.699 1498.62 704.059 1514.29 702.729C1531.85 701.229 1549.45 700.089 1567.07 699.499C1585.64 698.869 1604.23 698.849 1622.8 699.669C1641.75 700.509 1660.67 702.219 1679.41 705.169C1689.12 706.699 1698.7 708.849 1708.4 710.399C1718.64 712.039 1728.95 713.129 1739.28 714.029C1749.61 714.929 1760.35 715.669 1770.88 716.589C1781.43 717.519 1791.95 718.539 1802.52 719.199C1823.68 720.519 1844.89 720.959 1866.09 720.819C1887.37 720.689 1908.64 719.979 1929.9 718.989C1940.22 718.509 1950.54 717.959 1960.85 717.389C1961.86 717.329 1961.87 715.749 1960.85 715.809C1939.54 716.999 1918.22 718.059 1896.89 718.679C1875.64 719.299 1854.38 719.489 1833.13 718.949C1822.59 718.679 1812.06 718.229 1801.54 717.559C1791.02 716.889 1780.45 715.839 1769.9 714.929C1748.79 713.099 1727.57 712.039 1706.65 708.529C1697.11 706.929 1687.66 704.849 1678.09 703.379C1668.79 701.959 1659.44 700.829 1650.07 699.949C1631.34 698.199 1612.52 697.469 1593.72 697.459C1575.5 697.459 1557.29 698.129 1539.1 699.289C1522.42 700.349 1505.76 701.819 1489.13 703.519C1474.76 704.989 1460.42 706.649 1446.07 708.259C1434.83 709.519 1423.58 710.809 1412.29 711.619C1399.8 712.519 1387.23 712.549 1374.72 712.439C1362.63 712.329 1350.54 711.869 1338.5 710.879C1328.88 710.089 1319.29 708.949 1309.76 707.389C1301.72 706.069 1293.74 704.459 1285.8 702.629C1278.55 700.959 1271.35 699.119 1264.14 697.299C1256.93 695.479 1249.45 693.649 1242.05 692.069C1233.73 690.289 1225.34 688.779 1216.91 687.599C1206.66 686.159 1196.35 685.169 1186.02 684.539C1173.01 683.739 1159.98 683.489 1146.95 683.589C1130.28 683.709 1113.61 684.389 1096.97 685.399C1087.28 685.989 1077.6 686.689 1067.92 687.479C1066.91 687.559 1066.91 689.139 1067.92 689.059L1067.91 689.049Z" fill="#693F2D"/>
<path d="M1920.75 326.5C1891.36 320.48 1861.17 320.06 1831.28 320.14C1815.66 320.18 1800.05 320.38 1784.43 320.18C1768.65 319.97 1752.86 320.21 1737.08 319.98C1705.93 319.53 1674.83 316.24 1643.97 312.15C1629.54 310.24 1615.12 308.15 1600.79 305.57C1588.71 303.39 1576.67 300.98 1564.52 299.18C1552.37 297.38 1540.87 296.33 1528.97 296.58C1515.96 296.85 1503.03 298.76 1490.47 302.16C1478.33 305.44 1466.9 310.86 1454.52 313.26C1443.39 315.42 1431.98 315.92 1420.67 315.59C1395.49 314.85 1370.56 310.15 1345.9 305.28C1321.24 300.41 1297.81 295.14 1273.4 292.53C1244.7 289.47 1215.54 289.96 1186.83 292.58C1158.74 295.15 1130.82 299.91 1103.51 306.96C1097.32 308.56 1091.15 310.28 1085.03 312.13C1084.06 312.42 1084.47 313.95 1085.45 313.65C1111.89 305.67 1139.05 300.01 1166.43 296.43C1195.59 292.62 1225.13 291.13 1254.51 292.66C1266.93 293.31 1279.26 294.61 1291.55 296.56C1303.84 298.51 1316 300.91 1328.18 303.34C1353.09 308.32 1378.05 313.6 1403.37 316.04C1425.48 318.17 1448.86 318.37 1470 310.66C1476.78 308.19 1483.5 305.7 1490.46 303.8C1497.02 302.01 1503.69 300.61 1510.42 299.65C1522.65 297.91 1535.05 297.76 1547.35 298.75C1559.35 299.72 1571.24 301.74 1583.08 303.91C1595.93 306.26 1608.75 308.66 1621.67 310.59C1652.13 315.13 1682.8 318.87 1713.55 320.74C1729.26 321.69 1745.01 321.67 1760.74 321.66C1776.47 321.65 1792.19 321.89 1807.92 321.83C1838.3 321.71 1868.85 320.98 1899.07 324.61C1906.19 325.47 1913.28 326.59 1920.31 328.03C1921.3 328.23 1921.73 326.71 1920.73 326.51L1920.75 326.5Z" fill="#693F2D"/>
<path d="M1921.97 351.83C1894.85 350.19 1867.7 349.13 1840.57 347.82C1814.29 346.55 1788.02 345.05 1761.83 342.45C1735.96 339.88 1710.18 336.21 1684.78 330.63C1678.37 329.22 1671.98 327.69 1665.63 326.03C1659.28 324.37 1653.28 322.41 1647.02 320.99C1635.72 318.42 1624.08 318.02 1612.59 319.35C1602.26 320.55 1592.16 323.06 1582.1 325.63C1572.7 328.03 1563.23 330.53 1553.54 331.35C1547.44 331.87 1541.27 331.75 1535.16 331.97C1528.08 332.22 1521 332.56 1513.92 332.93C1499.95 333.65 1485.99 334.47 1472.01 334.91C1458.04 335.35 1444.05 335.39 1430.09 334.62C1416.13 333.85 1402.52 332.43 1388.78 330.93C1361.71 327.96 1334.65 325.4 1307.45 324.01C1280.25 322.62 1252.67 322.16 1225.27 322.62C1197.84 323.08 1170.43 324.47 1143.1 326.83C1136.63 327.39 1130.16 328 1123.69 328.67C1122.69 328.77 1122.68 330.35 1123.69 330.25C1150.87 327.44 1178.14 325.6 1205.45 324.69C1232.85 323.78 1260.29 323.79 1287.69 324.74C1314.84 325.68 1341.97 327.52 1368.99 330.35C1396.01 333.18 1424.03 336.73 1451.8 336.81C1479.87 336.89 1507.87 334.5 1535.91 333.52C1541.94 333.31 1548.03 333.43 1554.04 332.89C1558.75 332.46 1563.41 331.65 1568.03 330.66C1577.84 328.56 1587.48 325.71 1597.28 323.57C1608 321.23 1618.93 319.76 1629.93 320.25C1636 320.52 1642.02 321.38 1647.92 322.81C1654.32 324.36 1660.61 326.37 1666.99 328.01C1692.01 334.44 1717.51 338.84 1743.14 341.96C1769.13 345.13 1795.25 346.99 1821.39 348.41C1848.33 349.88 1875.3 350.89 1902.24 352.29C1908.82 352.63 1915.4 353 1921.97 353.39C1922.98 353.45 1922.98 351.87 1921.97 351.81V351.83Z" fill="#693F2D"/>
<path d="M1936.31 369.22C1920.34 369.97 1904.34 370.56 1888.34 370.48C1878.95 370.44 1869.53 370.18 1860.18 369.23C1854.41 368.64 1848.69 367.7 1843.02 366.5C1837.94 365.42 1832.88 364.23 1827.76 363.33C1820.42 362.04 1813.01 361.26 1805.57 360.75C1792.96 359.9 1780.31 359.75 1767.68 359.81C1756.48 359.86 1745.26 360.46 1734.06 360.18C1726.51 359.99 1718.96 359.58 1711.42 359.15C1701.32 358.58 1691.22 357.94 1681.12 357.31C1669.11 356.56 1657.1 355.83 1645.08 355.16C1631.79 354.42 1618.5 353.75 1605.21 353.2C1591.29 352.63 1577.35 352.18 1563.42 351.93C1549.49 351.68 1535.56 351.62 1521.62 351.86C1507.68 352.1 1495.01 352.57 1481.73 353.48C1469.64 354.31 1457.57 355.49 1445.59 357.3C1440.25 358.11 1434.92 359.05 1429.64 360.17C1426.14 360.91 1422.69 361.77 1419.12 362.13C1414.62 362.58 1410.08 362.5 1405.58 362.13C1396.02 361.34 1386.63 359.28 1377.18 357.7C1367.73 356.12 1358.02 355.4 1348.4 354.64C1328.48 353.07 1308.53 351.91 1288.56 351.14C1268.3 350.36 1248.03 350 1227.76 350.03C1207.49 350.06 1187.56 350.5 1167.47 351.34C1157.71 351.75 1147.96 352.25 1138.22 352.85C1137.21 352.91 1137.2 354.49 1138.22 354.43C1158.32 353.2 1178.44 352.37 1198.56 351.94C1218.76 351.51 1238.97 351.49 1259.17 351.87C1279.37 352.25 1299.44 353.03 1319.54 354.22C1329.57 354.81 1339.59 355.51 1349.6 356.31C1359.31 357.08 1368.97 357.87 1378.57 359.53C1387.83 361.13 1397.07 363.09 1406.47 363.78C1411.04 364.12 1415.65 364.14 1420.21 363.59C1423.54 363.19 1426.78 362.39 1430.05 361.69C1441.12 359.34 1452.35 357.77 1463.61 356.6C1476.33 355.28 1489.1 354.48 1501.88 353.98C1515.57 353.44 1529.28 353.26 1542.99 353.29C1556.7 353.32 1571.01 353.6 1585.02 354.04C1599.03 354.48 1612.39 355.05 1626.06 355.73C1638.78 356.36 1651.49 357.08 1664.2 357.85C1675.31 358.52 1686.42 359.22 1697.52 359.9C1706.38 360.44 1715.25 360.98 1724.12 361.38C1730.1 361.65 1736.09 361.92 1742.08 361.79C1757.99 361.44 1773.9 361.15 1789.82 361.59C1799.34 361.85 1808.88 362.34 1818.34 363.49C1824.2 364.21 1830.01 365.26 1835.78 366.51C1840.81 367.6 1845.82 368.75 1850.9 369.57C1858.16 370.74 1865.49 371.35 1872.84 371.68C1885.2 372.23 1897.59 372.09 1909.96 371.76C1918.74 371.53 1927.52 371.18 1936.3 370.77C1937.31 370.72 1937.32 369.14 1936.3 369.19L1936.31 369.22Z" fill="#693F2D"/>
<path d="M1921.85 388.76C1905.06 389.82 1888.26 390.66 1871.44 391.11C1858.29 391.46 1845.14 391.58 1831.99 391.31C1821.69 391.1 1811.4 390.64 1801.13 389.83C1792.9 389.18 1784.68 388.29 1776.5 387.14C1769.58 386.16 1762.69 384.99 1755.82 383.71C1749.38 382.51 1742.95 381.22 1736.51 379.99C1729.79 378.71 1723.06 377.49 1716.3 376.46C1708.51 375.27 1700.69 374.31 1692.84 373.58C1683.18 372.68 1673.49 372.13 1663.79 371.82C1651.51 371.43 1639.22 371.42 1626.94 371.64C1617.68 371.81 1608.46 372.38 1599.23 373.11C1587.59 374.04 1575.96 375.11 1564.32 376.11C1550.28 377.32 1536.23 378.45 1522.17 379.37C1506.46 380.4 1490.74 381.17 1475 381.57C1458.35 381.99 1441.7 381.99 1425.05 381.39C1408.25 380.79 1391.46 379.59 1374.77 377.55C1366.1 376.49 1357.5 374.99 1348.84 373.93C1339.52 372.79 1330.15 372.05 1320.79 371.43C1311.43 370.81 1301.97 370.31 1292.56 369.66C1283.15 369.01 1273.86 368.33 1264.5 367.89C1245.68 367 1226.83 366.72 1207.99 366.82C1189.08 366.92 1170.17 367.41 1151.28 368.1C1142.18 368.43 1133.09 368.8 1123.99 369.19C1122.98 369.23 1122.97 370.81 1123.99 370.77C1142.86 369.95 1161.73 369.23 1180.62 368.8C1199.51 368.37 1218.4 368.23 1237.29 368.59C1256.08 368.95 1274.8 370.04 1293.55 371.31C1312.32 372.59 1331.14 373.3 1349.82 375.64C1358.38 376.71 1366.87 378.18 1375.44 379.22C1383.81 380.24 1392.21 381.04 1400.63 381.66C1417.43 382.9 1434.28 383.43 1451.12 383.45C1467.96 383.47 1483.66 383.02 1499.91 382.23C1514.88 381.51 1529.83 380.49 1544.76 379.32C1557.66 378.3 1570.55 377.16 1583.45 376.03C1593.5 375.15 1603.55 374.26 1613.63 373.69C1624.76 373.06 1635.94 373.02 1647.08 373.09C1657.96 373.16 1668.83 373.47 1679.69 374.15C1688.33 374.69 1696.95 375.47 1705.54 376.55C1712.71 377.45 1719.85 378.57 1726.96 379.83C1733.45 380.99 1739.92 382.26 1746.39 383.52C1752.86 384.78 1759.51 386.04 1766.1 387.14C1773.58 388.38 1781.08 389.43 1788.62 390.25C1797.78 391.25 1806.98 391.93 1816.18 392.37C1827.84 392.93 1839.52 393.1 1851.19 393.04C1866.14 392.96 1881.08 392.48 1896.01 391.78C1904.63 391.37 1913.24 390.89 1921.85 390.35C1922.86 390.29 1922.87 388.71 1921.85 388.77V388.76Z" fill="#693F2D"/>
</g>
<path opacity="0.2" d="M709.95 716.32C711.73 588.47 726.62 607.93 698.69 572.38C665.53 530.17 676.24 399.04 503.19 399.04C400.84 399.04 369.65 525.39 333.59 551.2C283.9 586.75 207.42 543.72 210.6 671.58C213.77 766.36 78.1899 753.91 58.6299 797.56L-4.37012 915.76L786.26 914.59V800.71C786.26 721.73 708.17 811.1 709.95 716.33V716.32Z" fill="#1E1813"/>
<path d="M782.01 715.34C783.79 585.72 749.33 621.76 721.4 585.72C688.24 542.93 679.95 420.48 506.9 420.48C404.55 420.48 429.93 559.56 393.87 585.72C344.18 621.76 282.87 585.72 286.04 715.34C289.21 811.43 150.25 753.44 130.69 797.69L87.21 915.75L858.32 914.58V800.88C858.32 720.8 780.23 811.42 782.01 715.33V715.34Z" fill="#7A553C"/>
<mask id="mask2_987_6603" style="mask-type:luminance" maskUnits="userSpaceOnUse" x="87" y="420" width="772" height="496">
<path d="M782.01 715.34C783.79 585.72 749.33 621.76 721.4 585.72C688.24 542.93 679.95 420.48 506.9 420.48C404.55 420.48 429.93 559.56 393.87 585.72C344.18 621.76 282.87 585.72 286.04 715.34C289.21 811.43 150.25 753.44 130.69 797.69L87.21 915.75L858.32 914.58V800.88C858.32 720.8 780.23 811.42 782.01 715.33V715.34Z" fill="white"/>
</mask>
<g mask="url(#mask2_987_6603)">
<path d="M673.32 411.7C673.32 411.7 490.62 407.82 472.98 514.12C455.34 620.42 460.29 639.48 379.78 652.19C299.26 664.91 409.39 768.6 200.26 806.66C103.8 824.22 241.72 941.93 177.24 942.04L39.2998 930.22C39.2998 930.22 43.7298 755.41 166.55 743.64C289.38 731.87 219.49 566.9 219.49 566.9L375.18 551.521L435.08 367.23L673.33 411.69L673.32 411.7Z" fill="#91694D"/>
<path d="M424.19 476.221C441.29 474.501 458.51 475.401 475.64 476.071C492.77 476.741 509.16 477.251 525.71 474.681C533.79 473.431 541.74 471.371 549.3 468.241C557.14 464.991 564.64 460.831 572.91 458.691C581.77 456.401 591.03 456.481 600.12 456.511C609.78 456.541 619.43 456.561 629.09 456.591C648.23 456.641 667.38 456.691 686.52 456.741C688.93 456.741 691.35 456.751 693.76 456.761C695.14 456.761 695.14 454.621 693.76 454.621C674.53 454.571 655.31 454.521 636.08 454.471C626.51 454.441 616.94 454.421 607.36 454.391C597.78 454.361 588.86 454.021 579.72 455.231C571.05 456.381 563.23 459.641 555.34 463.251C547.78 466.711 540.14 469.601 531.99 471.361C515.57 474.901 498.6 474.731 481.9 474.171C464.79 473.591 447.65 472.451 430.54 473.561C428.42 473.701 426.3 473.871 424.19 474.091C422.83 474.231 422.82 476.371 424.19 476.231V476.221Z" fill="#8C6239"/>
<path d="M398.74 506.981C418.41 508.281 438.11 509.481 457.83 509.471C477.13 509.461 496.51 508.311 515.49 504.661C524.719 502.891 533.84 500.511 542.69 497.361C551.54 494.211 560.18 489.941 568.83 485.971C577.48 482.001 586.849 478.351 596.539 476.731C606.229 475.111 616.2 475.241 626 476.111C646.23 477.901 666.08 482.801 686.39 483.811C688.84 483.931 691.289 483.991 693.74 483.991C695.12 483.991 695.12 481.851 693.74 481.851C673.43 481.871 653.549 477.221 633.469 474.771C623.629 473.571 613.679 472.891 603.779 473.711C594.029 474.521 584.68 476.971 575.64 480.681C566.6 484.391 558.149 488.891 549.219 492.581C540.569 496.151 531.6 498.901 522.49 501.011C503.729 505.351 484.439 506.951 465.229 507.281C445.419 507.621 425.609 506.591 405.849 505.321C403.479 505.171 401.109 505.011 398.729 504.861C397.349 504.771 397.359 506.911 398.729 507.001L398.74 506.981Z" fill="#8C6239"/>
<path d="M397.049 542.62C422.889 545.81 448.799 549 474.859 549.44C498.549 549.84 522.449 547.93 545.379 541.66C555.879 538.78 566.179 534.98 575.839 529.94C580.469 527.53 584.949 524.82 589.199 521.79C593.449 518.76 597.549 515.22 602.149 512.55C612.829 506.34 625.749 507.16 637.669 507.02C650.729 506.87 663.789 506.92 676.849 507.19C702.849 507.73 728.829 509.11 754.739 511.33C757.939 511.6 761.139 511.89 764.339 512.19C765.709 512.32 765.699 510.18 764.339 510.05C738.369 507.62 712.329 506.02 686.259 505.28C673.21 504.91 660.149 504.75 647.089 504.8C640.669 504.83 634.249 504.9 627.829 505.03C621.939 505.15 615.949 505.37 610.209 506.87C599.569 509.65 591.809 517.85 582.719 523.53C573.609 529.23 563.719 533.58 553.539 536.95C531.249 544.32 507.659 547.09 484.249 547.32C458.259 547.58 432.359 544.77 406.599 541.64C403.419 541.25 400.229 540.86 397.049 540.47C395.689 540.3 395.699 542.44 397.049 542.61V542.62Z" fill="#8C6239"/>
<path d="M396.19 575.831C423.86 580.051 451.65 584.091 479.65 585.131C506.83 586.141 534.5 584.301 560.58 576.091C586.72 567.861 610.05 552.761 636.23 544.641C660.32 537.161 685.81 534.371 710.97 535.581C735.83 536.781 760.78 541.911 783.66 551.831C786.4 553.021 789.1 554.281 791.78 555.601C793.01 556.211 794.1 554.361 792.86 553.751C770.68 542.761 746.29 536.551 721.7 534.211C696.61 531.821 671 533.471 646.53 539.541C633.97 542.661 621.9 547.151 610.11 552.461C597.26 558.261 584.71 564.771 571.57 569.921C545.92 579.981 518.42 583.371 491 583.231C462.85 583.081 434.84 579.461 407.04 575.311C403.61 574.801 400.18 574.281 396.74 573.751C395.39 573.541 394.81 575.611 396.17 575.811L396.19 575.831Z" fill="#8C6239"/>
<path d="M368.259 594.06C393.759 606.07 420.879 614.5 448.579 619.61C476.039 624.67 504.389 626.9 532.239 624.21C545.589 622.92 558.879 620.48 571.639 616.29C577.799 614.27 583.839 611.83 589.639 608.93C596.169 605.67 602.399 601.84 608.729 598.21C620.239 591.61 632.299 586.5 645.119 583.04C657.939 579.58 670.709 577.68 683.729 576.64C710.849 574.46 738.129 576.06 765.189 578.21C768.479 578.47 771.769 578.75 775.059 579.02C776.429 579.14 776.419 576.99 775.059 576.88C748.049 574.61 720.899 572.59 693.779 573.86C668.179 575.06 642.199 579.23 618.909 590.37C606.209 596.44 594.709 604.72 581.719 610.24C569.449 615.46 556.379 618.74 543.219 620.72C515.739 624.86 487.469 623.53 460.069 619.38C432.099 615.14 404.529 607.57 378.539 596.37C375.449 595.04 372.379 593.65 369.329 592.22C368.089 591.64 366.999 593.48 368.249 594.07L368.259 594.06Z" fill="#8C6239"/>
<path d="M255.14 761.551C274.86 762.641 294.37 759.011 313.58 754.981C323.17 752.971 332.74 750.851 342.4 749.161C351.98 747.491 361.63 746.271 371.32 745.491C390.68 743.931 410.19 744.081 429.53 745.921C448.68 747.751 467.65 751.291 486.16 756.561C504.95 761.921 523.25 768.811 541.98 774.371C559.58 779.601 577.6 783.491 596 784.131C613.1 784.721 630.76 782.651 646.42 775.381C661.77 768.251 673.43 755.931 686.57 745.631C693.21 740.431 700.34 736.001 708.07 732.611C715.8 729.221 724.02 726.791 732.3 724.981C749.71 721.181 767.61 720.061 785.38 719.451C789.75 719.301 794.11 719.181 798.48 719.081C799.85 719.051 799.86 716.911 798.48 716.941C780.6 717.381 762.67 717.951 744.95 720.541C728.4 722.961 711.74 727.221 697.2 735.741C682.66 744.261 671.34 757.051 657.5 766.541C650.42 771.391 642.75 775.141 634.52 777.611C626.25 780.101 617.66 781.401 609.04 781.871C590.92 782.861 572.81 780.281 555.28 775.821C536.4 771.021 518.12 764.261 499.57 758.371C481.13 752.521 462.39 747.991 443.21 745.361C424.11 742.741 404.8 741.781 385.53 742.501C366.11 743.231 346.92 745.851 327.9 749.771C308.88 753.691 289.37 758.471 269.64 759.431C264.82 759.661 259.99 759.661 255.18 759.401C253.8 759.321 253.81 761.461 255.18 761.541L255.14 761.551Z" fill="#8C6239"/>
<path d="M275.11 745.76C294.96 740.64 314.99 736.18 335.17 732.59C355.49 728.97 375.97 726.23 396.55 724.64C417.1 723.05 437.75 722.59 458.34 723.61C478.55 724.61 498.71 727.05 518.5 731.28C528.51 733.42 538.36 736.11 548.17 739.02C557.98 741.93 568.4 745.09 578.77 747.09C588.9 749.05 599.3 749.98 609.58 748.73C618.27 747.67 626.65 745.11 634.58 741.42C650.07 734.2 663.24 723.15 677.31 713.64C691.94 703.75 707.91 696.5 724.81 691.42C742.85 685.99 761.51 682.83 780.21 680.78C799.35 678.68 818.6 677.75 837.84 677.12C842.54 676.97 847.24 676.83 851.94 676.7C853.31 676.66 853.32 674.52 851.94 674.56C832.57 675.09 813.2 675.73 793.89 677.33C775.06 678.89 756.24 681.33 737.85 685.7C720.5 689.83 703.45 695.75 687.88 704.53C673 712.93 660 724.17 645.46 733.09C638.19 737.55 630.51 741.39 622.33 743.87C612.78 746.77 602.81 747.65 592.87 746.9C571.93 745.32 552.15 737.41 531.96 732.24C512.44 727.24 492.47 724.08 472.4 722.4C452.33 720.72 431.31 720.53 410.79 721.58C390.27 722.63 369.72 724.89 349.37 728.06C329.02 731.23 308.96 735.3 289.01 740.09C284.18 741.25 279.36 742.45 274.55 743.69C273.22 744.03 273.78 746.1 275.12 745.75L275.11 745.76Z" fill="#8C6239"/>
<path d="M272.55 726.011C292.63 721.721 312.86 718.181 333.19 715.381C353.82 712.541 374.56 710.471 395.34 709.151C416.05 707.831 436.81 707.251 457.56 707.421C478.31 707.591 499.2 708.511 519.95 710.191C540.06 711.821 560.23 714.131 580.44 713.221C590.23 712.781 600.02 711.561 609.51 709.061C618.25 706.761 626.66 703.331 634.74 699.281C650.57 691.341 665.08 681.061 680.78 672.891C696.71 664.601 713.86 659.001 731.39 655.251C748.92 651.501 768.48 649.371 787.2 648.401C806.24 647.411 825.31 647.441 844.37 647.741C848.98 647.811 853.6 647.901 858.21 647.991C859.59 648.021 859.59 645.881 858.21 645.851C839.11 645.471 820.01 645.181 800.91 645.721C781.81 646.261 763.25 647.591 744.65 650.601C726.05 653.611 709.27 657.951 692.64 664.961C676.01 671.971 661.47 681.741 646.12 690.641C638.39 695.121 630.47 699.321 622.15 702.621C613.21 706.161 603.9 708.561 594.38 709.851C574.36 712.571 554.03 710.951 534 709.231C513.37 707.461 492.75 706.021 472.04 705.511C451.33 705.001 430.36 705.231 409.55 706.211C388.87 707.191 368.22 708.901 347.67 711.371C327.23 713.821 306.87 717.001 286.67 720.931C281.77 721.891 276.87 722.891 271.99 723.931C270.64 724.221 271.21 726.281 272.56 725.991L272.55 726.011Z" fill="#8C6239"/>
<path d="M270.44 703.53C290.43 698.25 310.64 693.83 331.01 690.28C351.66 686.68 372.45 683.96 393.33 682.09C414.18 680.23 435.1 679.23 456.03 679.08C477.05 678.93 498.07 679.65 519.03 681.24C539.99 682.83 562.23 686.21 583.84 684.13C601.9 682.39 619.14 676.62 635.59 669.15C651.89 661.76 667.45 652.89 683.61 645.22C700.7 637.1 718.48 631.03 737.01 627.14C756.44 623.06 776.26 621.1 796.07 620.22C815.88 619.34 836.44 619.53 856.62 620C861.47 620.11 866.31 620.24 871.16 620.37C872.54 620.41 872.54 618.27 871.16 618.23C850.92 617.68 830.67 617.19 810.43 617.62C790.19 618.05 770.81 619.31 751.23 622.38C732.2 625.37 713.44 630.14 695.63 637.53C679.09 644.4 663.44 653.13 647.44 661.12C631.37 669.15 614.76 676.37 597.08 679.99C576.17 684.27 554.97 682.33 533.92 680.38C512.87 678.43 491.88 677.24 470.79 676.98C449.77 676.72 428.74 677.33 407.77 678.8C386.95 680.26 366.19 682.57 345.56 685.74C324.93 688.91 304.54 692.91 284.31 697.81C279.48 698.98 274.67 700.2 269.87 701.47C268.54 701.82 269.1 703.89 270.44 703.53Z" fill="#8C6239"/>
<path d="M275.05 668.88C295.03 664.05 315.21 660.07 335.52 656.93C356.09 653.75 376.78 651.44 397.54 649.96C418.24 648.48 439.01 647.84 459.76 648.04C480.56 648.24 501.33 649.3 522.04 651.17C542.49 653.01 562.94 655.38 583.5 655.49C604.06 655.6 623.12 653.41 641.82 646.64C659.33 640.3 675.35 630.74 691.67 621.92C707.99 613.1 725.08 605.63 742.86 599.98C760.64 594.33 779.98 590.09 799 587.66C818.22 585.21 837.65 584.43 857 585.38C861.76 585.61 866.52 585.95 871.27 586.39C872.64 586.52 872.63 584.38 871.27 584.25C851.89 582.45 832.36 582.39 812.97 584.04C793.84 585.66 774.83 588.9 756.28 593.84C738.33 598.62 720.77 604.99 704.05 613.11C687.33 621.23 671.54 631.25 654.62 639.04C645.85 643.08 636.77 646.48 627.38 648.79C617.99 651.1 607.68 652.47 597.68 653.02C577.21 654.13 556.72 652.28 536.35 650.36C515.71 648.41 495.08 646.76 474.35 646.17C453.52 645.58 432.66 645.83 411.84 646.93C391.08 648.02 370.36 649.96 349.75 652.73C329.4 655.47 309.17 659.02 289.11 663.43C284.21 664.51 279.32 665.64 274.45 666.82C273.11 667.14 273.68 669.21 275.02 668.88H275.05Z" fill="#8C6239"/>
<path d="M113.829 813.59C140.449 814.35 167.019 811.99 193.439 809.03C219.689 806.09 245.889 802.54 272.269 800.88C298.419 799.24 324.819 799.52 350.649 804.27C376.399 809.01 401.159 817.72 426.459 824.25C451.759 830.78 475.219 834.14 500.069 835.25C525.019 836.36 550.079 834.94 574.739 831.01C598.979 827.15 622.649 820.7 645.509 811.79C657.449 807.13 669.239 802.07 681.359 797.9C693.349 793.77 705.619 790.75 718.179 789.02C743.379 785.55 768.959 786.62 794.289 787.86C819.739 789.1 845.299 790.7 870.749 788.56C876.849 788.05 882.929 787.31 888.969 786.33C890.329 786.11 889.749 784.05 888.399 784.27C863.159 788.4 837.459 787.76 812.009 786.59C786.539 785.42 760.999 783.58 735.499 785.19C723.219 785.97 710.959 787.56 698.989 790.46C687.019 793.36 674.329 798.02 662.349 802.79C650.689 807.43 639.099 812.24 627.179 816.18C615.639 819.99 603.879 823.13 591.989 825.66C567.679 830.82 542.819 833.39 517.969 833.49C493.039 833.59 468.079 831.21 443.669 826.12C418.229 820.81 393.689 812.12 368.459 805.96C355.869 802.88 343.139 800.57 330.239 799.29C317.209 798 304.109 797.66 291.029 797.95C264.689 798.54 238.499 801.65 212.359 804.73C186.069 807.82 159.729 810.93 133.239 811.53C126.769 811.68 120.289 811.67 113.809 811.48C112.429 811.44 112.429 813.58 113.809 813.62L113.829 813.59Z" fill="#8C6239"/>
<path d="M79.9995 846.84C109.37 843.59 138.729 840.33 168.099 837.08C197.189 833.86 226.29 830.32 255.53 828.8C270.08 828.04 284.66 827.8 299.22 828.41C313.8 829.02 328.279 830.6 342.669 833.03C356.81 835.42 370.849 838.42 384.949 841.02C398.999 843.61 413.119 845.76 427.289 847.5C456.119 851.04 485.169 852.83 514.229 852.88C542.819 852.93 571.62 851.4 599.63 845.36C627.19 839.42 653.74 829.61 681.419 824.09C709.099 818.57 735.93 816.25 763.43 815.23C791.51 814.19 819.629 814.65 847.719 815.16C875.919 815.68 904.14 816.27 932.34 815.52C939.11 815.34 945.879 815.08 952.649 814.73C954.019 814.66 954.029 812.52 952.649 812.59C924.519 814.06 896.349 813.85 868.19 813.39C840.02 812.92 811.849 812.18 783.669 812.58C756 812.97 728.31 814.48 700.919 818.54C687.349 820.55 673.879 823.22 660.589 826.65C646.969 830.17 633.539 834.36 619.979 838.08C606.419 841.8 592.389 844.97 578.279 846.95C564.169 848.93 549.569 849.98 535.149 850.43C506.149 851.35 477.06 850.29 448.18 847.6C433.71 846.25 419.269 844.47 404.909 842.24C390.659 840.03 376.53 837.23 362.37 834.49C348.32 831.76 334.22 829.21 319.97 827.75C305.59 826.27 291.109 825.78 276.66 825.96C247.439 826.32 218.33 829.38 189.31 832.59C159.96 835.83 130.62 839.09 101.28 842.34C94.1895 843.13 87.0895 843.91 79.9995 844.7C78.6495 844.85 78.6295 846.99 79.9995 846.84Z" fill="#8C6239"/>
<path d="M75.9996 877.75C104.15 872.59 132.51 868.57 160.98 865.65C189.56 862.73 218.25 860.92 246.97 860.21C275.69 859.5 304.35 859.9 333 861.4C361.59 862.9 390.09 865.6 418.49 869.21C447.06 872.84 475.59 877.03 504.33 879.1C532.58 881.13 561.14 881.07 589.11 876.15C616.72 871.29 643.05 861.35 670.25 854.81C697.24 848.32 724.93 845.37 752.63 844.19C780.33 843.01 808.93 843.57 837.07 844.19C865.26 844.82 893.48 845.52 921.67 844.6C928.44 844.38 935.2 844.06 941.96 843.63C943.33 843.54 943.34 841.4 941.96 841.49C913.7 843.29 885.36 843.05 857.07 842.49C828.92 841.92 800.76 841.02 772.6 841.47C744.99 841.91 717.33 843.68 690.11 848.5C676.36 850.93 662.83 854.31 649.42 858.16C635.94 862.03 622.55 866.23 608.95 869.66C595.35 873.09 581.23 875.63 567.09 876.92C552.95 878.21 538.74 878.46 524.55 878.01C495.79 877.11 467.21 873.42 438.7 869.68C410.12 865.94 381.53 862.49 352.76 860.46C324.15 858.45 295.47 857.55 266.79 857.74C238.12 857.94 209.47 859.23 180.9 861.63C152.38 864.03 123.95 867.52 95.6996 872.14C88.9296 873.25 82.1796 874.42 75.4296 875.65C74.0796 875.9 74.6496 877.96 75.9996 877.71V877.75Z" fill="#8C6239"/>
<path d="M60.4896 899.231C92.2796 895.951 124.06 892.671 155.85 889.391C187.48 886.131 219.09 882.561 250.8 880.211C282.21 877.881 313.62 877.251 345.08 878.911C376.07 880.551 406.93 883.901 437.77 887.261C468.55 890.621 499.35 894.001 530.28 895.701C561.24 897.411 592.25 897.27 623.11 894.06C654.29 890.82 685.14 885.15 716.21 881.08C747.25 877.01 778.46 874.341 809.71 872.621C841.1 870.891 872.54 870.121 903.98 869.881C935.32 869.641 966.649 869.93 997.99 870.32C1005.69 870.42 1013.39 870.521 1021.1 870.621C1022.48 870.641 1022.48 868.501 1021.1 868.481C989.61 868.061 958.12 867.641 926.62 867.651C895.12 867.661 863.69 868.101 832.24 869.391C800.93 870.681 769.65 872.821 738.51 876.251C707.44 879.671 676.66 885.021 645.69 889.201C630.1 891.301 614.45 893.011 598.74 893.881C583.03 894.751 567.87 894.861 552.44 894.461C521.51 893.661 490.69 890.771 459.93 887.511C429.07 884.231 398.25 880.571 367.31 878.211C336.37 875.851 304.85 875.061 273.57 876.631C241.85 878.221 210.27 881.631 178.69 884.891C147.07 888.151 115.45 891.411 83.8296 894.671C76.0496 895.471 68.2696 896.28 60.4896 897.08C59.1296 897.22 59.1196 899.361 60.4896 899.221V899.231Z" fill="#8C6239"/>
</g>
<g style="mix-blend-mode:multiply" opacity="0.39">
<path d="M913.26 836.16C914.06 772.16 920.78 781.9 908.18 764.1C893.22 742.97 898.05 677.32 819.98 677.32C773.8 677.32 759.73 740.57 743.46 753.49C721.04 771.29 686.54 749.75 687.97 813.75C689.4 861.19 628.23 854.96 619.41 876.81L599.99 934.531H947.7V878.39C947.7 838.85 912.47 883.59 913.27 836.15L913.26 836.16Z" fill="#876A4A"/>
</g>
<path d="M945.77 833.51C946.57 769.51 931.03 787.3 918.43 769.51C903.47 748.38 899.73 687.92 821.65 687.92C775.47 687.92 786.92 756.59 770.65 769.51C748.23 787.31 720.57 769.51 722 833.51C723.43 880.95 660.74 852.32 651.91 874.17L632.49 931.89L1001.85 929.95L980.2 875.75C968.22 849.37 944.97 880.95 945.77 833.51Z" fill="#C69C6D"/>
<mask id="mask3_987_6603" style="mask-type:luminance" maskUnits="userSpaceOnUse" x="632" y="687" width="370" height="245">
<path d="M945.77 833.51C946.57 769.51 931.03 787.3 918.43 769.51C903.47 748.38 899.73 687.92 821.65 687.92C775.47 687.92 786.92 756.59 770.65 769.51C748.23 787.31 720.57 769.51 722 833.51C723.43 880.95 660.74 852.32 651.91 874.17L632.49 931.89L1001.85 929.95L980.2 875.75C964.71 846.45 944.97 880.95 945.77 833.51Z" fill="white"/>
</mask>
<g mask="url(#mask3_987_6603)">
<path d="M896.741 683.58C896.741 683.58 814.311 681.67 806.351 734.15C798.391 786.64 800.631 796.05 764.301 802.33C727.971 808.61 777.661 859.81 683.301 878.6C639.781 887.27 702.001 945.4 672.921 945.45L610.681 939.61C610.681 939.61 612.681 853.29 668.091 847.48C723.511 841.67 691.971 760.21 691.971 760.21L762.211 752.62L789.231 661.62L896.721 683.57L896.741 683.58Z" fill="#CEA57C"/>
<path d="M784.34 715.41C799.5 713.77 814.85 717.19 829.95 714.68C833.43 714.1 836.85 713.17 840.09 711.78C843.69 710.24 847.05 708.13 850.8 706.95C854.78 705.7 859 705.67 863.13 705.68C867.52 705.68 871.92 705.71 876.31 705.72C886.19 705.75 896.08 705.78 905.96 705.81C906.61 705.81 906.61 704.8 905.96 704.8C897.24 704.77 888.52 704.75 879.8 704.72C875.4 704.71 871 704.69 866.59 704.68C862.5 704.67 858.38 704.52 854.32 705.12C850.58 705.68 847.22 707.19 843.86 708.87C840.5 710.55 836.93 712.11 833.15 713.02C825.75 714.8 818.04 714.73 810.48 714.46C801.77 714.14 793.02 713.47 784.33 714.42C783.69 714.49 783.68 715.5 784.33 715.43L784.34 715.41Z" fill="#8C6239"/>
<path d="M772.85 730.599C790.31 731.859 808.2 733.08 825.47 729.47C829.63 728.6 833.73 727.43 837.69 725.89C841.65 724.35 845.5 722.3 849.34 720.36C853.18 718.42 857.51 716.52 861.97 715.69C866.43 714.86 870.95 714.93 875.43 715.36C885.65 716.36 895.63 719.23 905.95 719.25C906.6 719.25 906.6 718.24 905.95 718.24C896.77 718.23 887.82 715.95 878.77 714.74C874.39 714.15 869.95 713.82 865.54 714.2C861.13 714.58 857.28 715.659 853.39 717.339C849.5 719.019 845.58 721.27 841.63 723.12C837.68 724.97 833.44 726.459 829.17 727.569C820.65 729.779 811.84 730.61 803.06 730.78C792.98 730.98 782.92 730.309 772.87 729.589C772.22 729.539 772.22 730.549 772.87 730.599H772.85Z" fill="#8C6239"/>
<path d="M771.961 748.181C794.081 751.171 817.141 754.251 838.951 747.751C843.581 746.371 848.101 744.561 852.311 742.201C854.391 741.041 856.401 739.741 858.291 738.301C860.181 736.861 861.921 735.221 863.871 733.861C868.571 730.581 874.091 730.711 879.591 730.631C885.601 730.541 891.621 730.561 897.631 730.691C911.051 730.981 924.451 731.811 937.801 733.171C938.451 733.241 938.441 732.231 937.801 732.161C926.011 730.951 914.181 730.161 902.331 729.801C896.401 729.621 890.471 729.541 884.531 729.571C881.601 729.581 878.671 729.611 875.741 729.691C873.231 729.761 870.671 729.891 868.241 730.591C863.591 731.941 860.341 735.631 856.511 738.351C852.481 741.211 848.031 743.441 843.411 745.171C833.561 748.861 822.991 750.341 812.511 750.541C799.001 750.791 785.571 748.991 772.221 747.191C771.581 747.101 771.311 748.081 771.951 748.161L771.961 748.181Z" fill="#8C6239"/>
<path d="M771.701 764.6C795.811 768.63 821.78 772.9 845.54 764.85C857.311 760.86 867.601 753.54 879.331 749.44C890.141 745.66 901.72 744.17 913.15 744.7C926 745.3 938.831 748.48 950.181 754.62C950.751 754.93 951.261 754.06 950.691 753.75C931.001 743.11 906.731 740.9 885.191 746.59C879.621 748.06 874.281 750.16 869.111 752.68C863.391 755.46 857.861 758.61 852.061 761.2C840.391 766.42 827.75 768.33 815.041 768.31C800.57 768.28 786.221 766.01 771.981 763.63C771.341 763.52 771.07 764.5 771.71 764.6H771.701Z" fill="#8C6239"/>
<path d="M759.09 773.6C770.5 779.47 782.74 783.67 795.32 786.21C807.9 788.75 820.42 789.8 832.95 788.5C838.92 787.88 844.86 786.7 850.53 784.7C856.2 782.7 861.56 779.49 866.79 776.17C872.02 772.85 877.6 770.09 883.62 768.28C889.64 766.47 895.3 765.54 901.27 765.01C915.05 763.78 928.91 764.91 942.65 766.17C943.3 766.23 943.29 765.22 942.65 765.16C930.44 764.04 918.16 763.04 905.9 763.67C894.46 764.26 882.89 766.33 872.62 771.59C866.99 774.48 861.98 778.43 856.28 781.21C850.58 783.99 844.83 785.62 838.8 786.67C826.18 788.87 813.1 788.22 800.51 786.13C786.3 783.77 772.43 779.31 759.61 772.72C759.03 772.42 758.52 773.29 759.1 773.59L759.09 773.6Z" fill="#8C6239"/>
<path d="M708.061 856.301C716.961 856.821 725.731 855.061 734.351 853.071C742.971 851.081 751.811 849.111 760.791 848.341C778.501 846.821 796.461 848.771 813.391 854.191C829.611 859.381 845.281 867.021 862.611 867.471C870.191 867.671 878.021 866.541 884.811 863.021C891.601 859.501 896.601 853.771 902.251 848.841C908.291 843.581 915.251 840.211 923.011 838.321C930.771 836.431 939.141 835.821 947.271 835.511C949.241 835.441 951.201 835.381 953.171 835.331C953.821 835.311 953.821 834.301 953.171 834.321C937.991 834.731 921.191 835.051 907.891 843.331C901.421 847.361 896.531 853.281 890.601 857.991C884.231 863.061 876.721 865.691 868.641 866.311C851.271 867.651 835.181 860.691 819.161 855.071C802.511 849.221 785.161 846.281 767.491 846.921C758.691 847.241 750.001 848.491 741.411 850.411C732.551 852.391 723.711 854.811 714.601 855.301C712.421 855.421 710.231 855.411 708.051 855.291C707.401 855.251 707.401 856.261 708.051 856.301H708.061Z" fill="#8C6239"/>
<path d="M717.081 848.511C735.211 843.401 753.751 839.561 772.541 838.021C791.191 836.491 810.161 837.241 828.391 841.721C837.521 843.961 846.27 847.731 855.52 849.451C863.86 851.001 872.031 850.131 879.59 846.201C886.43 842.641 892.161 837.401 898.301 832.831C904.841 827.971 912.04 824.301 919.781 821.741C936.23 816.281 953.82 815.231 971.02 814.611C973.12 814.531 975.221 814.471 977.321 814.411C977.971 814.391 977.971 813.381 977.321 813.401C960.191 813.911 942.781 814.531 926.101 818.831C918.241 820.861 910.54 823.771 903.59 828.011C896.641 832.251 891.301 837.361 884.941 841.751C877.921 846.601 870.191 849.661 861.541 849.191C851.951 848.671 842.971 844.761 833.851 842.131C816.061 837.011 797.361 835.601 778.921 836.581C760.211 837.571 741.661 840.951 723.551 845.701C721.291 846.291 719.041 846.911 716.801 847.541C716.181 847.721 716.441 848.691 717.071 848.511H717.081Z" fill="#8C6239"/>
<path d="M715.93 838.75C734.29 834.47 752.99 831.68 771.8 830.39C790.58 829.1 809.47 829.3 828.22 831C837.31 831.82 846.44 832.94 855.58 832.39C863.99 831.89 871.87 829.64 879.26 825.6C886.34 821.72 892.76 816.76 899.75 812.73C906.74 808.7 914.7 805.76 922.73 803.86C939.43 799.92 956.8 799.81 973.86 800.1C975.96 800.14 978.05 800.18 980.15 800.22C980.8 800.23 980.8 799.22 980.15 799.21C963.13 798.84 945.91 798.56 929.08 801.53C921.1 802.93 913.23 805.12 905.83 808.47C898.43 811.82 891.87 816.58 885.06 820.94C878.25 825.3 870.44 829.28 862.01 830.68C852.83 832.2 843.44 831.41 834.24 830.55C815.51 828.8 796.81 828.05 778.01 829.01C759.31 829.96 740.68 832.38 722.36 836.28C720.12 836.76 717.89 837.26 715.66 837.78C715.03 837.93 715.3 838.9 715.93 838.75Z" fill="#8C6239"/>
<path d="M714.97 827.65C733.28 822.36 752.07 818.82 771.04 817C789.97 815.19 809.06 815.08 828.01 816.72C837.77 817.56 847.63 819.18 857.43 817.95C865.33 816.95 872.81 814.13 879.9 810.59C887.14 806.98 894.02 802.7 901.19 798.96C908.79 795 916.73 791.97 925.08 790.02C942.78 785.89 961.18 785.94 979.25 786.4C981.49 786.46 983.74 786.52 985.98 786.59C986.63 786.61 986.63 785.6 985.98 785.58C968.03 785.05 949.88 784.57 932.11 787.59C923.54 789.04 915.13 791.37 907.18 794.93C899.77 798.24 892.83 802.47 885.74 806.37C878.62 810.29 871.25 813.92 863.31 815.85C853.87 818.14 844.28 817.34 834.72 816.37C815.58 814.42 796.35 814.02 777.15 815.48C757.95 816.94 739.65 820 721.42 824.82C719.17 825.42 716.92 826.04 714.68 826.69C714.06 826.87 714.32 827.85 714.95 827.66L714.97 827.65Z" fill="#8C6239"/>
<path d="M717.051 810.54C735.261 805.73 753.901 802.61 772.671 801.17C791.441 799.73 810.311 799.99 829.041 801.85C846.901 803.62 865.581 806.35 882.741 799.48C890.541 796.36 897.601 791.76 904.801 787.5C912.161 783.14 919.831 779.43 927.911 776.6C944.391 770.84 962.041 768.4 979.461 769.31C981.661 769.42 983.851 769.6 986.041 769.82C986.691 769.89 986.681 768.87 986.041 768.81C968.751 767.07 951.121 768.64 934.421 773.47C926.381 775.79 918.551 778.88 911.131 782.77C903.711 786.66 896.551 791.61 888.961 795.52C880.831 799.7 872.261 802.14 863.131 802.74C854.001 803.34 844.531 802.45 835.291 801.5C825.971 800.54 816.671 799.71 807.301 799.41C797.931 799.11 788.291 799.22 778.811 799.77C760.211 800.84 741.691 803.52 723.581 807.87C721.301 808.42 719.031 808.99 716.761 809.59C716.131 809.76 716.401 810.73 717.031 810.56L717.051 810.54Z" fill="#8C6239"/>
<path d="M644.311 882C668.351 882.73 691.961 877.36 715.841 875.72C727.661 874.91 739.601 875.07 751.251 877.42C762.961 879.79 774.141 884.11 785.611 887.34C807.151 893.39 829.991 894.45 852.031 890.64C862.891 888.76 873.481 885.64 883.631 881.35C889.121 879.03 894.521 876.47 900.101 874.35C905.681 872.23 910.981 870.79 916.661 869.91C939.631 866.36 962.851 871.76 985.901 869.62C988.631 869.37 991.351 869 994.041 868.53C994.681 868.42 994.411 867.44 993.771 867.56C970.811 871.64 947.561 866.38 924.481 868.04C918.971 868.44 913.481 869.24 908.141 870.66C902.631 872.13 897.341 874.29 892.121 876.56C886.791 878.88 881.501 881.29 876.041 883.27C870.581 885.25 865.411 886.75 859.971 888.01C837.991 893.1 814.721 893.21 792.731 888.12C781.251 885.46 770.231 881.18 758.841 878.16C747.451 875.14 735.921 874.01 724.201 874.3C700.401 874.89 677.021 880.39 653.211 881C650.241 881.08 647.281 881.07 644.311 880.98C643.661 880.96 643.661 881.97 644.311 881.99V882Z" fill="#8C6239"/>
<path d="M629.051 898.42C642.361 896.81 655.681 895.19 668.991 893.58C682.301 891.97 695.191 890.25 708.381 889.51C721.571 888.77 734.781 889.23 747.821 891.66C754.141 892.84 760.401 894.3 766.701 895.57C773.001 896.84 779.511 897.92 785.961 898.78C798.841 900.5 811.831 901.38 824.831 901.41C837.741 901.44 850.761 900.69 863.371 897.73C875.981 894.77 887.551 890.04 899.951 887.3C912.221 884.58 924.771 883.34 937.321 882.83C962.661 881.8 988.021 883.7 1013.37 882.98C1016.51 882.89 1019.64 882.76 1022.77 882.58C1023.42 882.54 1023.42 881.53 1022.77 881.57C997.341 883.01 971.901 881.17 946.461 881.57C934.081 881.76 921.681 882.5 909.451 884.47C903.341 885.45 897.281 886.75 891.331 888.43C885.381 890.11 878.951 892.28 872.751 894.15C866.641 895.99 860.471 897.52 854.161 898.51C847.851 899.5 841.111 900.04 834.551 900.27C821.411 900.73 808.221 900.21 795.151 898.87C782.081 897.53 769.221 895.1 756.371 892.37C750.101 891.04 743.811 889.8 737.431 889.08C731.051 888.36 724.441 888.1 717.931 888.18C704.761 888.35 691.651 889.85 678.581 891.43C665.361 893.03 652.141 894.64 638.921 896.24C635.631 896.64 632.351 897.04 629.061 897.44C628.421 897.52 628.411 898.53 629.061 898.45L629.051 898.42Z" fill="#8C6239"/>
<path d="M627.251 913.68C652.741 908.58 678.661 905.7 704.651 905.01C730.571 904.33 756.461 905.93 782.141 909.51C807.371 913.03 833.261 917.76 858.651 912.91C871.101 910.53 882.861 905.67 895.081 902.43C907.311 899.18 919.921 897.7 932.541 897.11C957.871 895.93 983.221 898.21 1008.55 897.33C1011.68 897.22 1014.82 897.06 1017.95 896.84C1018.59 896.8 1018.6 895.78 1017.95 895.83C992.461 897.6 966.941 895.37 941.431 895.83C929.001 896.05 916.531 896.93 904.301 899.3C892.071 901.67 880.031 906.33 867.821 909.71C855.611 913.09 842.361 914.33 829.341 913.86C816.251 913.39 803.271 911.53 790.321 909.68C777.571 907.85 764.821 906.19 751.971 905.2C739.111 904.21 726.211 903.77 713.311 903.87C687.521 904.07 661.751 906.41 636.361 910.94C633.231 911.5 630.111 912.09 626.991 912.72C626.351 912.85 626.621 913.82 627.261 913.69L627.251 913.68Z" fill="#8C6239"/>
<path d="M620.24 924.281C634.58 922.661 648.92 921.04 663.26 919.42C677.6 917.8 691.74 916.05 706.03 914.89C720.32 913.73 734.44 913.421 748.68 914.251C762.61 915.061 776.48 916.7 790.33 918.36C817.97 921.66 845.8 924.89 873.62 921.79C887.57 920.23 901.35 917.48 915.23 915.45C929.11 913.42 943.73 912.03 958.06 911.16C986.45 909.44 1014.91 909.621 1043.34 910.021C1046.77 910.071 1050.2 910.12 1053.63 910.17C1054.28 910.17 1054.28 909.17 1053.63 909.16C1025.19 908.74 996.73 908.33 968.31 909.62C954.08 910.26 939.87 911.33 925.72 913.05C911.79 914.74 898 917.36 884.12 919.41C870.24 921.46 856.07 922.401 841.91 921.991C828 921.581 814.16 920.16 800.34 918.55C786.48 916.94 772.63 915.14 758.72 913.97C744.61 912.79 730.48 912.41 716.33 913.18C702.04 913.96 687.82 915.641 673.61 917.251C659.4 918.861 644.93 920.49 630.59 922.11C627.13 922.5 623.67 922.891 620.21 923.281C619.57 923.351 619.56 924.36 620.21 924.29L620.24 924.281Z" fill="#8C6239"/>
</g>
</g>
</svg>
